<?xml version="1.0" encoding="utf-8"?>
<!-- Generator: Adobe Illustrator 22.0.1, SVG Export Plug-In . SVG Version: 6.00 Build 0)  -->
<svg version="1.1" id="Layer_1" xmlns="http://www.w3.org/2000/svg" xmlns:xlink="http://www.w3.org/1999/xlink" x="0px" y="0px"
	 viewBox="0 0 342.3 474.6" style="enable-background:new 0 0 342.3 474.6;" xml:space="preserve">
<style type="text/css">
	.st0{fill:#F7F8F9;}
	.st1{fill:#E1BB31;}
	.st2{fill:#FFFFFA;}
</style>
<g>
	<g>
		<path class="st0" d="M212.4,137.7c7.9,0.3,8.1-12.1,0-11.9c1.5,0,2.7-0.6,3.7-1.5h-2.4c-1.3,0.5-2.8,0.6-4,0h-1.4
			c1.1,1,2.5,1.5,4.1,1.5c-5.9,0.2-4.6,6.6-4.9-1.5h-2.9c0.2,4.6,0.3,9.3,0,14c-0.6-5.7-2.1-10.2-4.1-14h-2.8
			c3.2,6.3,4.3,13.8,3.6,21.2c-2,20.1-18,38.7-45.1,27.9c-5.9-2.8-10.7-5.6-15.3-12.1c11.2,3.1,19.5-6.7,25.3-16.1
			c0.9-1.4,1.2,2.9,5.5,3.3c2.9,0.3,3.3-1.2,3.2-0.4c-0.8,7.7,10.9,8.8,11.6,1.1c0-0.2,8.3,3.7,9.3-4c0,0,0-0.1-0.1-0.3
			c0.1-0.2,0.1-0.3,0.1-0.3c0.5-7.7-8.3-5.5-8.3-5.7c0.8-7.7-10.9-8.8-11.6-1.1c-0.1,0.8-0.2-0.7-3.1-1c-4.3-0.4-5.4,3.8-6,2.2
			c-1.9-5.2-4.5-10.7-8-14.7H155c5,4.4,7.8,12,10,17.4c0,0.1-0.1,0.1-0.1,0.2c0,0.1,0.1,0.1,0.1,0.2c-4.5,6.8-10.8,17.6-20.7,17
			c-7.6-0.4-10.1-10.4-9-20.1c0.5-5.7,2.2-11.3,5-14.7h-3.2c-0.5,0.9-1,1.7-1.4,2.7c-0.1-2-0.3-2.2,0.4-2.7h-3.6
			c0.1,1.5,0.2,3.1,0.2,4.8c-3.6-0.2-6.9-2.1-9.1-4.8h-3.3c0.8,1.5,2,2.8,3.3,3.9c2.6,2.2,4.5,3.1,5.6,3.4c-1.2,0.3-3.1,1.2-5.7,3.4
			c-1,0.8-1.8,1.7-2.5,2.6c0.5,1,1.1,2.1,1.9,3.1c2.1,2.7,3.8,3.9,4.9,4.4c-1.2,0.1-3.2,0.6-6.2,2.2c-5.8,3.1-9.1,9.9-6.6,17
			c1,3.4,2.2,5.1,3.1,5.9c-1.1-0.4-3.2-0.7-6.7-0.3c-3.8,0.5-7,2.3-9.2,5c-0.7,3.4-0.1,7.1,1.8,10.3c1.9,3,3.4,4.4,4.4,5.1
			c-1.2-0.1-3.3,0-6.5,1.3c-7.1,2.5-10.3,9.3-9.1,15.8c0.6,3.4,1.4,5.2,2.1,6.2c-1.1-0.5-3.1-1.1-6.5-1.1c-1.3,0-2.5,0.1-3.6,0.4
			c-0.3,1.1-0.5,2.3-0.5,3.6c-0.1,3.4,0.4,5.4,0.9,6.5c-1-0.7-2.8-1.6-6.2-2.3c-6.4-1.3-13.3,1.8-16,8.8c-1.4,3.2-1.6,5.3-1.5,6.5
			c-0.6-1-2-2.5-5-4.5c-3.2-2.1-6.8-2.7-10.3-2.1c-2.7,2.2-4.7,5.3-5.2,9.1c-0.5,3.5-0.2,5.6,0.1,6.7c-0.8-0.9-2.5-2.1-5.9-3.2
			c-7-2.6-13.9,0.5-17.1,6.2c-1.7,3-2.3,4.9-2.4,6.1c-0.5-1.1-1.7-2.8-4.3-5c-1-0.8-2-1.5-3-2c-0.9,0.7-1.8,1.5-2.7,2.4
			c-2.3,2.6-3.2,4.4-3.5,5.6c-0.3-1-1-2.6-2.6-4.8l0,7.9c0,0.1,0,0.2,0,0.3c0,0,0,0,0,0l0,4.8c2.9-1.1,6.4-1.8,9.9-2
			c9.8-0.9,19.7,1.8,19.9,9.4c0.4,9.9-10.6,16-17.4,20.3c-0.1,0-0.1-0.1-0.2-0.1c-0.1,0-0.1,0.1-0.2,0.1c-3.5-1.5-8.1-3.3-12-5.9
			l0,3.2c2.9,1.7,6.1,3.2,9.2,4.4c1.6,0.6-2.6,1.6-2.3,6c0.2,2.9,1.7,3,0.9,3.1c-7.7,0.6-6.8,12.2,0.9,11.6c0.2,0-2.2,8.8,5.5,8.4
			c0,0,0.1,0,0.3-0.1c0.2,0,0.3,0,0.3,0.1c7.7-0.8,3.9-9.2,4.2-9.2c7.7-0.6,6.8-12.2-0.9-11.6c-0.8,0.1,0.7-0.3,0.4-3.2
			c-0.3-4.3-4.7-4.7-3.2-5.6c9.5-5.6,19.5-13.7,16.6-24.9c6.4,4.7,9.2,9.6,11.8,15.5C54,310.9,35,326.5,15,328.1
			c-5.1,0.4-10.2-0.1-15-1.6l0,3c2.3,0.8,4.9,1.4,7.7,1.7c-2.6,0.1-5.2,0.1-7.7,0l0,3.1c0.4-0.1,0.7-0.2,1.1-0.1
			c8.1,0.1,4.3,11.4-1.1,9.9l0,0.8c3.3,0.5,7-1.5,6.9-5.8c0.1,5.3,5.8,6.8,9.3,4.7c3.7,1.5,9.1-0.8,8.4-6.1c1.1,7.8,13.3,5.9,11.7-2
			c1.1,5.4,8.3,6.3,11,1.6c0.7-1.2,0.9-2,1-2.6c0.4,0.5,1.1,1,2.3,1.6c4.8,2.6,10.4-2.1,8.4-7.2c3.2,8.5,11.9,2,11.8-3.3
			c4,5.1,13.3-0.3,9.7-6.7c1.8,3.2,5.1,3.5,7.6,2.3c2.6-1.1,4.5-3.8,3.3-7.2c2.5,6.9,12.7,3.5,11.5-2.9c3.9,3.6,14.5,1.3,10.2-6.7
			c2.6,4.8,9.8,3.7,11-1.6c0.3-1.3,0.3-2.2,0.2-2.8c0.5,0.3,1.4,0.7,2.7,0.9c5.3,1.1,9.4-4.9,6.1-9.3c4.9,6.5,14.4-1.5,9.2-7.4
			c3.5,4,8.8,1.5,10.1-2.3c3.8-1.2,6.5-6.5,2.6-10.1c5.9,5.3,14-4.1,7.6-9.1c4.3,3.4,10.4-0.6,9.4-5.9c-0.2-1.3-0.6-2.1-0.9-2.7
			c0.6,0.1,1.5,0.1,2.8-0.2c5.4-1.1,6.6-8.3,1.8-11c7.9,4.5,10.5-6.1,6.9-10.1c6.4,1.3,10-8.8,3.1-11.4c3.5,1.3,6.2-0.5,7.3-3.1
			c1.3-2.5,1-5.8-2.2-7.7c6.3,3.7,12-5.4,6.9-9.6c5.3,0.3,11.9-8.3,3.5-11.7c5,2,9.9-3.4,7.4-8.3c-0.6-1.2-1.1-1.9-1.6-2.3
			c0.6-0.1,1.5-0.4,2.6-1c4.8-2.6,4-9.8-1.3-11c7.9,1.8,10.1-10.4,2.3-11.6c5.2,0.8,7.7-4.5,6.3-8.3
			C219.1,143.7,217.7,137.9,212.4,137.7z M176.2,148.3c0.4-3.8,5.6-6.4,8.7-1C187.2,154.4,175.5,155.4,176.2,148.3z M190.4,140
			c3,0.3,4.3,2.7,4,4.9c-0.2,2.2-1.9,4.3-4.9,4c-2.9-0.3-4.2-2.7-4-4.9C185.8,141.8,187.5,139.7,190.4,140z M177.2,138
			c0.7-7.1,12-3.8,8.4,2.6C181.5,145.4,176.9,141.8,177.2,138z M167.8,142.3c0-0.1,0-0.1,0-0.2c0.4-3.8,5.4-5.3,7.9-2.2
			c1,1.2,1.4,2.3,1.3,3.3c-0.1,1-0.7,2-1.9,3c-3,2.5-7.7,0.1-7.3-3.7C167.8,142.4,167.8,142.4,167.8,142.3z M9.6,259.2
			c-7.4-0.2-5.5-5.2-0.6-8.4C14.3,253.2,16.9,257.8,9.6,259.2z M7.9,303.9c3.8-0.3,7.3,4.4,2.5,8.4C3.9,315.8,0.8,304.4,7.9,303.9z
			 M14.4,321.2c-2.2,0.2-4.6-1.1-4.8-4.1c-0.2-2.9,1.9-4.6,4.1-4.8c2.2-0.2,4.6,1.1,4.8,4.1C18.8,319.5,16.7,321.1,14.4,321.2z
			 M18.2,303.1c7.1-0.5,5.8,11.1-1.1,8.7C11.7,308.6,14.4,303.4,18.2,303.1z M16.1,301.9c-1,1.2-2.1,1.7-3,1.8c-1,0-2.1-0.3-3.3-1.4
			c-3-2.6-1.4-7.6,2.4-7.8c0.1,0,0.1,0,0.2,0c0.1,0,0.1,0,0.2,0C16.4,294.2,18.7,298.9,16.1,301.9z M216,128.3
			c6.9,6.7-8.4,12.9-8.3,3.5C207.7,127.6,212.9,125.3,216,128.3z M207.6,135.1c1,1.5,2.8,2.6,4.8,2.6
			C206.3,137.5,207.4,144.5,207.6,135.1z M210.7,155.4c-2-0.3-3.9,0.4-5.2,1.7C207.1,147.8,204.7,154.4,210.7,155.4z M208.4,167
			c-1.9-0.4-3.9,0.1-5.3,1.3C205.4,159.3,202.4,165.6,208.4,167z M203.2,153.2c-3.2,21.8-11.1,41.9-22.6,59.4
			c-6.4,19.9-17.1,38.6-32.1,54.8c18.5-27.7-8.7-47-3.9-46.2c12,2,23.9-2.1,32.1-10.5c1.4-11.6-2.8-23.5-11.9-31.6
			C161.2,175.9,193.2,185,203.2,153.2z M201.4,174.7c1.1,3.2,4.2,3.8,3.9,3.8C199.5,176.7,198.7,183.6,201.4,174.7z M201.3,189.6
			c-1.8-0.7-3.8-0.5-5.4,0.5C199.5,181.5,195.6,187.3,201.3,189.6z M193.2,196.1c0.3,1.8,0.9,3,1.7,3.8
			C190.7,199,189.6,203.7,193.2,196.1z M190.8,210.9c-1.6-1-3.6-1.1-5.5-0.3C190.4,202.4,185.5,207.7,190.8,210.9z M182,217.6
			c0.6,2,1.9,3.4,3.7,4.1C179.8,219.5,178.8,226.6,182,217.6z M179.7,231.7c-1.1-0.1-2.5,0.2-4.1,1.1
			C179.3,225.1,176.3,228.9,179.7,231.7z M172.6,238.6c0.2,1.8,1.3,3.5,3,4.5C170.3,240.1,168.2,246.9,172.6,238.6z M169.5,253.2
			c0.2,0.2-2.2-1.8-5.4-0.7C169.4,244.9,164.4,249.8,169.5,253.2z M160.2,257.9c0,1.8,0.8,3.7,2.3,4.9
			C157.7,259.1,154.6,265.4,160.2,257.9z M152.9,266.8c-0.2,1.8,0.5,3.7,2,5.1C150.4,267.8,146.7,273.8,152.9,266.8z M174.3,209.6
			c-8.6,9.4-22.1,13.9-38.2,6.1c-5.8-3.2-10.6-6.6-14.8-13.9c8.4,3.4,15.5-1,21.4-7.3c1.2-8.5,0.2-16.8-7.7-21.2
			c8.3-1.4,14,0.3,20.1,2.8C171.3,183.6,176.3,197,174.3,209.6z M113,195.8c1.3,1.4,2.6,2.5,4.2,3.7c3.5,8.3,6.7,11.2,7.9,12
			c-1.3-0.5-5.3-1.4-13.5,0.1C101.9,207.9,105.3,215.1,113,195.8z M106.6,212.9c-1.2,0.4-2.4,0.9-3.6,1.4
			C104.6,212.1,103.9,212.4,106.6,212.9z M115.5,194.5c-0.2-0.2-0.4-0.3-0.6-0.5C114.2,193.2,114.4,190.1,115.5,194.5z M139.6,193
			c-15.3,14.7-24.1,6.4-22.2-10.6C129.5,170.2,141.5,171.9,139.6,193z M124.9,173.1c0.3,0,0.5,0.1,0.8,0.1
			C121.5,175.1,123.8,173,124.9,173.1z M133.3,151c0.3,1.3,0.7,2.5,1.1,3.7C132.4,153,132.6,153.7,133.3,151z M136.6,159.5
			c4,7.3,7.2,9.9,8.4,10.6c-1.4-0.4-5.7-1.1-14.4,1.4c-1.9-0.5-3.6-0.8-5.5-1C135.4,152.3,127.6,154.3,136.6,159.5z M124.2,138
			c3.3-4.8,8.2-6.6,8.3,0.8C131,146,126.4,143.4,124.2,138z M117,159.5c0-7.1,7.1-12.2,13.8-11.2C122.9,183.3,116.9,164.1,117,159.5
			z M106.4,184c-1.5-2.4-1.8-5-1.3-7.5c1.7-1.9,3.9-3.3,6.7-3.7c3-0.3,5.6,0.2,7.8,1.4c-1.8,2.7-3.5,4.9-5,6.8
			c-0.5,2.4-1.2,5.1-2.2,8.2C110.1,188.2,108.1,186.5,106.4,184z M99.4,196.3c3.6-2.9,22.3-10.3-0.1,17.8
			C94.3,209.5,93.9,200.8,99.4,196.3z M87.1,215.4c5.6-1.6,10.5,0.3,5.9,6C87.2,225.9,85.4,220.9,87.1,215.4z M94.9,223.4
			c6.9-7,16.2-11.3,21.3-5.6c6.6,7.3,2.2,19-0.3,26.8c-0.1,0-0.1,0-0.2,0.1c0,0.1,0,0.1-0.1,0.2c-7.8,2.3-19.6,6.5-26.8-0.3
			C83.3,239.3,87.8,230.1,94.9,223.4z M132.5,256.9c-6.2,1-7.4-4.8-4.7-7.4C132.9,244.5,139.4,254.3,132.5,256.9z M136.6,259.5
			c2.1,2.2,1.5,4.8-0.1,6.3c-1.6,1.6-4.2,2.1-6.3,0c-2.1-2.1-1.5-4.7,0.1-6.3C131.9,257.9,134.5,257.4,136.6,259.5z M127.7,261.6
			c-2.7,6.8-12.4,0.1-7.3-4.9C123.1,254.1,128.8,255.4,127.7,261.6z M124.3,253.3c-0.7,0.7-1.8,1.1-3.4,1.1c-3.9,0-6-4.9-3.2-7.5
			c0-0.1,0.1-0.1,0.1-0.1c0,0,0.1-0.1,0.2-0.1c2.7-2.7,7.5-0.6,7.5,3.4C125.4,251.5,124.9,252.6,124.3,253.3z M114.7,247.9
			c1.6-0.5-1,3,2.1,6.1c2,2,3.3,1.2,2.7,1.8c-5.5,5.4,2.6,13.8,8.2,8.3c0.2-0.2,4,8.2,9.7,2.9c0,0,0.1-0.1,0.2-0.3
			c0.2-0.1,0.2-0.2,0.3-0.1c5.4-5.6-2.9-9.6-2.7-9.7c5.5-5.4-2.7-13.7-8.2-8.4c-0.6,0.6,0.3-0.7-1.7-2.7c-3-3.1-6.6-0.6-6-2.2
			c3.7-10.4,6.2-23-3.3-29.8c7.9-0.6,13.2,1.5,19,4.3c25.4,14.4,20.9,38.5,6.5,52.6c-14.4,14.1-38.6,18.1-52.5-7.6
			c-2.7-5.9-4.6-11.2-3.9-19.1C91.5,253.6,104.2,251.4,114.7,247.9z M142.2,284.3c-1.3-1.5-3.2-2.2-5.1-2.1
			C144.3,276.2,138.2,279.7,142.2,284.3z M84.3,234.8c-0.5-2.7-0.8-1.9,1.5-3.6C85.2,232.4,84.7,233.6,84.3,234.8z M67.8,227.2
			c4.6-5.4,13.3-4.8,17.8,0.3C57,249.3,64.8,230.7,67.8,227.2z M82.4,253.3c-0.8-1.3-3.7-4.5-11.9-8.2c-1.1-1.7-2.3-2.9-3.6-4.3
			c19.5-7.3,12.4-10.8,15.9-1.1C81.2,248,82,252,82.4,253.3z M65.1,242.7c0.2,0.2,0.3,0.4,0.5,0.6C61.3,242.1,64.3,242,65.1,242.7z
			 M63.6,267.4c-21.1,1.4-22.6-10.6-10.1-22.4C70.5,243.5,78.6,252.5,63.6,267.4z M44,239.2c0.4-2.8,1.9-5,3.8-6.6
			c2.5-0.4,5.1,0,7.5,1.5c2.5,1.7,4.2,3.7,5.1,6.1c-3.1,0.9-5.8,1.5-8.2,2c-1.9,1.5-4.2,3.1-6.9,4.9C44.1,244.8,43.6,242.2,44,239.2
			z M44.2,253c0-0.3-0.1-0.5-0.1-0.8C44,251.2,46.1,249,44.2,253z M30.6,244.1c4.6,0,23.7,6.4-11.5,13.6
			C18.3,250.9,23.6,244,30.6,244.1z M21.8,260.2c2.7-0.6,2-0.9,3.7,1.2C24.3,261,23,260.6,21.8,260.2z M40.6,272.3
			c-0.7-1.2-3.2-4.5-10.4-8.6c-5-9.1-7.1-1.3,11.2-11.2c0.1,1.9,0.4,3.6,0.9,5.5C39.6,266.5,40.2,270.9,40.6,272.3z M46.3,282.5
			c-2.3-6.2-3.9-11.9-2.3-20.2c4.3,8,12.5,9.2,21.1,8.1c6.4-5.7,11-12.7,7.8-21.2c7.3,4.3,10.5,9.2,13.6,15.1
			c7.5,16.3,2.7,29.7-6.9,38.1C66.9,304.1,53.6,298.9,46.3,282.5z M4.3,334.2c9.4,0,2.5-1.2,2.5,4.8C6.8,337,5.8,335.3,4.3,334.2z
			 M22.6,341.3c-2.2,2.9-4.8,2.6-6.5,1.1c-1.5,1.7-4,2.4-6.6-0.1c-3-2.8-1.2-8.1,3.2-8.4c1.2,0,2.1,0.2,2.8,0.6
			c0.7-0.5,1.6-0.8,2.7-1C22.5,333.1,25.1,338.1,22.6,341.3z M24.6,337.7c-0.8-6-7.5-3.8,1.8-5.2C25.1,333.8,24.3,335.7,24.6,337.7z
			 M34.5,339.5c-5.4,7.9-14.2-6-4.9-7.5C33.7,331.3,36.9,336,34.5,339.5z M36.3,335.6c-1.3-6-7.7-3.2,1.4-5.2
			C36.4,331.8,35.9,333.7,36.3,335.6z M46.4,336.7c-4.7,8.4-14.7-4.5-5.5-7.1C44.9,328.6,48.4,333.1,46.4,336.7z M47.8,332.8
			c0,0.2-0.5-2.8-3.7-4C53.1,326.3,46.1,326.9,47.8,332.8z M57.8,333.1c-4.2,8.8-14.9-3.9-6-6.7C55.9,325.1,59.7,329.3,57.8,333.1z
			 M59,329c-2.2-5.8-8.1-1.9,0.6-5.4C58.6,325.2,58.3,327.1,59,329z M60,328.6c-2.2-5.9,6.2-9.5,9-3.7
			C71.7,330.8,62.3,334.8,60,328.6z M69.4,322.8c-0.8-0.8-2.1-1.4-3.8-1.8C73.4,317.6,68.6,318.6,69.4,322.8z M80,323.2
			c-2.7,9.4-15.5-1.5-6.9-5.7C76.7,315.6,81.1,319.1,80,323.2z M80.2,313.5c-0.8,1.9-0.7,3.8,0.2,5.5
			C77.4,313.6,72,318.3,80.2,313.5z M87.7,320.4c-3.3,1.4-8-0.9-6.8-5.6c0.4-1.8,1.5-2.8,2.7-3.3c1.2-0.6,2.7-0.7,4.3,0.2
			C92.2,313.8,90.9,318.9,87.7,320.4z M91.3,314.1c-0.6-1.8-2-3.2-4-3.8C96.4,307.3,89.3,308.2,91.3,314.1z M94.8,316.4
			c-3.9-1.8-3.6-7.5,0.3-8.9C103.9,303.8,103.7,320.6,94.8,316.4z M101.5,308.3c-2.7-3.4-6.5-0.5,1.2-4
			C101.8,305.8,101.5,307.1,101.5,308.3z M103.4,309.3c-2.6-5.9,5.7-9.8,8.7-4.3C115.2,310.8,106,315.2,103.4,309.3z M108.6,301.4
			c8.4-4.3,1.6-2.3,4.5,3.1C112.1,302.8,110.4,301.7,108.6,301.4z M82.4,308.8c-17.7,11.1-38,18.6-59.8,21.4
			c32-9.4,23.6-41.6,26.7-37.9c7.9,9.3,19.7,13.8,31.4,12.6c8.6-8,13-19.9,11.2-31.9c-0.7-4.8,18,22.7,46.1,4.8
			C121.4,292.5,102.4,302.8,82.4,308.8z M116.9,306.3c-4.1-1.2-4.8-6.7-1.1-8.9C123.8,292.5,126.2,309,116.9,306.3z M122.7,293.1
			c-1.2,3.2,0.7,5.6,0.6,5.4C119.9,293.4,114.9,298.2,122.7,293.1z M127.1,300c-4.1-0.8-5.1-6.5-1.7-8.8
			C133.4,286,136.6,302,127.1,300z M128.1,289.3c7.6-5.5,1.2-2.5,4.8,2.4C131.8,290.2,130,289.3,128.1,289.3z M137.1,293
			c-4.3-0.5-5.7-6-2.4-8.7C141.9,278.3,146.6,294.1,137.1,293z M155.7,276c0.1,3.6-2,5.1-4.3,5.1c-0.1,2.3-1.5,4.4-5.2,4.2
			c-4.1-0.2-6.1-5.5-3-8.5c0.9-0.8,1.7-1.2,2.5-1.4c0.2-0.8,0.7-1.6,1.4-2.5C150.3,269.7,155.6,271.9,155.7,276z M163.7,267
			c0.9,9.6-14.7,4.5-8.6-2.6C157.8,261.1,163.2,262.7,163.7,267z M162.2,255.2c2.4-3.4,8-2.2,8.8,1.9
			C172.7,266.6,156.7,263.2,162.2,255.2z M177.4,247c2.4,9.4-13.9,6.6-8.9-1.3C170.8,242.1,176.4,242.9,177.4,247z M176.2,242.2
			c-5.5-3.1-1.4-11.3,4.5-8.6C186.5,236.3,182,245.4,176.2,242.2z M188,225.2c4,9-12.8,8.8-8.9,0.1
			C180.6,221.5,186.3,221.3,188,225.2z M192.1,218.1c-1.6,3.2-6.7,4.4-8.8,0c-0.8-1.6-0.7-3.1-0.1-4.3c0.5-1.2,1.6-2.2,3.4-2.6
			C191.4,210.1,193.6,214.9,192.1,218.1z M195,210.5c-4.1,1.1-7.5-3.4-5.5-7C193.8,195,204.5,207.9,195,210.5z M197,199.5
			c-5.7-2.9-1.9-11.2,3.9-8.9C207,193.1,202.8,202.4,197,199.5z M205.4,188.6c-3.9,1.7-8-2.1-6.6-6.1
			C201.8,173.6,214.3,184.5,205.4,188.6z M209.2,177.1c-3.7,2-8.1-1.7-7-5.6C205,162.3,217.7,172.6,209.2,177.1z M212.3,165.3
			c-3.6,2.4-8.2-0.9-7.4-5.1C206.6,151,220.4,160.1,212.3,165.3z M214.4,153.5c-3.3,2.4-8.2-0.3-7.7-4.6c0.2-1.2,0.6-2,1.1-2.7
			c-0.4-0.7-0.5-1.7-0.5-2.9c0.3-4.3,5.7-6,8.5-3c2.4,2.7,1.7,5.2,0,6.6C217.1,148.8,217.3,151.3,214.4,153.5z"/>
		<path class="st0" d="M114.1,124.4h-1.5c0.4,3.9,0.4,8.1,0,12.5c-1.5,15.4-7.5,27.2-16,35.5C95.4,184.2,90,196.2,79,207
			c-11,10.8-23.2,16-35.1,16.9c-8.5,8.3-20.4,14.1-35.8,15.3c-2.8,0.2-5.5,0.2-8.1,0.1l0,1.5c2.7,0.1,5.5,0.1,8.2-0.1
			c13.4-1,26.5-6.1,36.5-15C58,224,70.4,217.5,80,208.1c9.6-9.4,16.4-21.7,18.3-35c9.1-9.8,14.5-22.8,15.8-36.1
			C114.5,132.8,114.5,128.6,114.1,124.4z"/>
		<path class="st0" d="M107.1,124.4h-1.5c1.6,3.9,2.1,8,1.8,12c-0.6,6-3.3,11.8-8,16.2c0.2-6.1-1.6-12.3-5.7-17.5
			c3.4-3,5.9-6.6,7.5-10.6h-0.9c-1.1,2.9-3.5,6.1-7.5,9.6c-9.5-11-11.3-4.2-10.3-9.6h-2c0.1,0.5,0.2,1,0.4,1.7
			c-1.4-0.5-2.8-0.8-4.3-1c0.2-0.2,0.5-0.4,0.7-0.6h-2.5c-3,1.3-5.5-1.2-14.3,3.2c0.7-0.9,1.3-2,1.9-3.2h-1.4
			c-1.1,1.9-2.5,3.6-4.2,5.2c0.3-1.8,0.8-3.5,1.5-5.2H55c0.3,1.6,0.4,3.3,0.4,5c-1.1-1.6-2-3.3-2.8-5h-1.5c0.3,0.7,0.7,1.5,1.1,2.4
			c-1.1-0.8-2.5-1.6-4.1-2.4h-2.6c3.2,1.3,6.2,3.3,8.8,6c-4.8-0.8-9-3-12.5-6h-2.1c3.2,3.5,5.8,5.3,7.6,6.1c0,0,0,0,0,0c0,0,0,0,0,0
			c-2.2,0.5-5.7,2.1-10.5,6c-6.6-0.7-6.7-1.3-6.1-7.6c0.2-2,0.4-3.4,0.7-4.4h-1.2c-0.4,1.4-0.7,2.8-0.8,4.3
			c-0.2,1.9-0.2,3.9,0.1,5.8c-6.3-2.7-8.5-4.9-8.3-6.6c0.1-1.2,1.4-2.4,4.4-3.5h-3.1c-1,0.7-2,1.5-3.1,2.4c-0.6-0.8-1.2-1.6-1.7-2.4
			H16c0.6,1.1,1.3,2.2,2.1,3.2c-1.7,1.5-3.2,3.2-4.5,5c-0.6,2.1-1,4.4-1.1,6.7c-2.3,0-4.5,0.3-6.7,0.9c-1.9,1.2-3.6,2.7-5.1,4.4
			c-0.3-0.2-0.5-0.4-0.8-0.6l0,3.7c0.3-0.2,0.7-0.4,1-0.4c1.8-0.2,3.9,2.1,6.5,8.5c-1.9-0.3-3.9-0.3-5.8-0.2c-0.6,0-1.1,0.1-1.7,0.2
			l0,1.3c0.5-0.1,1.1-0.1,1.8-0.2c6.3-0.5,6.9-0.4,7.5,6.2c-4,4.8-5.6,8.2-6.2,10.4c0,0,0,0,0,0c0,0,0,0,0,0
			c-0.5-1.2-1.5-2.8-3.1-4.7l0,3.3c1.4,2.5,2.4,5.4,2.8,8.4c-1.1-1-2-2.2-2.8-3.3l0,3.3c0.6,0.4,1.2,0.8,1.8,1.2
			c-0.6,0-1.2,0-1.8-0.1l0,2c0.6-0.1,1.3-0.3,1.9-0.4c-0.6,0.6-1.3,1.2-1.9,1.8l0,4.8c0.8-1.9,1.8-3.8,3.1-5.6
			c0,4.4-1.1,8.6-3.1,12.3l0,2.8c2.7-3.6,4-6.3,4.4-8.2c0.9,2.1,3,5.2,7.7,9.3c0.5,6.6-0.1,6.8-6.4,7.3c-3,0.2-4.7,0.3-5.7-0.3
			l0,1.5c2,0.3,3.9,0.3,5.8,0.2c1.9-0.1,3.8-0.5,5.7-1.1c-1.4,5.8-3,9.2-5.1,9.4c-2,0.1-4.2-2.9-6.4-8.5l0,3.8
			c0.9,1.6,2.5,3.7,5.6,6.5c-2,2.2-3.8,3.8-5.6,5.1l0,1.1c2.4-1.4,4.7-3.1,6.7-5.3c5.1,4.1,11.2,6.1,17.4,6
			c-4.5,4.6-10.3,7.2-16.3,7.7c-2.6,0.2-5.2,0-7.7-0.6l0,1.4c2.6,0.6,5.2,0.8,7.8,0.6c6.8-0.5,13.3-3.6,18.1-9.1
			c6.2-0.5,11.6-3.1,15.9-7c5.7-0.6,11.2-3.1,15.7-7.3c7.3,0,14-2.9,18.8-7.6c4.8-4.7,7.9-11.3,8-18.6c4.4-4.4,6.9-9.8,7.7-15.5
			c4-4.1,6.6-9.6,7.3-15.7c5.6-4.7,8.8-11.2,9.5-17.9C109.2,132.5,108.6,128.3,107.1,124.4z M82.7,134c0.2-1.9,0.2-3.8-0.1-5.8
			c5.5,2.3,8.5,4.6,8.4,6.6c-0.2,2-3.6,3.7-9.5,4.9C82.1,137.7,82.5,135.8,82.7,134z M75.3,126.2c6.6,0.7,6.7,1.3,6.1,7.6
			c-0.6,6.3-0.8,6.9-7.4,6.3c-4-4.8-7.1-7-9.2-7.9C66.9,131.7,70.4,130.1,75.3,126.2z M47.3,184.7c0-6.2-1-9.9-2-12
			c2,1,5.7,2.1,11.9,2.2c4.6,4.8,4.3,5.3-0.2,9.7C52.5,189.1,52,189.4,47.3,184.7z M50.7,189.2c-5.6,2.8-3.8,1.6-3.5-2.7
			C48.3,187.5,49.5,188.4,50.7,189.2z M28.3,189.6c-0.2,0.6-0.6,1.5-1.1,2.8c-0.9-1.2-1.9-2.2-2.9-3.3c1.7-0.2,2.8-0.6,3.5-0.7
			c0.5-0.4,1.6-1.1,2.9-2.2c0.1,1.5,0.2,2.9,0.5,4.3C29.9,190.2,28.9,189.9,28.3,189.6z M19.9,203.9c3.1-2.4,5.7-5.4,7.5-8.8
			C33.5,205,32.3,209.3,19.9,203.9z M30.6,184.5c-1.4,1.4-2.5,2.3-3.3,2.8c-1,0.3-2.4,0.5-4.3,0.7c-4.8-4-8.2-5.6-10.4-6.2
			c2-0.8,5-2.9,8.9-7.3c5.9-0.1,9.4-1,11.4-1.9C31.8,174.6,30.8,178.3,30.6,184.5z M38.4,168.3c-0.5,5.6-2.8,10.7-6.3,14.7
			C32.5,177.5,34.7,172.4,38.4,168.3z M22.6,159.4c5.3,0.4,10.5,2.5,14.7,6.3C31.7,165.2,26.6,162.9,22.6,159.4z M32.4,149.7
			c3.4,4.1,5.6,9.2,6,14.8C34.8,160.2,32.8,155,32.4,149.7z M33,160.1C33,160.1,33,160.1,33,160.1C33,160.1,33,160.1,33,160.1
			c-2-1-5.7-2.1-11.9-2.2c-4.6-4.8-4.3-5.3,0.2-9.7c4.5-4.4,5-4.7,9.7,0C31,154.4,32,158.1,33,160.1z M19.3,157.9
			c-1.5,0.1-2.9,0.2-4.4,0.5C16.9,152.5,16.4,154.7,19.3,157.9z M33.2,166.4c-9.2,2-9.9,5.3-12.6,6.3c-2.6,1.4-5.5-0.3-13.1,5.3
			c2.8-5.3,3.1-17,7.2-18.2C18.4,157.5,27.4,165,33.2,166.4z M37.3,167.2c-4.3,3.7-9.5,5.6-14.9,6C26.6,169.6,31.8,167.5,37.3,167.2
			z M19.8,174.3c-3.8,3.8-8.7,6.4-14.3,7.3C9.4,177.7,14.4,175.1,19.8,174.3z M20.9,188.1c-5.3,0-10.7-1.6-15.2-5
			C11.2,183.1,16.4,184.8,20.9,188.1z M33.1,192.6c3.8,0.9,7.8,0.9,11.6,0.1C40.5,205.5,36.4,203.6,33.1,192.6z M37.8,203.4
			c-0.8,0.7-1.6,1.4-2.3,2c-1,0.2-2,0.3-3,0.4c-0.4-4.1-0.8-7.3-1.2-9.8C32.9,197.9,35,200.4,37.8,203.4z M39.1,172.3
			c2.9,13.4,8.6,8.7,6,18.9C21.2,196.9,37,181,39.1,172.3z M39.9,168.3c3.6,4.3,5.6,9.5,6,14.9C42.4,179.1,40.3,173.9,39.9,168.3z
			 M65.4,160.9c11,3.6,12.8,7.7-0.1,11.6C66.2,168.7,66.2,164.7,65.4,160.9z M62.2,152c1,1.1,2.1,2.1,3.2,3
			c-1.3,0.5-2.2,0.9-2.8,1.1c0.2,0.6,0.5,1.5,1,2.9c-1.4-0.3-2.9-0.5-4.3-0.6c1.1-1.2,1.8-2.3,2.2-2.8C61.5,154.8,62,153.7,62.2,152
			z M59.7,135.9c10.8,8.4,12.2,1.1,16.7,10.6C61.8,166.2,63.7,143.9,59.7,135.9z M63.8,172.9c-10.2,2.4-5.4-3.2-18.7-6.4
			C53.8,164.6,70,149.1,63.8,172.9z M61.7,178.4c-0.8-1.3-1.7-2.4-2.6-3.5C63.4,174.7,64.6,172.9,61.7,178.4z M55.7,173.5
			c-5.3-0.4-10.5-2.5-14.7-6.3C46.6,167.7,51.7,170,55.7,173.5z M41,165.7c4.2-3.6,9.4-5.6,14.9-6C51.8,163.1,46.7,165.3,41,165.7z
			 M39.9,164.6c0.4-5.5,2.6-10.6,6.3-14.7C45.8,155.1,43.7,160.3,39.9,164.6z M58,185.6c1.3-1.3,2.6-2.8,3.7-4.5
			c2.7,5.3,3.6,9,2.1,10.5c-1.5,1.4-5.1,0.5-10.4-2.4C55.1,188.1,56.6,186.9,58,185.6z M76.1,167.8c9.5,10.2,10.5,24.1-10.4,24.4
			C65.4,171.5,53.8,188.5,76.1,167.8z M68.9,159.1c2.5,0.4,5.6,0.9,9.8,1.4c-0.1,1.1-0.3,2.1-0.5,3c-0.6,0.7-1.3,1.5-2.1,2.3
			C73.2,163,70.8,160.8,68.9,159.1z M68.1,155.3c3.5-1.8,6.5-4.3,9-7.4C82.1,160.4,77.8,161.6,68.1,155.3z M75,141.5
			c1.5,0.1,2.9,0,4.4-0.2C77,147.1,77.6,145,75,141.5z M73.2,126.1c-4.4,3.1-9.7,4.8-15.3,4.7C62.5,127.5,67.9,126,73.2,126.1z
			 M71.9,139.8c-5.3-0.9-10.2-3.4-14.1-7.5C63.3,133.2,68.2,136,71.9,139.8z M61.2,148.6c-3.2-4.5-4.8-9.8-4.7-15.3
			C59.8,137.9,61.3,143.3,61.2,148.6z M61.1,150.7c-0.2,2-0.4,3.3-0.8,4.3c-0.5,0.9-1.5,1.9-2.9,3.3c-6.3,0-9.9,1-12,2
			c1-1.9,2-5.4,2.2-11.3c4.5-3.8,6.6-6.8,7.5-8.8C55.6,142.3,57.1,145.8,61.1,150.7z M55,133.1c-1,5.6-3.7,10.5-7.6,14.1
			C48.4,141.8,51,136.9,55,133.1z M54,131.9c-4.6,3.3-10,4.8-15.3,4.7C43.1,133.5,48.4,131.8,54,131.9z M51.4,135.1
			c-5.8,7.4-4.2,10.4-5.6,13c-1.1,2.7-4.5,3.3-6.6,12.5c-1.3-5.9-8.6-15-6.2-18.6C34.3,137.8,46,137.8,51.4,135.1z M35.3,137.6
			c-1.1,1-2.1,2.1-3,3.2C30,135,31,137,35.3,137.6z M31.7,142c-0.3,1.4-0.5,2.9-0.6,4.4C27.9,143.4,25.7,143.8,31.7,142z
			 M14.8,133.2c1.2-1.6,2.6-3.1,4.3-4.5c6,6.9,9.3,10.2,11,11.8c-2.3-0.2-6.9-0.8-16.1-1.2C14,137.2,14.3,135.1,14.8,133.2z
			 M14.5,141.3c1.2-1.2,4.3-0.9,10.4,2.3c-1.7,1-3.2,2.2-4.6,3.6c-1.4,1.4-2.6,2.9-3.7,4.5C13.6,145.6,13.3,142.5,14.5,141.3z
			 M13.7,159c-1.2,0.9-2.3,1.9-3.3,2.9C9.9,157.6,7.9,156.6,13.7,159z M1.8,145.5c1.4-1.6,3-3,4.6-4.2c1.9-0.4,4-0.7,6.2-0.7
			c0.1,9.2,0.6,13.8,0.8,16.1C11.8,155.1,8.7,151.7,1.8,145.5z M4.4,180.6c0-5.6,1.8-10.9,5-15.2C9.3,170.7,7.7,176,4.4,180.6z
			 M4.6,184.3c4,4,6.4,9,7.2,14.3C8.1,194.8,5.5,189.9,4.6,184.3z M8.2,186.3c7.9,4.2,30.2,2.7,10.3,16.9
			C9.1,198.6,16.4,197.3,8.2,186.3z M13.3,206.2c0.2-1.5,0.3-2.9,0.2-4.4C16.9,204.4,19.1,203.8,13.3,206.2z M7.5,219.3
			c13.1-16.1-6.8-10.5,23.7-12C31.9,221.2,23.8,232.5,7.5,219.3z M41.2,218c-3.7,3.5-8.6,6-14.1,6.7c3.7-4.9,5.7-11,5.4-17.6
			c1.2-0.1,2.3-0.3,3.5-0.6c0.9-0.7,1.9-1.4,2.7-2.2c4.7,4.6,10.7,7.1,16.8,7.5C51.4,215.5,46.3,217.5,41.2,218z M39.7,203.4
			c21.2-21.9,3.9-10.7,24.6-9.9C63.6,214.5,49.8,213.2,39.7,203.4z M75.3,203.4c-4.3,4.2-10.1,6.9-16.5,7.2c4.1-4.5,6.7-10.5,6.9-17
			c6.6-0.1,12.5-2.5,17.2-6.5C82.4,193.4,79.6,199.2,75.3,203.4z M90.7,169.5c-0.6,5.1-2.7,10.1-6.4,14.2
			c-0.3-6.1-2.7-12.1-7.2-16.9c0.8-0.9,1.6-1.8,2.3-2.7c0.3-1.1,0.5-2.3,0.7-3.5c6.5,0.5,12.7-1.4,17.7-5
			C96.9,161.1,94.3,165.9,90.7,169.5z M80.2,159.3c2.2-30.4-3.9-10.7,12.5-23.4C105.6,152.4,94.1,160.3,80.2,159.3z"/>
		<path class="st0" d="M326.6,156c-7.2-4.1-16.4-18.3-27.9-31.6h-5.4c11.7,12.7,21.3,27.3,28.2,32.9c-20.1,10.8-68.5,75-102.2,19
			c4-14.6-0.3-4.5,4.1,1c3.2,4,14.4,4.7,10-13c17.2,30.2,39.2,12,7.7-9.3c10.7,4.2,29.6,10.3,33.1-0.7c8.4,13.9,18.5,14.2,28.1,2.6
			c0.3,2.6,1.9,4.6,4.2,4.9c4.8,0.6,6-2.3,5.4-5.4c1.2-2.9,0.5-5.9-4.3-6.3c-2.3-0.2-4.3,1.5-5,4c-7.2-13.3-17.2-15-28.1-2.9
			c-1.3-11.5-21-9.2-32.3-7.1c16.1-6.8,21-15.1,19.3-19.6h-3.1c1.2,1.9,1.1,4.8,0.7,5.6c-3.8,7.8-23.4,14.7-30.8,16.8
			c10.3-13.2,17.3-19.7,22-22.4h-3.7c-3.1,2-6.6,4.9-10.1,9c1.7-3.7,2.5-6.7,2.6-9h-1.8c-0.5,6.6-7.5,17.3-10.8,21.5
			c-0.2-10.8,0.6-17.5,1.9-21.5h-2.5c-0.7,2.4-0.4,3.6-0.6,0h-5.2c0.5,7.5,0.6,15.2,0.1,23c-3.5,27.5-14,52.1-25.9,71.7
			c-7.8,21.6-20.4,45.2-39.6,65.2c-20.4,18.8-44.2,30.9-66,38.3C68.8,334.1,44,344.1,16.4,347c-5.5,0.3-11,0.2-16.4-0.1l0,6.5
			c3.8-0.4,8.6-0.5,14.7-0.2c-2.9,2.2-9.1,6.2-14.7,8.5l0,2.1c0.7-0.3,1.3-0.5,2-0.8c-0.7,0.6-1.4,1.2-2,1.8l0,3.4
			c3.7-3.6,8.8-7.9,15.7-13c-2,6.8-8.4,24-15.7,29.4l0,1.7c4-2.7,8.5-8.1,12.6-17.2c-2.3,11.3-5,30.9,6.5,32.5
			c-12.3,10.7-10.8,20.7,2.3,28.2c-2.5,0.7-4.2,2.7-4.1,5c0.3,4.8,3.3,5.5,6.2,4.4c3.1,0.6,5.9-0.5,5.5-5.3c-0.2-2.3-2.3-4-4.8-4.3
			c11.8-9.4,11.7-19.5-2-28.2c11.1-3.3,5.4-22.2,1.4-33.1c20.6,31.9,39.3,10.3,9.5-7.5c17.6,4.7,17.1-6.5,13.2-9.8
			c-5.4-4.5-15.6-0.4-0.9-4.1c55.4,34.8-9.9,81.9-21.1,101.8C19.9,443,10.1,435.7,0,427l0,5.2c10.2,8.5,19.6,15.6,22.8,21.4
			c1.4,2.5,1.8,3.8,2.2,3.8c0.3-0.1,0.6-1.4,1.5-4.1c5.8-16.2,52.4-47.8,43.7-82.2c8.9,19.5,32.9,25.5,53.8,29.2
			c10.9-18.1,22.2-40.2,13.4-59.7c20.2,29.2,74.7,14.9,90.6,21.2c2.7,1.1,3.8,1.7,4.1,1.6c0.2-0.3-0.5-1.5-1.5-4.1
			c-6-16.1,9.5-70.3-19.3-91.1c19.3,9.2,41.6-1.6,60-12.2c-3.3-20.9-8.8-45-28.1-54.4c34.2,9.4,66.8-36.6,83.1-42
			c2.7-0.9,4.1-1.1,4.1-1.5C330.4,157.9,329.1,157.4,326.6,156z M301.1,155.3C301.1,155.3,301.1,155.3,301.1,155.3
			C301.1,155.4,301.1,155.4,301.1,155.3c0.4,0.5-13.5,18.7-25.8-2.5C291.5,134.4,301.6,155,301.1,155.3z M272.6,152.6
			c-2.3,13.2-29.2,1.6-42-4.1C244.3,145.3,272.9,139.2,272.6,152.6z M255.1,172c0.7,2.8-4.6,22-27-22.5
			C234.9,153,252.9,163.6,255.1,172z M226,150.2c2.7,5.2,8.3,19.3,6,25.1C231,177.7,218.2,185.6,226,150.2z M22.7,428
			C22.7,428,22.7,428.1,22.7,428C22.6,428.1,22.6,428.1,22.7,428c-0.4,0.5-20.8-10-2-25.8C41.6,415,23.1,428.5,22.7,428z
			 M20.5,399.6c-13.4,0-6.6-28.5-3.2-42C22.7,370.4,33.7,397.5,20.5,399.6z M40.3,382.4c-8.4-2.3-18.6-20.5-21.9-27.5
			C62.4,378.3,43.1,383.2,40.3,382.4z M44,359.4c-5.8,2.2-19.8-3.7-24.9-6.5C54.6,345.9,46.5,358.5,44,359.4z M68,365
			c-3.3-7.2-9.1-13.8-17.4-19.6C85.5,335.4,60,333,68,365z M217.8,181.6c5.6,8.4,12.1,14.4,19.2,17.8
			C205.3,190.7,207.1,216.2,217.8,181.6z M200.5,222.1c15.3-24.3,27.6-10.6,4.8,2.3C209.5,250.3,191.1,249.2,200.5,222.1z
			 M205.7,264.9c-7.2-3.4-15.8-4.7-25.9-3.8C200.1,231,179.1,245.6,205.7,264.9z M183.7,276.1c-3.1,5.4-17.6,9.9-23.3,11.1
			C183.2,258.9,185,273.7,183.7,276.1z M191.5,322c-10.2,8.6-23.4-17.5-29.5-30.1C174.5,298.2,200.3,311.9,191.5,322z M193.4,323.9
			c24.2-3.7,18.7,18.5,18.1,18.5c0,0,0,0,0,0c0,0,0,0,0,0C211.5,343,189.2,348,193.4,323.9z M165.5,325.6
			c-1.2,2.6-17.6,13.9-6.2-34.6C162.3,298.1,169.3,317.7,165.5,325.6z M161.2,289.1c48.7-10.4,37,5.8,34.4,7
			C187.7,299.6,168.2,292.3,161.2,289.1z M157.3,290.2c-1.3,5.7-6.1,20.1-11.5,23C143.4,314.5,128.6,312.3,157.3,290.2z
			 M130.9,308.9c-1.1,10.1,0,18.8,3.2,26C115.4,307.9,100.4,328.6,130.9,308.9z M91.5,328.8c27.3-8.8,27.9,9.6,2.2,4.9
			C80.4,356.2,66.9,343.6,91.5,328.8z M95.2,337.1c29.2,11.4,23.8,26.8,6.7,14.7C99.7,372.6,84.6,366.6,95.2,337.1z M133.5,371.6
			c-2.5,8.2-7,16.5-11.6,24.3c-9-1.6-18.2-3.8-26-7.3c-31.3-12.7-30.1-47.6-15.6-55c-11.4,9.7-1.1,23.2,11.3,6.5
			c-10.5,28,7.3,34.4,11.5,14.5c17.7,9.9,24.6-7.7-3.4-18.2c20.8,1.7,17.4-15,2.6-12.8C117.6,317.6,144.6,339.7,133.5,371.6z
			 M225.9,357c-22.3-4.7-100.7,13.5-90.5-51.1c12.5-8.6,2.7-3.6,2.5,3.4c-0.1,5.1,8,12.9,16-3.5c-6.2,34.1,22.3,34.4,11.9-2.2
			c5.5,10.1,16,26.9,25.8,20.7c-2.5,16,5,22.8,19.9,20.1c-1.4,2.1-1.5,4.8,0,6.4c3.3,3.5,6.1,2.1,7.6-0.6c2.8-1.5,4.2-4.2,0.8-7.6
			c-1.6-1.6-4.3-1.6-6.4-0.2c3-14.8-3.6-22.5-19.7-20.3c6.4-9.7-10.2-20.5-20.2-26.2c36.3,11.2,36.7-17.4,2.5-11.8
			c16.5-7.7,8.9-15.9,3.8-15.9c-7,0-12.2,9.7-3.3-2.6C241.4,256.6,221.6,334.6,225.9,357z M260.1,227.8c3.3,7.9,5.3,17.1,6.7,26.1
			c-7.9,4.5-16.3,8.8-24.5,11.1c-32.1,10.4-53.7-17.1-47.3-32.1c-2.5,14.8,14.1,18.5,12.8-2.3c9.9,28.2,27.7,21.6,18.1,3.7
			c19.9-3.8,13.9-21.7-14.3-11.8c17-12,3.7-22.7-6.2-11.4C213.2,196.7,248.1,196.3,260.1,227.8z M208.6,226c29.7-10,35.4,5.2,14.6,7
			C234.9,250.4,219.4,255.4,208.6,226z"/>
	</g>
	<g>
		<path class="st0" d="M217,101.7c1.4-3.8-1-9.1-6.3-8.3c7.8-1.2,5.6-13.5-2.3-11.6c5.3-1.2,6.1-8.5,1.3-11c-1.2-0.6-2-0.9-2.6-1
			c0.5-0.4,1-1.1,1.6-2.3c2.5-4.9-2.3-10.3-7.4-8.3c8.4-3.4,1.8-12-3.5-11.7c5-4.1-0.6-13.3-6.9-9.6c3.2-1.9,3.4-5.2,2.2-7.7
			c-1.1-2.6-3.8-4.4-7.3-3.1c6.9-2.6,3.3-12.7-3.1-11.4c3.5-4,1-14.5-6.9-10.1c4.7-2.7,3.5-9.8-1.8-11c-1.3-0.3-2.2-0.3-2.8-0.2
			c0.3-0.5,0.6-1.4,0.9-2.7c1-5.3-5.1-9.3-9.4-5.9c6.4-5-1.8-14.4-7.6-9.1c3.9-3.6,1.3-8.9-2.6-10.1c-1.3-3.8-6.7-6.3-10.1-2.3
			c5.2-6-4.4-13.9-9.2-7.4c3.3-4.4-0.8-10.4-6.1-9.3c-1.3,0.3-2.1,0.6-2.7,0.9c0.1-0.6,0.1-1.5-0.2-2.8c-1.2-5.3-8.4-6.4-11-1.6
			c4.3-8-6.3-10.3-10.2-6.7c1.2-6.4-9-9.8-11.5-2.9c1.2-3.5-0.7-6.2-3.3-7.2c-2.5-1.2-5.8-0.9-7.6,2.3c3.6-6.4-5.7-11.9-9.7-6.7
			c0.2-5.3-8.6-11.8-11.8-3.3c1.9-5.1-3.6-9.8-8.4-7.2c-1.2,0.6-1.8,1.2-2.3,1.6c-0.1-0.6-0.4-1.5-1-2.6c-2.7-4.7-9.9-3.8-11,1.6
			c1.7-7.9-10.6-9.9-11.7-2c0.7-5.3-4.7-7.6-8.4-6.1C12.7-97,7-95.6,6.9-90.2C7-94.6,3.3-96.5,0-96l0,0.8c5.4-1.5,9.2,9.8,1.1,9.9
			c-0.4,0-0.7-0.1-1.1-0.1l0,3.1c2.6-0.1,5.1-0.1,7.7,0c-2.8,0.4-5.4,1-7.7,1.7l0,3c4.7-1.4,9.9-2,15-1.6C35-77.7,54-62.1,43.8-34.8
			c-2.6,5.9-5.4,10.8-11.8,15.5c2.9-11.3-7.1-19.4-16.6-24.9c-1.5-0.8,2.9-1.2,3.2-5.6c0.2-2.9-1.2-3.3-0.4-3.2
			c7.7,0.6,8.6-11.1,0.9-11.6c-0.2,0,3.5-8.4-4.2-9.2c0,0-0.1,0-0.3,0.1c-0.2-0.1-0.3-0.1-0.3-0.1c-7.7-0.4-5.3,8.5-5.5,8.4
			C1-65.9,0.1-54.3,7.8-53.7c0.8,0.1-0.7,0.2-0.9,3.1c-0.3,4.3,3.9,5.4,2.3,6C6.1-43.4,2.9-42,0-40.2L0-37c3.9-2.5,8.4-4.3,12-5.9
			c0.1,0,0.1,0.1,0.2,0.1c0.1,0,0.1-0.1,0.2-0.1c6.9,4.4,17.8,10.4,17.4,20.3c-0.3,7.6-10.2,10.3-19.9,9.4c-3.5-0.2-6.9-0.9-9.9-2
			l0,4.8c0,0,0,0,0,0c0,0.1,0,0.2,0,0.3l0,7.9c1.6-2.1,2.3-3.7,2.6-4.8c0.3,1.2,1.2,3,3.5,5.6c0.8,1,1.7,1.8,2.7,2.4
			c1-0.5,2-1.2,3-2c2.6-2.2,3.8-3.9,4.3-5c0.1,1.2,0.7,3.2,2.4,6.1C21.7,6,28.6,9.1,35.6,6.5c3.3-1.1,5-2.3,5.9-3.2
			c-0.3,1.1-0.6,3.2-0.1,6.7c0.6,3.8,2.5,6.9,5.2,9.1c3.4,0.6,7.1,0,10.3-2.1c2.9-2,4.3-3.5,5-4.5c-0.1,1.2,0.1,3.3,1.5,6.5
			c2.6,7,9.5,10.1,16,8.8c3.4-0.7,5.2-1.5,6.2-2.3c-0.5,1.1-1,3.1-0.9,6.5c0,1.3,0.2,2.5,0.5,3.6c1.1,0.3,2.3,0.4,3.6,0.4
			c3.4,0,5.4-0.5,6.5-1.1c-0.7,1-1.5,2.9-2.1,6.2c-1.2,6.5,2,13.3,9.1,15.8c3.3,1.3,5.4,1.5,6.5,1.3c-1,0.6-2.5,2.1-4.4,5.1
			c-2,3.2-2.6,6.9-1.8,10.3c2.2,2.7,5.4,4.5,9.2,5c3.5,0.4,5.6,0.1,6.7-0.3c-0.8,0.8-2,2.6-3.1,5.9c-2.5,7.1,0.8,13.9,6.6,17
			c3,1.7,5,2.2,6.2,2.2c-1.1,0.5-2.8,1.7-4.9,4.4c-0.8,1-1.4,2-1.9,3.1c0.7,0.9,1.5,1.8,2.5,2.6c2.6,2.2,4.5,3.1,5.7,3.4
			c-1.2,0.3-3,1.2-5.6,3.4c-1.3,1.1-2.4,2.4-3.3,3.9h3.3c2.2-2.7,5.5-4.6,9.1-4.8c0,1.7-0.1,3.3-0.2,4.8h3.6
			c-0.7-0.4-0.5-0.7-0.4-2.7c0.4,0.9,0.9,1.8,1.4,2.7h3.2c-2.8-3.4-4.5-9-5-14.7c-1.1-9.7,1.3-19.7,9-20.1
			c9.9-0.6,16.2,10.2,20.7,17c0,0.1-0.1,0.1-0.1,0.2c0,0.1,0.1,0.1,0.1,0.2c-2.2,5.4-5,13-10,17.4h3.8c3.5-4,6.1-9.5,8-14.7
			c0.6-1.6,1.7,2.6,6,2.2c2.9-0.3,3-1.8,3.1-1c0.8,7.7,12.4,6.6,11.6-1.1c0-0.2,8.9,2,8.3-5.7c0,0-0.1-0.1-0.1-0.3
			c0-0.2,0-0.3,0.1-0.3c-1-7.7-9.3-3.8-9.3-4c-0.8-7.7-12.4-6.5-11.6,1.1c0.1,0.8-0.3-0.6-3.2-0.4c-4.3,0.4-4.6,4.7-5.5,3.3
			c-5.8-9.4-14.1-19.3-25.3-16.1c4.5-6.5,9.4-9.4,15.3-12.1c27.1-10.8,43.1,7.9,45.1,27.9c0.7,7.3-0.5,14.8-3.6,21.2h2.8
			c2-3.8,3.5-8.4,4.1-14c0.2,4.7,0.2,9.4,0,14h2.9c0.3-8.1-1.1-1.7,4.9-1.5c-1.6,0-3,0.5-4.1,1.5h1.4c1.2-0.6,2.7-0.5,4,0h2.4
			c-0.9-0.9-2.2-1.4-3.7-1.5c8.1,0.3,7.9-12.2,0-11.9C217.7,110.9,219.1,105.1,217,101.7z M184.9,101.5c-3.1,5.4-8.4,2.8-8.7-1
			C175.5,93.4,187.2,94.5,184.9,101.5z M185.6,104.8c-0.2-2.2,1-4.6,4-4.9c3-0.3,4.7,1.8,4.9,4c0.2,2.2-1,4.6-4,4.9
			C187.5,109.1,185.8,107,185.6,104.8z M185.6,108.2c3.6,6.4-7.7,9.8-8.4,2.6C176.9,107,181.5,103.4,185.6,108.2z M167.8,106.3
			c-0.4-3.8,4.3-6.2,7.3-3.7c1.2,1,1.8,2,1.9,3c0.1,1-0.3,2.1-1.3,3.3c-2.5,3-7.5,1.6-7.9-2.2c0-0.1,0-0.1,0-0.2
			C167.8,106.5,167.8,106.4,167.8,106.3z M9-2c-4.9-3.2-6.7-8.1,0.6-8.4C16.9-9,14.3-4.4,9-2z M10.4-63.5c4.8,4,1.3,8.7-2.5,8.4
			C0.8-55.6,3.9-67,10.4-63.5z M18.6-67.6c-0.2,2.9-2.6,4.3-4.8,4.1c-2.2-0.2-4.4-1.8-4.1-4.8c0.2-3,2.6-4.3,4.8-4.1
			C16.7-72.3,18.8-70.6,18.6-67.6z M17.1-63c7-2.4,8.3,9.3,1.1,8.7C14.4-54.5,11.7-59.7,17.1-63z M12.6-45.7c-0.1,0-0.1,0-0.2,0
			c-0.1,0-0.1,0-0.2,0C8.4-46,6.8-51,9.8-53.6c1.2-1,2.3-1.4,3.3-1.4c1,0.1,2,0.7,3,1.8C18.7-50.1,16.4-45.4,12.6-45.7z M207.7,117
			c-0.1-9.4,15.2-3.2,8.3,3.5C212.9,123.5,207.7,121.2,207.7,117z M212.4,111.1c-2,0.1-3.7,1.1-4.8,2.6
			C207.4,104.4,206.3,111.3,212.4,111.1z M205.5,91.7c1.3,1.3,3.2,2,5.2,1.7C204.7,94.4,207.1,101,205.5,91.7z M203.1,80.5
			c1.4,1.2,3.3,1.7,5.3,1.3C202.4,83.2,205.4,89.6,203.1,80.5z M164.8,69.7c9.1-8.1,13.4-20,11.9-31.6c-8.2-8.4-20.1-12.5-32.1-10.5
			c-4.8,0.8,22.3-18.4,3.9-46.2c15,16.2,25.7,35,32.1,54.8C192,53.7,200,73.8,203.2,95.6C193.2,63.8,161.2,72.9,164.8,69.7z
			 M205.3,70.3c0.2,0-2.8,0.6-3.9,3.8C198.7,65.2,199.5,72.2,205.3,70.3z M195.9,58.7c1.6,1,3.6,1.2,5.4,0.5
			C195.6,61.5,199.5,67.4,195.9,58.7z M194.9,48.9c-0.8,0.8-1.4,2.1-1.7,3.8C189.6,45.1,190.7,49.8,194.9,48.9z M185.4,38.3
			c1.9,0.8,3.9,0.6,5.5-0.3C185.5,41.1,190.4,46.4,185.4,38.3z M185.7,27.2c-1.8,0.7-3.1,2.1-3.7,4.1
			C178.8,22.2,179.8,29.3,185.7,27.2z M175.6,16.1c1.6,0.8,2.9,1.2,4.1,1.1C176.3,19.9,179.3,23.7,175.6,16.1z M175.7,5.7
			c-1.7,1-2.8,2.7-3,4.5C168.2,2,170.3,8.7,175.7,5.7z M164.1-3.7c3.2,1.1,5.6-0.8,5.4-0.7C164.4-1,169.4,4,164.1-3.7z M162.5-14
			c-1.6,1.2-2.4,3.1-2.3,4.9C154.6-16.5,157.7-10.2,162.5-14z M154.9-23.1c-1.5,1.4-2.1,3.3-2,5.1C146.7-25,150.4-19,154.9-23.1z
			 M155.1,72.9c-6.1,2.5-11.8,4.2-20.1,2.8c7.9-4.4,8.9-12.7,7.7-21.2c-5.9-6.3-13-10.7-21.4-7.3c4.1-7.4,9-10.7,14.8-13.9
			c16.1-7.8,29.7-3.3,38.2,6.1C176.3,51.8,171.3,65.2,155.1,72.9z M111.6,37.2c8.2,1.5,12.2,0.6,13.5,0.1c-1.2,0.8-4.5,3.8-7.9,12
			c-1.6,1.2-2.9,2.3-4.2,3.7C105.3,33.7,101.9,40.9,111.6,37.2z M103,34.4c1.2,0.5,2.4,1,3.6,1.4C103.9,36.4,104.6,36.7,103,34.4z
			 M114.9,54.9c0.2-0.2,0.4-0.3,0.6-0.5C114.4,58.7,114.2,55.6,114.9,54.9z M117.5,66.4c-1.9-17,6.9-25.3,22.2-10.6
			C141.5,76.9,129.5,78.6,117.5,66.4z M125.7,75.6c-0.3,0-0.5,0.1-0.8,0.1C123.8,75.8,121.5,73.7,125.7,75.6z M134.5,94.1
			c-0.4,1.2-0.8,2.5-1.1,3.7C132.6,95.1,132.4,95.9,134.5,94.1z M125.1,78.3c1.9-0.2,3.6-0.4,5.5-1c8.6,2.5,12.9,1.8,14.4,1.4
			c-1.2,0.7-4.4,3.3-8.4,10.6C127.6,94.6,135.4,96.5,125.1,78.3z M132.5,110c-0.1,7.4-5.1,5.7-8.3,0.8
			C126.4,105.4,131,102.8,132.5,110z M130.8,100.5c-6.8,1-13.8-4.1-13.8-11.2C116.9,84.7,122.9,65.5,130.8,100.5z M112.5,59.7
			c1,3.1,1.7,5.8,2.2,8.2c1.5,1.9,3.2,4.1,5,6.8c-2.2,1.3-4.8,1.8-7.8,1.4c-2.8-0.4-5-1.8-6.7-3.7c-0.4-2.5-0.1-5.1,1.3-7.5
			C108.1,62.3,110.1,60.6,112.5,59.7z M99.3,34.7c22.3,28.1,3.6,20.8,0.1,17.8C93.9,48,94.3,39.4,99.3,34.7z M93,27.5
			c4.7,5.7-0.3,7.6-5.9,6C85.4,27.9,87.2,22.9,93,27.5z M88.9,4.3c7.2-6.8,19-2.5,26.8-0.3c0,0.1,0,0.1,0.1,0.2c0.1,0,0.1,0,0.2,0.1
			c2.5,7.7,6.9,19.4,0.3,26.8c-5.1,5.7-14.4,1.3-21.3-5.6C87.8,18.7,83.3,9.5,88.9,4.3z M127.8-0.7c-2.7-2.6-1.5-8.4,4.7-7.4
			C139.4-5.5,132.9,4.3,127.8-0.7z M130.3-10.6c-1.6-1.6-2.2-4.2-0.1-6.3c2.1-2.2,4.8-1.6,6.3,0c1.6,1.6,2.2,4.2,0.1,6.3
			C134.5-8.6,131.9-9.1,130.3-10.6z M120.4-7.9c-5.1-5,4.6-11.7,7.3-4.9C128.8-6.6,123.1-5.3,120.4-7.9z M125.4-1.1
			c0,3.9-4.7,6.1-7.5,3.4c-0.1,0-0.1-0.1-0.2-0.1c0,0-0.1-0.1-0.1-0.1c-2.7-2.7-0.7-7.5,3.2-7.5c1.6,0,2.7,0.4,3.4,1.1
			C124.9-3.8,125.4-2.7,125.4-1.1z M85,4.8c-0.7-7.9,1.2-13.2,3.9-19.1c13.9-25.7,38.1-21.7,52.5-7.6c14.4,14.1,18.9,38.2-6.5,52.6
			c-5.8,2.8-11.1,4.9-19,4.3c9.5-6.8,7-19.4,3.3-29.8c-0.6-1.6,3,0.9,6-2.2c2-2,1.1-3.3,1.7-2.7c5.5,5.4,13.7-2.9,8.2-8.4
			c-0.2-0.2,8.1-4.1,2.7-9.7c0,0-0.1-0.1-0.3-0.1c-0.1-0.2-0.2-0.2-0.2-0.3c-5.7-5.3-9.5,3.1-9.7,2.9c-5.5-5.4-13.7,2.9-8.2,8.3
			c0.6,0.6-0.7-0.3-2.7,1.8c-3,3.1-0.5,6.6-2.1,6.1C104.2-2.6,91.5-4.8,85,4.8z M137.1-33.4c1.8,0.1,3.7-0.6,5.1-2.1
			C138.2-30.9,144.3-27.4,137.1-33.4z M85.8,17.6c-2.3-1.6-2-0.9-1.5-3.6C84.7,15.3,85.2,16.4,85.8,17.6z M85.6,21.3
			C81,26.4,72.4,27,67.8,21.6C64.8,18.1,57-0.5,85.6,21.3z M82.8,9C79.3,18.8,86.5,15.2,67,8c1.3-1.4,2.5-2.6,3.6-4.3
			C78.8,0,81.6-3.2,82.4-4.5C82-3.2,81.2,0.9,82.8,9z M65.6,5.5c-0.2,0.2-0.3,0.4-0.5,0.6C64.3,6.8,61.3,6.7,65.6,5.5z M53.5,3.7
			C41.1-8,42.5-20,63.6-18.6C78.6-3.7,70.5,5.3,53.5,3.7z M45.3,1.8c2.7,1.8,5,3.4,6.9,4.9c2.4,0.5,5.1,1.1,8.2,2
			c-0.9,2.4-2.6,4.5-5.1,6.1c-2.4,1.5-5,1.9-7.5,1.5c-1.9-1.6-3.4-3.9-3.8-6.6C43.6,6.7,44.1,4,45.3,1.8z M44.1-3.4
			c0-0.3,0.1-0.5,0.1-0.8C46.1-0.1,44-2.4,44.1-3.4z M19.1-8.9C54.3-1.7,35.3,4.7,30.6,4.7C23.6,4.8,18.3-2.1,19.1-8.9z M25.5-12.7
			c-1.7,2.1-1,1.9-3.7,1.2C23-11.8,24.3-12.2,25.5-12.7z M42.3-9.1c-0.5,1.9-0.7,3.6-0.9,5.5c-18.3-9.9-16.3-2.2-11.2-11.2
			c7.2-4.1,9.7-7.4,10.4-8.6C40.2-22,39.6-17.7,42.3-9.1z M79.5-53.6c9.6,8.4,14.4,21.8,6.9,38.1C83.3-9.7,80.1-4.7,72.8-0.5
			C76-8.9,71.5-15.9,65-21.7c-8.6-1.1-16.8,0.1-21.1,8.1c-1.6-8.3,0-14,2.3-20.2C53.6-50,66.9-55.3,79.5-53.6z M6.9-90.2
			c-0.1,6.1,6.8,4.9-2.5,4.8C5.8-86.4,6.8-88.2,6.9-90.2z M18.2-84.7c-1.2-0.2-2.1-0.5-2.7-1c-0.7,0.4-1.7,0.6-2.8,0.6
			c-4.3-0.3-6.2-5.6-3.2-8.4c2.6-2.5,5.1-1.8,6.6-0.1c1.8-1.5,4.3-1.7,6.5,1.1C25.1-89.3,22.5-84.3,18.2-84.7z M26.4-83.7
			c-9.3-1.4-2.6,0.8-1.8-5.2C24.3-86.9,25.1-85,26.4-83.7z M29.6-83.2c-9.3-1.5-0.5-15.5,4.9-7.5C36.9-87.2,33.7-82.5,29.6-83.2z
			 M37.6-81.6c-9.1-2.1-2.7,0.8-1.4-5.2C35.9-84.9,36.4-83,37.6-81.6z M40.9-80.8c-9.2-2.6,0.7-15.5,5.5-7.1
			C48.4-84.3,44.9-79.7,40.9-80.8z M44.1-79.9c3.2-1.2,3.7-4.2,3.7-4C46.1-78.1,53.1-77.5,44.1-79.9z M51.9-77.6
			c-9-2.8,1.8-15.5,6-6.7C59.7-80.5,55.9-76.3,51.9-77.6z M59.6-74.8c-8.7-3.5-2.8,0.4-0.6-5.4C58.3-78.3,58.6-76.3,59.6-74.8z
			 M69-76.1c-2.7,5.8-11.2,2.2-9-3.7C62.3-86,71.7-81.9,69-76.1z M65.6-72.2c1.8-0.4,3-1,3.8-1.8C68.6-69.7,73.4-68.7,65.6-72.2z
			 M73.1-68.7c-8.6-4.2,4.2-15.1,6.9-5.7C81.1-70.3,76.7-66.7,73.1-68.7z M80.5-70.2c-0.9,1.6-1.1,3.6-0.2,5.5
			C72-69.5,77.4-64.7,80.5-70.2z M87.9-62.8c-1.6,0.8-3.1,0.8-4.3,0.2c-1.2-0.5-2.3-1.5-2.7-3.3c-1.2-4.7,3.5-7,6.8-5.6
			C90.9-70.1,92.2-65,87.9-62.8z M87.4-61.5c2-0.6,3.4-2,4-3.8C89.3-59.3,96.4-58.4,87.4-61.5z M95.1-58.7c-3.8-1.4-4.1-7.1-0.3-8.9
			C103.7-71.7,103.9-55,95.1-58.7z M102.7-55.4c-7.7-3.5-3.8-0.6-1.2-4C101.5-58.3,101.8-57,102.7-55.4z M112.1-56.2
			c-3,5.5-11.3,1.6-8.7-4.3C106-66.4,115.2-62,112.1-56.2z M113-55.7c-2.9,5.5,3.9,7.4-4.5,3.1C110.4-52.8,112.1-53.9,113-55.7z
			 M137.9-29c-28.1-17.9-46.8,9.6-46.1,4.8c1.8-12-2.6-23.9-11.2-31.9C69-57.2,57.2-52.7,49.3-43.5c-3.1,3.7,5.3-28.5-26.7-37.9
			C44.4-78.5,64.7-71.1,82.4-60C102.4-53.9,121.4-43.6,137.9-29z M115.7-48.6c-3.7-2.2-2.9-7.7,1.1-8.9
			C126.2-60.1,123.8-43.7,115.7-48.6z M123.3-49.7c0.2-0.2-1.8,2.2-0.6,5.4C114.9-49.4,119.9-44.6,123.3-49.7z M125.4-42.4
			c-3.4-2.3-2.3-7.9,1.7-8.8C136.6-53.2,133.4-37.2,125.4-42.4z M133-42.9c-3.7,4.9,2.7,7.9-4.8,2.4C130-40.5,131.8-41.3,133-42.9z
			 M134.6-35.5c-3.3-2.6-1.8-8.1,2.4-8.7C146.6-45.3,141.9-29.5,134.6-35.5z M147.3-24c-0.8-0.9-1.2-1.7-1.4-2.5
			c-0.8-0.2-1.7-0.6-2.5-1.4c-3.2-3-1.1-8.3,3-8.5c3.6-0.2,5.1,1.9,5.2,4.2c2.3,0,4.4,1.5,4.3,5.1C155.6-23.1,150.3-20.9,147.3-24z
			 M155.1-15.5c-6.1-7.1,9.6-12.2,8.6-2.6C163.2-13.8,157.8-12.3,155.1-15.5z M170.9-8.3c-0.8,4.1-6.4,5.3-8.8,1.9
			C156.7-14.3,172.7-17.8,170.9-8.3z M168.6,3.1c-5.1-7.9,11.3-10.7,8.9-1.3C176.4,5.9,170.8,6.7,168.6,3.1z M180.7,15.3
			c-5.8,2.7-9.9-5.5-4.5-8.6C182,3.4,186.5,12.5,180.7,15.3z M179,23.5c-3.9-8.7,12.9-8.9,8.9,0.1C186.3,27.5,180.6,27.3,179,23.5z
			 M186.6,37.6c-1.8-0.4-2.9-1.4-3.4-2.6c-0.6-1.2-0.7-2.6,0.1-4.3c2.1-4.4,7.2-3.1,8.8,0C193.6,33.9,191.4,38.7,186.6,37.6z
			 M189.5,45.4c-2-3.6,1.4-8.1,5.5-7C204.5,40.9,193.8,53.8,189.5,45.4z M200.9,58.2c-5.9,2.3-9.7-6-3.9-8.9
			C202.8,46.4,207,55.7,200.9,58.2z M198.8,66.4c-1.4-4,2.7-7.8,6.6-6.1C214.3,64.3,201.8,75.3,198.8,66.4z M202.3,77.3
			c-1.1-4,3.3-7.6,7-5.6C217.7,76.3,205,86.5,202.3,77.3z M204.9,88.5c-0.8-4.1,3.8-7.4,7.4-5.1C220.4,88.7,206.6,97.8,204.9,88.5z
			 M215.6,101.8c1.8,1.5,2.4,3.9,0,6.6c-2.7,3-8.1,1.3-8.5-3c0-1.2,0.1-2.1,0.5-2.9c-0.5-0.7-0.9-1.5-1.1-2.7
			c-0.5-4.3,4.5-7,7.7-4.6C217.3,97.5,217.1,100,215.6,101.8z"/>
		<path class="st0" d="M114.1,124.4h-1.5c0.4-3.9,0.4-8.1,0-12.5c-1.5-15.4-7.5-27.2-16-35.5C95.4,64.6,90,52.6,79,41.8
			c-11-10.8-23.2-16-35.1-16.9C35.4,16.6,23.5,10.8,8.1,9.6C5.3,9.4,2.6,9.4,0,9.5L0,8c2.7-0.1,5.5-0.1,8.2,0.1
			c13.4,1,26.5,6.1,36.5,15C58,24.8,70.4,31.3,80,40.7c9.6,9.4,16.4,21.7,18.3,35c9.1,9.8,14.5,22.8,15.8,36.1
			C114.5,116,114.5,120.2,114.1,124.4z"/>
		<path class="st0" d="M108.8,112.3c-0.7-6.7-3.9-13.2-9.5-17.9c-0.7-6.1-3.3-11.6-7.3-15.7c-0.7-5.7-3.3-11.2-7.7-15.5
			c-0.1-7.3-3.2-13.9-8-18.6c-4.8-4.7-11.5-7.7-18.8-7.6c-4.5-4.3-10-6.7-15.7-7.3c-4.2-3.9-9.7-6.4-15.9-7
			c-4.8-5.5-11.4-8.6-18.1-9.1c-2.6-0.2-5.2,0-7.8,0.6l0,1.4c2.5-0.6,5.1-0.8,7.7-0.6c6,0.5,11.8,3.1,16.3,7.7
			c-6.1-0.1-12.3,1.9-17.4,6c-2-2.2-4.2-3.9-6.7-5.3l0,1.1c1.8,1.2,3.7,2.9,5.6,5.1c-3.1,2.8-4.7,4.9-5.6,6.5l0,3.8
			c2.2-5.5,4.4-8.6,6.4-8.5c2,0.2,3.7,3.6,5.1,9.4c-1.9-0.6-3.8-0.9-5.7-1.1C3.9,39.4,2,39.5,0,39.7l0,1.5c1-0.6,2.7-0.6,5.7-0.3
			c6.3,0.5,6.9,0.7,6.4,7.3c-4.7,4.1-6.8,7.3-7.7,9.3C4,55.7,2.7,53,0,49.4l0,2.8c2,3.7,3.1,7.9,3.1,12.3c-1.3-1.7-2.3-3.6-3.1-5.6
			l0,4.8c0.7,0.5,1.3,1.1,1.9,1.8c-0.7-0.1-1.3-0.2-1.9-0.4l0,2c0.6,0,1.2-0.1,1.8-0.1c-0.6,0.4-1.2,0.8-1.8,1.2l0,3.3
			c0.8-1.2,1.8-2.3,2.8-3.3c-0.5,3-1.4,5.8-2.8,8.4l0,3.3c1.6-1.9,2.5-3.5,3.1-4.7c0,0,0,0,0,0c0,0,0,0,0,0
			c0.5,2.2,2.2,5.6,6.2,10.4c-0.6,6.6-1.2,6.7-7.5,6.2c-0.7-0.1-1.2-0.1-1.8-0.2l0,1.3c0.6,0.1,1.1,0.2,1.7,0.2
			c2,0.2,3.9,0.1,5.8-0.2c-2.6,6.4-4.7,8.6-6.5,8.5c-0.3,0-0.7-0.2-1-0.4l0,3.7c0.3-0.2,0.6-0.4,0.8-0.6c1.5,1.7,3.2,3.2,5.1,4.4
			c2.2,0.6,4.4,0.9,6.7,0.9c0.1,2.3,0.4,4.5,1.1,6.7c1.3,1.8,2.8,3.5,4.5,5c-0.8,1-1.5,2.1-2.1,3.2h1.5c0.5-0.8,1.1-1.6,1.7-2.4
			c1.1,0.9,2.1,1.6,3.1,2.4h3.1c-3-1.1-4.3-2.3-4.4-3.5c-0.2-1.7,2-3.9,8.3-6.6c-0.2,1.9-0.3,3.9-0.1,5.8c0.1,1.5,0.4,2.9,0.8,4.3
			h1.2c-0.3-1-0.5-2.4-0.7-4.4c-0.6-6.3-0.5-6.9,6.1-7.6c4.9,3.9,8.4,5.5,10.5,6c0,0,0,0,0,0c0,0,0,0,0,0c-1.8,0.8-4.3,2.5-7.6,6.1
			h2.1c3.4-3,7.7-5.2,12.5-6c-2.5,2.7-5.5,4.7-8.8,6h2.6c1.6-0.7,3-1.5,4.1-2.4c-0.4,0.8-0.8,1.6-1.1,2.4h1.5c0.7-1.8,1.6-3.4,2.8-5
			c0,1.7-0.1,3.4-0.4,5h3.4c-0.7-1.7-1.2-3.4-1.5-5.2c1.6,1.6,3,3.3,4.2,5.2h1.4c-0.6-1.2-1.2-2.3-1.9-3.2
			c8.8,4.4,11.3,1.8,14.3,3.2h2.5c-0.2-0.2-0.4-0.4-0.7-0.6c1.5-0.2,2.9-0.6,4.3-1c-0.1,0.6-0.3,1.2-0.4,1.7h2
			c-1.1-5.4,0.8,1.4,10.3-9.6c4,3.5,6.4,6.7,7.5,9.6h0.9c-1.5-4-4-7.7-7.5-10.6c4-5.2,5.9-11.4,5.7-17.5c4.7,4.4,7.4,10.2,8,16.2
			c0.4,4-0.2,8.1-1.8,12h1.5C108.6,120.5,109.2,116.4,108.8,112.3z M81.5,109.2c5.8,1.2,9.3,2.9,9.5,4.9c0.2,2-2.9,4.3-8.4,6.6
			c0.2-2,0.3-3.9,0.1-5.8C82.5,113,82.1,111.1,81.5,109.2z M64.7,116.6c2.1-0.9,5.2-3.1,9.2-7.9c6.6-0.6,6.8,0,7.4,6.3
			c0.6,6.3,0.5,6.9-6.1,7.6C70.4,118.7,66.9,117.1,64.7,116.6z M57,64.2c4.5,4.4,4.8,5,0.2,9.7c-6.2,0.1-9.9,1.2-11.9,2.2
			c1-2,1.9-5.7,2-12C52,59.5,52.5,59.7,57,64.2z M47.2,62.4c-0.3-4.3-2.1-5.6,3.5-2.7C49.5,60.5,48.3,61.4,47.2,62.4z M31.2,58.2
			c-0.3,1.4-0.5,2.9-0.5,4.3c-1.3-1.1-2.3-1.7-2.9-2.2c-0.7-0.1-1.9-0.5-3.5-0.7c1.1-1,2-2.1,2.9-3.3c0.6,1.3,0.9,2.2,1.1,2.8
			C28.9,58.9,29.9,58.6,31.2,58.2z M27.4,53.7c-1.8-3.4-4.4-6.5-7.5-8.8C32.3,39.6,33.5,43.9,27.4,53.7z M32.8,76.2
			c-2-1-5.5-1.9-11.4-1.9c-3.9-4.4-6.9-6.4-8.9-7.3c2.2-0.5,5.6-2.2,10.4-6.2c2,0.2,3.4,0.3,4.3,0.7c0.9,0.5,1.9,1.4,3.3,2.8
			C30.8,70.6,31.8,74.2,32.8,76.2z M32.1,65.8c3.5,4,5.8,9.1,6.3,14.7C34.7,76.4,32.5,71.3,32.1,65.8z M37.3,83.2
			c-4.2,3.7-9.4,5.8-14.7,6.3C26.6,85.9,31.7,83.7,37.3,83.2z M38.4,84.3c-0.4,5.6-2.5,10.8-6,14.8C32.8,93.8,34.8,88.6,38.4,84.3z
			 M31,100.7c-4.7,4.7-5.2,4.4-9.7,0c-4.5-4.4-4.8-4.9-0.2-9.7c6.2-0.1,9.9-1.2,11.9-2.2c0,0,0,0,0,0c0,0,0,0,0,0
			C32,90.7,31,94.4,31,100.7z M14.9,90.3c1.4,0.3,2.9,0.5,4.4,0.5C16.4,94.2,16.9,96.3,14.9,90.3z M14.8,89
			c-4.1-1.2-4.4-12.9-7.2-18.2c7.5,5.6,10.5,3.9,13.1,5.3c2.7,1.1,3.4,4.4,12.6,6.3C27.4,83.8,18.4,91.3,14.8,89z M22.4,75.7
			c5.3,0.3,10.6,2.3,14.9,6C31.8,81.3,26.6,79.2,22.4,75.7z M5.5,67.2c5.6,0.8,10.5,3.5,14.3,7.3C14.4,73.7,9.4,71.2,5.5,67.2z
			 M5.6,65.7c4.5-3.4,9.9-5,15.2-5C16.4,64,11.2,65.7,5.6,65.7z M44.7,56.1c-3.8-0.8-7.8-0.8-11.6,0.1
			C36.4,45.2,40.5,43.3,44.7,56.1z M31.2,52.8c0.4-2.5,0.8-5.7,1.2-9.8c1.1,0.1,2.1,0.3,3,0.4c0.8,0.6,1.5,1.3,2.3,2
			C35,48.5,32.9,50.9,31.2,52.8z M45.1,57.6c2.6,10.2-3.1,5.5-6,18.9C37,67.8,21.2,51.9,45.1,57.6z M45.9,65.7
			c-0.3,5.3-2.3,10.5-6,14.9C40.3,74.9,42.4,69.8,45.9,65.7z M65.3,76.3c12.9,3.9,11.1,8,0.1,11.6C66.2,84.1,66.2,80.2,65.3,76.3z
			 M61.4,93.3c-0.5-0.5-1.1-1.6-2.2-2.8c1.5-0.1,2.9-0.3,4.3-0.6c-0.4,1.4-0.7,2.3-1,2.9c0.6,0.2,1.5,0.5,2.8,1.1
			c-1.1,0.9-2.2,1.9-3.2,3C62,95.1,61.5,94,61.4,93.3z M76.4,102.3c-4.5,9.5-5.9,2.2-16.7,10.6C63.7,104.9,61.8,82.6,76.4,102.3z
			 M45.1,82.3c13.3-3.1,8.5-8.8,18.7-6.4C70,99.7,53.8,84.2,45.1,82.3z M59,73.9c1-1.1,1.9-2.3,2.6-3.5C64.6,75.9,63.4,74.1,59,73.9
			z M41,81.6c4.2-3.7,9.4-5.8,14.7-6.3C51.7,78.9,46.6,81.1,41,81.6z M55.9,89.1c-5.5-0.3-10.7-2.4-14.9-6
			C46.7,83.5,51.8,85.7,55.9,89.1z M46.2,99c-3.7-4.1-5.8-9.2-6.3-14.7C43.7,88.5,45.8,93.7,46.2,99z M53.4,59.6
			c5.3-2.8,8.9-3.8,10.4-2.4c1.4,1.4,0.6,5.1-2.1,10.5c-1.1-1.7-2.3-3.2-3.7-4.5C56.6,61.9,55.1,60.7,53.4,59.6z M65.7,56.6
			c21,0.3,19.9,14.2,10.4,24.4C53.8,60.3,65.4,77.4,65.7,56.6z M76.2,83c0.8,0.8,1.4,1.5,2.1,2.3c0.2,1,0.4,2,0.5,3
			c-4.1,0.5-7.3,1-9.8,1.4C70.8,88,73.2,85.9,76.2,83z M77.1,100.9c-2.4-3.1-5.5-5.6-9-7.4C77.8,87.2,82.1,88.4,77.1,100.9z
			 M79.4,107.5c-1.5-0.2-2.9-0.2-4.4-0.2C77.6,103.8,77,101.7,79.4,107.5z M57.9,118.1c5.6-0.1,11,1.6,15.3,4.7
			C67.9,122.9,62.5,121.3,57.9,118.1z M57.7,116.5c3.9-4.1,8.9-6.6,14.1-7.5C68.2,112.9,63.3,115.6,57.7,116.5z M56.5,115.6
			c-0.1-5.5,1.5-10.8,4.7-15.3C61.3,105.6,59.8,110.9,56.5,115.6z M55.1,108.7c-0.9-2-3-5-7.5-8.8c-0.2-5.9-1.2-9.4-2.2-11.3
			c2,1,5.7,2,12,2c1.4,1.4,2.4,2.4,2.9,3.3c0.3,1,0.5,2.3,0.8,4.3C57.1,103,55.6,106.5,55.1,108.7z M47.5,101.6
			c3.9,3.7,6.6,8.6,7.6,14.1C51,111.9,48.4,107,47.5,101.6z M38.7,112.2c5.3-0.1,10.7,1.4,15.3,4.7C48.4,117,43.1,115.3,38.7,112.2z
			 M33,106.9c-2.4-3.6,4.9-12.7,6.2-18.6c2.1,9.2,5.5,9.7,6.6,12.5c1.4,2.6-0.2,5.5,5.6,13C46,111,34.3,111,33,106.9z M32.3,108
			c0.9,1.2,1.9,2.2,3,3.2C31,111.9,30,113.8,32.3,108z M31.1,102.4c0.1,1.5,0.3,2.9,0.6,4.4C25.7,105,27.9,105.4,31.1,102.4z
			 M13.9,109.5c9.2-0.3,13.8-0.9,16.1-1.2c-1.6,1.7-5,4.9-11,11.8c-1.6-1.4-3.1-2.9-4.3-4.5C14.3,113.7,14,111.6,13.9,109.5z
			 M16.7,97.1c1.1,1.6,2.3,3.1,3.7,4.5c1.4,1.4,2.9,2.6,4.6,3.6c-6.1,3.2-9.2,3.6-10.4,2.3C13.3,106.3,13.6,103.2,16.7,97.1z
			 M10.4,86.9c1,1.1,2.1,2,3.3,2.9C7.9,92.3,9.9,91.2,10.4,86.9z M13.4,92.1c-0.2,2.3-0.7,6.9-0.8,16.1c-2.2,0-4.2-0.3-6.2-0.7
			c-1.6-1.2-3.2-2.6-4.6-4.2C8.7,97.1,11.8,93.7,13.4,92.1z M9.3,83.5c-3.2-4.3-5-9.6-5-15.2C7.7,72.8,9.3,78.1,9.3,83.5z
			 M11.9,50.3c-0.8,5.3-3.2,10.3-7.2,14.3C5.5,58.9,8.1,54,11.9,50.3z M18.5,45.5c20,14.2-2.3,12.8-10.3,16.9
			C16.4,51.5,9.1,50.2,18.5,45.5z M13.5,47.1c0-1.5,0-2.9-0.2-4.4C19.1,45,16.9,44.4,13.5,47.1z M31.2,41.5
			C0.8,40,20.6,45.6,7.5,29.5C23.8,16.3,31.9,27.6,31.2,41.5z M55.5,36.9c-6.1,0.4-12.1,2.9-16.8,7.5c-0.9-0.8-1.8-1.6-2.7-2.2
			c-1.1-0.3-2.3-0.5-3.5-0.6c0.3-6.5-1.7-12.7-5.4-17.6c5.5,0.8,10.3,3.2,14.1,6.7C46.3,31.3,51.4,33.3,55.5,36.9z M64.4,55.3
			c-20.7,0.8-3.4,12-24.6-9.9C49.8,35.7,63.6,34.4,64.4,55.3z M82.9,61.8c-4.6-4-10.6-6.5-17.2-6.5c-0.2-6.6-2.8-12.5-6.9-17
			c6.4,0.3,12.2,3,16.5,7.2C79.6,49.7,82.4,55.4,82.9,61.8z M97.7,93.2c-5-3.6-11.1-5.5-17.7-5c-0.1-1.2-0.4-2.3-0.7-3.5
			c-0.7-0.9-1.5-1.8-2.3-2.7c4.5-4.8,6.9-10.8,7.2-16.9c3.7,4.1,5.9,9.1,6.4,14.2C94.3,82.9,96.9,87.7,97.7,93.2z M92.7,112.9
			c-16.4-12.7-10.3,7-12.5-23.4C94.1,88.5,105.6,96.4,92.7,112.9z"/>
		<path class="st0" d="M330.4,90.6c-0.1-0.3-1.4-0.5-4.1-1.5c-16.3-5.4-48.8-51.4-83.1-42c19.3-9.3,24.8-33.4,28.1-54.4
			c-18.3-10.6-40.6-21.4-60-12.2c28.8-20.8,13.4-75,19.3-91.1c1-2.7,1.7-3.9,1.5-4.1c-0.3-0.2-1.4,0.5-4.1,1.6
			c-15.9,6.3-70.5-8-90.6,21.2c8.8-19.5-2.5-41.6-13.4-59.7c-20.8,3.7-44.9,9.7-53.8,29.2c8.7-34.4-38-66-43.7-82.2
			c-1-2.7-1.2-4-1.5-4.1c-0.3,0-0.8,1.3-2.2,3.8C19.6-199,10.2-191.9,0-183.3l0,5.2c10.1-8.7,19.9-16,24.2-21.5
			c11.2,19.9,76.4,66.9,21.1,101.8c-14.7-3.7-4.4,0.4,0.9-4.1c3.9-3.3,4.4-14.5-13.2-9.8c29.8-17.8,11.2-39.4-9.5-7.5
			c4-10.8,9.7-29.8-1.4-33.1c13.7-8.6,13.8-18.8,2-28.2c2.5-0.3,4.6-2,4.8-4.3c0.5-4.8-2.4-6-5.5-5.3c-2.9-1.1-6-0.4-6.2,4.4
			c-0.1,2.3,1.6,4.3,4.1,5c-13.1,7.5-14.6,17.5-2.3,28.2c-11.5,1.5-8.7,21.2-6.5,32.5C8.5-129.3,4-134.7,0-137.4l0,1.7
			c7.2,5.4,13.6,22.6,15.7,29.4c-6.9-5.1-11.9-9.4-15.7-13l0,3.4c0.7,0.6,1.3,1.2,2,1.8c-0.7-0.3-1.4-0.6-2-0.8l0,2.1
			c5.7,2.3,11.8,6.3,14.7,8.5c-6.2,0.3-11,0.1-14.7-0.2l0,6.5c5.4-0.3,10.9-0.3,16.4-0.1C44-95.2,68.8-85.2,88.7-73.8
			c21.7,7.4,45.6,19.5,66,38.3c19.2,20,31.8,43.6,39.6,65.2c11.9,19.6,22.4,44.2,25.9,71.7c0.5,7.8,0.5,15.5-0.1,23h5.2
			c0.1-3.6-0.1-2.4,0.6,0h2.5c-1.3-4-2.1-10.6-1.9-21.5c3.3,4.1,10.3,14.9,10.8,21.5h1.8c-0.1-2.3-0.9-5.2-2.6-9c3.5,4.1,7,7,10.1,9
			h3.7c-4.7-2.7-11.7-9.2-22-22.4c7.4,2,27.1,8.9,30.8,16.8c0.4,0.9,0.5,3.8-0.7,5.6h3.1c1.6-4.5-3.2-12.8-19.3-19.6
			c11.4,2,31,4.4,32.3-7.1c10.9,12,20.9,10.4,28.1-2.9c0.8,2.5,2.8,4.2,5,4c4.8-0.4,5.5-3.4,4.3-6.3c0.6-3.1-0.6-5.9-5.4-5.4
			c-2.3,0.3-3.9,2.3-4.2,4.9c-9.7-11.6-19.8-11.3-28.1,2.6c-3.5-11-22.4-4.9-33.1-0.7c31.5-21.3,9.5-39.5-7.7-9.3
			c4.4-17.7-6.8-17-10-13c-4.3,5.4-0.1,15.6-4.1,1c33.7-56.1,82.1,8.2,102.2,19c-6.9,5.7-16.5,20.2-28.2,32.9h5.4
			c11.5-13.3,20.7-27.5,27.9-31.6C329.1,91.4,330.4,90.9,330.4,90.6z M275.3,96c12.3-21.2,26.2-3,25.7-2.6c0,0,0,0,0,0c0,0,0,0,0,0
			C301.6,93.9,291.5,114.4,275.3,96z M230.7,100.4c12.8-5.7,39.6-17.3,42-4.1C272.9,109.6,244.3,103.5,230.7,100.4z M228.1,99.2
			c22.4-44.5,27.7-25.2,27-22.5C252.9,85.2,234.9,95.8,228.1,99.2z M232,73.6c2.3,5.8-3.3,19.9-6,25.1C218.2,63.2,231,71.1,232,73.6
			z M20.7-153.4c-18.8-15.8,1.6-26.3,1.9-25.8c0,0,0,0,0,0c0,0,0,0,0,0C23.1-179.6,41.6-166.1,20.7-153.4z M17.2-108.7
			c-3.4-13.6-10.1-42,3.2-42C33.7-148.7,22.7-121.6,17.2-108.7z M18.4-106.1c3.3-7,13.5-25.1,21.9-27.5
			C43.1-134.3,62.4-129.5,18.4-106.1z M19-104.1c5.1-2.8,19.1-8.7,24.9-6.5C46.5-109.7,54.6-97,19-104.1z M50.6-96.6
			c8.3-5.8,14.1-12.4,17.4-19.6C60-84.2,85.5-86.5,50.6-96.6z M237,49.4c-7.1,3.5-13.6,9.4-19.2,17.8
			C207.1,32.6,205.3,58.1,237,49.4z M205.3,24.4c22.8,12.9,10.5,26.6-4.8,2.3C191.1-0.4,209.5-1.4,205.3,24.4z M179.8-12.3
			c10.1,0.9,18.8-0.4,25.9-3.8C179.1,3.3,200.1,17.9,179.8-12.3z M160.4-38.3c5.7,1.2,20.2,5.7,23.3,11.1
			C185-24.9,183.2-10,160.4-38.3z M162-43c6.1-12.6,19.3-38.7,29.5-30.1C200.3-63.1,174.5-49.4,162-43z M211.5-93.6
			C211.5-93.6,211.5-93.6,211.5-93.6C211.5-93.5,211.5-93.5,211.5-93.6c0.6,0,6.1,22.2-18.1,18.5C189.2-99.2,211.5-94.2,211.5-93.6z
			 M159.3-42.2c-11.4-48.5,5-37.1,6.2-34.6C169.3-68.9,162.3-49.3,159.3-42.2z M195.7-47.2c2.6,1.2,14.3,17.4-34.4,7
			C168.2-43.5,187.7-50.8,195.7-47.2z M145.8-64.4c5.5,2.9,10.2,17.3,11.5,23C128.6-63.5,143.4-65.7,145.8-64.4z M134.1-86.1
			c-3.2,7.2-4.4,15.9-3.2,26C100.4-79.8,115.4-59.1,134.1-86.1z M93.7-84.9c25.7-4.8,25.1,13.6-2.2,4.9
			C66.9-94.8,80.4-107.4,93.7-84.9z M101.9-103c17.1-12,22.5,3.3-6.7,14.7C84.6-117.7,99.7-123.8,101.9-103z M102.4-74.8
			c14.8,2.2,18.2-14.5-2.6-12.8c28-10.5,21.1-28.1,3.4-18.2c-4.2-19.9-22-13.5-11.5,14.5C79.3-108,69-94.5,80.4-84.8
			c-14.6-7.4-15.7-42.3,15.6-55c7.8-3.5,17-5.6,26-7.3c4.7,7.9,9.1,16.1,11.6,24.3C144.6-90.9,117.6-68.7,102.4-74.8z M176.6-16.7
			c-8.9-12.3-3.6-2.6,3.3-2.6c5.1,0,12.7-8.2-3.8-15.9c34.2,5.5,33.9-23-2.5-11.8c10-5.7,26.6-16.6,20.2-26.2
			c16.1,2.2,22.7-5.5,19.7-20.3c2.2,1.4,4.8,1.4,6.4-0.2c3.5-3.4,2-6.1-0.8-7.6c-1.5-2.7-4.3-4.1-7.6-0.6c-1.6,1.7-1.5,4.3,0,6.4
			c-14.9-2.7-22.4,4-19.9,20.1c-9.8-6.2-20.3,10.6-25.8,20.7c10.4-36.6-18.1-36.3-11.9-2.2c-8-16.4-16.1-8.6-16-3.5
			c0.2,7,10,12-2.5,3.4c-10.2-64.6,68.1-46.5,90.5-51.1C221.6-85.8,241.4-7.8,176.6-16.7z M205.5,37.7c9.9,11.2,23.3,0.6,6.2-11.4
			c28.2,10,34.2-8,14.3-11.8c9.5-17.9-8.2-24.5-18.1,3.7c1.3-20.8-15.3-17.1-12.8-2.3c-6.4-15,15.2-42.5,47.3-32.1
			c8.2,2.3,16.6,6.6,24.5,11.1c-1.5,9-3.4,18.2-6.7,26.1C248.1,52.5,213.2,52.1,205.5,37.7z M223.2,15.8c20.8,1.8,15.1,17-14.6,7
			C219.4-6.6,234.9-1.6,223.2,15.8z"/>
	</g>
</g>
</svg>
