<?xml version="1.0" encoding="utf-8"?>
<!-- Generator: Adobe Illustrator 22.0.1, SVG Export Plug-In . SVG Version: 6.00 Build 0)  -->
<svg version="1.1" id="Layer_1" xmlns="http://www.w3.org/2000/svg" xmlns:xlink="http://www.w3.org/1999/xlink" x="0px" y="0px"
	 viewBox="0 0 40.4 38.5" style="enable-background:new 0 0 40.4 38.5;" xml:space="preserve">
<style type="text/css">
	.st0{fill:#F7F8F9;}
	.st1{fill:#E1BB31;}
	.st2{fill:#FFFFFA;}
	.st3{fill:#FFFFFF;}
	.st4{fill-rule:evenodd;clip-rule:evenodd;fill:#FFFFFF;}
</style>
<g>
	<g>
		<path class="st1" d="M34.9,21c0,8.1-6.6,14.7-14.7,14.7C12,35.8,5.4,29.2,5.4,21S12,6.3,20.2,6.3C28.3,6.3,34.9,12.9,34.9,21z"/>
	</g>
	<g>
		<path class="st3" d="M28.8,16.1C28.8,16.1,28.8,16.1,28.8,16.1l-5.3,5l5.3,4.9c0,0,0-0.1,0-0.1V16.1L28.8,16.1z"/>
		<path class="st3" d="M22.7,21.9L20.6,24c-0.1,0.1-0.3,0.2-0.4,0.2c-0.1,0-0.3-0.1-0.4-0.2l-2.2-2l-5.3,5.1c0.1,0,0.3,0.1,0.4,0.1
			h14.9c0.2,0,0.4-0.1,0.6-0.2L22.7,21.9z"/>
		<path class="st3" d="M20.2,22.8l8.1-7.8c-0.2-0.1-0.4-0.2-0.6-0.2H12.7c-0.3,0-0.6,0.1-0.8,0.3L20.2,22.8z"/>
		<path class="st3" d="M11.5,16.3V26c0,0.1,0,0.2,0.1,0.3l5.3-5.1L11.5,16.3z"/>
	</g>
</g>
</svg>
