<?xml version="1.0" encoding="utf-8"?>
<!-- Generator: Adobe Illustrator 22.0.1, SVG Export Plug-In . SVG Version: 6.00 Build 0)  -->
<svg version="1.1" id="Layer_1" xmlns="http://www.w3.org/2000/svg" xmlns:xlink="http://www.w3.org/1999/xlink" x="0px" y="0px"
	 viewBox="0 0 40.4 38.5" style="enable-background:new 0 0 40.4 38.5;" xml:space="preserve">
<style type="text/css">
	.st0{fill:#F7F8F9;}
	.st1{fill:#E1BB31;}
	.st2{fill:#FFFFFA;}
	.st3{fill:#FFFFFF;}
	.st4{fill-rule:evenodd;clip-rule:evenodd;fill:#FFFFFF;}
</style>
<g>
	<g>
		<path class="st1" d="M19.8,31.3c-7,0-12.7-5.7-12.7-12.7c0-7,5.7-12.7,12.7-12.7c7,0,12.7,5.7,12.7,12.7
			C32.5,25.6,26.8,31.3,19.8,31.3z"/>
	</g>
	<g>
		<path class="st4" d="M17.8,18.7V26c0,0.1,0.1,0.2,0.2,0.2h2.7c0.1,0,0.2-0.1,0.2-0.2v-7.5h2c0.1,0,0.2-0.1,0.2-0.2l0.2-2.2
			c0-0.1-0.1-0.2-0.2-0.2H21v-1.6c0-0.4,0.3-0.7,0.7-0.7h1.5c0.1,0,0.2-0.1,0.2-0.2v-2.2c0-0.1-0.1-0.2-0.2-0.2h-2.6
			c-1.5,0-2.7,1.2-2.7,2.7v2.2h-1.4c-0.1,0-0.2,0.1-0.2,0.2v2.2c0,0.1,0.1,0.2,0.2,0.2h1.4V18.7z"/>
	</g>
</g>
</svg>
