<?xml version="1.0" encoding="utf-8"?>
<!-- Generator: Adobe Illustrator 22.0.1, SVG Export Plug-In . SVG Version: 6.00 Build 0)  -->
<svg version="1.1" id="Layer_1" xmlns="http://www.w3.org/2000/svg" xmlns:xlink="http://www.w3.org/1999/xlink" x="0px" y="0px"
	 viewBox="0 0 40.4 38.5" style="enable-background:new 0 0 40.4 38.5;" xml:space="preserve">
<style type="text/css">
	.st0{fill:#F7F8F9;}
	.st1{fill:#E1BB31;}
	.st2{fill:#FFFFFA;}
	.st3{fill:#FFFFFF;}
	.st4{fill-rule:evenodd;clip-rule:evenodd;fill:#FFFFFF;}
</style>
<g>
	<path class="st3" d="M30.9,18.5c0,6.1-4.9,11-11,11c-6.1,0-11-4.9-11-11c0-6.1,4.9-11,11-11C26,7.5,30.9,12.4,30.9,18.5z"/>
	<g>
		<path class="st1" d="M19.9,31.2c-6.9,0-12.6-5.6-12.6-12.6S12.9,6,19.9,6s12.6,5.6,12.6,12.6S26.8,31.2,19.9,31.2z M24.1,13.5
			c-0.5,0-0.9,0.4-0.9,0.9c0,0.5,0.4,0.9,0.9,0.9c0.5,0,0.9-0.4,0.9-0.9C25.1,13.9,24.6,13.5,24.1,13.5z M20,14.7
			c-2.2,0-3.9,1.8-3.9,3.9c0,2.2,1.8,3.9,3.9,3.9c2.2,0,3.9-1.8,3.9-3.9C23.9,16.5,22.1,14.7,20,14.7z M20,21.1
			c-1.4,0-2.5-1.1-2.5-2.5s1.1-2.5,2.5-2.5c1.4,0,2.5,1.1,2.5,2.5S21.4,21.1,20,21.1z M27.9,15.4c0-2.6-2.1-4.8-4.8-4.8h-6.3
			c-2.6,0-4.8,2.1-4.8,4.8v6.3c0,2.6,2.1,4.8,4.8,4.8h6.3c2.6,0,4.8-2.1,4.8-4.8V15.4z M26.4,21.7c0,1.8-1.5,3.3-3.3,3.3h-6.3
			c-1.8,0-3.3-1.5-3.3-3.3v-6.3c0-1.8,1.5-3.3,3.3-3.3h6.3c1.8,0,3.3,1.5,3.3,3.3V21.7z"/>
	</g>
</g>
</svg>
