<?xml version="1.0" encoding="utf-8"?>
<!-- Generator: Adobe Illustrator 22.0.1, SVG Export Plug-In . SVG Version: 6.00 Build 0)  -->
<svg version="1.1" id="Layer_1" xmlns="http://www.w3.org/2000/svg" xmlns:xlink="http://www.w3.org/1999/xlink" x="0px" y="0px"
	 viewBox="0 0 100 100" style="enable-background:new 0 0 100 100;" xml:space="preserve">
<style type="text/css">
	.st0{fill:#FFFFFF;}
	.st1{fill:#E1BB34;}
</style>
<circle class="st0" cx="49.4" cy="50" r="30"/>
<path class="st1" d="M49.4,67.4c-0.8-1.1-1.6-2.1-2.4-3.2c-2.6-3.4-5.2-6.9-7.9-10.3c-4.3-5.6-3.7-13.1,1.4-17.8
	c3.8-3.5,8.3-4.4,13.1-2.8c4.8,1.6,7.7,5,8.7,10c0.8,3.8-0.1,7.3-2.4,10.3c-3.4,4.6-6.9,9.1-10.4,13.6
	C49.5,67.3,49.5,67.3,49.4,67.4z M56.2,45.9c0-3.8-3.1-6.9-6.9-6.8c-3.8,0-6.9,3.1-6.8,6.9c0,3.8,3.1,6.9,6.9,6.9
	C53.2,52.7,56.3,49.6,56.2,45.9z"/>
</svg>
