<?xml version="1.0" encoding="utf-8"?>
<!-- Generator: Adobe Illustrator 22.0.1, SVG Export Plug-In . SVG Version: 6.00 Build 0)  -->
<svg version="1.1" id="Layer_1" xmlns="http://www.w3.org/2000/svg" xmlns:xlink="http://www.w3.org/1999/xlink" x="0px" y="0px"
	 viewBox="0 0 40.4 38.5" style="enable-background:new 0 0 40.4 38.5;" xml:space="preserve">
<style type="text/css">
	.st0{fill:#F7F8F9;}
	.st1{fill:#E1BB31;}
	.st2{fill:#FFFFFA;}
	.st3{fill:#FFFFFF;}
	.st4{fill-rule:evenodd;clip-rule:evenodd;fill:#FFFFFF;}
</style>
<g>
	<path class="st1" d="M34.9,18.1c0,8.1-6.6,14.7-14.7,14.7c-8.1,0-14.7-6.6-14.7-14.7S12,3.4,20.2,3.4C28.3,3.4,34.9,10,34.9,18.1z"
		/>
	<path class="st3" d="M24.7,10.9C23.5,9.7,21.9,9,20.2,9c-1.7,0-3.3,0.7-4.5,1.9c-2.2,2.2-2.5,6.4-0.6,9l5.1,7.4l5.1-7.4
		C27.2,17.3,26.9,13.1,24.7,10.9z M20.2,17.7c-1.3,0-2.3-1-2.3-2.3s1-2.3,2.3-2.3c1.3,0,2.3,1,2.3,2.3S21.5,17.7,20.2,17.7z"/>
</g>
</svg>
