<?xml version="1.0" encoding="utf-8"?>
<!-- Generator: Adobe Illustrator 22.0.1, SVG Export Plug-In . SVG Version: 6.00 Build 0)  -->
<svg version="1.1" id="Layer_1" xmlns="http://www.w3.org/2000/svg" xmlns:xlink="http://www.w3.org/1999/xlink" x="0px" y="0px"
	 viewBox="0 0 157.4 75.2" style="enable-background:new 0 0 157.4 75.2;" xml:space="preserve">
<style type="text/css">
	.st0{fill:#F7F8F9;}
	.st1{fill:#FFFFFF;}
	.st2{font-family:'HurmeGeometricSans1-SemiBold';}
	.st3{font-size:13.3385px;}
	.st4{fill:#E1BB31;}
	.st5{fill:#FFFFFA;}
</style>
<g>
	<text transform="matrix(1 0 0 1 85.7445 27.2297)"><tspan x="0" y="0" class="st1 st2 st3">Islamic</tspan><tspan x="0" y="16" class="st1 st2 st3">Scholars</tspan><tspan x="0" y="32" class="st1 st2 st3">Center</tspan></text>
	<g>
		<path class="st4" d="M44,60.8L44,60.8c-3.2-1.4-6.1-3.6-8.4-6.4c-2.3-2.8-3.9-6.1-4.7-9.5c-0.8-3.5-0.8-7.2,0-10.7
			c0.8-3.5,2.5-6.9,4.8-9.7c2.4-2.8,5.4-5.1,8.8-6.6l-0.1-0.1c-3.4,1.4-6.5,3.7-8.9,6.5c-2.4,2.8-4.1,6.2-4.9,9.7
			c-0.8,3.5-0.9,7.3-0.1,10.8c0.4,1.8,1,3.5,1.8,5.1c0.8,1.6,1.8,3.1,2.9,4.6c1.1,1.4,2.4,2.6,3.9,3.8c0.3,0.2,0.5,0.4,0.8,0.6
			c0.1,0.1,0.2,0.1,0.3,0.2c0.1,0.1,0.3,0.2,0.4,0.3c0.1,0,0.1,0.1,0.2,0.1l0.6,0.4l0.6,0.3c0.1,0,0.1,0.1,0.2,0.1
			c0.1,0.1,0.3,0.2,0.4,0.2c0.1,0.1,0.2,0.1,0.3,0.2c0.3,0.1,0.6,0.3,0.9,0.4c1.7,0.8,3.4,1.3,5.2,1.7c1.5,0.3,3.1,0.5,4.6,0.5
			c0.3,0,0.5,0,0.8,0c3.7-0.1,7.3-1.1,10.5-2.9c3.3-1.8,6.1-4.4,8.2-7.4l-0.1-0.1c-2.1,3-4.9,5.5-8.1,7.2c-3.2,1.7-6.7,2.7-10.3,2.8
			C50.8,62.9,47.2,62.2,44,60.8z"/>
		<path class="st4" d="M51.9,64.8L51.9,64.8c-0.7,0-1.4-0.1-2-0.2l-1.1-0.2c-0.2,0-0.4-0.1-0.7-0.1c-0.1,0-0.2-0.1-0.4-0.1
			c-1.4-0.3-2.7-0.8-4-1.3c-1.2-0.5-2.5-1.2-3.7-2c-1.2-0.8-2.3-1.6-3.3-2.5c-1-0.9-2-1.9-2.8-3c-0.1-0.1-0.2-0.2-0.2-0.3
			c-0.1-0.2-0.3-0.3-0.4-0.5l-0.6-0.8l-0.6-0.9c-0.1-0.2-0.2-0.4-0.3-0.6c-0.1-0.1-0.1-0.2-0.2-0.3c-2.7-4.8-3.8-10.5-3-16.1
			c0.2-1.4,0.5-2.8,0.9-4.1c0.4-1.4,1-2.7,1.6-3.9c0.6-1.2,1.4-2.5,2.3-3.6c0.9-1.2,1.9-2.3,2.9-3.3l-0.1-0.1c-4.3,4-7.2,9.3-8,15
			c-0.9,5.7,0.2,11.5,2.9,16.4c0.6,1.2,1.4,2.4,2.3,3.5c0.9,1.1,1.8,2.1,2.9,3.1c2.2,1.9,4.6,3.5,7.1,4.6c2.7,1.1,5.5,1.8,8.3,2
			c0.6,0,1.2,0.1,1.8,0.1c2.3,0,4.6-0.3,6.8-0.9l0-0.2C57.6,64.8,54.7,65,51.9,64.8z"/>
		<path class="st4" d="M78.2,39.4c0,1.3-0.1,2.5-0.3,3.7c-0.2,1.2-0.5,2.4-0.8,3.6c-0.4,1.2-0.8,2.3-1.3,3.4
			c-0.5,1.1-1.2,2.1-1.8,3.1c-2.7,3.9-6.6,7.1-11,8.8c-4.4,1.8-9.3,2.2-13.9,1.3c-0.2,0-0.4-0.1-0.6-0.1c-0.1,0-0.2,0-0.3-0.1
			l-0.4-0.1l-0.4-0.1c-0.1,0-0.2-0.1-0.3-0.1c-0.2-0.1-0.4-0.1-0.5-0.2l-0.8-0.3c-0.1,0-0.3-0.1-0.4-0.2l-0.8-0.3
			c-0.1,0-0.2-0.1-0.3-0.1c0,0-0.1,0-0.1-0.1c-0.1,0-0.2-0.1-0.3-0.1c-0.2-0.1-0.3-0.2-0.5-0.2l-1-0.5l-1-0.6
			c-0.1,0-0.2-0.1-0.2-0.1c0,0-0.1-0.1-0.1-0.1c-0.1-0.1-0.2-0.1-0.3-0.2c-0.2-0.1-0.3-0.2-0.5-0.3L39.4,59c-1-0.8-1.9-1.5-2.7-2.3
			c-0.9-0.9-1.7-1.8-2.3-2.6c-0.8-1-1.4-2-1.9-3c-0.6-1.1-1.1-2.2-1.5-3.2c-0.1-0.2-0.1-0.4-0.2-0.5c0-0.1-0.1-0.2-0.1-0.3l-0.1-0.4
			l-0.1-0.4c0-0.1-0.1-0.2-0.1-0.3c-0.1-0.2-0.1-0.4-0.2-0.5L30,44.5c-1-4.6-0.6-9.6,1.1-14c1.7-4.5,4.9-8.4,8.8-11.2
			c1.1-0.7,2.1-1.4,3.1-1.9c1.1-0.5,2.3-1,3.4-1.4c1.2-0.4,2.4-0.7,3.6-0.9c1.2-0.2,2.4-0.3,3.7-0.3l0-0.2c-1.3,0-2.5,0.1-3.7,0.3
			c-1.2,0.2-2.4,0.5-3.6,0.8c-1.2,0.4-2.3,0.8-3.4,1.3c-1.1,0.5-2.1,1.1-3.2,1.8c-4,2.7-7.3,6.7-9.1,11.2c-1.8,4.4-2.3,9.5-1.3,14.2
			c0.9,4.7,3.3,9.1,6.8,12.5c3.4,3.4,7.8,5.8,12.5,6.8c1.6,0.3,3.3,0.5,5,0.5c3.2,0,6.4-0.6,9.3-1.8c4.5-1.8,8.5-5,11.2-9.1
			c0.7-1.1,1.3-2.1,1.8-3.2c0.5-1.1,1-2.3,1.3-3.5c0.3-1.2,0.6-2.4,0.8-3.6c0.2-1.2,0.3-2.4,0.3-3.7L78.2,39.4z"/>
		<path class="st4" d="M62.9,32.1c0-0.1,0-0.1-0.1-0.1c-1.3-0.7-2.8-1.2-4.4-1.5c-0.1-0.2-0.2-0.3-0.3-0.5c-0.1-0.2-0.3-0.4-0.3-0.6
			c0.1-0.1,0.3-0.2,0.3-0.3c0-0.1,0-0.2-0.1-0.2c0,0,0,0-0.1,0c0.1-0.1,0.2-0.2,0.3-0.4c0,0,0-0.1,0.1-0.1c0,0,0,0,0,0
			c0-1.8-0.7-3.4-2.5-4.8c0-0.1,0-0.1,0.1-0.2c0-0.1,0.1-0.1,0-0.2c0-0.1-0.1-0.1-0.2-0.1h-0.9c-0.6-0.5-1.1-1.2-1.4-1.9
			c0.3-0.1,0.6-0.3,0.7-0.6c0-0.1,0-0.2-0.1-0.2c0,0-0.1,0-0.1,0c0,0-0.1,0-0.1,0c-0.1,0.1-0.2,0.1-0.4,0.1c-0.3,0-0.6-0.3-0.6-0.6
			c0-0.2,0.1-0.3,0.2-0.4c0.1-0.1,0.1-0.2,0-0.2c0-0.1-0.1-0.1-0.2-0.1c0,0,0,0-0.1,0c-0.4,0.1-0.8,0.5-0.8,1c0,0.4,0.2,0.7,0.6,0.9
			c-0.3,0.8-0.8,1.5-1.4,2h-0.9c-0.1,0-0.1,0-0.2,0.1c0,0.1,0,0.1,0,0.2c0,0,0.1,0.1,0.1,0.2c-1.7,1.4-2.5,3-2.5,4.8c0,0,0,0,0,0
			c0,0,0,0.1,0.1,0.1c0.1,0.1,0.1,0.1,0.2,0.2c0,0,0,0.1,0,0.1c0,0.2,0.1,0.4,0.3,0.5c-0.1,0.3-0.2,0.5-0.4,0.7
			c-0.1,0.2-0.2,0.3-0.3,0.5c-1.6,0.3-3.1,0.8-4.4,1.5c0,0-0.1,0.1-0.1,0.1c0,0,0,0,0,0v0.2c0,0.1,0.1,0.2,0.2,0.2c0,0,0,0,0.1,0
			v8.6c0,0.1,0.1,0.2,0.2,0.2h4.3c0,0,0,0,0,0h1.4c0,0,0,0,0,0h7.3c0,0,0,0,0,0h1.4c0,0,0,0,0,0h4.3c0.1,0,0.2-0.1,0.2-0.2v-8.6
			c0,0,0,0,0.1,0c0.1,0,0.2-0.1,0.2-0.2L62.9,32.1C63,32.1,62.9,32.1,62.9,32.1z"/>
		<path class="st4" d="M43.2,34.4L43.2,34.4l0-0.2c0-0.1-0.1-0.2-0.2-0.2v-0.6l0,0c0.1-0.1,0.1-0.2,0-0.2c0,0,0-0.1-0.1-0.1
			c0.1-0.3-0.1-0.6-0.2-0.7c-0.1-0.1-0.1-0.2-0.2-0.4c0-0.1-0.1-0.2-0.2-0.2c-0.1,0-0.2,0.1-0.2,0.2c0,0.1-0.1,0.2-0.2,0.4
			c0,0,0,0,0,0v-3.8c0.1,0,0.1,0,0.1-0.1l0.2-0.3c0,0,0,0,0-0.1c0,0,0,0,0,0c0,0,0,0,0,0c0,0,0,0,0,0v-0.3c0-0.1-0.1-0.2-0.2-0.2
			h-0.2v-4l0.2-0.4c0,0,0,0,0-0.1c0,0,0,0,0,0v-0.2l0.2-0.2c0.1-0.1,0.1-0.2,0-0.2c0-0.1-0.1-0.1-0.2-0.1h0v-2.9l0.2-0.2
			c0.1-0.1,0.1-0.2,0-0.2c0-0.1-0.1-0.1-0.2-0.1h0v-0.1c0-0.1,0-0.1-0.1-0.2c0.3-1.2-0.1-1.8-0.6-2.5c-0.2-0.4-0.5-0.7-0.6-1.2
			c0.3-0.1,0.5-0.2,0.6-0.5c0-0.1,0-0.2-0.1-0.3c0,0-0.1,0-0.1,0c0,0-0.1,0-0.1,0C41.1,14,41,14,40.9,14c-0.2,0-0.4-0.2-0.4-0.4
			c0-0.1,0-0.2,0.1-0.3c0.1-0.1,0.1-0.2,0-0.3c0-0.1-0.1-0.1-0.2-0.1c0,0,0,0-0.1,0c-0.4,0.1-0.6,0.5-0.6,0.9c0,0.3,0.2,0.7,0.5,0.8
			c-0.1,0.5-0.4,0.9-0.6,1.3c-0.4,0.6-0.9,1.3-0.6,2.5c-0.1,0-0.1,0.1-0.1,0.2v0.1h0c-0.1,0-0.2,0.1-0.2,0.1c0,0.1,0,0.2,0,0.2
			l0.2,0.2v2.9h0c-0.1,0-0.2,0.1-0.2,0.1c0,0.1,0,0.2,0,0.2l0.2,0.2V23c0,0,0,0,0,0c0,0,0,0,0,0l0.2,0.4v4H39
			c-0.1,0-0.2,0.1-0.2,0.2v0.3c0,0,0,0,0,0c0,0,0,0,0,0c0,0,0,0,0,0c0,0,0,0,0,0.1l0.2,0.3c0,0,0.1,0.1,0.1,0.1v3.8c0,0,0,0,0,0
			c-0.1-0.1-0.1-0.2-0.2-0.4c0-0.1-0.1-0.2-0.2-0.2c-0.1,0-0.2,0.1-0.2,0.2c0,0.1-0.1,0.2-0.2,0.4c-0.1,0.2-0.3,0.4-0.2,0.7
			c0,0,0,0-0.1,0.1c0,0.1,0,0.2,0,0.2l0,0V34c-0.1,0-0.2,0.1-0.2,0.2v0.2h0c-0.1,0-0.2,0.1-0.2,0.2v0.3c0,0.1,0.1,0.2,0.2,0.2h0V41
			c0,0.1,0.1,0.2,0.2,0.2h4.6c0.1,0,0.2-0.1,0.2-0.2v-5.9h0c0.1,0,0.2-0.1,0.2-0.2v-0.3C43.4,34.5,43.3,34.4,43.2,34.4z"/>
		<path class="st4" d="M68.3,34.4L68.3,34.4l0-0.2c0-0.1-0.1-0.2-0.2-0.2v-0.6l0,0c0.1-0.1,0.1-0.2,0-0.2c0,0,0-0.1-0.1-0.1
			c0.1-0.3-0.1-0.6-0.2-0.7c-0.1-0.1-0.1-0.2-0.2-0.4c0-0.1-0.1-0.2-0.2-0.2s-0.2,0.1-0.2,0.2c0,0.1-0.1,0.2-0.2,0.4c0,0,0,0,0,0
			v-3.8c0.1,0,0.1,0,0.1-0.1l0.2-0.3c0,0,0,0,0-0.1c0,0,0,0,0,0c0,0,0,0,0,0c0,0,0,0,0,0v-0.3c0-0.1-0.1-0.2-0.2-0.2h-0.2v-4
			l0.2-0.4c0,0,0,0,0-0.1c0,0,0,0,0,0v-0.2l0.2-0.2c0.1-0.1,0.1-0.2,0-0.2c0-0.1-0.1-0.1-0.2-0.1h0v-2.9l0.2-0.2
			c0.1-0.1,0.1-0.2,0-0.2c0-0.1-0.1-0.1-0.2-0.1h0v-0.1c0-0.1,0-0.1-0.1-0.2c0.3-1.2-0.1-1.8-0.6-2.5c-0.2-0.4-0.5-0.7-0.6-1.2
			c0.3-0.1,0.5-0.2,0.6-0.5c0-0.1,0-0.2-0.1-0.3c0,0-0.1,0-0.1,0c0,0-0.1,0-0.1,0C66.3,14,66.2,14,66.1,14c-0.2,0-0.4-0.2-0.4-0.4
			c0-0.1,0-0.2,0.1-0.3c0.1-0.1,0.1-0.2,0-0.3c0-0.1-0.1-0.1-0.2-0.1c0,0,0,0-0.1,0c-0.4,0.1-0.6,0.5-0.6,0.9c0,0.3,0.2,0.7,0.5,0.8
			c-0.1,0.5-0.4,0.9-0.6,1.3c-0.4,0.6-0.9,1.3-0.6,2.5c-0.1,0-0.1,0.1-0.1,0.2v0.1h0c-0.1,0-0.2,0.1-0.2,0.1c0,0.1,0,0.2,0,0.2
			l0.2,0.2v2.9h0c-0.1,0-0.2,0.1-0.2,0.1c0,0.1,0,0.2,0,0.2l0.2,0.2V23c0,0,0,0,0,0c0,0,0,0,0,0l0.2,0.4v4h-0.2
			c-0.1,0-0.2,0.1-0.2,0.2v0.3c0,0,0,0,0,0c0,0,0,0,0,0c0,0,0,0,0,0c0,0,0,0,0,0.1l0.2,0.3c0,0,0.1,0.1,0.1,0.1v3.8c0,0,0,0,0,0
			c-0.1-0.1-0.1-0.2-0.2-0.4c0-0.1-0.1-0.2-0.2-0.2s-0.2,0.1-0.2,0.2c0,0.1-0.1,0.2-0.2,0.4c-0.1,0.2-0.3,0.4-0.2,0.7
			c0,0,0,0-0.1,0.1c0,0.1,0,0.2,0,0.2l0,0V34c-0.1,0-0.2,0.1-0.2,0.2v0.2h0c-0.1,0-0.2,0.1-0.2,0.2v0.3c0,0.1,0.1,0.2,0.2,0.2h0V41
			c0,0.1,0.1,0.2,0.2,0.2h4.6c0.1,0,0.2-0.1,0.2-0.2v-5.9h0c0.1,0,0.2-0.1,0.2-0.2v-0.3C68.5,34.5,68.4,34.4,68.3,34.4z"/>
		<path class="st4" d="M73.2,35.6L73.2,35.6l0-0.1c0-0.1-0.1-0.2-0.2-0.2v-0.5l0,0c0-0.1,0.1-0.1,0-0.2c0,0,0,0,0-0.1
			c0.1-0.3-0.1-0.5-0.2-0.6c-0.1-0.1-0.1-0.2-0.1-0.3c0-0.1-0.1-0.2-0.2-0.2c-0.1,0-0.2,0.1-0.2,0.2c0,0.1-0.1,0.2-0.1,0.3
			c0,0,0,0,0,0v-3.1c0,0,0.1,0,0.1-0.1l0.2-0.2c0,0,0,0,0-0.1c0,0,0,0,0,0c0,0,0,0,0,0c0,0,0,0,0,0v-0.2c0-0.1-0.1-0.2-0.2-0.2h-0.2
			v-3.3l0.1-0.4c0,0,0,0,0,0c0,0,0,0,0,0v-0.2l0.2-0.2c0-0.1,0.1-0.1,0-0.2c0-0.1-0.1-0.1-0.2-0.1h0v-2.4l0.2-0.2
			c0-0.1,0.1-0.1,0-0.2c0-0.1-0.1-0.1-0.2-0.1h0v-0.1c0-0.1,0-0.1-0.1-0.2c0.3-0.9-0.1-1.5-0.5-2c-0.2-0.3-0.4-0.6-0.5-1
			c0.2,0,0.4-0.2,0.5-0.4c0-0.1,0-0.2,0-0.2c0,0-0.1,0-0.1,0c0,0-0.1,0-0.1,0c-0.1,0-0.1,0.1-0.2,0.1c-0.2,0-0.3-0.1-0.3-0.3
			c0-0.1,0-0.2,0.1-0.2c0.1-0.1,0.1-0.1,0-0.2c0-0.1-0.1-0.1-0.2-0.1c0,0,0,0-0.1,0c-0.3,0.1-0.5,0.4-0.5,0.7c0,0.3,0.2,0.5,0.4,0.7
			c-0.1,0.4-0.3,0.7-0.5,1c-0.3,0.5-0.7,1.1-0.5,2c0,0-0.1,0.1-0.1,0.2v0.1h0c-0.1,0-0.1,0-0.2,0.1c0,0.1,0,0.1,0,0.2l0.2,0.2v2.4h0
			c-0.1,0-0.1,0-0.2,0.1c0,0.1,0,0.1,0,0.2l0.2,0.2v0.2c0,0,0,0,0,0c0,0,0,0,0,0l0.1,0.4v3.3h-0.2c-0.1,0-0.2,0.1-0.2,0.2v0.2
			c0,0,0,0,0,0c0,0,0,0,0,0c0,0,0,0,0,0c0,0,0,0,0,0l0.2,0.2c0,0,0.1,0.1,0.1,0.1V34c0,0,0,0,0,0c-0.1-0.1-0.1-0.2-0.1-0.3
			c0-0.1-0.1-0.2-0.2-0.2c-0.1,0-0.2,0.1-0.2,0.2c0,0.1-0.1,0.2-0.1,0.3c-0.1,0.1-0.2,0.3-0.2,0.6c0,0,0,0,0,0.1c0,0.1,0,0.1,0,0.2
			l0,0v0.5c-0.1,0-0.2,0.1-0.2,0.2v0.1h0c-0.1,0-0.2,0.1-0.2,0.2V36c0,0.1,0.1,0.2,0.2,0.2h0V44c0,0.1,0.1,0.2,0.2,0.2H73
			c0.1,0,0.2-0.1,0.2-0.2v-7.7h0c0.1,0,0.2-0.1,0.2-0.2v-0.2C73.4,35.7,73.3,35.6,73.2,35.6z"/>
		<path class="st4" d="M37.4,35.6L37.4,35.6l0-0.1c0-0.1-0.1-0.2-0.2-0.2v-0.5l0,0c0-0.1,0.1-0.1,0-0.2c0,0,0,0,0-0.1
			c0.1-0.3-0.1-0.5-0.2-0.6C37,33.9,37,33.8,37,33.7c0-0.1-0.1-0.2-0.2-0.2c-0.1,0-0.2,0.1-0.2,0.2c0,0.1-0.1,0.2-0.1,0.3
			c0,0,0,0,0,0v-3.1c0,0,0.1,0,0.1-0.1l0.2-0.2c0,0,0,0,0-0.1c0,0,0,0,0,0c0,0,0,0,0,0c0,0,0,0,0,0v-0.2c0-0.1-0.1-0.2-0.2-0.2h-0.2
			v-3.3l0.1-0.4c0,0,0,0,0,0c0,0,0,0,0,0v-0.2l0.2-0.2c0-0.1,0.1-0.1,0-0.2c0-0.1-0.1-0.1-0.2-0.1h0v-2.4l0.2-0.2
			c0-0.1,0.1-0.1,0-0.2c0-0.1-0.1-0.1-0.2-0.1h0v-0.1c0-0.1,0-0.1-0.1-0.2c0.3-0.9-0.1-1.5-0.5-2c-0.2-0.3-0.4-0.6-0.5-1
			c0.2,0,0.4-0.2,0.5-0.4c0-0.1,0-0.2,0-0.2c0,0-0.1,0-0.1,0c0,0-0.1,0-0.1,0c-0.1,0-0.1,0.1-0.2,0.1c-0.2,0-0.3-0.1-0.3-0.3
			c0-0.1,0-0.2,0.1-0.2c0.1-0.1,0.1-0.1,0-0.2c0-0.1-0.1-0.1-0.2-0.1c0,0,0,0,0,0c-0.3,0.1-0.5,0.4-0.5,0.7c0,0.3,0.2,0.5,0.4,0.7
			c-0.1,0.4-0.3,0.7-0.5,1c-0.3,0.5-0.7,1.1-0.5,2c0,0-0.1,0.1-0.1,0.2v0.1h0c-0.1,0-0.1,0-0.2,0.1c0,0.1,0,0.1,0,0.2l0.2,0.2v2.4h0
			c-0.1,0-0.1,0-0.2,0.1c0,0.1,0,0.1,0,0.2l0.2,0.2v0.2c0,0,0,0,0,0c0,0,0,0,0,0l0.1,0.4v3.3h-0.2c-0.1,0-0.2,0.1-0.2,0.2v0.2
			c0,0,0,0,0,0c0,0,0,0,0,0c0,0,0,0,0,0c0,0,0,0,0,0l0.2,0.2c0,0,0.1,0.1,0.1,0.1V34c0,0,0,0,0,0c-0.1-0.1-0.1-0.2-0.1-0.3
			c0-0.1-0.1-0.2-0.2-0.2c-0.1,0-0.2,0.1-0.2,0.2c0,0.1-0.1,0.2-0.1,0.3c-0.1,0.1-0.2,0.3-0.2,0.6c0,0,0,0,0,0.1c0,0.1,0,0.1,0,0.2
			l0,0v0.5c-0.1,0-0.2,0.1-0.2,0.2v0.1h0c-0.1,0-0.2,0.1-0.2,0.2V36c0,0.1,0.1,0.2,0.2,0.2h0V41c0,0.1,0.1,0.2,0.2,0.2h3.8
			c0.1,0,0.2-0.1,0.2-0.2v-4.8h0c0.1,0,0.2-0.1,0.2-0.2v-0.2C37.6,35.7,37.5,35.6,37.4,35.6z"/>
		<path class="st5" d="M78.5,49.1c0,0.2-0.2,0.4-0.4,0.5l-16.5,8.7c0,0.5-0.4,1-1.2,1.4c-0.8,0.4-1.8,0.7-3,1
			c-0.8,0.2-1.7,0.2-2.4,0.2c-1.2,0-2.2-0.2-2.4-0.9l-20.6-1c-0.4,0-0.7-0.3-0.7-0.7l0.2-5.3c-0.5-0.4-1-0.6-1.6-0.7
			c-0.1,0-0.1,0-0.2,0c-0.2,0-0.4,0-0.6-0.1c-0.4-0.1-0.6-0.4-0.5-0.6c0.2-0.8,0.2-1.7,0.2-2.6c0-0.3,0.2-0.3,0.3-0.4
			c0.2-0.1,0.3,0,0.5,0c0.7,0.2,1.4,0.5,1.9,0.9l0.3-8.2c-0.5-0.4-1-0.6-1.6-0.7c-0.1,0-0.1,0-0.2,0c-0.2,0-0.4,0-0.6-0.1
			c-0.4-0.1-0.6-0.4-0.5-0.6c0.2-0.8,0.2-1.7,0.2-2.6c0-0.3,0.2-0.3,0.3-0.4c0.2-0.1,0.3,0,0.5,0c0.7,0.2,1.4,0.5,2,0.9l0.1-2.2
			c0-0.1,0.1-0.2,0.2-0.3c0.1-0.1,0.2-0.1,0.3-0.1l1.5,0.2c1.5,0,3.1-0.5,4.4-1.3c0,0,0.1,0,0.1,0c0,0,0.2,0.1,0.4,0.3
			c0-0.1,0-0.3,0-0.4c0,0,0-0.1,0.1-0.1c0,0,0.1,0,0.1,0c0.6,0.6,1.6,1.1,2.7,1.3c0.7,0.1,1.4,0.1,2.1,0.2c1.1,0,2.2,0.1,3.2,0.4
			c1.2,0.4,2,1.2,2.6,2.4c0.1-0.8,0.7-1.4,1.3-1.8c0.7-0.5,1.5-0.7,2.3-1l0.2-0.1c2.2-0.7,4.3-1.6,6.4-2.6c0,0,0.1,0,0.1,0
			c0.1,0.2,0.3,0.3,0.4,0.5l2.5,0.8l1-0.4c0.2-0.1,0.4,0,0.5,0.1l1.2,1.3c0.1-0.6,0.3-1.2,0.7-1.7c0.1-0.1,0.2-0.2,0.3-0.3
			c0.1,0,0.3-0.1,0.4,0c0.5,0.6,1,1.1,1.7,1.5c0.2,0.1,0.2,0.4,0.1,0.7c-0.1,0.2-0.2,0.3-0.3,0.4c0,0-0.1,0.1-0.1,0.1
			c-0.4,0.4-0.6,0.9-0.6,1.5l5.9,6.4c0.1-0.7,0.4-1.4,0.8-2c0.1-0.1,0.2-0.2,0.3-0.3c0.1,0,0.3-0.1,0.5,0.1c0.5,0.6,1.1,1.2,1.8,1.7
			c0.2,0.1,0.2,0.4,0.1,0.8c-0.1,0.2-0.2,0.3-0.3,0.4c0,0-0.1,0.1-0.1,0.1c-0.4,0.5-0.6,1.1-0.7,1.7l0,0l2.1,2.3
			C78.5,48.7,78.6,48.9,78.5,49.1z"/>
		<path class="st4" d="M65.8,52.6c-1.5,0.6-3,1-4.6,1.4c1.6-0.5,3.1-1,4.5-1.6c1.4-0.6,2.9-1.2,4.3-2C68.6,51.3,67.2,52,65.8,52.6z
			 M72.4,49.7c-1.8,1.1-3.5,2.1-5.5,3.1C69,52,70.7,51,72.4,49.7z M69.4,43.9c-2-2.7-3.9-5.1-6.2-7.7C65.2,38.9,67.2,41.3,69.4,43.9
			z M67.5,40.3c1.6,2.5,3.2,4.7,5,7C70.9,44.8,69.3,42.6,67.5,40.3z M58.3,56.8c0.3-0.5,0.7-1,1.1-1.3c0.4-0.4,0.9-0.7,1.5-0.9
			C59.7,54.8,58.6,55.6,58.3,56.8z M63.2,35.1c0.7,1.2,1.5,2.3,2.5,3.3C64.9,37.2,64.1,36.1,63.2,35.1z M59.5,57.4
			c-0.1,0.2,0.2,0.3,0.2,0.1c0,0.1,0.2,0.1,0.2-0.1c0,0.1,0.1,0.1,0.2-0.1c0,0.1,0.1,0.1,0.2-0.1c0,0.1,0.2,0.1,0.3-0.1
			c0.3-0.4,0.6-0.8,1-1.2c0.4-0.3,0.8-0.6,1.3-0.8c0,0,0.1,0,0.2-0.1c0.1,0,0.3-0.1,0.5-0.2c0.3-0.1,0.7-0.2,0.7-0.2
			c0,0-0.1,0-0.2,0c-0.1,0-0.2,0-0.2,0c-0.1,0-0.2,0-0.3,0.1c-0.2,0-0.4,0.1-0.5,0.2c-0.1,0.1-0.2,0.1-0.2,0.1
			c-0.5,0.2-0.9,0.5-1.3,0.8c0.3-0.2,0.6-0.4,0.9-0.6c0,0,0.1,0,0.2-0.1c0.1-0.1,0.3-0.1,0.4-0.2c0.3-0.1,0.6-0.2,0.6-0.2
			c0,0-0.1,0-0.2,0c-0.1,0-0.1,0-0.2,0.1c-0.1,0-0.2,0-0.2,0.1c-0.2,0.1-0.3,0.1-0.4,0.2c-0.1,0.1-0.2,0.1-0.2,0.1
			c-0.4,0.2-0.8,0.5-1.2,0.8c-0.1,0.1-0.3,0.3-0.4,0.4c0.3-0.4,0.7-0.8,1.2-1.1c0,0,0.1,0,0.2-0.1c0.1-0.1,0.2-0.1,0.4-0.2
			c0.3-0.1,0.6-0.2,0.6-0.2c0,0-0.1,0-0.2,0c-0.1,0-0.1,0-0.2,0.1c-0.1,0-0.1,0-0.2,0.1c-0.1,0.1-0.3,0.1-0.4,0.2
			c-0.1,0.1-0.2,0.1-0.2,0.1c-0.4,0.2-0.7,0.5-1,0.8c-0.2,0.2-0.4,0.4-0.5,0.7c0.3-0.5,0.7-1,1.1-1.3c0,0,0.1,0,0.1-0.1
			c0.1-0.1,0.2-0.1,0.3-0.2c0.2-0.1,0.5-0.2,0.5-0.3c0,0-0.3,0.1-0.5,0.2c-0.1,0.1-0.3,0.1-0.4,0.2c-0.1,0.1-0.2,0.1-0.2,0.1
			c-0.6,0.4-1.1,1-1.4,1.7c0.2-0.6,0.5-1.1,1-1.5c0,0,0.2-0.2,0.4-0.3c0.2-0.2,0.4-0.3,0.4-0.3c0,0-0.3,0.1-0.5,0.2
			c-0.2,0.1-0.4,0.3-0.4,0.3C60.1,56,59.6,56.7,59.5,57.4z M57.7,57.6c0.2-0.8,0.5-1.5,1.1-2.1c0,0,0,0,0.1-0.1
			c0.1-0.1,0.2-0.2,0.3-0.3c0.2-0.2,0.4-0.3,0.4-0.3c0,0-0.3,0.1-0.5,0.3c-0.2,0.2-0.4,0.4-0.4,0.4c-0.6,0.6-1,1.3-1.2,2.1
			C57.4,57.8,57.6,57.8,57.7,57.6z M58.9,57.5c0.3-0.6,0.6-1,0.8-1.6C59.2,56.3,59,56.9,58.9,57.5z M75.8,43.2
			c-0.1-0.1-0.2-0.1-0.2-0.2c-0.1,0-0.2-0.1-0.3-0.1c0.1,0,0.2,0.1,0.2,0.2c0.1,0.1,0.1,0.1,0.2,0.2c0.1,0.1,0.2,0.3,0.2,0.4
			c0,0.1,0,0.2,0,0.2c0,0.1,0,0.1-0.1,0.1c-0.1,0-0.2,0-0.2,0c-0.1,0-0.2-0.1-0.3-0.1c0.1,0.1,0.1,0.1,0.2,0.2
			c0.1,0,0.2,0.1,0.3,0.1c0.1,0,0.1,0,0.2-0.1c0.1,0,0.1-0.1,0.1-0.2c0-0.1,0-0.2,0-0.3C76.1,43.5,75.9,43.4,75.8,43.2z M67.6,34.7
			c-0.1-0.1-0.1-0.1-0.2-0.1c-0.1,0-0.2-0.1-0.3-0.1c0.1,0,0.1,0.1,0.2,0.2c0.1,0.1,0.1,0.1,0.2,0.2c0.1,0.1,0.2,0.2,0.2,0.4
			c0,0.1,0,0.1,0,0.2c0,0.1,0,0.1-0.1,0.1c-0.1,0-0.1,0-0.2,0c-0.1,0-0.2,0-0.2-0.1c0.1,0.1,0.1,0.1,0.2,0.2c0.1,0,0.2,0.1,0.3,0.1
			c0.1,0,0.1,0,0.2-0.1c0,0,0.1-0.1,0.1-0.1c0-0.1,0-0.2,0-0.3C67.9,35,67.8,34.8,67.6,34.7z M67.2,33.7
			C67.2,33.7,67.2,33.7,67.2,33.7c0.2,0.1,0.3,0.3,0.4,0.4c0.1,0.1,0.1,0.2,0.2,0.2c0.1,0.1,0.2,0.1,0.2,0.2
			c0.2,0.1,0.3,0.2,0.4,0.3c0.1,0.1,0.2,0.2,0.2,0.4c0,0,0,0,0,0.1c0,0,0,0-0.1,0.1c-0.1,0.1-0.1,0.1-0.2,0.2
			c-0.3,0.3-0.4,0.7-0.4,1c0.1-0.4,0.2-0.7,0.5-0.9c0.1-0.1,0.1-0.1,0.2-0.2c0,0,0.1-0.1,0.1-0.1c0,0,0.1-0.1,0.1-0.2
			c0-0.2-0.1-0.4-0.3-0.5c-0.2-0.1-0.3-0.2-0.5-0.3c-0.2-0.1-0.3-0.2-0.4-0.3c-0.1-0.1-0.2-0.3-0.4-0.4
			C67.3,33.6,67.3,33.6,67.2,33.7C67.2,33.6,67.2,33.6,67.2,33.7C67.1,33.7,67.1,33.7,67.2,33.7l-0.1,0.1c0,0.1-0.1,0.2-0.1,0.2
			C67,34,67,33.9,67.2,33.7C67.1,33.8,67.2,33.7,67.2,33.7z M41.7,57.7c1.5,0.1,2.8,0,4.2-0.2C44.5,57.4,43.1,57.5,41.7,57.7z
			 M65.4,36.7c1,1.3,1.9,2.5,3.1,3.6C67.5,39,66.6,37.9,65.4,36.7z M75.3,42.2C75.3,42.1,75.4,42.1,75.3,42.2
			c0.2,0.1,0.3,0.3,0.4,0.5c0.1,0.1,0.1,0.2,0.2,0.2c0.1,0.1,0.2,0.1,0.2,0.2c0.2,0.1,0.4,0.2,0.5,0.3c0.1,0.1,0.2,0.3,0.3,0.4
			c0,0,0,0.1,0,0.1c0,0-0.1,0.1-0.1,0.1c-0.1,0.1-0.2,0.1-0.2,0.2c-0.3,0.3-0.4,0.7-0.4,1.1c0.1-0.4,0.3-0.8,0.5-1
			c0.1-0.1,0.1-0.1,0.2-0.2c0,0,0.1-0.1,0.1-0.1c0,0,0.1-0.1,0.1-0.2c0-0.3-0.1-0.4-0.3-0.6c-0.2-0.1-0.4-0.2-0.5-0.3
			c-0.2-0.1-0.3-0.2-0.4-0.4c-0.1-0.1-0.2-0.3-0.4-0.4c0,0-0.1,0-0.1,0C75.3,42.1,75.3,42.1,75.3,42.2c-0.1,0-0.1,0-0.1,0.1
			c-0.1,0.1-0.1,0.2-0.2,0.3c0.1-0.1,0.1-0.2,0.2-0.2C75.2,42.2,75.3,42.2,75.3,42.2z M71.2,44.5c0.7,1.1,1.4,2,2.3,2.9
			C72.9,46.3,72.1,45.4,71.2,44.5z M65.5,54.1c1.6-0.3,3.1-0.8,4.5-1.4c1.4-0.6,2.8-1.4,4.1-2.4c-1.4,0.8-2.7,1.6-4.2,2.2
			C68.5,53.1,67.1,53.7,65.5,54.1z M74.1,48.7c-0.1,0-0.1,0-0.2,0c-0.1,0-0.1,0-0.1,0c0,0-0.1-0.1-0.2-0.1c0,0,0,0,0,0c0,0,0,0,0,0
			c-0.1-0.3-0.3-0.5-0.4-0.8c0,0-0.1-0.1-0.1-0.2c-0.1-0.1-0.1-0.1-0.1-0.1c0,0,0.1,0.1,0.1,0.2c0.1,0.1,0.1,0.2,0.1,0.2
			c0.1,0.2,0.2,0.4,0.3,0.7c-0.1,0-0.2,0-0.2,0.1c-0.1,0-0.1,0-0.2,0c-0.1,0-0.1,0-0.2-0.1c0,0.1,0.1,0.1,0.2,0.1c0.1,0,0.2,0,0.2,0
			c0.1,0,0.1,0,0.2,0c0.1,0,0.1,0,0.1,0.1c0,0,0.1,0.1,0.1,0.1c0.1,0.1,0.2,0.1,0.2,0.1c0.1,0,0.2,0,0.2,0c0.1,0,0.1,0,0.1,0
			c0,0,0,0,0.1,0c-0.2,0.1-0.3,0.2-0.5,0.4c0,0-0.1,0-0.1,0.1c-0.1,0-0.1,0.1-0.1,0.1c0,0,0.1,0,0.2-0.1c0.1,0,0.1-0.1,0.1-0.1
			c0.2-0.1,0.4-0.2,0.6-0.3c0,0,0,0,0,0c0.1,0,0.1,0,0.2,0c0.1,0,0.3,0,0.4,0c-0.1,0.1-0.3,0.3-0.5,0.4L74,49.8c0,0-0.5,0.4-0.5,0.4
			c0,0,0.6-0.3,0.6-0.3l0.6-0.4c0.2-0.1,0.4-0.2,0.6-0.4c0,0,0,0,0-0.1c0.2,0,0.4,0,0.7,0c-0.2-0.1-0.5-0.1-0.7-0.2c0,0,0,0,0-0.1
			c-0.2-0.5-0.5-1-0.9-1.5c0,0-0.1-0.2-0.2-0.3c-0.1-0.2-0.2-0.3-0.3-0.3c0,0,0.1,0.2,0.2,0.3c0.1,0.2,0.2,0.3,0.2,0.3
			c0.3,0.5,0.5,0.9,0.8,1.4c-0.1,0-0.2,0-0.3-0.1l-0.2,0c0,0,0,0,0,0c-0.2-0.3-0.4-0.6-0.6-0.9c0,0-0.1-0.1-0.2-0.2
			c-0.1-0.1-0.2-0.2-0.2-0.2c0,0,0.1,0.1,0.1,0.2c0.1,0.1,0.1,0.2,0.1,0.2c0.2,0.2,0.3,0.5,0.4,0.7c0,0-0.1,0-0.1,0
			C74.2,48.7,74.1,48.7,74.1,48.7z M70.7,51.3c0.9-0.3,1.6-0.8,2.2-1.6C72.2,50.3,71.5,50.7,70.7,51.3z M53.8,57.2
			c0.2,0.1,0.3,0.2,0.3,0.2c0.4,0.3,0.8,0.7,0.9,1.2c0.1,0.1,0.3,0.1,0.2-0.1c-0.3-0.5-0.7-0.9-1.1-1.2C54.1,57.3,54,57.2,53.8,57.2
			C53.6,57,53.5,57,53.4,57C53.4,57,53.6,57.1,53.8,57.2z M30.4,39.5c0.1,0.1,0.1,0.2,0.2,0.2c0.1,0,0.1,0.1,0.2,0
			c0.1,0,0.1,0,0.2-0.1c0.1-0.1,0.1-0.2,0.2-0.3c0-0.1,0-0.2,0-0.3c0,0.1-0.1,0.2-0.1,0.3c0,0.1-0.1,0.1-0.2,0.2c-0.1,0-0.1,0-0.2,0
			c-0.1,0-0.1-0.1-0.1-0.2c-0.1-0.1-0.1-0.3-0.1-0.5c0-0.1,0-0.2,0-0.3c0-0.1,0-0.2,0-0.3c-0.1,0.1-0.1,0.2-0.1,0.3
			c0,0.1-0.1,0.2-0.1,0.3C30.3,39.1,30.3,39.3,30.4,39.5z M30.1,51.1c0.1,0.1,0.1,0.2,0.2,0.2c0.1,0,0.1,0.1,0.2,0
			c0.1,0,0.1,0,0.2-0.1c0.1-0.1,0.1-0.2,0.2-0.3c0-0.1,0-0.2,0-0.3c0,0.1-0.1,0.2-0.1,0.3c0,0.1-0.1,0.1-0.2,0.2c-0.1,0-0.1,0-0.2,0
			c-0.1,0-0.1-0.1-0.1-0.2c-0.1-0.1-0.1-0.3-0.1-0.5c0-0.1,0-0.2,0-0.3c0-0.1,0-0.2,0-0.3c-0.1,0.1-0.1,0.2-0.1,0.3
			c0,0.1-0.1,0.2-0.1,0.3C29.9,50.7,30,50.9,30.1,51.1z M29.7,51.8c-0.1,0-0.1,0-0.1,0c0,0-0.1,0-0.1,0c-0.1-0.1-0.1-0.3-0.1-0.5
			c0-0.2,0.1-0.4,0.2-0.6c0-0.1,0.1-0.2,0.1-0.3c0-0.1,0-0.2,0-0.3c0-0.2-0.1-0.4-0.1-0.6c0,0,0-0.1,0.1-0.1c0,0,0.1,0,0.2,0
			c0.1,0,0.2,0,0.3,0c-0.1,0-0.2-0.1-0.3-0.1c-0.1,0-0.1,0-0.2,0c0,0-0.1,0-0.1,0c0,0,0,0.1,0,0.1c0,0.2,0,0.4,0,0.6
			c0,0.2,0,0.4-0.1,0.6c-0.1,0.2-0.2,0.4-0.2,0.6c0,0.2,0,0.5,0.2,0.7c0,0,0.1,0.1,0.2,0.1c0.1,0,0.1,0,0.2,0c0.1,0,0.2,0,0.3,0
			c0.4,0,0.8,0.1,1.1,0.4c-0.3-0.3-0.7-0.5-1.1-0.6C29.9,51.7,29.8,51.7,29.7,51.8z M34,48.4c0.3-4,0.4-7.6,0.4-11.6
			C34.2,40.8,34,44.4,34,48.4z M78.5,49.1c0,0.2-0.2,0.4-0.4,0.5l-16.5,8.7c0,0.5-0.4,1-1.2,1.4c-0.8,0.4-1.8,0.7-3,1
			c-0.8,0.2-1.7,0.2-2.4,0.2c-1.2,0-2.2-0.2-2.4-0.9l-20.6-1c-0.4,0-0.7-0.3-0.7-0.7l0.2-5.3c-0.5-0.4-1-0.6-1.6-0.7
			c-0.1,0-0.1,0-0.2,0c-0.2,0-0.4,0-0.6-0.1c-0.4-0.1-0.6-0.4-0.5-0.6c0.2-0.8,0.2-1.7,0.2-2.6c0-0.3,0.2-0.3,0.3-0.4
			c0.2-0.1,0.3,0,0.5,0c0.7,0.2,1.4,0.5,1.9,0.9l0.3-8.2c-0.5-0.4-1-0.6-1.6-0.7c-0.1,0-0.1,0-0.2,0c-0.2,0-0.4,0-0.6-0.1
			c-0.4-0.1-0.6-0.4-0.5-0.6c0.2-0.8,0.2-1.7,0.2-2.6c0-0.3,0.2-0.3,0.3-0.4c0.2-0.1,0.3,0,0.5,0c0.7,0.2,1.4,0.5,2,0.9l0.1-2.2
			c0-0.1,0.1-0.2,0.2-0.3c0.1-0.1,0.2-0.1,0.3-0.1l1.5,0.2c1.5,0,3.1-0.5,4.4-1.3c0,0,0.1,0,0.1,0c0,0,0.2,0.1,0.4,0.3
			c0-0.1,0-0.3,0-0.4c0,0,0-0.1,0.1-0.1c0,0,0.1,0,0.1,0c0.6,0.6,1.6,1.1,2.7,1.3c0.7,0.1,1.4,0.1,2.1,0.2c1.1,0,2.2,0.1,3.2,0.4
			c1.2,0.4,2,1.2,2.6,2.4c0.1-0.8,0.7-1.4,1.3-1.8c0.7-0.5,1.5-0.7,2.3-1l0.2-0.1c2.2-0.7,4.3-1.6,6.4-2.6c0,0,0.1,0,0.1,0
			c0.1,0.2,0.3,0.3,0.4,0.5l2.5,0.8l1-0.4c0.2-0.1,0.4,0,0.5,0.1l1.2,1.3c0.1-0.6,0.3-1.2,0.7-1.7c0.1-0.1,0.2-0.2,0.3-0.3
			c0.1,0,0.3-0.1,0.4,0c0.5,0.6,1,1.1,1.7,1.5c0.2,0.1,0.2,0.4,0.1,0.7c-0.1,0.2-0.2,0.3-0.3,0.4c0,0-0.1,0.1-0.1,0.1
			c-0.4,0.4-0.6,0.9-0.6,1.5l5.9,6.4c0.1-0.7,0.4-1.4,0.8-2c0.1-0.1,0.2-0.2,0.3-0.3c0.1,0,0.3-0.1,0.5,0.1c0.5,0.6,1.1,1.2,1.8,1.7
			c0.2,0.1,0.2,0.4,0.1,0.8c-0.1,0.2-0.2,0.3-0.3,0.4c0,0-0.1,0.1-0.1,0.1c-0.4,0.5-0.6,1.1-0.7,1.7l0,0l2.1,2.3
			C78.5,48.7,78.6,48.9,78.5,49.1z M74.2,44L74.2,44c0.1-0.1,0.1-0.3,0.2-0.5c0,0,0-0.1,0.1-0.2c0-0.1,0.1-0.2,0.1-0.1
			c0,0,0,0.1,0,0.2c0,0.1,0,0.2,0,0.2c0,0.2-0.1,0.5,0,0.7c0,0,0,0,0,0l0,0c0-0.2,0.1-0.4,0.1-0.5c0,0,0-0.1,0.1-0.2
			c0-0.1,0.1-0.2,0.1-0.1c0,0,0,0.1,0,0.2c0,0.1,0,0.2,0,0.2c0,0.2-0.1,0.4,0,0.7c0,0,0,0,0,0l0,0c0-0.2,0.1-0.4,0.1-0.5
			c0,0,0-0.1,0.1-0.2c0-0.1,0.1-0.1,0.1-0.1c0,0,0,0.1,0,0.2c0,0.1,0,0.2,0,0.2c0,0.2-0.1,0.4,0,0.7c0,0,0,0,0,0l0,0
			c0-0.2,0.1-0.4,0.1-0.5c0,0,0-0.1,0.1-0.1c0-0.1,0.1-0.1,0.1-0.1c0,0,0,0.1,0,0.2c0,0.1,0,0.1,0,0.1c-0.1,0.2-0.1,0.4-0.1,0.6
			c0,0,0,0,0,0l0,0c0-0.2,0.1-0.4,0.1-0.5c0,0,0-0.1,0.1-0.1c0-0.1,0.1-0.1,0.1-0.1c0,0,0,0.1,0,0.2c0,0.1,0,0.1,0,0.1
			c-0.1,0.2-0.1,0.4-0.1,0.6c0,0,0,0,0,0l0,0c0-0.1,0-0.1,0-0.2c0-0.1,0.1-0.2,0.1-0.3c0,0,0-0.1,0.1-0.1c0-0.1,0.1-0.1,0.1-0.1
			c0,0,0,0.1,0,0.1c0,0.1,0,0.1,0,0.1c0,0.1,0,0.2-0.1,0.3c0,0.1,0,0.2,0,0.3c0,0,0,0,0,0l0,0c0-0.1,0-0.1,0-0.2
			c0-0.1,0.1-0.2,0.1-0.3c0,0,0-0.1,0.1-0.1c0-0.1,0.1-0.1,0.1-0.1c0,0,0,0.1,0,0.1c0,0.1,0,0.1,0,0.1c0,0.1-0.1,0.2-0.1,0.3
			c0,0.1,0,0.2,0,0.3c0,0,0,0,0,0l0,0c0-0.1,0-0.1,0-0.2c0-0.1,0.1-0.2,0.1-0.3c0,0,0-0.1,0.1-0.1c0-0.1,0.1-0.1,0.1-0.1
			c0,0,0,0.1,0,0.1c0,0.1,0,0.1,0,0.1c0,0.1-0.1,0.2-0.1,0.3c0,0.1,0,0.2,0,0.3c0,0,0,0,0,0l0,0c0-0.1,0-0.1,0.1-0.2
			c0-0.1,0.1-0.2,0.1-0.3c0,0,0-0.1,0.1-0.1c0-0.1,0.1-0.1,0.1-0.1c0,0,0,0.1,0,0.1c0,0.1,0,0.1,0,0.1c0,0.1-0.1,0.2-0.1,0.3
			c0,0.1,0,0.2,0,0.3c0,0,0,0,0,0l0,0c0-0.1,0-0.2,0.1-0.2c0-0.1,0.1-0.2,0.1-0.3c0,0,0-0.1,0.1-0.1c0-0.1,0.1-0.1,0.1-0.1
			c0,0,0,0.1,0,0.1c0,0.1,0,0.1,0,0.1c0,0.1-0.1,0.2-0.1,0.3c0,0.1,0,0.2,0,0.3c0,0,0,0,0,0l0.2,0.2c0.1-0.6,0.3-1.2,0.7-1.6
			c0,0,0.1-0.1,0.1-0.1c0.1-0.1,0.2-0.2,0.3-0.4c0-0.1,0.2-0.4,0-0.5c-0.7-0.5-1.3-1.1-1.8-1.7c0,0,0-0.1-0.2,0
			c-0.1,0-0.2,0.1-0.2,0.2C74.5,42.5,74.3,43.2,74.2,44z M66.2,35.3L66.2,35.3c0.1-0.1,0.1-0.2,0.1-0.3c0,0,0-0.1,0.1-0.1
			c0-0.1,0.1-0.1,0.1-0.1c0,0,0,0.3,0,0.3c0,0.2-0.1,0.4,0,0.6l0,0c0-0.1,0.1-0.3,0.1-0.4c0,0,0-0.1,0.1-0.1c0-0.1,0.1-0.1,0.1-0.1
			c0,0,0,0.1,0,0.1c0,0.1,0,0.1,0,0.1c0,0.2-0.1,0.4,0,0.6l0,0c0-0.1,0.1-0.3,0.1-0.4c0,0,0-0.1,0.1-0.1c0-0.1,0.1-0.1,0.1-0.1
			c0,0,0,0.1,0,0.1c0,0.1,0,0.1,0,0.1c0,0.2-0.1,0.4,0,0.5l0,0c0-0.1,0.1-0.3,0.1-0.4c0,0,0-0.1,0.1-0.1c0-0.1,0.1-0.1,0.1-0.1
			c0,0,0,0.1,0,0.1c0,0.1,0,0.1,0,0.1c0,0.2-0.1,0.4,0,0.5l0,0c0-0.1,0.1-0.3,0.1-0.4c0,0,0-0.1,0.1-0.1c0-0.1,0.1-0.1,0.1-0.1
			c0,0,0,0.1,0,0.1c0,0.1,0,0.1,0,0.1c0,0.2-0.1,0.4-0.1,0.5l0,0c0,0,0-0.1,0-0.1c0-0.1,0.1-0.2,0.1-0.3c0,0,0-0.1,0.1-0.1
			c0-0.1,0.1-0.1,0.1-0.1c0,0,0,0.1,0,0.1c0,0.1,0,0.1,0,0.1c0,0.1,0,0.2-0.1,0.3c0,0.1,0,0.2,0,0.3l0,0c0,0,0-0.1,0-0.1
			c0-0.1,0.1-0.2,0.1-0.3c0,0,0-0.1,0.1-0.1c0-0.1,0.1-0.1,0.1-0.1c0,0,0,0.1,0,0.1c0,0.1,0,0.1,0,0.1c0,0.1,0,0.2-0.1,0.3
			c0,0.1,0,0.2,0,0.3l0,0c0,0,0-0.1,0-0.1c0-0.1,0.1-0.2,0.1-0.3c0,0,0-0.1,0.1-0.1c0-0.1,0.1-0.1,0.1-0.1c0,0,0,0.1,0,0.1
			c0,0.1,0,0.1,0,0.1c0,0.1,0,0.2-0.1,0.3c0,0.1,0,0.2,0,0.3l0,0c0,0,0-0.1,0-0.1c0-0.1,0.1-0.2,0.1-0.3c0,0,0-0.1,0.1-0.1
			c0-0.1,0.1-0.1,0.1-0.1c0,0,0,0.1,0,0.1c0,0.1,0,0.1,0,0.1c0,0.1,0,0.2-0.1,0.3c0,0.1,0,0.2,0,0.3l0,0c0,0,0-0.1,0-0.1
			c0-0.1,0.1-0.2,0.1-0.3c0,0,0-0.1,0.1-0.1c0-0.1,0.1-0.1,0.1-0.1c0,0,0,0.1,0,0.1c0,0.1,0,0.1,0,0.1c0,0.1,0,0.2-0.1,0.3
			c0,0.1,0,0.2,0,0.3l0.2,0.2c0.1-0.5,0.3-1,0.7-1.4c0,0,0.1-0.1,0.1-0.1c0.1-0.1,0.2-0.2,0.3-0.3c0-0.1,0.2-0.3,0-0.4
			c-0.6-0.4-1.2-1-1.7-1.6c0,0,0-0.1-0.2,0c-0.1,0-0.2,0.1-0.2,0.2C66.5,34,66.3,34.7,66.2,35.3z M50.2,38.9L50.2,38.9
			c0.1-0.6,0.5-1.2,0.9-1.7c0.5-0.5,1.1-0.8,1.8-1c0,0,0.1,0,0.3-0.1c0.2,0,0.4-0.1,0.6-0.2c0.2-0.1,0.4-0.1,0.6-0.1
			c0.1,0,0.2,0,0.2,0c0,0,0.1,0,0.1,0c0,0,0,0-0.1,0c-0.1,0-0.1,0-0.2,0.1c-0.2,0-0.4,0.1-0.6,0.2c-0.2,0.1-0.5,0.1-0.6,0.2
			c-0.2,0.1-0.3,0.1-0.3,0.1c-0.6,0.2-1.2,0.5-1.6,1c-0.5,0.5-0.8,1.1-0.8,1.7c0,0,0,0.1,0,0.1c0.1-0.6,0.5-1.2,0.9-1.6
			c0.5-0.4,1.1-0.7,1.7-1c0,0,0.1,0,0.3-0.1c0.2,0,0.4-0.1,0.6-0.2c0.2,0,0.4-0.1,0.6-0.1c0.1,0,0.2,0,0.2,0c0,0,0.1,0,0.1,0
			c0,0,0,0-0.1,0c0,0-0.1,0-0.2,0.1c-0.2,0-0.4,0.1-0.6,0.2c-0.2,0.1-0.4,0.1-0.6,0.2c-0.2,0.1-0.3,0.1-0.3,0.1
			c-0.6,0.2-1.2,0.5-1.6,1c-0.5,0.4-0.8,1-0.9,1.6c0,0.1,0,0.2,0,0.2l0,0v0c0.1-0.7,0.5-1.2,1-1.7c0.5-0.4,1.1-0.7,1.7-0.9
			c0,0,0.4-0.1,0.8-0.2c0.1,0,0.2-0.1,0.4-0.1c1-0.5,2-0.9,3.1-1.1c-0.9,0.3-1.8,0.6-2.6,1c0,0,0,0,0,0c0,0,0,0-0.1,0c0,0,0,0,0,0
			c-0.2,0.1-0.4,0.2-0.6,0.3c-0.2,0.1-0.4,0.2-0.5,0.3c0.1,0,0.3-0.1,0.5-0.1c0.2,0,0.4-0.1,0.6-0.1c0.1,0,0.1,0,0.2,0
			c0,0,0.1,0,0.1,0c0,0,0,0-0.1,0c0,0-0.1,0-0.2,0c-0.2,0-0.4,0.1-0.6,0.1c-0.2,0.1-0.4,0.1-0.6,0.2c-0.1,0-0.1,0-0.1,0
			c-0.7,0.5-1.4,1-2.1,1.6c0.5-0.5,1-0.9,1.5-1.3c-0.4,0.2-0.8,0.4-1.2,0.8c-0.4,0.4-0.8,0.9-0.9,1.5c0,0.1,0,0.2-0.1,0.2l0,0.1
			c0,0,0,0,0,0c0.2-0.6,0.6-1.1,1.1-1.5c0.5-0.4,1-0.7,1.6-0.9c0,0,0.4-0.1,0.8-0.2c0.2,0,0.4-0.1,0.6-0.1c0.1,0,0.1,0,0.2,0
			c0,0,0.1,0,0.1,0c0,0,0,0-0.1,0c0,0-0.1,0-0.2,0c-0.2,0-0.4,0.1-0.6,0.1c-0.2,0.1-0.4,0.1-0.6,0.2c-0.2,0.1-0.3,0.1-0.3,0.1
			c-0.6,0.2-1.1,0.5-1.5,0.9c-0.4,0.4-0.8,0.9-1,1.4c0,0.1-0.1,0.2-0.1,0.2l0,0.1c0,0,0,0,0-0.1c0.2-0.6,0.6-1.1,1.1-1.4
			c0.5-0.4,1-0.7,1.6-0.9c0,0,0.4-0.1,0.8-0.2c0.2,0,0.4-0.1,0.6-0.1c0.1,0,0.1,0,0.2,0c0,0,0.1,0,0.1,0c0,0,0,0-0.1,0
			c0,0-0.1,0-0.2,0c-0.2,0-0.4,0.1-0.6,0.1c-0.2,0.1-0.4,0.1-0.6,0.2c-0.2,0.1-0.2,0.1-0.2,0.1C53,38.4,52.4,38.6,52,39
			c-0.4,0.4-0.8,0.8-1,1.4c0,0.1-0.1,0.2-0.1,0.2l0,0.1c0,0,0-0.1,0-0.1c0.3-0.5,0.7-1,1.1-1.4c0.5-0.4,1-0.6,1.6-0.8
			c0,0,0.4-0.1,0.8-0.2c0.2,0,0.4-0.1,0.5-0.1c0.1,0,0.1,0,0.2,0c0,0,0.1,0,0.1,0c0,0,0,0-0.1,0c0,0-0.1,0-0.2,0
			c-0.2,0-0.4,0.1-0.6,0.1c-0.4,0.1-0.8,0.3-0.8,0.3c-0.5,0.2-1,0.5-1.5,0.8c-0.4,0.4-0.8,0.8-1,1.3c0,0.1-0.1,0.1-0.1,0.2l0,0.1
			c0,0,0-0.1,0-0.1c0.3-0.5,0.7-1,1.2-1.3c0.5-0.4,1-0.6,1.5-0.8c0,0,0.4-0.1,0.8-0.2c0.2,0,0.4-0.1,0.5-0.1c0.1,0,0.1,0,0.2,0
			c0,0,0.1,0,0.1,0c0,0,0,0-0.1,0c0,0-0.1,0-0.2,0c-0.2,0-0.3,0.1-0.5,0.1c-0.4,0.1-0.8,0.3-0.8,0.3c-0.5,0.2-1,0.5-1.5,0.8
			c-0.4,0.3-0.8,0.8-1.1,1.3c0,0.1-0.1,0.1-0.1,0.2l0,0.1c0,0,0-0.1,0.1-0.1c0.6-1,1.6-1.6,2.7-2c0,0,0.4-0.1,0.7-0.2
			c0.2,0,0.4-0.1,0.5-0.1c0.1,0,0.1,0,0.2,0c0,0,0.1,0,0.1,0c0,0-0.1,0-0.2,0.1c-0.1,0-0.3,0.1-0.5,0.1c-0.4,0.1-0.8,0.3-0.8,0.3
			c-1,0.4-2,1.1-2.5,2c0,0.1-0.1,0.1-0.1,0.2l0.1,0.1c0,0,0-0.1,0.1-0.1c0.7-0.9,1.7-1.5,2.7-1.9c0,0,0.4-0.1,0.7-0.2
			c0.2,0,0.4-0.1,0.5-0.1c0.1,0,0.1,0,0.2,0c0,0,0.1,0,0.1,0c0,0-0.1,0-0.2,0.1c-0.1,0-0.3,0.1-0.5,0.1c-0.4,0.1-0.7,0.3-0.7,0.3
			c-1,0.4-1.9,1.1-2.5,1.9c0,0.1-0.1,0.1-0.1,0.1l0.1,0.1c0,0,0-0.1,0.1-0.1c0.7-0.8,1.7-1.5,2.7-1.8c0,0,0.1,0,0.2-0.1
			c0.1,0,0.3-0.1,0.5-0.1c0.2,0,0.4-0.1,0.5-0.1c0.1,0,0.2,0,0.2,0c0,0,0,0-0.1,0c0,0-0.1,0-0.2,0c-0.1,0-0.3,0.1-0.5,0.1
			c-0.2,0.1-0.4,0.1-0.5,0.2c-0.1,0.1-0.2,0.1-0.2,0.1c-0.5,0.2-1,0.5-1.4,0.8c-0.4,0.3-0.8,0.7-1.2,1.1c-0.1,0.1-0.1,0.1-0.1,0.1
			l0.1,0.4c0,0,0-0.1,0.1-0.1c0.7-0.8,1.7-1.5,2.7-1.9c0,0,0.1,0,0.2-0.1c0.1,0,0.3-0.1,0.5-0.1c0.2,0,0.4-0.1,0.5-0.1
			c0.1,0,0.2,0,0.2,0c0,0,0,0-0.1,0c0,0-0.1,0-0.2,0c-0.1,0-0.3,0.1-0.5,0.1c-0.2,0.1-0.4,0.1-0.5,0.2c-0.1,0.1-0.2,0.1-0.2,0.1
			c-0.5,0.2-1,0.5-1.4,0.8c-0.4,0.3-0.8,0.7-1.2,1.1c-0.1,0.1-0.1,0.1-0.1,0.1l0.1,0.4c0,0,0-0.1,0.1-0.1c0.7-0.8,1.7-1.5,2.7-1.9
			c0,0,0.1,0,0.2-0.1c0.1,0,0.3-0.1,0.5-0.1c0.2,0,0.4-0.1,0.5-0.1c0.1,0,0.2,0,0.2,0c0,0,0,0-0.1,0c0,0-0.1,0-0.2,0
			c-0.1,0-0.3,0.1-0.5,0.1c-0.2,0.1-0.4,0.1-0.5,0.2c-0.1,0.1-0.2,0.1-0.2,0.1c-0.5,0.2-1,0.5-1.4,0.8c-0.4,0.3-0.8,0.7-1.2,1.1
			c-0.1,0.1-0.1,0.1-0.2,0.1l0.1,0.4c0,0,0-0.1,0.1-0.1c0.7-0.8,1.7-1.5,2.7-1.9c0,0,0.1,0,0.2-0.1c0.1,0,0.3-0.1,0.5-0.2
			c0.2,0,0.4-0.1,0.5-0.1c0.1,0,0.2,0,0.2,0c0,0,0,0-0.1,0c0,0-0.1,0-0.2,0c-0.1,0-0.3,0.1-0.5,0.1c-0.2,0.1-0.4,0.1-0.5,0.2
			c-0.1,0.1-0.2,0.1-0.2,0.1c-0.5,0.2-0.9,0.5-1.4,0.8c-0.4,0.3-0.8,0.7-1.2,1.1c-0.1,0.1-0.1,0.1-0.2,0.1l0.1,0.4
			c0,0,0-0.1,0.1-0.1c0.7-0.8,1.7-1.5,2.7-1.9c0,0,0.1,0,0.2-0.1c0.1,0,0.3-0.1,0.5-0.2c0.2-0.1,0.4-0.1,0.5-0.1c0.1,0,0.2,0,0.2,0
			c0,0,0,0-0.1,0c0,0-0.1,0-0.2,0c-0.1,0-0.3,0.1-0.5,0.1c-0.2,0.1-0.4,0.1-0.5,0.2c-0.1,0.1-0.2,0.1-0.2,0.1
			c-0.5,0.2-0.9,0.5-1.4,0.8c-0.4,0.3-0.8,0.7-1.1,1.1c-0.1,0.1-0.1,0.1-0.2,0.1l0.2,0.4c0,0,0-0.1,0.1-0.1c0.7-0.8,1.7-1.5,2.7-1.9
			c0,0,0.1,0,0.2-0.1c0.1,0,0.3-0.1,0.5-0.2c0.2-0.1,0.4-0.1,0.5-0.1c0.1,0,0.2,0,0.2,0c0,0,0,0-0.1,0c0,0-0.1,0-0.2,0
			c-0.1,0-0.3,0.1-0.5,0.2c-0.2,0.1-0.4,0.1-0.5,0.2c-0.1,0.1-0.2,0.1-0.2,0.1c-0.5,0.2-0.9,0.5-1.4,0.8c-0.4,0.3-0.8,0.7-1.1,1.1
			c-0.1,0.1-0.1,0.1-0.2,0.1l0.2,0.4c0,0,0-0.1,0.1-0.1c0.7-0.8,1.6-1.5,2.7-1.9c0,0,0.1,0,0.2-0.1c0.1,0,0.3-0.1,0.5-0.2
			c0.2-0.1,0.4-0.1,0.5-0.1c0.1,0,0.2,0,0.2,0c0,0,0,0-0.1,0c0,0-0.1,0-0.2,0c-0.1,0-0.3,0.1-0.5,0.2c-0.2,0.1-0.4,0.1-0.5,0.2
			c-0.1,0.1-0.2,0.1-0.2,0.1c-0.5,0.2-0.9,0.5-1.4,0.8c-0.4,0.3-0.8,0.7-1.1,1.1c-0.1,0.1-0.1,0.1-0.2,0.1l0.2,0.4
			c0,0,0-0.1,0.1-0.2c0.7-0.8,1.6-1.5,2.7-1.9c0,0,0.1,0,0.2-0.1c0.1,0,0.3-0.1,0.5-0.2c0.2-0.1,0.4-0.1,0.5-0.1c0.1,0,0.2,0,0.2,0
			c0,0,0,0-0.1,0c0,0-0.1,0-0.2,0c-0.1,0-0.3,0.1-0.5,0.2c-0.2,0.1-0.4,0.1-0.5,0.2c-0.1,0.1-0.2,0.1-0.2,0.1
			c-0.5,0.2-0.9,0.5-1.4,0.8c-0.4,0.3-0.8,0.7-1.1,1.1c-0.1,0.1-0.1,0.1-0.2,0.2l0.2,0.4c0,0,0-0.1,0.1-0.2c0.7-0.8,1.6-1.5,2.6-2
			c0,0,0.1,0,0.2-0.1c0.1,0,0.3-0.1,0.5-0.2c0.2-0.1,0.4-0.1,0.5-0.1c0.1,0,0.2,0,0.2,0c0,0,0,0-0.1,0c0,0-0.1,0-0.2,0
			c-0.1,0-0.3,0.1-0.5,0.2c-0.2,0.1-0.4,0.1-0.5,0.2c-0.1,0.1-0.2,0.1-0.2,0.1c-0.5,0.2-0.9,0.5-1.4,0.8c-0.4,0.3-0.8,0.7-1.1,1.1
			c-0.1,0.1-0.1,0.1-0.2,0.2l0.2,0.4c0,0,0-0.1,0.1-0.2c0.7-0.8,1.6-1.5,2.6-2c0,0,0.1,0,0.2-0.1c0.1,0,0.3-0.1,0.5-0.2
			c0.2-0.1,0.4-0.1,0.5-0.1c0.1,0,0.2,0,0.2,0c0,0,0,0-0.1,0c0,0-0.1,0-0.2,0c-0.1,0-0.3,0.1-0.5,0.2c-0.2,0.1-0.4,0.1-0.5,0.2
			c-0.1,0.1-0.2,0.1-0.2,0.1c-0.5,0.2-0.9,0.5-1.4,0.8c-0.4,0.3-0.8,0.7-1.1,1.1c-0.1,0.1-0.1,0.2-0.2,0.2l0.2,0.4
			c0,0,0-0.1,0.1-0.2c0.7-0.8,1.6-1.5,2.6-2c0,0,0.1,0,0.2-0.1c0.1-0.1,0.3-0.1,0.5-0.2c0.2-0.1,0.4-0.1,0.5-0.1c0.1,0,0.2,0,0.2,0
			c0,0,0,0-0.1,0c0,0-0.1,0-0.2,0.1c-0.1,0-0.3,0.1-0.5,0.2c-0.2,0.1-0.4,0.1-0.5,0.2c-0.1,0.1-0.2,0.1-0.2,0.1
			c-0.5,0.2-0.9,0.5-1.3,0.9c-0.4,0.3-0.8,0.7-1.1,1.1c-0.1,0.1-0.2,0.2-0.2,0.2l0.2,0.4c0,0,0-0.1,0.1-0.2c0.7-0.9,1.7-1.6,2.7-2.1
			c0,0,0.1,0,0.2-0.1c0.1-0.1,0.3-0.1,0.5-0.2c0.2-0.1,0.4-0.1,0.5-0.1c0.1,0,0.1,0,0.2,0c0,0,0.1,0,0.1,0c0,0,0,0-0.1,0
			c0,0-0.1,0-0.2,0c-0.1,0-0.2,0-0.2,0.1c-0.1,0-0.2,0.1-0.3,0.1c-0.2,0.1-0.4,0.1-0.5,0.2c-0.1,0.1-0.2,0.1-0.2,0.1
			c-0.5,0.2-1,0.5-1.4,0.9c-0.4,0.4-0.8,0.7-1.2,1.2c-0.1,0.1-0.1,0.2-0.2,0.2l0.2,0.4c0,0,0-0.1,0.1-0.2c0.7-1,1.7-1.7,2.8-2.2
			c0,0,0.1,0,0.2-0.1c0.1-0.1,0.3-0.1,0.5-0.2c0.1,0,0.2-0.1,0.3-0.1c0.1,0,0.2,0,0.3-0.1c0.1,0,0.1,0,0.2,0c0,0,0.1,0,0.1,0
			c0,0,0,0-0.1,0c0,0-0.1,0-0.2,0c-0.1,0-0.2,0-0.3,0.1c-0.1,0-0.2,0.1-0.3,0.1c-0.2,0.1-0.4,0.1-0.5,0.2c-0.1,0.1-0.2,0.1-0.2,0.1
			c-0.5,0.2-1,0.6-1.5,0.9c-0.4,0.4-0.9,0.8-1.2,1.2c-0.1,0.1-0.1,0.2-0.2,0.2l0.1,0.4c0,0,0-0.1,0.1-0.1c0.4-0.5,0.8-0.9,1.3-1.3
			c0.5-0.4,1-0.7,1.6-0.9c0,0,0.1,0,0.2-0.1c0.2-0.1,0.3-0.1,0.6-0.2c0.1,0,0.2-0.1,0.3-0.1c0.1,0,0.2,0,0.3-0.1c0.1,0,0.1,0,0.2,0
			c0,0,0.1,0,0.1,0c0,0,0,0-0.1,0c0,0-0.1,0-0.2,0c-0.1,0-0.2,0-0.3,0.1c-0.1,0-0.2,0.1-0.3,0.1c-0.2,0.1-0.4,0.1-0.6,0.2
			c-0.2,0.1-0.3,0.1-0.3,0.1c-0.5,0.3-1.1,0.6-1.5,1c-0.5,0.4-0.9,0.8-1.2,1.3c-0.1,0.1-0.1,0.1-0.2,0.2l0.1,0.4c0,0,0-0.1,0.1-0.1
			c0.4-0.5,0.8-1,1.3-1.4c0.5-0.4,1.1-0.7,1.7-1c0,0,0.1,0,0.3-0.1c0.2-0.1,0.4-0.1,0.6-0.2c0.1,0,0.2-0.1,0.3-0.1
			c0.1,0,0.2,0,0.3-0.1c0.1,0,0.1,0,0.2,0c0,0,0.1,0,0.1,0c0,0,0,0-0.1,0c0,0-0.1,0-0.2,0c-0.1,0-0.2,0-0.3,0.1
			c-0.1,0-0.2,0.1-0.3,0.1c-0.2,0.1-0.4,0.1-0.6,0.2c-0.2,0.1-0.3,0.1-0.3,0.1c-0.6,0.3-1.1,0.6-1.6,1c-0.5,0.4-0.9,0.9-1.3,1.4
			c-0.1,0.1-0.1,0.1-0.2,0.2l0.1,0.3c0,0,0-0.1,0.1-0.1c0.4-0.6,0.9-1,1.4-1.5c0.5-0.4,1.1-0.8,1.7-1c0,0,0.1,0,0.3-0.1
			c0.2-0.1,0.4-0.1,0.6-0.2c0.1,0,0.2-0.1,0.3-0.1c0.1,0,0.2,0,0.3,0c0.1,0,0.2,0,0.2,0c0,0,0.1,0,0.1,0c0,0,0,0-0.1,0
			c-0.1,0-0.1,0-0.2,0c-0.1,0-0.2,0-0.3,0.1c-0.1,0-0.2,0.1-0.3,0.1c-0.1,0-0.2,0.1-0.3,0.1c-0.1,0-0.2,0.1-0.3,0.1
			c-0.2,0.1-0.3,0.1-0.3,0.1c-0.6,0.3-1.1,0.6-1.6,1c-0.5,0.4-0.9,0.9-1.3,1.4c-0.1,0.1-0.1,0.1-0.1,0.2l0.1,0.3c0,0,0-0.1,0.1-0.1
			C55,49,55.5,48.4,56,48c0.5-0.4,1.2-0.8,1.8-1c0,0,0.1,0,0.3-0.1c0.2-0.1,0.4-0.1,0.6-0.2c0.1,0,0.2-0.1,0.3-0.1
			c0.1,0,0.2,0,0.3,0c0.1,0,0.2,0,0.2,0c0.1,0,0.1,0,0.1,0c0,0,0,0-0.1,0c-0.1,0-0.1,0-0.2,0c-0.1,0-0.2,0-0.3,0.1
			c-0.1,0-0.2,0.1-0.3,0.1c-0.1,0-0.2,0.1-0.3,0.1c-0.1,0-0.2,0.1-0.3,0.1c-0.2,0.1-0.3,0.1-0.3,0.1c-0.6,0.3-1.2,0.6-1.7,1.1
			c-0.5,0.4-1,0.9-1.3,1.5c0,0.1-0.1,0.1-0.1,0.2l0.1,0.3c0,0,0-0.1,0.1-0.1c0.4-0.6,0.9-1.1,1.5-1.6c0.6-0.4,1.2-0.8,1.9-1.1
			c0,0,0.1,0,0.3-0.1c0.2-0.1,0.4-0.1,0.6-0.2c0.1,0,0.2-0.1,0.4-0.1c0.1,0,0.2,0,0.3,0c0.1,0,0.2,0,0.2,0c0.1,0,0.1,0,0.1,0
			c0,0,0,0-0.1,0c-0.1,0-0.1,0-0.2,0c-0.1,0-0.2,0-0.3,0.1c-0.1,0-0.1,0-0.2,0c-0.1,0-0.1,0-0.2,0c-0.1,0-0.2,0.1-0.4,0.1
			c-0.1,0-0.2,0.1-0.3,0.1c-0.2,0.1-0.3,0.1-0.3,0.1c-0.6,0.3-1.2,0.6-1.8,1.1c-0.5,0.5-1,1-1.4,1.6c0,0.1-0.1,0.1-0.1,0.2l0.1,0.3
			c0,0,0-0.1,0-0.1c0.4-0.6,0.9-1.2,1.5-1.7c0.6-0.5,1.2-0.9,1.9-1.1c0,0,0.1,0,0.3-0.1c0.2-0.1,0.4-0.1,0.7-0.2
			c0.1,0,0.2-0.1,0.4-0.1c0.1,0,0.2,0,0.3,0c0.1,0,0.2,0,0.2,0c0.1,0,0.1,0,0.1,0c0,0,0,0-0.1,0c-0.1,0-0.1,0-0.2,0
			c-0.1,0-0.2,0-0.3,0.1c-0.1,0-0.1,0-0.2,0c-0.1,0-0.1,0-0.2,0c-0.1,0-0.3,0.1-0.4,0.1c-0.1,0-0.2,0.1-0.3,0.1
			c-0.2,0.1-0.3,0.1-0.3,0.1c-0.7,0.3-1.3,0.7-1.8,1.1c-0.5,0.5-1,1-1.4,1.6c0,0.1-0.1,0.1-0.1,0.2l0.1,0.3c0,0,0,0,0-0.1
			c0.4-0.7,0.9-1.2,1.5-1.7c0.6-0.5,1.3-0.9,2-1.1c0,0,0.1,0,0.3-0.1c0.2-0.1,0.4-0.1,0.7-0.2c0.1,0,0.3-0.1,0.4-0.1
			c0.1,0,0.2,0,0.3,0c0.1,0,0.2,0,0.2,0c0.1,0,0.1,0,0.1,0c0,0,0,0-0.1,0c-0.1,0-0.1,0-0.2,0c-0.1,0-0.2,0-0.3,0.1
			c-0.1,0-0.1,0-0.2,0c-0.1,0-0.1,0-0.2,0c-0.1,0-0.3,0.1-0.4,0.1c-0.1,0-0.2,0.1-0.3,0.1c-0.2,0.1-0.3,0.1-0.3,0.1
			c-0.7,0.3-1.3,0.7-1.9,1.2c-0.6,0.5-1.1,1.1-1.4,1.7c0,0.1-0.1,0.1-0.1,0.2l0.1,0.3c0,0,0,0,0-0.1c0.4-0.7,0.9-1.3,1.6-1.8
			c0.6-0.5,1.3-0.9,2.1-1.2c0,0,0.1,0,0.3-0.1c0.2-0.1,0.5-0.1,0.7-0.2c0.1,0,0.3,0,0.4-0.1c0.1,0,0.2,0,0.3,0c0.1,0,0.2,0,0.2,0
			c0.1,0,0.1,0,0.1,0c0,0,0,0-0.1,0c-0.1,0-0.1,0-0.3,0c-0.1,0-0.2,0-0.4,0.1c-0.1,0-0.1,0-0.2,0c-0.1,0-0.1,0-0.2,0
			c-0.1,0-0.3,0.1-0.4,0.1c-0.1,0-0.2,0.1-0.3,0.1c-0.2,0.1-0.3,0.1-0.3,0.1c-0.7,0.3-1.4,0.7-1.9,1.2c-0.6,0.5-1.1,1.1-1.5,1.7
			c0,0.1-0.1,0.1-0.1,0.2l0.1,0.3c0,0,0-0.1,0-0.1c0.4-0.7,1-1.3,1.7-1.9c0.7-0.5,1.4-0.9,2.2-1.2c0,0,0.5-0.2,1.1-0.3
			c0.3-0.1,0.6-0.1,0.8-0.1c0.1,0,0.2,0,0.3,0c0.1,0,0.1,0,0.1,0c0,0,0,0-0.1,0c-0.1,0-0.2,0-0.3,0c-0.2,0-0.5,0.1-0.8,0.2
			c-0.3,0.1-0.6,0.2-0.8,0.2C59.4,49,59.3,49,59.3,49c-0.7,0.3-1.5,0.7-2.1,1.2c-0.6,0.5-1.2,1.1-1.5,1.8c0,0.1-0.1,0.1-0.1,0.2
			l0.1,0.3c0,0,0-0.1,0.1-0.1c0.4-0.8,1.1-1.4,1.7-1.9c0.7-0.5,1.5-0.9,2.3-1.2c0,0,0.6-0.2,1.1-0.3c0.3-0.1,0.6-0.1,0.8-0.2
			c0.1,0,0.2,0,0.3,0c0.1,0,0.1,0,0.1,0c0,0,0,0-0.1,0c-0.1,0-0.2,0-0.3,0.1c-0.2,0-0.5,0.1-0.8,0.2c-0.3,0.1-0.6,0.2-0.8,0.2
			c-0.2,0.1-0.4,0.1-0.4,0.1c-0.8,0.3-1.5,0.7-2.2,1.2c-0.7,0.5-1.2,1.1-1.6,1.9c0,0.1-0.1,0.1-0.1,0.2l0.1,0.3c0,0,0-0.1,0.1-0.1
			c0.5-0.8,1.1-1.5,1.8-2c0.7-0.5,1.6-0.9,2.4-1.2c0,0,0.6-0.2,1.2-0.3c0.3-0.1,0.6-0.1,0.8-0.2c0.1,0,0.2,0,0.3-0.1
			c0.1,0,0.1,0,0.1,0c0,0,0,0-0.1,0c-0.1,0-0.2,0-0.3,0.1c-0.2,0.1-0.5,0.1-0.9,0.2c-0.6,0.1-1.2,0.4-1.2,0.4
			c-0.8,0.3-1.6,0.7-2.3,1.2c-0.7,0.5-1.3,1.2-1.7,1.9C56,53,56,53.1,55.9,53.2l0.1,0.3c0,0,0-0.1,0.1-0.2c0.5-0.8,1.2-1.5,1.9-2
			c0.8-0.5,1.7-0.9,2.6-1.2c0,0,0.2,0,0.4-0.1c0.2-0.1,0.5-0.1,0.8-0.2c0.3-0.1,0.6-0.1,0.9-0.2c0.1,0,0.2,0,0.3-0.1
			c0.1,0,0.1,0,0.1,0c0,0,0,0-0.1,0c-0.1,0-0.2,0-0.3,0.1c-0.2,0.1-0.6,0.1-0.9,0.2c-0.3,0.1-0.6,0.2-0.9,0.2
			c-0.2,0.1-0.4,0.1-0.4,0.1c-0.9,0.3-1.7,0.7-2.4,1.2c-0.7,0.5-1.4,1.2-1.8,2c-0.1,0.1-0.1,0.2-0.1,0.2l0.1,0.3
			c0-0.1,0.1-0.1,0.1-0.2c0.5-0.9,1.2-1.6,2-2.1c0.8-0.5,1.7-0.9,2.7-1.2c0,0,0.2,0,0.4-0.1c0.2-0.1,0.6-0.1,0.9-0.2
			c0.3-0.1,0.6-0.2,0.8-0.2c0.4-0.1,0.8-0.2,1.2-0.4c-1.3,0.4-2.4,0.9-3.5,1.5c0.2-0.1,0.4-0.1,0.6-0.2c0,0,0.2,0,0.4-0.1
			c0.3-0.1,0.6-0.1,0.9-0.2c0.3-0.1,0.7-0.2,0.9-0.2c0.1,0,0.2-0.1,0.3-0.1c0.1,0,0.1,0,0.1,0c0,0,0,0,0,0c0,0,0,0-0.1,0
			c-0.1,0-0.2,0.1-0.3,0.1c-0.3,0.1-0.6,0.2-0.9,0.3c-0.3,0.1-0.7,0.2-1,0.3C61.6,51,61.4,51,61.4,51c-0.3,0.1-0.7,0.2-1,0.3
			c-1.1,0.6-2.1,1.3-3,2c-0.2,0.3-0.4,0.6-0.6,0.9c-0.1,0.1-0.1,0.2-0.2,0.3l0.1,0.3c0-0.1,0.1-0.1,0.1-0.2c0.5-0.9,1.3-1.7,2.2-2.2
			c0.9-0.5,1.9-0.9,2.9-1.1c0,0,0.2,0,0.4-0.1c0.3-0.1,0.6-0.1,1-0.2c0.3-0.1,0.7-0.2,0.9-0.3c0.1,0,0.2-0.1,0.3-0.1
			c0,0,0.1,0,0.1,0c0,0,0,0,0,0c0,0,0,0,0,0c0,0-0.1,0-0.1,0c-0.1,0-0.2,0.1-0.3,0.1c-0.3,0.1-0.6,0.2-1,0.3c-0.4,0.1-0.7,0.2-1,0.3
			c-0.3,0.1-0.4,0.1-0.4,0.1c-1,0.3-2,0.6-2.8,1.2c-0.9,0.5-1.6,1.3-2.1,2.2c-0.1,0.1-0.1,0.2-0.2,0.3l0.1,0.3
			c0-0.1,0.1-0.2,0.1-0.3c0.5-1,1.4-1.7,2.3-2.3c0.9-0.6,2-0.9,3.1-1.1c0,0,0.7-0.2,1.4-0.3c0.4-0.1,0.7-0.2,1-0.3
			c0.1,0,0.2-0.1,0.3-0.1c0,0,0.1,0,0.1,0c0,0,0,0,0,0c0,0,0,0,0,0c0,0-0.1,0-0.1,0c-0.1,0-0.2,0.1-0.3,0.1c-0.3,0.1-0.6,0.2-1,0.3
			c-0.7,0.2-1.5,0.4-1.5,0.4c-1,0.3-2,0.6-2.9,1.2c-0.9,0.6-1.7,1.3-2.2,2.2c-0.1,0.1-0.1,0.3-0.2,0.3l0.1,0.3
			c0-0.1,0.1-0.2,0.1-0.3c0.6-1,1.4-1.8,2.4-2.3c1-0.6,2.1-0.9,3.2-1.1c0,0,0.2,0,0.5-0.1c0.3-0.1,0.7-0.1,1-0.2
			c0.4-0.1,0.7-0.2,1-0.3c0.1-0.1,0.2-0.1,0.3-0.1c0,0,0.1,0,0.1,0c0,0,0,0,0,0c0,0,0,0,0,0c0,0-0.1,0-0.1,0c-0.1,0-0.2,0.1-0.3,0.1
			c-0.3,0.1-0.7,0.2-1,0.4c-0.4,0.1-0.8,0.2-1.1,0.3c-0.3,0.1-0.5,0.1-0.5,0.1c-1.1,0.3-2.1,0.6-3.1,1.2c-0.9,0.6-1.8,1.3-2.3,2.3
			c-0.1,0.2-0.2,0.3-0.2,0.4l0.1,0.3c0-0.1,0.1-0.2,0.1-0.3c0.6-1,1.5-1.8,2.5-2.4c1-0.6,2.2-0.9,3.3-1.1c0,0,0.2,0,0.5-0.1
			c0.3-0.1,0.7-0.1,1.1-0.2c0.4-0.1,0.8-0.2,1-0.3c0.1-0.1,0.3-0.1,0.3-0.1c0,0,0.1,0,0.1,0c0,0,0,0,0,0c0,0,0,0,0,0
			c0,0-0.1,0-0.1,0c-0.1,0-0.2,0.1-0.3,0.2c-0.3,0.1-0.7,0.3-1.1,0.4c-0.4,0.1-0.8,0.2-1.1,0.3c-0.3,0.1-0.5,0.1-0.5,0.1
			c-1.1,0.3-2.2,0.6-3.2,1.1c-1,0.6-1.8,1.4-2.4,2.3c-0.1,0.2-0.2,0.3-0.2,0.4l0,0.1c0.6-1.2,1.9-2.3,3.6-3.1c1-0.4,2.1-0.7,3.1-1
			c0.6-0.2,1.2-0.3,1.7-0.5c2.3-0.8,4.4-1.9,6.4-3.4c-4.7-6.7-8.5-11.6-11.9-15.4c-2,1.1-4.1,2-6.3,2.6l-0.2,0.1
			c-0.8,0.2-1.6,0.5-2.2,0.9C50.7,37.2,50.1,38,50.2,38.9z M60.3,51.2c0.8-0.4,1.5-0.8,2.4-1.1c-0.1,0-0.3,0.1-0.4,0.1
			c-0.3,0.1-0.7,0.2-0.9,0.2c-0.2,0.1-0.4,0.1-0.4,0.1c-0.9,0.3-1.8,0.6-2.6,1.2c-0.8,0.5-1.5,1.2-1.9,2c-0.1,0.1-0.1,0.2-0.2,0.3
			l0.1,0.3c0-0.1,0.1-0.1,0.1-0.2c0.5-0.9,1.3-1.6,2.1-2.2c0.4-0.3,0.9-0.5,1.4-0.7C60.2,51.3,60.2,51.3,60.3,51.2z M58.7,52.2
			c-0.4,0.3-0.8,0.6-1.2,1c0.6-0.5,1.2-1,1.9-1.4C59.1,51.9,58.9,52,58.7,52.2z M54.1,36.8C54.2,36.8,54.2,36.7,54.1,36.8
			c0,0-0.1,0-0.1,0c-0.2,0.1-0.4,0.1-0.6,0.2c-0.2,0.1-0.3,0.1-0.3,0.1c-0.6,0.2-1.1,0.5-1.6,0.9c-0.5,0.4-0.8,1-0.9,1.6
			c0,0.1,0,0.2-0.1,0.2l0,0c0,0,0,0,0,0c0.2-0.6,0.6-1.2,1-1.6c0.5-0.4,1-0.7,1.5-0.9C53.5,37.2,53.8,37,54.1,36.8z M50.5,40.4
			C50.5,40.4,50.5,40.4,50.5,40.4C50.5,40.4,50.5,40.4,50.5,40.4L50.5,40.4z M39.3,34.4c0,0.1,0,0.2,0,0.4c0,0,0,0,0,0l0,0
			c0.1,5.8,0.6,12.3,1.4,19.7c0.3,0.1,0.5,0.3,0.8,0.4c0.2,0.1,0.5,0.2,0.7,0.2c1.3,0.3,2.8,0.3,4.2,0.2c0.5,0,1-0.1,1.6-0.2
			c1.1-0.1,2.1-0.3,3.2-0.3c0.4,0,0.9,0,1.3,0.1c1.6,0.2,3.1,0.8,4.5,1.6L57,56.4c0,0-0.1-0.1-0.2-0.1c-0.6-0.4-1.2-0.7-1.8-1
			c-0.6-0.3-1.3-0.4-2-0.6c0,0-0.1,0-0.3,0c-0.2,0-0.4-0.1-0.6-0.1c-0.1,0-0.2,0-0.3,0c-0.1,0-0.2,0-0.3,0c-0.1,0-0.2,0-0.2,0
			c-0.1,0-0.1,0-0.1,0c0,0,0,0,0.1,0c0.1,0,0.1,0,0.2,0c0.1,0,0.2,0,0.3,0c0.1,0,0.2,0,0.4,0c0.2,0,0.5,0,0.7,0.1c0.2,0,0.3,0,0.3,0
			c0.7,0.1,1.3,0.3,2,0.5c0.6,0.2,1.2,0.6,1.8,0.9l-0.1-0.3c0,0-0.1-0.1-0.2-0.1c-1.1-0.7-2.3-1.2-3.5-1.4c0,0-0.1,0-0.3,0
			c-0.2,0-0.4,0-0.6-0.1c-0.2,0-0.4,0-0.6,0c-0.1,0-0.2,0-0.2,0c0,0-0.1,0-0.1,0c0,0,0,0,0.1,0c0.1,0,0.1,0,0.2,0c0.1,0,0.2,0,0.3,0
			c0.1,0,0.2,0,0.3,0c0.2,0,0.5,0,0.6,0.1c0.2,0,0.3,0,0.3,0c0.6,0.1,1.2,0.3,1.8,0.5c0.6,0.2,1.2,0.5,1.7,0.9l-0.1-0.3
			c0,0-0.1,0-0.2-0.1c-1-0.6-2.1-1.1-3.3-1.3c0,0-0.1,0-0.2,0c-0.1,0-0.3,0-0.6-0.1c-0.2,0-0.4,0-0.6,0c-0.1,0-0.1,0-0.2,0
			c0,0-0.1,0-0.1,0c0,0,0,0,0.1,0c0,0,0.1,0,0.2,0c0.2,0,0.4,0,0.6,0c0.2,0,0.4,0,0.6,0c0.2,0,0.3,0,0.3,0c0.6,0.1,1.1,0.2,1.7,0.4
			c0.5,0.2,1.1,0.5,1.6,0.8l-0.1-0.3c0,0-0.1,0-0.2-0.1c-0.9-0.6-1.9-1-3-1.2c0,0-0.4-0.1-0.7-0.1c-0.2,0-0.4,0-0.5,0
			c-0.1,0-0.2,0-0.2,0c0,0,0,0,0.1,0c0,0,0.1,0,0.2,0c0.1,0,0.3,0,0.5,0c0.4,0,0.8,0.1,0.8,0.1c1.1,0.2,2.1,0.5,3,1.1l-0.1-0.3
			c0,0-0.1,0-0.2-0.1c-0.8-0.5-1.8-0.9-2.8-1c0,0-0.3-0.1-0.7-0.1c-0.2,0-0.3,0-0.5,0c-0.1,0-0.2,0-0.2,0c0,0,0.1,0,0.2,0
			c0.1,0,0.3,0,0.5,0c0.4,0,0.7,0.1,0.7,0.1c0.2,0,0.3,0.1,0.5,0.1c-0.2-0.1-0.4-0.1-0.6-0.2c-0.7-0.2-1.4-0.3-2.1-0.4
			c1.4,0,2.7,0.3,3.9,0.9c0.4,0.1,0.7,0.3,1.1,0.5c0,0,0,0,0,0l-0.1-0.3c0,0-0.1,0-0.2-0.1c-0.8-0.4-1.6-0.8-2.5-0.9
			c0,0-0.3-0.1-0.6-0.1c-0.2,0-0.3,0-0.4,0c-0.1,0-0.2,0-0.2,0c0,0,0.1,0,0.2,0c0.1,0,0.3,0,0.4,0c0.3,0,0.6,0.1,0.6,0.1
			c0.9,0.1,1.7,0.4,2.5,0.8c0,0,0,0,0,0l-0.1-0.3c0,0-0.1,0-0.2,0c-0.7-0.4-1.5-0.6-2.2-0.8c0,0-0.3,0-0.5-0.1c-0.1,0-0.3,0-0.4,0
			c-0.1,0-0.2,0-0.2,0c0,0,0.1,0,0.2,0c0.1,0,0.3,0,0.4,0c0.3,0,0.6,0.1,0.6,0.1c0.8,0.1,1.5,0.4,2.3,0.7c0,0,0,0,0,0l-0.1-0.4
			c0,0-0.1,0-0.1,0c-0.6-0.3-1.3-0.5-2-0.7c0,0-0.2,0-0.5-0.1c-0.2,0-0.5,0-0.5-0.1c0,0,0.1,0,0.2,0c0.1,0,0.2,0,0.3,0
			c0.3,0,0.5,0.1,0.5,0.1c0.7,0.1,1.4,0.3,2,0.6c0,0,0,0,0,0l-0.1-0.4c0,0-0.1,0-0.1,0c-0.6-0.3-1.2-0.5-1.8-0.6c0,0-0.2,0-0.4-0.1
			c-0.2,0-0.4,0-0.4,0c0,0,0.1,0,0.1,0c0.1,0,0.2,0,0.3,0c0.2,0,0.5,0,0.5,0c0.6,0.1,1.3,0.3,1.9,0.5l-0.1-0.4c0,0-0.1,0-0.1,0
			c-0.5-0.3-1.1-0.5-1.7-0.6c0,0-0.2,0-0.4-0.1c-0.2,0-0.4,0-0.4,0c0,0,0.2,0,0.4,0c0.2,0,0.4,0,0.4,0c0.6,0.1,1.2,0.2,1.7,0.5
			l-0.1-0.3c0,0-0.1,0-0.1,0c-0.5-0.3-1-0.4-1.6-0.5c0,0-0.2,0-0.4,0c-0.2,0-0.4,0-0.4,0c0,0,0.2,0,0.4,0c0.2,0,0.4,0,0.4,0
			c0.5,0.1,1.1,0.2,1.6,0.4l-0.1-0.3c0,0-0.1,0-0.1,0c-0.4-0.2-0.9-0.4-1.4-0.5c0,0-0.2,0-0.3,0c-0.2,0-0.3,0-0.3,0c0,0,0.2,0,0.4,0
			c0.2,0,0.4,0,0.4,0c0.5,0,1,0.2,1.4,0.4L54.4,50c0,0,0,0-0.1,0c-0.4-0.2-0.8-0.4-1.3-0.4c0,0-0.2,0-0.3,0c-0.2,0-0.3,0-0.3,0
			c0,0,0.2,0,0.3,0c0.2,0,0.3,0,0.3,0c0.4,0,0.9,0.1,1.3,0.3l-0.1-0.3c0,0,0,0-0.1,0c-0.4-0.2-0.8-0.3-1.2-0.4c0,0-0.1,0-0.3,0
			c-0.1,0-0.3,0-0.3,0c0,0,0.1,0,0.3-0.1c0.2,0,0.3,0,0.3,0c0.4,0,0.8,0.1,1.1,0.3L54,49c0,0,0,0,0,0c-0.3-0.2-0.7-0.3-1-0.3
			c0,0-0.1,0-0.2,0c-0.1,0-0.3,0-0.3,0c0,0,0.1,0,0.3-0.1c0.1,0,0.3,0,0.3,0c0.3,0,0.7,0.1,1,0.2l-0.2-0.4c0,0,0,0-0.1,0
			c-0.3-0.2-0.7-0.3-1-0.3c0,0-0.1,0-0.3,0c-0.1,0-0.3,0-0.3,0c0,0,0.1,0,0.3-0.1c0.1,0,0.3,0,0.3,0c0.3,0,0.7,0.1,1,0.2l-0.2-0.4
			c0,0,0,0-0.1,0c-0.3-0.2-0.7-0.3-1-0.3c0,0-0.1,0-0.3,0c-0.1,0-0.3,0-0.3,0c0,0,0.1,0,0.3-0.1c0.1,0,0.3,0,0.3,0
			c0.3,0,0.7,0.1,1,0.2l-0.2-0.4c0,0,0,0-0.1,0c-0.3-0.2-0.7-0.3-1.1-0.3c0,0-0.1,0-0.3,0c-0.1,0-0.3,0-0.3,0c0,0,0.1,0,0.3-0.1
			c0.1,0,0.3,0,0.3,0c0.3,0,0.7,0.1,1,0.2l-0.2-0.4c0,0,0,0-0.1,0c-0.3-0.2-0.7-0.3-1.1-0.4c0,0-0.1,0-0.3,0c-0.1,0-0.3,0-0.3,0
			c0,0,0.1,0,0.3-0.1c0.1,0,0.3,0,0.3,0c0.4,0,0.7,0.1,1,0.3l-0.1-0.4c0,0,0,0-0.1,0c-0.3-0.2-0.7-0.3-1.1-0.4c0,0-0.1,0-0.3,0
			c-0.1,0-0.3,0-0.3,0c0,0,0.1,0,0.3-0.1c0.1,0,0.3,0,0.3,0c0.4,0,0.7,0.1,1,0.3l-0.1-0.4c0,0,0,0-0.1,0c-0.3-0.2-0.7-0.4-1.1-0.4
			c0,0-0.1,0-0.3,0c-0.1,0-0.3,0-0.3,0c0,0,0.1,0,0.3-0.1c0.1,0,0.3,0,0.3,0c0.4,0,0.7,0.1,1,0.3l-0.2-0.4c0,0-0.1,0-0.1,0
			c-0.3-0.2-0.7-0.4-1.1-0.4c0,0-0.1,0-0.3,0c-0.1,0-0.3,0-0.3,0c0,0,0.1,0,0.3-0.1c0.1,0,0.3,0,0.3,0c0.4,0,0.7,0.1,1.1,0.3
			l-0.1-0.3c0,0-0.1,0-0.1,0c-0.3-0.2-0.7-0.4-1.1-0.4c0,0-0.1,0-0.3,0c-0.1,0-0.3,0-0.3,0c0,0,0.1,0,0.3-0.1c0.2,0,0.3,0,0.3,0
			c0.4,0,0.8,0.1,1.1,0.3L52,43.9c0,0-0.1,0-0.1,0c-0.3-0.3-0.7-0.4-1.2-0.5c0,0-0.1,0-0.3,0c-0.1,0-0.3,0-0.3,0c0,0,0.2,0,0.3-0.1
			c0.2,0,0.3,0,0.3,0c0.4,0,0.8,0.2,1.1,0.4l-0.1-0.3c0,0-0.1,0-0.1,0c-0.3-0.3-0.8-0.5-1.2-0.5c0,0-0.2,0-0.3,0c-0.2,0-0.3,0-0.3,0
			c0,0,0.2,0,0.3,0c0.2,0,0.3,0,0.3,0c0.4,0,0.8,0.2,1.2,0.4l-0.1-0.3c0,0-0.1,0-0.1,0c-0.4-0.3-0.8-0.5-1.2-0.6c0,0-0.2,0-0.3,0
			c-0.2,0-0.3,0-0.3,0c0,0,0.2,0,0.3,0c0.2,0,0.3,0,0.3,0c0.4,0.1,0.8,0.2,1.2,0.4l-0.1-0.3c0,0-0.1,0-0.1,0
			c-0.4-0.3-0.8-0.5-1.3-0.6c0,0-0.2,0-0.3,0c-0.2,0-0.3,0-0.3,0c0,0,0.2,0,0.4,0c0.2,0,0.4,0,0.4,0c0.4,0.1,0.9,0.2,1.2,0.5
			l-0.1-0.3c0,0-0.1,0-0.1,0c-0.4-0.3-0.8-0.5-1.3-0.7c0,0-0.2,0-0.3-0.1c-0.2,0-0.3,0-0.3,0c0,0,0.2,0,0.4,0c0.2,0,0.4,0,0.4,0
			c0.5,0.1,0.9,0.3,1.3,0.5l-0.1-0.3c0,0-0.1,0-0.1,0c-0.4-0.3-0.9-0.6-1.4-0.7c0,0-0.2,0-0.3-0.1c-0.2,0-0.4,0-0.4,0
			c0,0,0.2,0,0.4,0c0.2,0,0.4,0,0.4,0c0.5,0.1,0.9,0.3,1.3,0.6l0-0.1c0,0-0.1,0-0.1,0c-0.4-0.4-0.8-0.7-1.4-0.8c0,0-0.2-0.1-0.4-0.1
			c-0.2,0-0.4-0.1-0.4-0.1c0,0,0.2,0,0.4,0c0.2,0,0.4,0.1,0.4,0.1c0.5,0.1,0.9,0.3,1.3,0.6l0,0c0,0,0,0-0.1-0.1
			c-0.4-0.4-0.8-0.7-1.3-0.9c0,0-0.2-0.1-0.4-0.1c-0.2-0.1-0.4-0.1-0.4-0.1c0,0,0.2,0,0.4,0.1c0.2,0,0.4,0.1,0.4,0.1
			c0.4,0.2,0.8,0.4,1.2,0.7c0,0,0,0,0,0c-0.4-0.4-0.8-0.8-1.3-1.1c0,0-0.2-0.1-0.4-0.2c-0.2-0.1-0.4-0.1-0.4-0.1c0,0,0.2,0,0.4,0.1
			c0.2,0.1,0.4,0.1,0.4,0.1c0.4,0.2,0.8,0.4,1.1,0.7c-0.3-0.4-0.8-0.8-1.3-1.1c0,0-0.2-0.1-0.4-0.2c0,0-0.1,0-0.1,0
			c-0.9-0.2-1.7-0.5-2.5-0.9c1.1,0.3,2,0.6,3.1,1c-0.1,0-0.1,0-0.2,0c0.1,0,0.2,0.1,0.2,0.1c0.4,0.2,0.7,0.4,1,0.7
			c-0.3-0.4-0.7-0.8-1.2-1.1c0,0-0.2-0.1-0.4-0.2c-0.2-0.1-0.4-0.2-0.4-0.2c0,0,0.1,0,0.1,0c0.1,0,0.2,0.1,0.3,0.1
			c0.2,0.1,0.4,0.2,0.4,0.2c0.3,0.2,0.7,0.5,0.9,0.7c-0.3-0.4-0.7-0.8-1.1-1.1c0,0-0.2-0.1-0.4-0.2c-0.2-0.1-0.4-0.2-0.4-0.2
			c0,0,0.1,0,0.1,0c0.1,0,0.2,0.1,0.3,0.1c0.2,0.1,0.4,0.2,0.4,0.2c0.3,0.2,0.6,0.5,0.9,0.8c-0.3-0.4-0.7-0.8-1.1-1.2
			c0,0-0.2-0.1-0.4-0.3c-0.2-0.1-0.4-0.2-0.4-0.2c0,0,0.1,0,0.1,0.1c0.1,0,0.2,0.1,0.3,0.2c0.2,0.1,0.4,0.3,0.4,0.3
			c0.3,0.2,0.6,0.5,0.9,0.8c-0.6-1.1-1.3-1.7-2.4-2.1c-1-0.3-2.1-0.4-3.2-0.4c-0.7,0-1.5,0-2.2-0.2C40.8,35.4,39.9,35,39.3,34.4z
			 M39.5,44c0.1,1.8,0.3,3.5,0.4,5.3C39.8,47.5,39.6,45.7,39.5,44z M33.9,57.3c0.7,0.6,1.7,1,2.9,1.1c0.8,0.1,1.6,0,2.4-0.1l0,0
			l0.1,0c0.1,0,0.3,0,0.4,0l0.4,0c3.1-0.3,6.2-0.4,9.3-0.2c1.3,0.1,2.7,0.2,3.8,1l0.1,0l0,0.1c0.1,0,0.1,0.1,0.2,0.1
			c1.9,0.2,5.1-0.4,7.2-1.8c0,0,0.1-0.1,0.1-0.1l0,0l0,0c1.3-1.7,4.1-2.6,6.3-3.2c0.2-0.1,0.4-0.1,0.6-0.2l0.3-0.2l0,0
			c2.6-0.8,5.6-2.4,8.3-4.5c-4.4-5.5-8.6-10.3-12.7-14.7l-0.3-0.1l0.9,1.1c0,0,0.5,0.6,0.4,0.6c0,0-0.5-0.5-0.5-0.5l-1-1.2
			c0,0,0,0,0-0.1L62.1,34l0.6,1c0,0,0.3,0.5,0.3,0.5c0,0-0.3-0.5-0.3-0.5L62,34c0,0,0,0,0-0.1l-0.9-0.3c3.2,3.8,6.8,8.5,11.3,14.8
			c0,0.1,0,0.1,0,0.2c-2,1.5-4.2,2.7-6.5,3.5c-0.6,0.2-1.2,0.4-1.7,0.5c-1,0.3-2.1,0.6-3,1c-1.3,0.6-2.9,1.6-3.6,3.2l0,0
			c0,0,0,0,0,0c0,0,0,0-0.1,0c0,0,0,0-0.1,0c-1.4-1-3-1.7-4.7-1.8c-1.5-0.2-3,0-4.5,0.2c-0.5,0.1-1,0.1-1.6,0.2c-1,0.1-2,0.1-3,0.1
			c-1.2,0.1-2.5-0.2-3.5-0.9c-0.2-2.1-0.4-4.2-0.6-6.3c-0.2-2.4-0.4-4.8-0.2-7.3c-0.1-2.2-0.2-4.3-0.3-6.3c-0.1-0.1-0.3-0.2-0.4-0.3
			c0,0,0,0.1,0,0.2l0.1,3.9c0,0,0.1,1.9,0,1.9c0,0-0.1-1.8-0.1-1.8l-0.2-3.9c0-0.1,0-0.1,0-0.2c-0.4,0.2-0.8,0.4-1.2,0.6l0,0.7
			c0,0,0,0.4,0,0.4c0,0,0-0.4,0-0.4l0-0.7c-0.5,0.2-1,0.4-1.6,0.5c0,0,0,0.1,0,0.1l0,2.3c0,0,0,1.1,0,1.1c0,0,0-1.1,0-1.1l0-2.3
			c0,0,0-0.1,0-0.1c-0.2,0-0.4,0.1-0.7,0.1c0,0,0,0.1,0,0.2l-0.1,2.7c0,0,0,1.3-0.1,1.3c0,0,0-1.2,0-1.2l0-2.7c0-0.1,0-0.1,0-0.2
			c-0.2,0-0.3,0-0.5,0C33.9,42.3,33.8,49.5,33.9,57.3z M31.9,41.1l0-0.3c0,0-0.1-0.1-0.2-0.1c-0.1-0.1-0.2-0.1-0.3-0.2
			c0,0-0.1,0-0.1-0.1c-0.1,0-0.1-0.1-0.1-0.1c0,0,0.1,0,0.2,0c0.1,0,0.1,0.1,0.1,0.1c0.1,0,0.2,0.1,0.3,0.2c0,0,0.1,0,0.1,0.1l0-0.1
			c0,0-0.1-0.1-0.2-0.1c-0.1-0.1-0.2-0.1-0.3-0.2c0,0-0.1,0-0.1-0.1c-0.1,0-0.1-0.1-0.1-0.1c0,0,0.1,0,0.2,0c0.1,0,0.1,0.1,0.1,0.1
			c0.1,0,0.2,0.1,0.3,0.2c0,0,0.1,0,0.1,0.1l0-0.1c0-0.1-0.1-0.1-0.2-0.1c-0.1-0.1-0.2-0.1-0.3-0.2c0,0-0.1,0-0.1-0.1
			c-0.1,0-0.1-0.1-0.1-0.1c0,0,0.1,0,0.2,0c0.1,0,0.1,0.1,0.1,0.1c0.1,0,0.2,0.1,0.3,0.2c0,0,0.1,0,0.1,0.1l0-0.1
			c0-0.1-0.1-0.1-0.2-0.2c-0.1-0.1-0.2-0.1-0.3-0.2c0,0-0.1,0-0.1-0.1c-0.1,0-0.1-0.1-0.1-0.1c0,0,0.1,0,0.2,0
			c0.1,0,0.1,0.1,0.1,0.1c0.1,0.1,0.2,0.1,0.3,0.2c0,0,0.1,0,0.1,0.1l0-0.1c0-0.1-0.1-0.1-0.2-0.2c-0.1-0.1-0.2-0.1-0.3-0.2
			c0,0-0.1,0-0.1-0.1c-0.1,0-0.1-0.1-0.1-0.1c0,0,0.1,0,0.2,0c0.1,0,0.1,0.1,0.1,0.1c0.1,0.1,0.2,0.1,0.3,0.2c0,0,0.1,0,0.1,0.1
			l0-0.1c-0.1-0.1-0.3-0.3-0.4-0.4c0,0-0.1,0-0.1-0.1c-0.1,0-0.1-0.1-0.1-0.1c0,0,0.1,0,0.2,0c0.1,0,0.1,0.1,0.1,0.1
			c0.1,0.1,0.3,0.2,0.4,0.3l0,0c-0.1-0.2-0.3-0.3-0.4-0.4c0,0-0.1,0-0.1-0.1c-0.1,0-0.1-0.1-0.1-0.1c0,0,0.1,0,0.2,0.1
			c0.1,0,0.1,0.1,0.1,0.1c0.1,0.1,0.3,0.2,0.4,0.3l0,0c-0.1-0.2-0.3-0.3-0.4-0.4c0,0-0.1,0-0.1-0.1c-0.1,0-0.1-0.1-0.1-0.1
			c0,0,0.1,0,0.2,0.1c0.1,0,0.1,0.1,0.1,0.1c0.1,0.1,0.3,0.2,0.4,0.3l0,0c-0.1-0.2-0.3-0.3-0.5-0.4c0,0-0.1,0-0.1-0.1
			c-0.1,0-0.1-0.1-0.1-0.1c0,0,0.1,0,0.2,0.1c0.1,0,0.1,0.1,0.1,0.1c0.2,0.1,0.3,0.2,0.4,0.3l0,0c-0.1-0.2-0.3-0.3-0.5-0.4
			c0,0-0.1,0-0.1-0.1C31.4,38,31.3,38,31.3,38c0,0,0.1,0,0.2,0.1c0.1,0,0.1,0.1,0.1,0.1c0.2,0.1,0.3,0.2,0.4,0.3l0-0.1
			c-0.6-0.5-1.3-0.8-2-1c-0.1,0-0.2,0-0.3,0c-0.2,0.1-0.2,0.1-0.2,0.1c0.1,0.9,0,1.8-0.2,2.6c0,0.2,0.2,0.3,0.3,0.4
			c0.2,0.1,0.3,0.1,0.5,0.1c0.1,0,0.1,0,0.2,0C30.9,40.5,31.5,40.8,31.9,41.1z M31.6,50.9c-0.1-0.1-0.3-0.3-0.4-0.4
			c0,0-0.1,0-0.1-0.1c-0.1,0-0.1-0.1-0.1-0.1c0,0,0.1,0,0.2,0.1c0.1,0,0.1,0.1,0.1,0.1c0.1,0.1,0.3,0.1,0.4,0.2l0-0.1
			c-0.1-0.1-0.3-0.3-0.4-0.4c0,0-0.1,0-0.1-0.1c-0.1,0-0.1-0.1-0.1-0.1c0,0,0.1,0,0.2,0.1c0.1,0,0.1,0.1,0.1,0.1
			c0.1,0.1,0.3,0.2,0.4,0.3l0-0.1c-0.1-0.1-0.3-0.3-0.4-0.4c0,0-0.1,0-0.1-0.1c-0.1,0-0.1-0.1-0.1-0.1c0,0,0.1,0,0.2,0.1
			c0.1,0,0.1,0.1,0.1,0.1c0.1,0.1,0.3,0.2,0.4,0.3l0,0c-0.1-0.2-0.3-0.3-0.4-0.4c0,0-0.1,0-0.1-0.1c-0.1-0.1-0.1-0.1-0.1-0.1
			c0,0,0.1,0,0.2,0.1c0.1,0,0.1,0.1,0.1,0.1c0.1,0.1,0.3,0.2,0.4,0.3l0-0.1c-0.6-0.5-1.3-0.8-2-1c-0.1,0-0.2,0-0.3,0
			c-0.2,0.1-0.2,0.1-0.2,0.1c0.1,0.9,0,1.8-0.2,2.6c0,0.2,0.2,0.3,0.3,0.4c0.2,0.1,0.3,0.1,0.5,0.1c0.1,0,0.1,0,0.2,0
			c0.6,0.1,1.1,0.3,1.6,0.6l0-0.3c0,0-0.1-0.1-0.1-0.1c-0.1-0.1-0.2-0.1-0.3-0.2c0,0-0.1,0-0.1-0.1c-0.1,0-0.1-0.1-0.1-0.1
			c0,0,0.1,0,0.2,0c0.1,0,0.1,0.1,0.1,0.1c0.1,0,0.2,0.1,0.3,0.2c0,0,0,0,0.1,0l0-0.1c0,0-0.1-0.1-0.1-0.1c-0.1-0.1-0.2-0.1-0.3-0.2
			c0,0-0.1,0-0.1-0.1c-0.1,0-0.1-0.1-0.1-0.1c0,0,0.1,0,0.2,0c0.1,0,0.1,0.1,0.1,0.1c0.1,0,0.2,0.1,0.3,0.2c0,0,0,0,0.1,0l0-0.1
			c0,0-0.1-0.1-0.1-0.1c-0.1-0.1-0.2-0.1-0.3-0.2c0,0-0.1,0-0.1-0.1c-0.1,0-0.1-0.1-0.1-0.1c0,0,0.1,0,0.2,0c0.1,0,0.1,0.1,0.1,0.1
			c0.1,0,0.2,0.1,0.3,0.2c0,0,0,0,0.1,0l0-0.1c0,0-0.1-0.1-0.1-0.1c-0.1-0.1-0.2-0.1-0.3-0.2c0,0-0.1,0-0.1-0.1
			c-0.1,0-0.1-0.1-0.1-0.1c0,0,0.1,0,0.2,0c0.1,0,0.1,0.1,0.1,0.1c0.1,0.1,0.2,0.1,0.3,0.2c0,0,0,0,0.1,0l0-0.1c0,0-0.1-0.1-0.1-0.1
			c-0.1-0.1-0.2-0.1-0.3-0.2c0,0-0.1,0-0.1-0.1c-0.1,0-0.1-0.1-0.1-0.1c0,0,0.1,0,0.2,0c0.1,0,0.1,0.1,0.1,0.1
			c0.1,0.1,0.2,0.1,0.3,0.2c0,0,0.1,0,0.1,0.1l0-0.1c-0.1-0.1-0.3-0.2-0.4-0.3c0,0-0.1,0-0.1-0.1c-0.1,0-0.1-0.1-0.1-0.1
			c0,0,0.1,0,0.2,0c0.1,0,0.1,0.1,0.1,0.1C31.4,50.8,31.5,50.9,31.6,50.9L31.6,50.9z M78.2,48.7L64.6,34c-0.1-0.1-0.1-0.1-0.2,0
			l-0.7,0.3l0.1,0c0,0,0,0,0.1,0c4.1,4.4,8.3,9.3,12.8,14.8c0,0,0,0.1,0,0.1c0,0,0,0.1,0,0.1c-2.8,2.2-5.9,3.8-8.6,4.7
			c-0.1,0-0.1,0-0.2,0L61,57.4c0,0-0.1,0.1-0.1,0.1c0,0,0,0,0,0c-0.1,0.1-0.2,0.1-0.3,0.2c0,0,0,0,0,0c0.1,0.2-0.2,0.8-0.3,0.8
			c-0.3,0.3-0.6,0.5-1.1,0.7c-1.6,0.7-3.2,1-4.8,1c0,0,0,0,0,0c-0.2,0-0.7,0-0.9-0.3c-0.1-0.1-0.2-0.3-0.1-0.5c0-0.1,0-0.1,0.1-0.2
			c-0.1-0.1-0.1-0.1-0.2-0.1l-13.9-0.7c-0.8,0.1-1.7,0.2-2.5,0.1c-1.2-0.1-2.3-0.5-3.1-1.2c0,0,0-0.1,0-0.1c-0.1-7.8,0-15,0.4-21.5
			l-1.4-0.2c-0.1,0-0.1,0-0.2,0c0,0-0.1,0.1-0.1,0.1l-0.2,5.5c0,0,0,0,0,0l0,0l-0.3,8.4c0,0,0,0,0,0l0,0l-0.1,2.6c0,0,0,0,0,0l0,0.5
			c0,0,0,0,0.1,0.1l-0.1,0.1l-0.2,5.2c0,0.2,0.2,0.5,0.4,0.5l20.7,1c0.1,0,0.1,0,0.1,0.1c0.1,0.4,0.6,0.6,1.5,0.7
			c0.8,0.1,1.9,0,3.1-0.2c2.4-0.5,4.2-1.4,4-2.2c0-0.1,0-0.1,0.1-0.1l16.6-8.7c0.1-0.1,0.2-0.2,0.2-0.3
			C78.3,48.9,78.3,48.8,78.2,48.7z M34.2,57.1c0.1,0,0.2,0,0.2,0c0,0.1,0.1,0.1,0.1-0.1c0.1-0.1,0.2-0.1,0.3-0.2c0,0,0.1,0,0.1-0.1
			c0.1,0.2,0.2,0.3,0.4,0.5c0,0,0.1,0,0.1,0.1c0.1,0,0.1,0.1,0.1,0.1c0,0-0.1-0.1-0.1-0.1c-0.1,0-0.1-0.1-0.1-0.1
			c-0.1-0.1-0.2-0.3-0.3-0.5c0.1-0.1,0.2-0.1,0.3-0.1c0.1,0,0.1,0,0.2,0c0.1,0,0.1,0,0.1,0c0.3,0.3,0.5,0.5,0.9,0.6
			c0,0,0.1,0.1,0.2,0.1c0.1,0,0.2,0.1,0.2,0.1c0,0-0.1-0.1-0.2-0.1c-0.1-0.1-0.2-0.1-0.2-0.1c-0.3-0.2-0.5-0.4-0.7-0.6
			c0.1,0,0.1-0.1,0.2-0.1c0.2-0.1,0.4-0.2,0.6-0.3c-0.2,0-0.4,0.1-0.6,0.1c0,0,0,0,0,0L36.2,55c0,0-0.1-0.5-0.1-0.5c0,0,0,0.6,0,0.6
			l0,1.2c0,0,0,0,0,0c-0.1,0-0.2,0.1-0.3,0.1c-0.1,0.1-0.2,0.1-0.3,0c-0.1,0-0.1,0-0.2,0l0-0.8c0,0,0-0.4,0-0.4c0,0,0,0.4,0,0.4
			l0,0.9c0,0-0.1,0-0.1,0c-0.1,0.1-0.2,0.1-0.3,0.2c-0.1,0.1-0.1,0.1-0.2,0.2l0-1.9c0,0,0-0.9,0-0.9c0,0,0,0.9,0,0.9L34.5,57
			c0,0,0,0,0,0C34.4,57.1,34.3,57.1,34.2,57.1z M32.7,38.1c0-0.4,0-0.7,0-1.1c0-0.2,0-0.4,0-0.5l0-0.3l0-0.1l0,0l0,0l0,0l0,0l0,0
			l0,0l0.1,0c0.1,0,0.2,0,0.3,0c0.2,0,0.4,0,0.6,0c-0.2,0-0.4-0.1-0.6-0.1c-0.1,0-0.2,0-0.3,0l-0.1,0l-0.2,0c0,0.2,0,0.4,0,0.6
			c0,0.2,0,0.4,0,0.5c0,0.4,0,0.7,0,1.1c0,0.7,0,1.4,0,2.2C32.6,39.5,32.6,38.8,32.7,38.1z M34.7,45.4c-0.2,2.8-0.3,5.4-0.2,8.2
			C34.7,50.8,34.8,48.2,34.7,45.4z M58.8,58c-1.4,0.4-2.6,0.7-4,1C56.2,58.9,57.5,58.6,58.8,58z M32.5,40.6c-0.1,4-0.3,7.7-0.4,11.7
			C32.5,48.4,32.7,44.7,32.5,40.6z M64.5,34c1.3,1.7,2.6,3.1,4.1,4.6C67.3,37,66,35.5,64.5,34z M32.2,58.1c-0.1,0-0.1-0.1-0.1-0.1
			l0-0.5c0-0.3,0-0.6,0-0.9c0-1.2-0.1-2.4-0.1-3.7c-0.1,1.3-0.1,2.5-0.1,3.7c0,0.3,0,0.6,0,0.9c0,0.2,0,0.3,0,0.5c0,0,0,0.1,0,0.1
			c0,0.1,0.1,0.1,0.1,0.1c0.1,0,0.1,0.1,0.2,0.1c0.3,0.1,0.6,0.2,0.9,0.2c0.3,0,0.6,0,0.9,0c-0.6,0-1.3-0.1-1.8-0.3
			C32.3,58.2,32.2,58.2,32.2,58.1z M77.8,48.6c-0.1-0.1-0.1-0.1-0.2-0.1c-0.4-0.6-0.9-1-1.5-1.5c0.4,0.5,0.7,1,1.2,1.3
			c0.1,0.1,0.2,0.2,0.3,0.4c0.1,0.1,0.1,0.3,0,0.4c-0.1,0.1-0.2,0.2-0.4,0.3c-0.6,0.3-1.2,0.7-1.8,1.2c0.6-0.4,1.3-0.7,1.9-1
			c0.2-0.1,0.3-0.2,0.5-0.3c0.1-0.1,0.1-0.2,0.1-0.3C77.9,48.7,77.8,48.6,77.8,48.6z M69.6,53.6c-2.8,1.3-5.4,2.6-8.2,4.2
			C64.3,56.5,66.9,55.2,69.6,53.6z M30.4,40.1c-0.1,0-0.2,0-0.3,0c-0.1,0-0.1,0-0.1,0c0,0-0.1,0-0.1,0c-0.1-0.1-0.1-0.3-0.1-0.5
			c0-0.2,0.1-0.4,0.2-0.6c0-0.1,0.1-0.2,0.1-0.3c0-0.1,0-0.2,0-0.3c0-0.2-0.1-0.4-0.1-0.6c0,0,0-0.1,0.1-0.1c0,0,0.1,0,0.2,0
			c0.1,0,0.2,0,0.3,0c-0.1,0-0.2-0.1-0.3-0.1c-0.1,0-0.1,0-0.2,0c0,0-0.1,0-0.1,0c0,0,0,0.1,0,0.1c0,0.2,0,0.4,0,0.6
			c0,0.2,0,0.4-0.1,0.6c-0.1,0.2-0.2,0.4-0.2,0.6c0,0.2,0,0.5,0.2,0.7c0,0,0.1,0.1,0.2,0.1c0.1,0,0.1,0,0.2,0c0.1,0,0.2,0,0.3,0
			c0.4,0,0.8,0.1,1.1,0.4C31.2,40.4,30.8,40.2,30.4,40.1z M36.9,41.1c-0.1,1.3-0.1,2.5,0.1,3.8C37.1,43.6,37.1,42.4,36.9,41.1z
			 M38,55.5C38,55.5,38,55.5,38,55.5c0.1,0,0.2-0.1,0.3-0.1c0.1,0,0.1,0,0.2,0c0.2,0.3,0.4,0.6,0.7,0.7c0,0,0.1,0.1,0.2,0.1
			c0.1,0,0.2,0.1,0.2,0.1c0,0-0.1-0.1-0.2-0.1c-0.1-0.1-0.2-0.1-0.2-0.1c-0.3-0.2-0.5-0.4-0.6-0.7c0.1,0,0.2-0.1,0.2-0.2
			c0.1-0.1,0.2-0.1,0.2-0.2c0.2-0.1,0.3-0.2,0.5-0.4c-0.1,0-0.2,0.1-0.3,0.1L39.2,54c0,0,0-0.4-0.1-0.4c0,0,0,0.4,0,0.4l0,0.8
			c0,0-0.1,0-0.1,0.1c-0.1,0-0.2,0.1-0.3,0.2c0,0-0.1,0-0.1,0.1l-0.2-1.3c0,0-0.1-0.6-0.1-0.6c0,0,0,0.7,0,0.7l0.1,1.4
			c-0.1,0-0.2,0-0.3,0.1c0,0-0.1,0-0.1,0.1L38,54.8c0,0,0-0.3-0.1-0.3c0,0,0,0.3,0,0.3l0,0.6c0,0,0,0,0,0c-0.2,0.1-0.3,0.2-0.5,0.4
			C37.6,55.7,37.8,55.6,38,55.5C38,55.6,38,55.5,38,55.5z M37.8,37.9c0,3.8,0.2,7.2,0.5,10.9C38.3,45.1,38.1,41.7,37.8,37.9z
			 M34.6,57.3c1.2,0.9,2.8,1.2,4.2,0.6c-0.7,0.1-1.4,0.1-2.1,0C36,57.9,35.3,57.7,34.6,57.3z M55,56.1c0.1,0.1,0.2,0.1,0.2,0.1
			c0.4,0.2,0.7,0.5,1,0.8c0.3,0.3,0.5,0.7,0.7,1c0.1,0.2,0.3,0.2,0.2-0.1c-0.4-0.8-1.1-1.4-1.9-1.8c0,0-0.1,0-0.2-0.1
			c-0.1,0-0.2-0.1-0.4-0.1c-0.3-0.1-0.6-0.1-0.6-0.1c0,0,0.3,0.1,0.6,0.2C54.7,55.9,54.9,56,55,56.1z M37.5,48c0,1.8,0,3.5,0.3,5.3
			C37.8,51.4,37.7,49.8,37.5,48z M35.7,48.8c-0.2,1.6-0.2,3-0.1,4.6C35.7,51.8,35.8,50.4,35.7,48.8z M55.8,58.1
			c-0.4-0.7-1.1-1.3-2-1.5c0.4,0.2,0.7,0.5,1,0.7C55.2,57.5,55.5,57.8,55.8,58.1z M45,56.3c-1,0-1.9,0-2.8-0.1
			c-0.9-0.1-1.9-0.3-2.8-0.5C41.2,56.4,43,56.6,45,56.3z M54.7,56.5c0.5,0.5,1,1,1.5,1.5C55.9,57.4,55.4,56.9,54.7,56.5z M45.9,56
			c1.9-0.1,3.7-0.4,5.6-0.5c-1.9,0-3.8,0.2-5.6,0.3c-0.9,0.1-1.8,0.1-2.8,0c-0.9-0.1-1.9-0.3-2.8-0.6c0.9,0.4,1.8,0.7,2.7,0.8
			C44,56.1,44.9,56.1,45.9,56z M51.7,57.1c-0.3,0-0.6,0-0.6,0C51.1,57.1,51.4,57.1,51.7,57.1c0.3,0.1,0.6,0.2,0.6,0.2
			c0.6,0.2,1.1,0.5,1.6,0.9c-0.7-0.5-1.4-0.8-2.2-1c0,0-0.1,0-0.2,0c-0.1,0-0.3,0-0.4-0.1c-0.2,0-0.3,0-0.4,0c-0.1,0-0.2,0-0.2,0
			c0,0,0.3,0,0.7,0.1c0.2,0,0.3,0.1,0.5,0.1c0.1,0,0.2,0.1,0.2,0.1c0.5,0.1,0.9,0.3,1.3,0.6c-0.6-0.3-1.3-0.5-1.9-0.6
			c0,0-0.4-0.1-0.7-0.1c-0.2,0-0.4,0-0.5,0c-0.1,0-0.2,0-0.2,0c0,0,0.1,0,0.2,0c0.1,0,0.3,0,0.5,0c0.4,0,0.8,0.1,0.8,0.1
			c0.4,0.1,0.8,0.2,1.2,0.4c0,0,0,0-0.1,0c-0.6-0.2-1.2-0.3-1.8-0.4c0,0-0.4,0-0.8,0c-0.2,0-0.4,0-0.6,0c-0.2,0-0.3,0-0.3,0
			c0,0,0.1,0,0.3,0c0.2,0,0.4,0,0.6,0c0.4,0,0.8,0.1,0.8,0.1c0.3,0,0.7,0.1,1,0.2c-0.5-0.1-1.1-0.2-1.6-0.2c0,0-0.5,0-0.9,0
			c-0.2,0-0.5,0-0.6,0c-0.2,0-0.3,0-0.3,0c0,0,0.1,0,0.3,0c0.2,0,0.4,0,0.6,0c0.5,0,0.9,0.1,0.9,0.1c0.1,0,0.3,0,0.4,0
			c-0.4,0-0.7-0.1-1.1-0.1c0,0-0.1,0-0.3,0c-0.2,0-0.4,0-0.7,0c-0.2,0-0.5,0-0.7,0c-0.2,0-0.3,0-0.3,0c0,0,0.1,0,0.3,0
			c0.2,0,0.5,0,0.7,0c0.5,0,1,0,1,0c0.7,0,1.4,0.1,2.1,0.3c0.7,0.2,1.3,0.5,1.9,0.9c0.2,0.1,0.3,0.2,0.3,0.1c0,0,0,0,0-0.1
			c0,0,0.1,0,0.1,0c0,0,0,0,0-0.1c0.1,0,0.1,0,0.1-0.1c0.1,0,0.1,0,0.1-0.1c0.1,0,0.1,0,0.1-0.1c0.1,0.1,0.3,0.1,0.2,0c0,0,0,0,0,0
			c0.1,0.2,0.3,0.1,0.2-0.1c0,0,0,0.1,0.1,0.1c0.1,0.2,0.3,0.1,0.2-0.1c-0.4-0.5-0.9-1-1.5-1.2c0,0-0.2-0.1-0.4-0.2
			C52.9,57,52.7,57,52.7,57c0,0,0.2,0.1,0.4,0.2c0.2,0.1,0.4,0.2,0.4,0.2c0.5,0.3,0.9,0.7,1.2,1.1c-0.5-0.6-1.1-1-1.8-1.3
			c0,0-0.2-0.1-0.5-0.1C52.1,57,51.9,57,51.9,57c0,0,0.3,0.1,0.5,0.1c0.3,0.1,0.5,0.2,0.5,0.2c0.6,0.2,1.1,0.6,1.5,1
			c-0.6-0.6-1.3-1-2.1-1.2C52.2,57.2,52,57.1,51.7,57.1z M36.7,36.7c-0.1,1.2-0.1,2.4,0,3.6C36.8,39.1,36.8,37.9,36.7,36.7z
			 M41.7,37.4c0.2,3.2,0.5,6.1,0.8,9.4C42.3,43.6,42.1,40.6,41.7,37.4z M42.6,45.1c0.1,1.9,0.2,3.6,0.5,5.5
			C43,48.7,42.8,47,42.6,45.1z M42.5,37.1C42.5,37.1,42.5,37.1,42.5,37.1c-0.3-0.1-0.7-0.1-0.9,0.1c0.1,0,0.2,0,0.3,0
			c-0.1,0.1-0.1,0.1-0.1,0.2c0,0.1,0,0.2,0.1,0.2c-0.1,0-0.1-0.1-0.1-0.2c0-0.1,0.1-0.2,0.1-0.2c0,0,0,0,0.1,0c0.1,0,0.1,0,0.2,0
			C42.4,37.2,42.4,37.2,42.5,37.1c0.3,0.2,0.6,0.2,1,0.2c0.7,0.1,1.3,0.1,2,0.2c-0.7-0.1-1.3-0.2-2-0.3
			C43.2,37.2,42.9,37.1,42.5,37.1z M44.9,37.2c1.5,0.3,2.8,0.8,4.2,1.4C47.8,37.8,46.5,37.3,44.9,37.2z M41.8,44.3
			c-0.1-2.6-0.3-5-0.6-7.6C41.4,39.3,41.5,41.6,41.8,44.3z M42.9,51.8c0-0.2,0-0.3,0-0.5l0-0.5c0-0.3-0.1-0.7-0.1-1
			c-0.1-0.7-0.2-1.4-0.3-2.1c0,0.7,0.1,1.4,0.1,2.1c0,0.3,0.1,0.7,0.1,1c0,0.4,0.1,0.7,0.1,1.1c0.1,0,0.3,0,0.4,0c0.1,0,0.3,0,0.4,0
			c0.3,0,0.5,0,0.8,0c-0.3,0-0.5-0.1-0.8-0.1C43.4,51.8,43.1,51.8,42.9,51.8z M49.6,52.3c-2-0.5-3.9-0.8-6-0.8
			C45.7,51.7,47.6,51.9,49.6,52.3z M50.4,52.7c-1.4-0.3-2.7-0.5-4.1-0.6C47.7,52.4,49,52.6,50.4,52.7z M41.6,37
			c-0.1-0.1,0-0.2,0.1-0.2c0.1,0,0.2,0,0.2,0c0.2,0,0.4,0.1,0.5,0.1c0.4,0,0.7,0,1.1,0c-0.4-0.1-0.7-0.1-1.1-0.2c-0.2,0-0.4,0-0.6,0
			c-0.1,0-0.2,0-0.3,0.1c0,0-0.1,0.1-0.1,0.1C41.5,37,41.5,37,41.6,37z M42.1,44c0,1.1,0.1,2.1,0.3,3.2C42.4,46.1,42.3,45.1,42.1,44
			z M40.3,36.6c0.2,0.2,0.5,0.5,0.8,0.6l0,0l0,0c0,0,0-0.1,0-0.1c0,0,0,0.1,0,0.1C40.8,37,40.5,36.8,40.3,36.6c0.1-0.1,0-0.1,0-0.2
			c0,0,0,0,0,0c0,0,0,0,0,0c0,0,0,0,0,0c0,0,0,0,0,0c0,0,0.1,0,0.1,0.1l0.4,0.2l0.3,0.2l-0.2-0.3c-0.1-0.1-0.2-0.2-0.2-0.3
			c0-0.1,0.1-0.2,0.2-0.2c0.1,0,0.2,0.1,0.3,0.2c0.1,0.1,0.1,0.3,0.1,0.4c0-0.1,0-0.3,0-0.4c0-0.1-0.2-0.3-0.3-0.3
			c-0.1,0-0.2,0-0.2,0.1c-0.1,0.1-0.1,0.2-0.1,0.2c0,0.1,0,0.1,0,0.2c-0.1,0-0.1-0.1-0.2-0.1c0,0-0.1,0-0.1-0.1c0,0-0.1,0-0.1,0
			c0,0-0.1,0-0.1,0.1c0,0,0,0.1,0,0.1c0,0,0,0.1,0,0.1C40.2,36.6,40.2,36.6,40.3,36.6z M43.7,53c0,0.1-0.1,0.2-0.2,0.3
			c-0.1,0-0.2-0.1-0.3-0.1c0,0,0-0.1-0.1-0.2c0-0.1,0-0.2-0.1-0.3c0,0.1-0.1,0.1-0.1,0.2c0,0,0,0,0,0.1c0,0,0,0,0,0c0,0,0,0-0.1,0
			c-0.1,0-0.1,0-0.1,0c0,0-0.1-0.1-0.1-0.1c0,0,0-0.1,0-0.1l0,0c0,0,0,0,0,0l0,0l0,0c0,0,0,0,0,0l0.2-0.2l-0.5,0.1l-0.3,0l-0.3,0
			c0,0-0.1,0-0.1,0c0,0-0.1,0-0.1,0c0,0,0-0.1,0.1-0.2c0.1-0.1,0.1-0.1,0.2-0.2c0.1-0.1,0.3-0.2,0.4-0.3c-0.2,0.1-0.3,0.2-0.5,0.3
			c-0.1,0.1-0.1,0.1-0.2,0.2c0,0-0.1,0.1-0.1,0.1c0,0,0,0.1,0,0.2c0,0.1,0.1,0.1,0.2,0.1c0.1,0,0.1,0,0.1,0l0.3,0l0.3,0l0,0l0,0l0,0
			l0,0l0,0c0,0,0,0,0,0c0,0,0,0.1,0,0.1c0,0.1,0,0.2,0.1,0.2c0.1,0.1,0.2,0.1,0.2,0.1c0,0,0.1,0,0.1,0c0,0,0,0,0,0l0,0c0,0,0,0,0,0
			l0,0c0,0,0,0,0,0c0,0.1,0,0.1,0.1,0.2c0.1,0.1,0.2,0.2,0.4,0.2C43.7,53.2,43.7,53.1,43.7,53c0.1-0.1,0-0.3,0-0.4
			C43.7,52.7,43.7,52.8,43.7,53z M66.6,48.6c-1.6,0.8-3.1,1.5-4.7,2.1C63.6,50.3,65.1,49.6,66.6,48.6z M67.3,47.5
			c-0.6,0.6-1.2,1-1.9,1.4C66.1,48.7,66.8,48.2,67.3,47.5z M67.6,47.7c-0.3,0.2-0.6,0.4-1,0.7C67,48.3,67.4,48,67.6,47.7z
			 M68.6,47.2c0.1,0,0.2,0,0.2,0.1c0.1,0,0.1,0.1,0.2,0.1c0,0.1,0,0.1,0,0.1c0,0-0.1,0-0.1,0c0,0-0.1,0-0.1,0l-0.3-0.1l0.3,0.2
			c0,0,0.1,0,0.1,0c0.1,0,0.2,0.1,0.2,0.1c0.1,0.1,0.1,0.2,0.1,0.2c0,0.1-0.1,0.1-0.2,0.1c0,0-0.1,0-0.1,0c0,0,0,0-0.1,0L68.7,48
			c0,0,0,0.1-0.1,0.1c0,0,0,0.1,0,0.1c0,0.1,0,0.1,0,0.1c0,0.1,0.1,0.2,0.1,0.2c0,0,0,0.1,0,0.1c0,0,0,0.1-0.1,0.1c0,0,0,0-0.1,0
			c0,0-0.1,0-0.1-0.1c0,0-0.1-0.1-0.1-0.1c-0.1,0-0.1,0.1-0.1,0.1c0,0,0,0.1-0.1,0.1c0,0-0.1,0-0.1,0.1c-0.1,0-0.2,0-0.2-0.1
			c-0.1-0.1-0.1-0.2-0.1-0.2c0,0.1,0,0.2,0,0.3c0.1,0.1,0.2,0.1,0.2,0.1c0,0,0.1,0,0.1-0.1c0,0,0.1-0.1,0.1-0.1c0-0.1,0.1-0.1,0.1,0
			c0,0,0.1,0.1,0.1,0.1c0,0,0.1,0,0.2,0c0,0,0.1-0.1,0.1-0.1c0-0.1,0-0.1,0-0.1c0-0.1,0-0.2-0.1-0.2c0,0,0-0.1,0-0.1c0,0,0,0,0,0
			c0,0,0,0,0,0c0,0,0,0,0,0c0,0,0.1,0,0.1,0c0.1,0,0.1,0.1,0.2,0.1c0.1,0,0.1,0,0.2,0c0.1,0,0.1-0.1,0.2-0.2c0.1-0.2,0-0.3-0.1-0.4
			c0,0-0.1-0.1-0.1-0.1c0,0,0,0,0,0c0,0,0.1-0.1,0.1-0.2c0-0.1,0-0.1-0.1-0.1c-0.1-0.1-0.2-0.1-0.2-0.1
			C68.8,47.2,68.7,47.2,68.6,47.2c-0.3-0.1-0.7-0.1-1,0C68,47.1,68.3,47.2,68.6,47.2z M59.4,35.4c-1.3,0-2.5,0.3-3.7,1
			C57,35.9,58.1,35.6,59.4,35.4z M58,35.3c0.5,0,1-0.1,1.5-0.3C59,35,58.6,35.1,58,35.3z M59.4,34.4C59.4,34.3,59.5,34.3,59.4,34.4
			c0.1,0,0.1,0,0.1,0l0,0c0,0,0,0,0,0c0,0,0,0.1,0,0.1L59.2,35l0.4-0.4c0,0,0.1-0.1,0.1-0.1c0,0,0,0,0,0l0,0c0,0,0.1,0,0.1,0
			c0.1,0,0.1,0,0.2,0.1c0,0,0,0,0,0.1c0,0,0,0,0,0c0,0-0.1,0.1-0.3,0.1l0.1,0l0,0c0,0,0,0,0,0l0,0l0.1,0c0,0,0.1,0,0.1,0
			c0,0,0,0,0.1,0c0.1,0,0.1,0.1,0.2,0.1c-0.1,0-0.1,0-0.2,0c0.1,0,0.2,0,0.2,0l0.1,0l0,0c-0.1-0.1-0.1-0.1-0.2-0.2
			c-0.1-0.1-0.1,0-0.1-0.1c0,0,0,0,0,0c0,0,0-0.1,0-0.1c0-0.1,0-0.1,0-0.2c-0.1-0.1-0.2-0.1-0.3-0.1c0,0-0.1,0-0.1,0l0,0l0,0v0
			c0,0,0,0,0,0s0,0,0,0l0,0l0,0c0,0,0,0,0,0c0-0.1-0.1-0.1-0.1-0.2C59.4,34.2,59.4,34.2,59.4,34.4c-0.1,0-0.1,0-0.2,0.1
			c-0.1,0.2-0.2,0.4-0.3,0.6c0.1-0.2,0.2-0.4,0.3-0.5C59.3,34.4,59.4,34.4,59.4,34.4z M63.1,41.1c-1.1-1.9-2-3.7-3-5.7
			C60.9,37.5,61.9,39.3,63.1,41.1z M66.7,46.9c-0.5-1-1-1.8-1.7-2.7C65.5,45.2,66,46.1,66.7,46.9z M65.8,44.8c0.3,1,0.8,1.9,1.5,2.6
			C66.8,46.6,66.3,45.7,65.8,44.8z M60.5,35.6c0.3,1.2,0.8,2.3,1.6,3.3c1,1.9,1.9,3.5,3.1,5.3c-1-1.8-1.9-3.5-3-5.3c0,0,0,0,0,0
			C61.5,37.9,60.9,36.8,60.5,35.6z M41.9,42c0-0.8,0-1.6-0.2-2.4C41.6,40.5,41.7,41.2,41.9,42z"/>
		<g>
			<g>
				<g>
					<path class="st4" d="M48.2,54.2c0.1,0.1,0.2,0.2,0.4,0.1c0.1-0.1,0.3-0.2,0.2-0.4c0,0,0-0.1-0.1-0.2c-0.1-0.1-0.2-0.2-0.2-0.2
						c0,0,0.2,0,0.3,0.2c0.1,0.1,0.1,0.1,0.1,0.2c0,0.1,0,0.1,0,0.1c0,0.1,0,0.2-0.1,0.4c0,0.1-0.1,0.1-0.1,0.2
						c0.2-0.1,0.3-0.3,0.3-0.5c0-0.3-0.3-0.6-0.6-0.6c-0.3,0-0.6,0.3-0.6,0.6c0,0.1,0,0.2,0.1,0.3c0,0,0,0,0,0
						C48.1,54.2,48.2,54.2,48.2,54.2z"/>
				</g>
			</g>
			<g>
				<g>
					<path class="st4" d="M48.5,53.1c-0.5,0-0.9,0.4-0.9,0.9c0,0.5,0.4,0.9,0.9,0.9c0.5,0,0.9-0.4,0.9-0.9
						C49.4,53.4,49,53.1,48.5,53.1z M48.8,54.5c0.1-0.1,0.1-0.1,0.1-0.2c0.1-0.1,0.1-0.2,0.1-0.4c0,0,0,0,0-0.1
						c0-0.1-0.1-0.1-0.1-0.2c-0.1-0.1-0.3-0.2-0.3-0.2c0,0,0.1,0.1,0.2,0.2c0.1,0.1,0.1,0.2,0.1,0.2c0,0.2-0.1,0.3-0.2,0.4
						c-0.1,0.1-0.3,0-0.4-0.1c0,0-0.1,0-0.2,0c0,0,0,0,0,0c0-0.1-0.1-0.2-0.1-0.3c0-0.3,0.3-0.6,0.6-0.6c0.3,0,0.6,0.3,0.6,0.6
						C49.1,54.2,49,54.4,48.8,54.5z"/>
				</g>
			</g>
		</g>
		<g>
			<g>
				<g>
					<g>
						<path class="st4" d="M43.8,36c-0.1,0.1-0.1,0.2-0.1,0.3c0,0.1,0.1,0.2,0.3,0.2c0,0,0.1,0,0.2,0c0.1,0,0.1-0.1,0.2-0.1
							c0,0,0,0.1-0.1,0.2c0,0-0.1,0.1-0.1,0.1c0,0-0.1,0-0.1,0c-0.1,0-0.2,0-0.3,0c0,0-0.1-0.1-0.1-0.1c0.1,0.1,0.2,0.2,0.4,0.2
							c0.2,0,0.4-0.2,0.4-0.4c0-0.1,0-0.1,0-0.2c0-0.1-0.1-0.1-0.1-0.1c-0.1,0-0.2-0.1-0.3-0.2c-0.1,0-0.1,0-0.2,0l0,0
							C43.8,36,43.8,36,43.8,36z"/>
					</g>
				</g>
				<g>
					<g>
						<path class="st4" d="M44,36.9c-0.3,0-0.6-0.2-0.6-0.6c0,0,0-0.1,0-0.1c0,0,0,0,0-0.1c0,0,0,0,0,0l0-0.1c0-0.1,0.1-0.3,0.2-0.3
							c0.2-0.1,0.4-0.1,0.5,0c0.1,0.1,0.2,0.2,0.4,0.3c0.1,0,0.1,0.1,0.1,0.1l0,0c0,0,0,0,0,0c0,0,0,0,0,0.1c0,0,0,0.1,0,0.1
							C44.6,36.6,44.3,36.8,44,36.9z M44,36.7c0.2,0,0.4-0.2,0.4-0.4c0-0.1,0-0.1,0-0.2c0-0.1-0.1-0.1-0.1-0.1
							c-0.1,0-0.2-0.1-0.3-0.2c-0.1,0-0.1,0-0.2,0l0,0c0,0.1,0,0.2,0,0.2c-0.1,0.1-0.1,0.2-0.1,0.3c0,0.1,0.1,0.2,0.3,0.2
							c0,0,0.1,0,0.2,0c0.1,0,0.1-0.1,0.2-0.1c0,0,0,0.1-0.1,0.2C44.1,36.5,44.1,36.6,44,36.7C44,36.6,44,36.6,44,36.7
							c-0.1-0.1-0.2-0.1-0.2-0.1c0,0-0.1-0.1-0.1-0.1C43.7,36.6,43.8,36.7,44,36.7z"/>
					</g>
				</g>
			</g>
			<g>
				<g>
					<g>
						<path class="st4" d="M43.8,37.3c-0.1,0.1-0.1,0.2,0,0.3c0.1,0.1,0.2,0.2,0.3,0.1c0,0,0.1,0,0.2-0.1c0.1,0,0.1-0.1,0.1-0.1
							c0,0,0,0.1-0.1,0.2c0,0-0.1,0.1-0.1,0.1c0,0-0.1,0-0.1,0c-0.1,0-0.2,0-0.3,0c0,0-0.1,0-0.1-0.1c0.1,0.1,0.2,0.2,0.4,0.2
							c0.2,0,0.4-0.2,0.3-0.5c0-0.2-0.2-0.4-0.5-0.4c-0.1,0-0.1,0-0.2,0.1l0,0C43.8,37.2,43.9,37.3,43.8,37.3z"/>
					</g>
				</g>
				<g>
					<g>
						<path class="st4" d="M44.1,38.1c-0.3,0.1-0.7-0.2-0.7-0.5c0-0.4,0.2-0.7,0.5-0.7c0.3,0,0.6,0.2,0.7,0.5
							C44.7,37.7,44.5,38,44.1,38.1z M44.1,37.9c0.2,0,0.4-0.2,0.3-0.5c0-0.2-0.2-0.4-0.5-0.4c-0.1,0-0.1,0-0.2,0.1l0,0
							c0,0.1,0.1,0.1,0,0.1c-0.1,0.1-0.1,0.2,0,0.3c0.1,0.1,0.2,0.2,0.3,0.1c0,0,0.1,0,0.2-0.1c0.1,0,0.1-0.1,0.1-0.1
							c0,0,0,0.1-0.1,0.2C44.3,37.7,44.2,37.8,44.1,37.9C44.1,37.8,44.1,37.8,44.1,37.9c-0.1,0-0.2,0-0.3-0.1c0,0-0.1,0-0.1-0.1
							C43.8,37.9,43.9,37.9,44.1,37.9z"/>
					</g>
				</g>
			</g>
			<g>
				<g>
					<g>
						<path class="st4" d="M44,38.5c-0.1,0.1-0.1,0.2,0,0.3c0.1,0.1,0.2,0.1,0.3,0.1c0,0,0.1,0,0.2-0.1c0.1-0.1,0.1-0.1,0.1-0.1
							c0,0,0,0.1-0.1,0.2c0,0-0.1,0.1-0.1,0.1c0,0-0.1,0-0.1,0c-0.1,0-0.2,0-0.3,0C44,39,44,39,43.9,39c0.1,0.1,0.3,0.2,0.4,0.1
							c0.2-0.1,0.4-0.3,0.3-0.5c0-0.2-0.3-0.4-0.5-0.3c-0.1,0-0.1,0-0.2,0.1l0,0C44,38.4,44.1,38.5,44,38.5z"/>
					</g>
				</g>
				<g>
					<g>
						<path class="st4" d="M44.4,39.3c-0.3,0.1-0.7-0.1-0.7-0.5c-0.1-0.3,0.1-0.7,0.5-0.7c0.3-0.1,0.6,0.2,0.7,0.5
							C44.9,38.9,44.7,39.2,44.4,39.3z M44.3,39.1c0.2-0.1,0.4-0.3,0.3-0.5c0-0.2-0.3-0.4-0.5-0.3c-0.1,0-0.1,0-0.2,0.1l0,0
							c0,0.1,0.1,0.1,0.1,0.1c-0.1,0.1-0.1,0.2,0,0.3c0.1,0.1,0.2,0.1,0.3,0.1c0,0,0.1,0,0.2-0.1c0.1-0.1,0.1-0.1,0.1-0.1
							c0,0,0,0.1-0.1,0.2c0,0-0.1,0.1-0.1,0.1C44.4,39,44.3,39,44.3,39.1c-0.1,0-0.2,0-0.3-0.1C44,39,44,39,43.9,39
							C44,39.1,44.2,39.1,44.3,39.1z"/>
					</g>
				</g>
			</g>
			<g>
				<g>
					<g>
						<path class="st4" d="M44.3,39.7c-0.1,0.1-0.1,0.2,0,0.3c0.1,0.1,0.2,0.1,0.3,0.1c0,0,0.1,0,0.1-0.1c0.1-0.1,0.1-0.1,0.1-0.1
							c0,0,0,0.1-0.1,0.2c0,0-0.1,0.1-0.1,0.1c0,0-0.1,0-0.1,0c-0.1,0-0.2,0-0.3,0c-0.1,0-0.1,0-0.1-0.1c0.1,0.1,0.3,0.2,0.4,0.1
							c0.2-0.1,0.3-0.3,0.3-0.5c-0.1-0.2-0.3-0.3-0.5-0.3c-0.1,0-0.1,0.1-0.2,0.1l0,0C44.3,39.6,44.3,39.7,44.3,39.7z"/>
					</g>
				</g>
				<g>
					<g>
						<path class="st4" d="M44.7,40.5c-0.3,0.1-0.7-0.1-0.8-0.4c-0.1-0.3,0.1-0.7,0.4-0.8c0.3-0.1,0.7,0.1,0.7,0.4
							C45.2,40,45.1,40.4,44.7,40.5z M44.7,40.3c0.2-0.1,0.3-0.3,0.3-0.5c-0.1-0.2-0.3-0.3-0.5-0.3c-0.1,0-0.1,0.1-0.2,0.1l0,0
							c0,0.1,0.1,0.1,0.1,0.1c-0.1,0.1-0.1,0.2,0,0.3c0.1,0.1,0.2,0.1,0.3,0.1c0,0,0.1,0,0.1-0.1c0.1-0.1,0.1-0.1,0.1-0.1
							c0,0,0,0.1-0.1,0.2c0,0-0.1,0.1-0.1,0.1C44.7,40.2,44.7,40.2,44.7,40.3c-0.1,0-0.2,0-0.3,0c-0.1,0-0.1,0-0.1-0.1
							C44.4,40.3,44.5,40.3,44.7,40.3z"/>
					</g>
				</g>
			</g>
			<g>
				<g>
					<g>
						<path class="st4" d="M44.7,40.9c-0.1,0.1-0.1,0.2,0,0.3c0.1,0.1,0.2,0.1,0.3,0.1c0,0,0.1,0,0.1-0.1c0.1-0.1,0.1-0.2,0.1-0.2
							c0,0,0,0.1,0,0.2c0,0-0.1,0.1-0.1,0.1c0,0-0.1,0-0.1,0c-0.1,0-0.2,0.1-0.3,0c-0.1,0-0.1,0-0.1-0.1c0.1,0.1,0.3,0.1,0.4,0.1
							c0.2-0.1,0.3-0.3,0.3-0.5c-0.1-0.2-0.3-0.3-0.5-0.3c-0.1,0-0.1,0.1-0.2,0.1l0,0C44.7,40.8,44.7,40.9,44.7,40.9z"/>
					</g>
				</g>
				<g>
					<g>
						<path class="st4" d="M45.1,41.6c-0.3,0.1-0.7,0-0.8-0.4c-0.1-0.3,0.1-0.7,0.4-0.8c0.3-0.1,0.7,0.1,0.8,0.4
							C45.6,41.2,45.4,41.5,45.1,41.6z M45.1,41.4c0.2-0.1,0.3-0.3,0.3-0.5c-0.1-0.2-0.3-0.3-0.5-0.3c-0.1,0-0.1,0.1-0.2,0.1l0,0
							c0,0,0.1,0.1,0.1,0.1c-0.1,0.1-0.1,0.2,0,0.3c0.1,0.1,0.2,0.1,0.3,0.1c0,0,0.1,0,0.1-0.1c0.1-0.1,0.1-0.2,0.1-0.2
							c0,0,0,0.1,0,0.2c0,0-0.1,0.1-0.1,0.1C45.1,41.3,45.1,41.4,45.1,41.4c-0.1,0-0.2,0-0.3,0c-0.1,0-0.1,0-0.1-0.1
							C44.8,41.4,44.9,41.5,45.1,41.4z"/>
					</g>
				</g>
			</g>
			<g>
				<g>
					<g>
						<path class="st4" d="M45.1,42.1c-0.1,0.1-0.1,0.2,0,0.3c0.1,0.1,0.2,0.1,0.3,0.1c0,0,0.1,0,0.1-0.1c0.1-0.1,0.1-0.2,0.1-0.2
							c0,0,0,0.1,0,0.2c0,0-0.1,0.1-0.1,0.1c0,0-0.1,0-0.1,0c-0.1,0-0.2,0.1-0.2,0c-0.1,0-0.1,0-0.2,0c0.1,0.1,0.3,0.1,0.4,0.1
							c0.2-0.1,0.3-0.3,0.2-0.5c-0.1-0.2-0.3-0.3-0.5-0.2c-0.1,0-0.1,0.1-0.2,0.1l0,0C45.1,42,45.1,42,45.1,42.1z"/>
					</g>
				</g>
				<g>
					<g>
						<path class="st4" d="M45.6,42.8c-0.3,0.1-0.7,0-0.8-0.4c-0.1-0.3,0-0.7,0.4-0.8c0.3-0.1,0.7,0,0.8,0.4
							C46,42.3,45.9,42.6,45.6,42.8z M45.5,42.6c0.2-0.1,0.3-0.3,0.2-0.5c-0.1-0.2-0.3-0.3-0.5-0.2c-0.1,0-0.1,0.1-0.2,0.1l0,0
							c0,0,0.1,0.1,0.1,0.1c-0.1,0.1-0.1,0.2,0,0.3c0.1,0.1,0.2,0.1,0.3,0.1c0,0,0.1,0,0.1-0.1c0.1-0.1,0.1-0.2,0.1-0.2
							c0,0,0,0.1,0,0.2c0,0-0.1,0.1-0.1,0.1C45.5,42.5,45.5,42.5,45.5,42.6c-0.1,0-0.2,0-0.3,0c-0.1,0-0.1,0-0.2,0
							C45.2,42.6,45.4,42.6,45.5,42.6z"/>
					</g>
				</g>
			</g>
			<g>
				<g>
					<g>
						<path class="st4" d="M45.6,43.2c-0.1,0.1-0.1,0.2,0,0.3c0.1,0.1,0.2,0.1,0.3,0.1c0,0,0.1,0,0.1-0.1c0.1-0.1,0.1-0.2,0.1-0.2
							c0,0,0,0.1,0,0.2c0,0.1-0.1,0.1-0.1,0.1c0,0-0.1,0-0.1,0c-0.1,0-0.2,0.1-0.2,0.1c-0.1,0-0.1,0-0.2,0c0.1,0.1,0.3,0.1,0.4,0.1
							c0.2-0.1,0.3-0.3,0.2-0.5c-0.1-0.2-0.3-0.3-0.5-0.2c-0.1,0-0.1,0.1-0.2,0.1l0,0C45.5,43.1,45.6,43.2,45.6,43.2z"/>
					</g>
				</g>
				<g>
					<g>
						<path class="st4" d="M46,43.9c-0.3,0.1-0.7,0-0.8-0.3c-0.1-0.3,0-0.7,0.3-0.8c0.3-0.1,0.7,0,0.8,0.3
							C46.5,43.4,46.3,43.8,46,43.9z M46,43.7c0.2-0.1,0.3-0.3,0.2-0.5c-0.1-0.2-0.3-0.3-0.5-0.2c-0.1,0-0.1,0.1-0.2,0.1l0,0
							c0,0,0.1,0.1,0.1,0.1c-0.1,0.1-0.1,0.2,0,0.3c0.1,0.1,0.2,0.1,0.3,0.1c0,0,0.1,0,0.1-0.1c0.1-0.1,0.1-0.2,0.1-0.2
							c0,0,0,0.1,0,0.2c0,0.1-0.1,0.1-0.1,0.1C46,43.6,45.9,43.6,46,43.7c-0.1,0-0.2,0-0.3,0c-0.1,0-0.1,0-0.2,0
							C45.7,43.7,45.8,43.8,46,43.7z"/>
					</g>
				</g>
			</g>
			<g>
				<g>
					<g>
						<path class="st4" d="M46,44.3c-0.1,0.1-0.1,0.2,0,0.3c0.1,0.1,0.2,0.1,0.3,0.1c0,0,0.1,0,0.1-0.1c0.1-0.1,0.1-0.2,0.1-0.2
							c0,0,0,0.1,0,0.2c0,0.1-0.1,0.1-0.1,0.1c0,0-0.1,0-0.1,0c-0.1,0-0.2,0.1-0.2,0.1c-0.1,0-0.1,0-0.2,0c0.1,0.1,0.3,0.1,0.4,0.1
							c0.2-0.1,0.3-0.3,0.2-0.5c-0.1-0.2-0.3-0.3-0.5-0.2c-0.1,0-0.1,0.1-0.2,0.1l0,0C46,44.3,46,44.3,46,44.3z"/>
					</g>
				</g>
				<g>
					<g>
						<path class="st4" d="M46.5,45c-0.3,0.1-0.7,0-0.8-0.3c-0.1-0.3,0-0.7,0.3-0.8c0.3-0.1,0.7,0,0.8,0.3
							C47,44.5,46.8,44.9,46.5,45z M46.4,44.8c0.2-0.1,0.3-0.3,0.2-0.5c-0.1-0.2-0.3-0.3-0.5-0.2c-0.1,0-0.1,0.1-0.2,0.1l0,0
							c0,0,0.1,0.1,0.1,0.1c-0.1,0.1-0.1,0.2,0,0.3c0.1,0.1,0.2,0.1,0.3,0.1c0,0,0.1,0,0.1-0.1c0.1-0.1,0.1-0.2,0.1-0.2
							c0,0,0,0.1,0,0.2c0,0.1-0.1,0.1-0.1,0.1C46.4,44.8,46.4,44.8,46.4,44.8c-0.1,0-0.2,0-0.3,0c-0.1,0-0.1,0-0.2,0
							C46.1,44.9,46.3,44.9,46.4,44.8z"/>
					</g>
				</g>
			</g>
			<g>
				<g>
					<g>
						<path class="st4" d="M46.5,45.5c-0.1,0.1-0.1,0.2,0,0.3c0.1,0.1,0.2,0.1,0.3,0.1c0,0,0.1,0,0.1-0.1c0.1-0.1,0.1-0.2,0.1-0.2
							c0,0,0,0.1,0,0.2c0,0-0.1,0.1-0.1,0.1c0,0-0.1,0-0.1,0c-0.1,0-0.2,0.1-0.2,0c-0.1,0-0.1,0-0.2,0c0.1,0.1,0.3,0.1,0.4,0.1
							c0.2-0.1,0.3-0.3,0.2-0.5c-0.1-0.2-0.3-0.3-0.5-0.2c-0.1,0-0.1,0.1-0.2,0.1l0,0C46.5,45.4,46.5,45.4,46.5,45.5z"/>
					</g>
				</g>
				<g>
					<g>
						<path class="st4" d="M46.9,46.2c-0.3,0.1-0.7,0-0.8-0.3c-0.1-0.3,0-0.7,0.3-0.8c0.3-0.1,0.7,0,0.8,0.3
							C47.4,45.7,47.3,46.1,46.9,46.2z M46.9,46c0.2-0.1,0.3-0.3,0.2-0.5c-0.1-0.2-0.3-0.3-0.5-0.2c-0.1,0-0.1,0.1-0.2,0.1l0,0
							c0,0,0.1,0.1,0.1,0.1c-0.1,0.1-0.1,0.2,0,0.3c0.1,0.1,0.2,0.1,0.3,0.1c0,0,0.1,0,0.1-0.1c0.1-0.1,0.1-0.2,0.1-0.2
							c0,0,0,0.1,0,0.2c0,0-0.1,0.1-0.1,0.1C46.9,45.9,46.9,45.9,46.9,46c-0.1,0-0.2,0-0.3,0c-0.1,0-0.1,0-0.2,0
							C46.6,46,46.7,46,46.9,46z"/>
					</g>
				</g>
			</g>
			<g>
				<g>
					<g>
						<path class="st4" d="M46.9,46.6c-0.1,0.1-0.1,0.2,0,0.3c0.1,0.1,0.2,0.1,0.3,0.1c0,0,0.1,0,0.1-0.1c0.1-0.1,0.1-0.2,0.1-0.2
							c0,0,0,0.1,0,0.2c0,0-0.1,0.1-0.1,0.1c0,0-0.1,0-0.1,0c-0.1,0-0.2,0.1-0.3,0c-0.1,0-0.1,0-0.1-0.1c0.1,0.1,0.3,0.1,0.4,0.1
							c0.2-0.1,0.3-0.3,0.3-0.5c-0.1-0.2-0.3-0.3-0.5-0.3c-0.1,0-0.1,0.1-0.2,0.1l0,0C46.9,46.5,46.9,46.6,46.9,46.6z"/>
					</g>
				</g>
				<g>
					<g>
						<path class="st4" d="M47.4,47.3c-0.3,0.1-0.7-0.1-0.8-0.4c-0.1-0.3,0-0.7,0.4-0.8c0.3-0.1,0.7,0,0.8,0.4
							C47.8,46.9,47.7,47.2,47.4,47.3z M47.3,47.1c0.2-0.1,0.3-0.3,0.3-0.5c-0.1-0.2-0.3-0.3-0.5-0.3c-0.1,0-0.1,0.1-0.2,0.1l0,0
							c0,0,0.1,0.1,0.1,0.1c-0.1,0.1-0.1,0.2,0,0.3c0.1,0.1,0.2,0.1,0.3,0.1c0,0,0.1,0,0.1-0.1c0.1-0.1,0.1-0.2,0.1-0.2
							c0,0,0,0.1,0,0.2c0,0-0.1,0.1-0.1,0.1C47.3,47.1,47.3,47.1,47.3,47.1c-0.1,0-0.2,0-0.3,0c-0.1,0-0.1,0-0.1-0.1
							C47,47.2,47.1,47.2,47.3,47.1z"/>
					</g>
				</g>
			</g>
			<g>
				<g>
					<g>
						<path class="st4" d="M47.3,47.8c-0.1,0.1-0.1,0.2,0,0.3c0.1,0.1,0.2,0.1,0.3,0.1c0,0,0.1,0,0.1-0.1c0.1-0.1,0.1-0.1,0.1-0.1
							c0,0,0,0.1-0.1,0.2c0,0-0.1,0.1-0.1,0.1c0,0-0.1,0-0.1,0c-0.1,0-0.2,0-0.3,0c-0.1,0-0.1,0-0.1-0.1c0.1,0.1,0.3,0.1,0.4,0.1
							c0.2-0.1,0.3-0.3,0.3-0.5c-0.1-0.2-0.3-0.3-0.5-0.3c-0.1,0-0.1,0.1-0.2,0.1l0,0C47.3,47.7,47.3,47.7,47.3,47.8z"/>
					</g>
				</g>
				<g>
					<g>
						<path class="st4" d="M47.7,48.5c-0.3,0.1-0.7-0.1-0.8-0.4c-0.1-0.3,0.1-0.7,0.4-0.8c0.3-0.1,0.7,0.1,0.8,0.4
							C48.2,48.1,48,48.4,47.7,48.5z M47.7,48.3c0.2-0.1,0.3-0.3,0.3-0.5c-0.1-0.2-0.3-0.3-0.5-0.3c-0.1,0-0.1,0.1-0.2,0.1l0,0
							c0,0,0.1,0.1,0.1,0.1c-0.1,0.1-0.1,0.2,0,0.3c0.1,0.1,0.2,0.1,0.3,0.1c0,0,0.1,0,0.1-0.1c0.1-0.1,0.1-0.1,0.1-0.1
							c0,0,0,0.1-0.1,0.2c0,0-0.1,0.1-0.1,0.1C47.7,48.2,47.7,48.2,47.7,48.3c-0.1,0-0.2,0-0.3,0c-0.1,0-0.1,0-0.1-0.1
							C47.4,48.3,47.5,48.4,47.7,48.3z"/>
					</g>
				</g>
			</g>
			<g>
				<g>
					<g>
						<path class="st4" d="M47.7,48.9c-0.1,0.1-0.1,0.2,0,0.3c0.1,0.1,0.2,0.1,0.3,0.1c0,0,0.1,0,0.2-0.1c0.1-0.1,0.1-0.1,0.1-0.1
							c0,0,0,0.1-0.1,0.2c0,0-0.1,0.1-0.1,0.1c0,0-0.1,0-0.1,0c-0.1,0-0.2,0-0.3,0c-0.1,0-0.1,0-0.1-0.1c0.1,0.1,0.2,0.2,0.4,0.1
							c0.2,0,0.4-0.3,0.3-0.5c-0.1-0.2-0.3-0.4-0.5-0.3c-0.1,0-0.1,0.1-0.2,0.1l0,0C47.6,48.9,47.7,48.9,47.7,48.9z"/>
					</g>
				</g>
				<g>
					<g>
						<path class="st4" d="M48,49.7c-0.3,0.1-0.7-0.1-0.7-0.5c-0.1-0.3,0.1-0.6,0.4-0.7c0.3-0.1,0.7,0.1,0.7,0.4
							C48.5,49.3,48.3,49.6,48,49.7z M48,49.5c0.2,0,0.4-0.3,0.3-0.5c-0.1-0.2-0.3-0.4-0.5-0.3c-0.1,0-0.1,0.1-0.2,0.1l0,0
							c0,0.1,0.1,0.1,0.1,0.1c-0.1,0.1-0.1,0.2,0,0.3c0.1,0.1,0.2,0.1,0.3,0.1c0,0,0.1,0,0.2-0.1c0.1-0.1,0.1-0.1,0.1-0.1
							c0,0,0,0.1-0.1,0.2c0,0-0.1,0.1-0.1,0.1C48,49.4,48,49.4,48,49.5c-0.1,0-0.2,0-0.3-0.1c-0.1,0-0.1,0-0.1-0.1
							C47.7,49.5,47.8,49.5,48,49.5z"/>
					</g>
				</g>
			</g>
			<g>
				<g>
					<g>
						<path class="st4" d="M47.9,50.1c-0.1,0.1-0.1,0.2,0,0.3c0.1,0.1,0.2,0.2,0.3,0.1c0,0,0.1,0,0.2-0.1c0.1-0.1,0.1-0.1,0.1-0.1
							c0,0,0,0.1-0.1,0.2c0,0-0.1,0.1-0.1,0.1c0,0-0.1,0-0.1,0c-0.1,0-0.2,0-0.3,0c-0.1,0-0.1,0-0.1-0.1c0.1,0.1,0.2,0.2,0.4,0.2
							c0.2,0,0.4-0.3,0.3-0.5c0-0.2-0.3-0.4-0.5-0.3c-0.1,0-0.1,0-0.2,0.1l0,0C47.9,50,47.9,50.1,47.9,50.1z"/>
					</g>
				</g>
				<g>
					<g>
						<path class="st4" d="M48.2,50.9c-0.3,0.1-0.6-0.2-0.7-0.5c-0.1-0.3,0.1-0.6,0.5-0.7c0.3-0.1,0.7,0.1,0.7,0.5
							C48.8,50.5,48.6,50.8,48.2,50.9z M48.2,50.7c0.2,0,0.4-0.3,0.3-0.5c0-0.2-0.3-0.4-0.5-0.3c-0.1,0-0.1,0-0.2,0.1l0,0
							c0,0.1,0.1,0.1,0.1,0.1c-0.1,0.1-0.1,0.2,0,0.3c0.1,0.1,0.2,0.2,0.3,0.1c0,0,0.1,0,0.2-0.1c0.1-0.1,0.1-0.1,0.1-0.1
							c0,0,0,0.1-0.1,0.2c0,0-0.1,0.1-0.1,0.1C48.2,50.6,48.2,50.6,48.2,50.7c-0.1,0-0.2,0-0.3-0.1c-0.1,0-0.1,0-0.1-0.1
							C47.9,50.7,48,50.7,48.2,50.7z"/>
					</g>
				</g>
			</g>
			<g>
				<g>
					<g>
						<path class="st4" d="M48.1,51.3c-0.1,0.1-0.1,0.2,0,0.3c0.1,0.1,0.2,0.2,0.3,0.1c0,0,0.1,0,0.2-0.1c0.1,0,0.1-0.1,0.1-0.1
							c0,0,0,0.1-0.1,0.2c0,0-0.1,0.1-0.1,0.1c0,0-0.1,0-0.1,0c-0.1,0-0.2,0-0.3,0c0,0-0.1,0-0.1-0.1c0.1,0.1,0.2,0.2,0.4,0.2
							c0.2,0,0.4-0.2,0.4-0.5c0-0.2-0.2-0.4-0.5-0.4c-0.1,0-0.1,0-0.2,0.1l0,0C48.1,51.2,48.1,51.3,48.1,51.3z"/>
					</g>
				</g>
				<g>
					<g>
						<path class="st4" d="M48.4,52.1c-0.3,0-0.6-0.2-0.7-0.5c0-0.3,0.2-0.6,0.5-0.7c0.3-0.1,0.6,0.2,0.7,0.5
							C49,51.8,48.7,52.1,48.4,52.1z M48.4,51.9c0.2,0,0.4-0.2,0.4-0.5c0-0.2-0.2-0.4-0.5-0.4c-0.1,0-0.1,0-0.2,0.1l0,0
							c0,0.1,0.1,0.1,0,0.1c-0.1,0.1-0.1,0.2,0,0.3c0.1,0.1,0.2,0.2,0.3,0.1c0,0,0.1,0,0.2-0.1c0.1,0,0.1-0.1,0.1-0.1
							c0,0,0,0.1-0.1,0.2C48.5,51.8,48.5,51.8,48.4,51.9C48.4,51.8,48.4,51.8,48.4,51.9c-0.1-0.1-0.2-0.1-0.3-0.1c0,0-0.1,0-0.1-0.1
							C48.1,51.9,48.2,51.9,48.4,51.9z"/>
					</g>
				</g>
			</g>
			<g>
				<g>
					<g>
						<path class="st4" d="M48.3,52.5c-0.1,0.1-0.1,0.2-0.1,0.3c0,0.1,0.1,0.2,0.3,0.2c0,0,0.1,0,0.2-0.1c0.1,0,0.1-0.1,0.1-0.1
							c0,0,0,0.1-0.1,0.2c0,0-0.1,0.1-0.1,0.1c0,0-0.1,0-0.1,0c-0.1,0-0.2,0-0.3,0c0,0-0.1-0.1-0.1-0.1c0.1,0.1,0.2,0.2,0.4,0.2
							c0.2,0,0.4-0.2,0.4-0.4c0-0.2-0.2-0.4-0.4-0.4c-0.1,0-0.1,0-0.2,0.1l0,0C48.3,52.4,48.3,52.5,48.3,52.5z"/>
					</g>
				</g>
				<g>
					<g>
						<path class="st4" d="M48.5,53.3c-0.3,0-0.6-0.2-0.6-0.6c0-0.3,0.2-0.6,0.6-0.7c0.3,0,0.6,0.2,0.7,0.6
							C49.1,53,48.8,53.3,48.5,53.3z M48.5,53.1c0.2,0,0.4-0.2,0.4-0.4c0-0.2-0.2-0.4-0.4-0.4c-0.1,0-0.1,0-0.2,0.1l0,0
							c0,0.1,0.1,0.1,0,0.1c-0.1,0.1-0.1,0.2-0.1,0.3c0,0.1,0.1,0.2,0.3,0.2c0,0,0.1,0,0.2-0.1c0.1,0,0.1-0.1,0.1-0.1
							c0,0,0,0.1-0.1,0.2C48.7,53,48.6,53,48.5,53.1C48.5,53.1,48.5,53.1,48.5,53.1c-0.1-0.1-0.2-0.1-0.2-0.1c0,0-0.1-0.1-0.1-0.1
							C48.2,53.1,48.3,53.1,48.5,53.1z"/>
					</g>
				</g>
			</g>
			<g>
				<g>
					<g>
						<path class="st4" d="M49.3,53.1c0.1,0,0.1-0.1,0.1-0.3c0-0.1-0.1-0.2-0.3-0.2c0,0-0.1,0-0.2,0c-0.1,0-0.1,0.1-0.2,0.1
							c0,0,0-0.1,0.1-0.2c0,0,0.1-0.1,0.1-0.1c0,0,0.1,0,0.1,0c0.1,0,0.2,0,0.3,0c0,0,0.1,0.1,0.1,0.1c-0.1-0.1-0.2-0.2-0.4-0.2
							c-0.2,0-0.4,0.2-0.4,0.4c0,0.2,0.2,0.4,0.4,0.4c0.1,0,0.1,0,0.2-0.1l0,0C49.3,53.2,49.2,53.1,49.3,53.1z"/>
					</g>
				</g>
				<g>
					<g>
						<path class="st4" d="M49.1,52.3c0.3,0,0.6,0.3,0.6,0.6c0,0.3-0.3,0.6-0.6,0.6c-0.3,0-0.6-0.3-0.6-0.6
							C48.5,52.6,48.7,52.3,49.1,52.3z M49.1,52.5c-0.2,0-0.4,0.2-0.4,0.4c0,0.2,0.2,0.4,0.4,0.4c0.1,0,0.1,0,0.2-0.1l0,0
							c0-0.1,0-0.1,0-0.1c0.1,0,0.1-0.1,0.1-0.3c0-0.1-0.1-0.2-0.3-0.2c0,0-0.1,0-0.2,0c-0.1,0-0.1,0.1-0.2,0.1c0,0,0-0.1,0.1-0.2
							C48.9,52.6,49,52.6,49.1,52.5C49.1,52.6,49.1,52.6,49.1,52.5c0.1,0.1,0.2,0.1,0.2,0.1c0,0,0.1,0.1,0.1,0.1
							C49.4,52.6,49.2,52.5,49.1,52.5z"/>
					</g>
				</g>
			</g>
			<g>
				<g>
					<g>
						<path class="st4" d="M49.2,51.9c0.1-0.1,0.1-0.2,0.1-0.3c0-0.1-0.1-0.2-0.3-0.2c0,0-0.1,0-0.2,0.1c-0.1,0-0.1,0.1-0.1,0.1
							c0,0,0-0.1,0.1-0.2c0,0,0.1-0.1,0.1-0.1c0,0,0.1,0,0.1,0c0.1,0,0.2,0,0.3,0c0,0,0.1,0.1,0.1,0.1c-0.1-0.1-0.2-0.2-0.4-0.2
							c-0.2,0-0.4,0.2-0.4,0.4c0,0.2,0.2,0.4,0.4,0.4c0.1,0,0.1,0,0.2-0.1l0,0C49.2,52,49.2,51.9,49.2,51.9z"/>
					</g>
				</g>
				<g>
					<g>
						<path class="st4" d="M49,51.1c0.3,0,0.6,0.2,0.7,0.6c0,0.3-0.2,0.6-0.6,0.7c-0.3,0-0.6-0.2-0.6-0.6
							C48.4,51.4,48.7,51.1,49,51.1z M49,51.3c-0.2,0-0.4,0.2-0.4,0.4c0,0.2,0.2,0.4,0.4,0.4c0.1,0,0.1,0,0.2-0.1l0,0
							c0-0.1-0.1-0.1,0-0.1c0.1-0.1,0.1-0.2,0.1-0.3c0-0.1-0.1-0.2-0.3-0.2c0,0-0.1,0-0.2,0.1c-0.1,0-0.1,0.1-0.1,0.1
							c0,0,0-0.1,0.1-0.2C48.8,51.4,48.9,51.4,49,51.3C49,51.4,49,51.4,49,51.3c0.1,0.1,0.2,0.1,0.2,0.1c0,0,0.1,0.1,0.1,0.1
							C49.3,51.3,49.2,51.3,49,51.3z"/>
					</g>
				</g>
			</g>
			<g>
				<g>
					<g>
						<path class="st4" d="M49.1,50.7c0.1-0.1,0.1-0.2,0-0.3c-0.1-0.1-0.2-0.2-0.3-0.1c0,0-0.1,0-0.2,0.1c-0.1,0-0.1,0.1-0.1,0.1
							c0,0,0-0.1,0.1-0.2c0,0,0.1-0.1,0.1-0.1c0,0,0.1,0,0.1,0c0.1,0,0.2,0,0.3,0c0,0,0.1,0,0.1,0.1c-0.1-0.1-0.2-0.2-0.4-0.2
							c-0.2,0-0.4,0.2-0.4,0.5c0,0.2,0.2,0.4,0.5,0.4c0.1,0,0.1,0,0.2-0.1l0,0C49.1,50.7,49.1,50.7,49.1,50.7z"/>
					</g>
				</g>
				<g>
					<g>
						<path class="st4" d="M48.8,49.9c0.3-0.1,0.6,0.2,0.7,0.5c0,0.3-0.2,0.7-0.5,0.7c-0.3,0-0.6-0.2-0.7-0.5
							C48.3,50.2,48.5,49.9,48.8,49.9z M48.9,50.1c-0.2,0-0.4,0.2-0.4,0.5c0,0.2,0.2,0.4,0.5,0.4c0.1,0,0.1,0,0.2-0.1l0,0
							c0-0.1-0.1-0.1,0-0.1c0.1-0.1,0.1-0.2,0-0.3c-0.1-0.1-0.2-0.2-0.3-0.1c0,0-0.1,0-0.2,0.1c-0.1,0-0.1,0.1-0.1,0.1
							c0,0,0-0.1,0.1-0.2C48.7,50.2,48.8,50.2,48.9,50.1C48.8,50.1,48.9,50.1,48.9,50.1c0.1,0,0.2,0,0.3,0.1c0,0,0.1,0,0.1,0.1
							C49.2,50.1,49,50,48.9,50.1z"/>
					</g>
				</g>
			</g>
			<g>
				<g>
					<g>
						<path class="st4" d="M48.9,49.4c0.1-0.1,0.1-0.2,0-0.3c-0.1-0.1-0.2-0.2-0.3-0.1c0,0-0.1,0-0.2,0.1c-0.1,0.1-0.1,0.1-0.1,0.1
							c0,0,0-0.1,0.1-0.2c0,0,0.1-0.1,0.1-0.1c0,0,0.1,0,0.1,0c0.1,0,0.2,0,0.3,0c0.1,0,0.1,0,0.1,0.1c-0.1-0.1-0.2-0.2-0.4-0.1
							c-0.2,0-0.4,0.3-0.3,0.5c0,0.2,0.3,0.4,0.5,0.3c0.1,0,0.1,0,0.2-0.1l0,0C49,49.5,48.9,49.5,48.9,49.4z"/>
					</g>
				</g>
				<g>
					<g>
						<path class="st4" d="M48.6,48.7c0.3-0.1,0.7,0.2,0.7,0.5c0.1,0.3-0.2,0.7-0.5,0.7c-0.3,0-0.6-0.2-0.7-0.5
							C48.1,49,48.3,48.7,48.6,48.7z M48.7,48.9c-0.2,0-0.4,0.3-0.3,0.5c0,0.2,0.3,0.4,0.5,0.3c0.1,0,0.1,0,0.2-0.1l0,0
							c0-0.1-0.1-0.1,0-0.1c0.1-0.1,0.1-0.2,0-0.3c-0.1-0.1-0.2-0.2-0.3-0.1c0,0-0.1,0-0.2,0.1c-0.1,0.1-0.1,0.1-0.1,0.1
							c0,0,0-0.1,0.1-0.2c0,0,0.1-0.1,0.1-0.1C48.6,48.9,48.7,48.9,48.7,48.9c0.1,0,0.2,0,0.3,0.1c0.1,0,0.1,0,0.1,0.1
							C49,48.9,48.8,48.8,48.7,48.9z"/>
					</g>
				</g>
			</g>
			<g>
				<g>
					<g>
						<path class="st4" d="M48.7,48.2c0.1-0.1,0.1-0.2,0-0.3c-0.1-0.1-0.2-0.1-0.3-0.1c0,0-0.1,0-0.2,0.1c-0.1,0.1-0.1,0.1-0.1,0.1
							c0,0,0-0.1,0.1-0.2c0,0,0.1-0.1,0.1-0.1c0,0,0.1,0,0.1,0c0.1,0,0.2,0,0.3,0c0.1,0,0.1,0,0.1,0.1c-0.1-0.1-0.2-0.2-0.4-0.1
							c-0.2,0.1-0.4,0.3-0.3,0.5c0,0.2,0.3,0.4,0.5,0.3c0.1,0,0.1,0,0.2-0.1l0,0C48.7,48.3,48.7,48.3,48.7,48.2z"/>
					</g>
				</g>
				<g>
					<g>
						<path class="st4" d="M48.4,47.5c0.3-0.1,0.7,0.1,0.7,0.5c0.1,0.3-0.1,0.7-0.5,0.7c-0.3,0.1-0.7-0.1-0.7-0.5
							C47.8,47.9,48,47.5,48.4,47.5z M48.4,47.7c-0.2,0.1-0.4,0.3-0.3,0.5c0,0.2,0.3,0.4,0.5,0.3c0.1,0,0.1,0,0.2-0.1l0,0
							c0-0.1-0.1-0.1-0.1-0.1c0.1-0.1,0.1-0.2,0-0.3c-0.1-0.1-0.2-0.1-0.3-0.1c0,0-0.1,0-0.2,0.1c-0.1,0.1-0.1,0.1-0.1,0.1
							c0,0,0-0.1,0.1-0.2c0,0,0.1-0.1,0.1-0.1C48.4,47.7,48.4,47.7,48.4,47.7c0.1,0,0.2,0,0.3,0.1c0.1,0,0.1,0,0.1,0.1
							C48.7,47.7,48.6,47.6,48.4,47.7z"/>
					</g>
				</g>
			</g>
			<g>
				<g>
					<g>
						<path class="st4" d="M48.4,47c0.1-0.1,0.1-0.2,0-0.3c-0.1-0.1-0.2-0.1-0.3-0.1c0,0-0.1,0-0.1,0.1c-0.1,0.1-0.1,0.1-0.1,0.1
							c0,0,0-0.1,0.1-0.2c0,0,0.1-0.1,0.1-0.1c0,0,0.1,0,0.1,0c0.1,0,0.2,0,0.3,0c0.1,0,0.1,0,0.1,0.1c-0.1-0.1-0.3-0.2-0.4-0.1
							c-0.2,0.1-0.4,0.3-0.3,0.5c0.1,0.2,0.3,0.4,0.5,0.3c0.1,0,0.1-0.1,0.2-0.1l0,0C48.4,47.1,48.4,47.1,48.4,47z"/>
					</g>
				</g>
				<g>
					<g>
						<path class="st4" d="M48.1,46.3c0.3-0.1,0.7,0.1,0.7,0.4c0.1,0.3-0.1,0.7-0.4,0.7c-0.3,0.1-0.7-0.1-0.7-0.4
							C47.5,46.7,47.7,46.4,48.1,46.3z M48.1,46.5c-0.2,0.1-0.4,0.3-0.3,0.5c0.1,0.2,0.3,0.4,0.5,0.3c0.1,0,0.1-0.1,0.2-0.1l0,0
							c0-0.1-0.1-0.1-0.1-0.1c0.1-0.1,0.1-0.2,0-0.3c-0.1-0.1-0.2-0.1-0.3-0.1c0,0-0.1,0-0.1,0.1c-0.1,0.1-0.1,0.1-0.1,0.1
							c0,0,0-0.1,0.1-0.2c0,0,0.1-0.1,0.1-0.1C48.1,46.5,48.1,46.5,48.1,46.5c0.1,0,0.2,0,0.3,0.1c0.1,0,0.1,0,0.1,0.1
							C48.4,46.5,48.3,46.4,48.1,46.5z"/>
					</g>
				</g>
			</g>
			<g>
				<g>
					<g>
						<path class="st4" d="M48.1,45.8c0.1-0.1,0.1-0.2,0-0.3c-0.1-0.1-0.2-0.1-0.3-0.1c0,0-0.1,0-0.1,0.1c-0.1,0.1-0.1,0.1-0.1,0.1
							c0,0,0-0.1,0.1-0.2c0,0,0.1-0.1,0.1-0.1c0,0,0.1,0,0.1,0c0.1,0,0.2,0,0.3,0c0.1,0,0.1,0,0.1,0.1c-0.1-0.1-0.3-0.2-0.4-0.1
							c-0.2,0.1-0.4,0.3-0.3,0.5c0.1,0.2,0.3,0.4,0.5,0.3c0.1,0,0.1-0.1,0.2-0.1l0,0C48.1,45.9,48.1,45.9,48.1,45.8z"/>
					</g>
				</g>
				<g>
					<g>
						<path class="st4" d="M47.8,45.1c0.3-0.1,0.7,0.1,0.7,0.4c0.1,0.3-0.1,0.7-0.4,0.8c-0.3,0.1-0.7-0.1-0.7-0.4
							C47.2,45.5,47.4,45.2,47.8,45.1z M47.8,45.3c-0.2,0.1-0.4,0.3-0.3,0.5c0.1,0.2,0.3,0.4,0.5,0.3c0.1,0,0.1-0.1,0.2-0.1l0,0
							c0-0.1-0.1-0.1-0.1-0.1c0.1-0.1,0.1-0.2,0-0.3c-0.1-0.1-0.2-0.1-0.3-0.1c0,0-0.1,0-0.1,0.1c-0.1,0.1-0.1,0.1-0.1,0.1
							c0,0,0-0.1,0.1-0.2c0,0,0.1-0.1,0.1-0.1C47.8,45.4,47.8,45.4,47.8,45.3c0.1,0,0.2,0,0.3,0.1c0.1,0,0.1,0,0.1,0.1
							C48.1,45.3,48,45.2,47.8,45.3z"/>
					</g>
				</g>
			</g>
			<g>
				<g>
					<g>
						<path class="st4" d="M47.8,44.7c0.1-0.1,0.1-0.2,0-0.3c-0.1-0.1-0.2-0.1-0.3-0.1c0,0-0.1,0-0.1,0.1c-0.1,0.1-0.1,0.1-0.1,0.1
							c0,0,0-0.1,0.1-0.2c0,0,0.1-0.1,0.1-0.1c0,0,0.1,0,0.1,0c0.1,0,0.2,0,0.3,0c0.1,0,0.1,0,0.1,0.1c-0.1-0.1-0.3-0.2-0.4-0.1
							c-0.2,0.1-0.3,0.3-0.3,0.5c0.1,0.2,0.3,0.4,0.5,0.3c0.1,0,0.1-0.1,0.2-0.1l0,0C47.8,44.7,47.8,44.7,47.8,44.7z"/>
					</g>
				</g>
				<g>
					<g>
						<path class="st4" d="M47.4,43.9c0.3-0.1,0.7,0.1,0.8,0.4c0.1,0.3-0.1,0.7-0.4,0.8S47.1,45,47,44.7
							C46.9,44.3,47.1,44,47.4,43.9z M47.5,44.1c-0.2,0.1-0.3,0.3-0.3,0.5c0.1,0.2,0.3,0.4,0.5,0.3c0.1,0,0.1-0.1,0.2-0.1l0,0
							c0-0.1-0.1-0.1-0.1-0.1c0.1-0.1,0.1-0.2,0-0.3c-0.1-0.1-0.2-0.1-0.3-0.1c0,0-0.1,0-0.1,0.1c-0.1,0.1-0.1,0.1-0.1,0.1
							c0,0,0-0.1,0.1-0.2c0,0,0.1-0.1,0.1-0.1C47.5,44.2,47.5,44.2,47.5,44.1c0.1,0,0.2,0,0.3,0c0.1,0,0.1,0,0.1,0.1
							C47.8,44.1,47.6,44.1,47.5,44.1z"/>
					</g>
				</g>
			</g>
			<g>
				<g>
					<g>
						<path class="st4" d="M47.5,43.5c0.1-0.1,0.1-0.2,0-0.3c-0.1-0.1-0.2-0.1-0.3-0.1c0,0-0.1,0-0.1,0.1c-0.1,0.1-0.1,0.1-0.1,0.1
							c0,0,0-0.1,0.1-0.2c0,0,0.1-0.1,0.1-0.1c0,0,0.1,0,0.1,0c0.1,0,0.2,0,0.3,0c0.1,0,0.1,0,0.1,0.1c-0.1-0.1-0.3-0.2-0.4-0.1
							c-0.2,0.1-0.3,0.3-0.3,0.5c0.1,0.2,0.3,0.4,0.5,0.3c0.1,0,0.1-0.1,0.2-0.1c0,0,0,0,0,0C47.5,43.6,47.5,43.5,47.5,43.5z"/>
					</g>
				</g>
				<g>
					<g>
						<path class="st4" d="M47.1,42.7c0.3-0.1,0.7,0.1,0.8,0.4c0.1,0.3-0.1,0.7-0.4,0.8c-0.3,0.1-0.7-0.1-0.8-0.4
							C46.6,43.1,46.8,42.8,47.1,42.7z M47.2,42.9c-0.2,0.1-0.3,0.3-0.3,0.5c0.1,0.2,0.3,0.4,0.5,0.3c0.1,0,0.1-0.1,0.2-0.1
							c0,0,0,0,0,0c0-0.1-0.1-0.1-0.1-0.1c0.1-0.1,0.1-0.2,0-0.3c-0.1-0.1-0.2-0.1-0.3-0.1c0,0-0.1,0-0.1,0.1
							c-0.1,0.1-0.1,0.1-0.1,0.1c0,0,0-0.1,0.1-0.2c0,0,0.1-0.1,0.1-0.1C47.1,43,47.2,43,47.2,42.9c0.1,0,0.2,0,0.3,0
							c0.1,0,0.1,0,0.1,0.1C47.5,42.9,47.3,42.9,47.2,42.9z"/>
					</g>
				</g>
			</g>
			<g>
				<g>
					<g>
						<path class="st4" d="M47.2,42.3c0.1-0.1,0.1-0.2,0-0.3c-0.1-0.1-0.2-0.1-0.3-0.1c0,0-0.1,0-0.1,0.1c-0.1,0.1-0.1,0.1-0.1,0.1
							c0,0,0-0.1,0.1-0.2c0,0,0.1-0.1,0.1-0.1c0,0,0.1,0,0.1,0c0.1,0,0.2,0,0.3,0c0.1,0,0.1,0,0.1,0.1c-0.1-0.1-0.3-0.2-0.4-0.1
							c-0.2,0.1-0.3,0.3-0.3,0.5c0.1,0.2,0.3,0.4,0.5,0.3c0.1,0,0.1-0.1,0.2-0.1c0,0,0,0,0,0C47.2,42.4,47.1,42.3,47.2,42.3z"/>
					</g>
				</g>
				<g>
					<g>
						<path class="st4" d="M46.8,41.5c0.3-0.1,0.7,0.1,0.8,0.4c0.1,0.3-0.1,0.7-0.4,0.8c-0.3,0.1-0.7-0.1-0.8-0.4
							C46.3,42,46.5,41.6,46.8,41.5z M46.8,41.7c-0.2,0.1-0.3,0.3-0.3,0.5c0.1,0.2,0.3,0.4,0.5,0.3c0.1,0,0.1-0.1,0.2-0.1
							c0,0,0,0,0,0c0-0.1-0.1-0.1-0.1-0.1c0.1-0.1,0.1-0.2,0-0.3c-0.1-0.1-0.2-0.1-0.3-0.1c0,0-0.1,0-0.1,0.1
							c-0.1,0.1-0.1,0.1-0.1,0.1c0,0,0-0.1,0.1-0.2c0,0,0.1-0.1,0.1-0.1C46.8,41.8,46.8,41.8,46.8,41.7c0.1,0,0.2,0,0.3,0
							c0.1,0,0.1,0,0.1,0.1C47.1,41.7,47,41.7,46.8,41.7z"/>
					</g>
				</g>
			</g>
			<g>
				<g>
					<g>
						<path class="st4" d="M46.8,41.1c0.1-0.1,0.1-0.2,0-0.3c-0.1-0.1-0.2-0.1-0.3-0.1c0,0-0.1,0-0.1,0.1c-0.1,0.1-0.1,0.1-0.1,0.1
							c0,0,0-0.1,0.1-0.2c0,0,0.1-0.1,0.1-0.1c0,0,0.1,0,0.1,0c0.1,0,0.2,0,0.3,0c0.1,0,0.1,0,0.1,0.1c-0.1-0.1-0.3-0.2-0.4-0.1
							c-0.2,0.1-0.3,0.3-0.3,0.5c0.1,0.2,0.3,0.4,0.5,0.3c0.1,0,0.1-0.1,0.2-0.1c0,0,0,0,0,0C46.9,41.2,46.8,41.1,46.8,41.1z"/>
					</g>
				</g>
				<g>
					<g>
						<path class="st4" d="M46.5,40.4c0.3-0.1,0.7,0.1,0.8,0.4c0.1,0.3-0.1,0.7-0.4,0.8c-0.3,0.1-0.7-0.1-0.8-0.4
							C45.9,40.8,46.1,40.4,46.5,40.4z M46.5,40.6c-0.2,0.1-0.3,0.3-0.3,0.5c0.1,0.2,0.3,0.4,0.5,0.3c0.1,0,0.1-0.1,0.2-0.1
							c0,0,0,0,0,0c0-0.1-0.1-0.1-0.1-0.1c0.1-0.1,0.1-0.2,0-0.3c-0.1-0.1-0.2-0.1-0.3-0.1c0,0-0.1,0-0.1,0.1
							c-0.1,0.1-0.1,0.1-0.1,0.1c0,0,0-0.1,0.1-0.2c0,0,0.1-0.1,0.1-0.1C46.5,40.6,46.5,40.6,46.5,40.6c0.1,0,0.2,0,0.3,0
							c0.1,0,0.1,0,0.1,0.1C46.8,40.6,46.7,40.5,46.5,40.6z"/>
					</g>
				</g>
			</g>
			<g>
				<g>
					<g>
						<path class="st4" d="M46.5,39.9c0.1-0.1,0.1-0.2,0-0.3c-0.1-0.1-0.2-0.1-0.3-0.1c0,0-0.1,0-0.1,0.1C46,39.7,46,39.8,46,39.8
							c0,0,0-0.1,0.1-0.2c0,0,0.1-0.1,0.1-0.1c0,0,0.1,0,0.1,0c0.1,0,0.2,0,0.3,0c0.1,0,0.1,0,0.1,0.1c-0.1-0.1-0.3-0.2-0.4-0.1
							c-0.2,0.1-0.3,0.3-0.3,0.5s0.3,0.4,0.5,0.3c0.1,0,0.1-0.1,0.2-0.1c0,0,0,0,0,0C46.5,40,46.5,40,46.5,39.9z"/>
					</g>
				</g>
				<g>
					<g>
						<path class="st4" d="M46.1,39.2c0.3-0.1,0.7,0.1,0.8,0.4c0.1,0.3-0.1,0.7-0.4,0.8c-0.3,0.1-0.7-0.1-0.8-0.4
							C45.6,39.6,45.8,39.3,46.1,39.2z M46.2,39.4c-0.2,0.1-0.3,0.3-0.3,0.5s0.3,0.4,0.5,0.3c0.1,0,0.1-0.1,0.2-0.1c0,0,0,0,0,0
							c0-0.1-0.1-0.1-0.1-0.1c0.1-0.1,0.1-0.2,0-0.3c-0.1-0.1-0.2-0.1-0.3-0.1c0,0-0.1,0-0.1,0.1C46,39.7,46,39.8,46,39.8
							c0,0,0-0.1,0.1-0.2c0,0,0.1-0.1,0.1-0.1C46.2,39.4,46.2,39.4,46.2,39.4c0.1,0,0.2,0,0.3,0c0.1,0,0.1,0,0.1,0.1
							C46.5,39.4,46.3,39.3,46.2,39.4z"/>
					</g>
				</g>
			</g>
			<g>
				<g>
					<g>
						<path class="st4" d="M46.2,38.7c0.1-0.1,0.1-0.2,0-0.3c-0.1-0.1-0.2-0.1-0.3-0.1c0,0-0.1,0-0.1,0.1c-0.1,0.1-0.1,0.1-0.1,0.1
							c0,0,0-0.1,0.1-0.2c0,0,0.1-0.1,0.1-0.1c0,0,0.1,0,0.1,0c0.1,0,0.2,0,0.3,0c0.1,0,0.1,0,0.1,0.1c-0.1-0.1-0.3-0.2-0.4-0.1
							c-0.2,0.1-0.3,0.3-0.3,0.5c0.1,0.2,0.3,0.4,0.5,0.3c0.1,0,0.1-0.1,0.2-0.1c0,0,0,0,0,0C46.2,38.8,46.2,38.8,46.2,38.7z"/>
					</g>
				</g>
				<g>
					<g>
						<path class="st4" d="M45.8,38c0.3-0.1,0.7,0.1,0.8,0.4c0.1,0.3-0.1,0.7-0.4,0.8c-0.3,0.1-0.7-0.1-0.8-0.4
							C45.3,38.4,45.5,38.1,45.8,38z M45.9,38.2c-0.2,0.1-0.3,0.3-0.3,0.5c0.1,0.2,0.3,0.4,0.5,0.3c0.1,0,0.1-0.1,0.2-0.1
							c0,0,0,0,0,0c0-0.1-0.1-0.1-0.1-0.1c0.1-0.1,0.1-0.2,0-0.3c-0.1-0.1-0.2-0.1-0.3-0.1c0,0-0.1,0-0.1,0.1
							c-0.1,0.1-0.1,0.1-0.1,0.1c0,0,0-0.1,0.1-0.2c0,0,0.1-0.1,0.1-0.1C45.8,38.3,45.9,38.3,45.9,38.2c0.1,0,0.2,0,0.3,0
							c0.1,0,0.1,0,0.1,0.1C46.2,38.2,46,38.1,45.9,38.2z"/>
					</g>
				</g>
			</g>
			<g>
				<g>
					<g>
						<path class="st4" d="M45.9,37.6c0.1-0.1,0.1-0.2,0-0.3c-0.1-0.1-0.2-0.1-0.3-0.1c0,0-0.1,0-0.1,0.1c-0.1,0.1-0.1,0.1-0.1,0.1
							c0,0,0-0.1,0.1-0.2c0,0,0.1-0.1,0.1-0.1c0,0,0.1,0,0.1,0c0.1,0,0.2,0,0.3,0c0.1,0,0.1,0,0.1,0.1C45.9,37,45.7,37,45.5,37
							c-0.2,0.1-0.3,0.3-0.3,0.5c0.1,0.2,0.3,0.4,0.5,0.3c0.1,0,0.1-0.1,0.2-0.1c0,0,0,0,0,0C45.9,37.6,45.9,37.6,45.9,37.6z"/>
					</g>
				</g>
				<g>
					<g>
						<path class="st4" d="M45.5,36.8c0.3-0.1,0.7,0.1,0.8,0.4c0.1,0.3-0.1,0.7-0.4,0.8c-0.3,0.1-0.7-0.1-0.8-0.4
							C45,37.2,45.2,36.9,45.5,36.8z M45.5,37c-0.2,0.1-0.3,0.3-0.3,0.5c0.1,0.2,0.3,0.4,0.5,0.3c0.1,0,0.1-0.1,0.2-0.1c0,0,0,0,0,0
							c0-0.1-0.1-0.1-0.1-0.1c0.1-0.1,0.1-0.2,0-0.3c-0.1-0.1-0.2-0.1-0.3-0.1c0,0-0.1,0-0.1,0.1c-0.1,0.1-0.1,0.1-0.1,0.1
							c0,0,0-0.1,0.1-0.2c0,0,0.1-0.1,0.1-0.1C45.5,37.1,45.6,37.1,45.5,37c0.1,0,0.2,0,0.3,0c0.1,0,0.1,0,0.1,0.1
							C45.9,37,45.7,37,45.5,37z"/>
					</g>
				</g>
			</g>
			<g>
				<g>
					<g>
						<path class="st4" d="M44.7,35.7c0.1-0.1,0.1-0.2,0-0.3c-0.1-0.1-0.2-0.1-0.3-0.1c0,0-0.1,0-0.1,0.1c-0.1,0.1-0.1,0.1-0.1,0.1
							c0,0,0-0.1,0.1-0.2c0,0,0.1-0.1,0.1-0.1c0,0,0.1,0,0.1,0c0.1,0,0.2,0,0.3,0c0.1,0,0.1,0,0.1,0.1c-0.1-0.1-0.3-0.2-0.4-0.1
							c-0.2,0.1-0.3,0.3-0.3,0.5c0.1,0.2,0.3,0.4,0.5,0.3c0.1,0,0.1-0.1,0.2-0.1c0,0,0,0,0,0C44.7,35.8,44.7,35.8,44.7,35.7z"/>
					</g>
				</g>
				<g>
					<g>
						<path class="st4" d="M44.3,35c0.3-0.1,0.7,0.1,0.8,0.4c0.1,0.3-0.1,0.7-0.4,0.8c-0.3,0.1-0.7-0.1-0.8-0.4
							C43.8,35.4,44,35.1,44.3,35z M44.4,35.2c-0.2,0.1-0.3,0.3-0.3,0.5c0.1,0.2,0.3,0.4,0.5,0.3c0.1,0,0.1-0.1,0.2-0.1c0,0,0,0,0,0
							c0-0.1-0.1-0.1-0.1-0.1c0.1-0.1,0.1-0.2,0-0.3c-0.1-0.1-0.2-0.1-0.3-0.1c0,0-0.1,0-0.1,0.1c-0.1,0.1-0.1,0.1-0.1,0.1
							c0,0,0-0.1,0.1-0.2c0,0,0.1-0.1,0.1-0.1C44.4,35.3,44.4,35.2,44.4,35.2c0.1,0,0.2,0,0.3,0c0.1,0,0.1,0,0.1,0.1
							C44.7,35.2,44.5,35.1,44.4,35.2z"/>
					</g>
				</g>
			</g>
			<g>
				<g>
					<g>
						<path class="st4" d="M45.5,36.4c0.1-0.1,0.1-0.2,0-0.3C45.5,36,45.4,36,45.2,36c0,0-0.1,0-0.1,0.1C45,36.2,45,36.3,45,36.3
							c0,0,0-0.1,0.1-0.2c0,0,0.1-0.1,0.1-0.1c0,0,0.1,0,0.1,0c0.1,0,0.2-0.1,0.2-0.1c0.1,0,0.1,0,0.2,0.1c-0.1-0.1-0.3-0.1-0.4-0.1
							C45.1,35.9,45,36,45,36.1c0,0.1-0.1,0.2,0,0.3c0.1,0.2,0.3,0.3,0.5,0.3c0.1,0,0.1-0.1,0.2-0.1l0,0
							C45.6,36.5,45.5,36.4,45.5,36.4z"/>
					</g>
				</g>
				<g>
					<g>
						<path class="st4" d="M45.1,35.7c0.1-0.1,0.3-0.1,0.5-0.1c0.2,0.1,0.3,0.2,0.4,0.4c0.1,0.2,0,0.3-0.1,0.5
							c-0.1,0.1-0.2,0.2-0.4,0.3c-0.2,0-0.3,0-0.5-0.1c-0.1-0.1-0.2-0.2-0.3-0.4c0-0.1,0-0.3,0-0.4C44.9,35.9,44.9,35.8,45.1,35.7z
							 M45.2,35.8C45.1,35.9,45,36,45,36.1c0,0.1-0.1,0.2,0,0.3c0.1,0.2,0.3,0.3,0.5,0.3c0.1,0,0.1-0.1,0.2-0.1l0,0
							c0-0.1-0.1-0.1-0.1-0.1c0.1-0.1,0.1-0.2,0-0.3C45.5,36,45.4,36,45.2,36c0,0-0.1,0-0.1,0.1C45,36.2,45,36.3,45,36.3
							c0,0,0-0.1,0.1-0.2c0,0,0.1-0.1,0.1-0.1C45.2,35.9,45.2,35.9,45.2,35.8c0.1,0,0.2,0,0.3,0c0.1,0,0.1,0,0.2,0.1
							C45.5,35.8,45.3,35.8,45.2,35.8z"/>
					</g>
				</g>
			</g>
		</g>
		<g>
			<path class="st4" d="M48.8,55c0,0.2-0.2,0.4-0.4,0.4c-0.2,0-0.4-0.2-0.4-0.4s0.2-0.4,0.4-0.4C48.6,54.6,48.8,54.8,48.8,55z"/>
		</g>
		<g>
			<path class="st4" d="M50,59.1c0-0.7-0.3-1.4-0.6-2.1c-0.3-0.6-0.6-1.3-0.6-2l-0.3,0l-0.1,0l0,0l-0.1,0l-0.1,0l0,0L48.2,55
				c-0.3,0.3-0.5,0.7-0.6,1c-0.1,0.4,0,0.8,0,1.1c0.1,0.7,0.1,1.4,0,2.2c0,0,0,0.5-0.1,1c0,0.2-0.1,0.5-0.1,0.7c0,0.2,0,0.3,0,0.3
				c0,0,0-0.1,0.1-0.3c0-0.2,0.1-0.4,0.1-0.7c0.1-0.5,0.1-1,0.1-1c0-0.5,0.1-1,0.1-1.5c0,0.6,0,1.2,0,1.7c0,0,0,0.5-0.1,1
				c0,0.2-0.1,0.5-0.1,0.7c0,0.2-0.1,0.3-0.1,0.3c0,0,0.1-0.1,0.1-0.3c0.1-0.2,0.1-0.4,0.2-0.7c0.1-0.5,0.2-1,0.2-1
				c0.1-0.5,0.1-1,0.1-1.5c0.1,0.6,0.1,1.1,0,1.7c0,0,0,0.5-0.1,1c0,0.2-0.1,0.5-0.2,0.7c-0.1,0.2-0.1,0.3-0.1,0.3
				c0,0,0.1-0.1,0.1-0.3c0.1-0.2,0.2-0.4,0.2-0.7c0.1-0.5,0.2-1,0.2-1c0-0.4,0.1-0.7,0.1-1.1c0-0.1,0-0.2,0-0.2c0,0.1,0,0.3,0,0.4
				c0,0.4,0,0.7,0,1.1c0,0,0,0,0,0.1c0,0.1,0,0.1,0,0.2c0,0.2-0.1,0.4-0.1,0.7c-0.1,0.2-0.1,0.5-0.2,0.7c-0.1,0.2-0.1,0.3-0.1,0.3
				c0,0,0.1-0.1,0.2-0.3c0.1-0.2,0.2-0.4,0.3-0.7c0.2-0.5,0.2-1.1,0.2-1.1c0-0.4,0.1-0.7,0-1.1c0.1,0.4,0.1,0.9,0,1.3
				c0,0,0,0.5-0.2,1c-0.1,0.2-0.2,0.5-0.3,0.7c-0.1,0.2-0.2,0.3-0.2,0.3c0,0,0.1-0.1,0.2-0.3c0.1-0.2,0.2-0.4,0.3-0.7
				c0.1-0.3,0.2-0.5,0.2-0.7c0-0.2,0-0.3,0-0.3c0-0.3,0-0.6,0-0.9c0.1,0.4,0.1,0.7,0.1,1.1c0,0,0,0.1,0,0.3c0,0.2-0.1,0.5-0.2,0.7
				c-0.1,0.2-0.2,0.5-0.3,0.6c-0.1,0.2-0.2,0.3-0.2,0.3c0,0,0,0,0.1-0.1c0,0,0.1-0.1,0.1-0.1c0,0,0.1-0.1,0.2-0.2
				c0,0,0.1-0.1,0.2-0.2c0,0,0.1-0.1,0.2-0.2l0,0c0,0,0.1-0.1,0.2-0.2c0,0,0,0,0,0c0,0,0.1-0.1,0.2-0.1c0.1-0.1,0.3-0.4,0.4-0.6
				c0.1-0.2,0.2-0.5,0.2-0.7C50,59.2,50,59.1,50,59.1z M49.3,59.1c0,0.2,0,0.3,0,0.5c0,0,0,0.1,0,0.3c0,0.2-0.1,0.4-0.2,0.7
				c-0.1,0.2-0.1,0.3-0.2,0.4c0.1-0.1,0.1-0.2,0.1-0.3c0.1-0.3,0.2-0.5,0.2-0.7c0-0.2,0-0.4,0-0.4C49.3,59.5,49.3,59.3,49.3,59.1z
				 M49.1,60.8c0-0.1,0.1-0.2,0.1-0.2c0.1-0.3,0.2-0.5,0.2-0.7c0-0.2,0-0.3,0-0.3c0-0.2,0-0.4,0-0.6c0,0.2,0,0.3,0,0.5
				c0,0,0,0.1,0,0.3c0,0.2-0.1,0.4-0.1,0.7C49.3,60.6,49.2,60.7,49.1,60.8z M48.9,60.9c0.1-0.3,0.2-0.5,0.2-0.8c0-0.2,0-0.4,0-0.4
				c0-0.1,0-0.3,0-0.4c0,0.1,0,0.3,0,0.4c0,0,0,0.1,0,0.3c0,0.2-0.1,0.4-0.2,0.7c-0.1,0.2-0.2,0.4-0.2,0.5
				C48.8,61.1,48.8,61,48.9,60.9z M49.4,60.4c0.1-0.3,0.2-0.5,0.2-0.7c0-0.2,0-0.3,0-0.3c0-0.2,0-0.4,0-0.6c0,0.2,0.1,0.4,0.1,0.6
				c0,0,0,0.1,0,0.3c0,0.2-0.1,0.4-0.1,0.6c0,0.1-0.1,0.2-0.2,0.3C49.4,60.6,49.4,60.5,49.4,60.4z M49.8,59.5c0,0.2-0.1,0.4-0.1,0.6
				c0,0.1-0.1,0.2-0.2,0.3c0-0.1,0.1-0.1,0.1-0.2C49.7,60,49.8,59.8,49.8,59.5c0-0.1,0-0.3,0-0.3c0-0.2,0-0.4-0.1-0.6
				c0,0.2,0.1,0.4,0.1,0.6C49.8,59.2,49.8,59.3,49.8,59.5z"/>
		</g>
	</g>
</g>
</svg>
