<?xml version="1.0" encoding="utf-8"?>
<!-- Generator: Adobe Illustrator 22.0.1, SVG Export Plug-In . SVG Version: 6.00 Build 0)  -->
<svg version="1.1" id="Layer_1" xmlns="http://www.w3.org/2000/svg" xmlns:xlink="http://www.w3.org/1999/xlink" x="0px" y="0px"
	 viewBox="0 0 100 100" style="enable-background:new 0 0 100 100;" xml:space="preserve">
<style type="text/css">
	.st0{fill:#FFFFFF;}
	.st1{fill:#E1BB34;}
</style>
<circle class="st0" cx="49.4" cy="50" r="30"/>
<g>
	<path class="st1" d="M49.4,64.1c-5.1,0-10.2,0-15.3,0c-3.2,0-4.9-1.8-4.9-4.9c0-7.3,0-11.1,0-18.5c0-3,1.8-4.8,4.8-4.8
		c10.2,0,20.4,0,30.6,0c3.1,0,4.9,1.8,4.9,4.9c0,7.3,0,11.1,0,18.5c0,3.1-1.8,4.9-4.9,4.9C59.6,64.1,54.5,64.1,49.4,64.1z
		 M49.4,53.5c-5.8-4-11.5-7.9-17.3-11.9c0,0.3,0,0.4,0,0.6c0,7,0,10.4,0,17.4c0,1.3,0.5,1.8,1.9,1.8c10.2,0,20.5,0,30.7,0
		c1.5,0,2-0.5,2-2c0-6.8,0-10.1,0-16.9c0-0.2,0-0.5-0.1-0.8C60.8,45.6,55.1,49.5,49.4,53.5z M49.4,50c5.4-3.7,10.7-7.4,16.1-11.2
		c-10.9,0-21.5,0-32.3,0C38.7,42.6,44,46.3,49.4,50z"/>
</g>
</svg>
