<?xml version="1.0" encoding="utf-8"?>
<!-- Generator: Adobe Illustrator 22.0.1, SVG Export Plug-In . SVG Version: 6.00 Build 0)  -->
<svg version="1.1" id="Layer_1" xmlns="http://www.w3.org/2000/svg" xmlns:xlink="http://www.w3.org/1999/xlink" x="0px" y="0px"
	 viewBox="0 0 100 100" style="enable-background:new 0 0 100 100;" xml:space="preserve">
<style type="text/css">
	.st0{fill:#FFFFFF;}
	.st1{fill:#E1BB34;}
</style>
<circle class="st0" cx="50" cy="50" r="30"/>
<path class="st1" d="M41.7,35c1.3,2.1,2.5,4.2,3.8,6.2c0.6,1,0.6,1.4-0.3,2.2c-0.8,0.7-1.6,1.4-2.4,2.1c-0.8,0.6-1,1.4-0.5,2.2
	c0.7,1.1,1.3,2.3,2.1,3.3c2.3,2.6,5,4.8,7.9,6.7c1.1,0.7,1.5,0.6,2.3-0.4c0.6-0.7,1.2-1.5,1.8-2.3c0.8-0.9,1.2-0.9,2.2-0.3
	c2.1,1.2,4.2,2.4,6.2,3.7c0,0.4,0,0.8,0,1.2c-0.9,2.5-2.5,4.3-5.1,5.1c-0.5,0.2-1,0.3-1.4,0.4c-0.7,0-1.3,0-2,0
	c-0.8-0.2-1.6-0.4-2.4-0.6c-4.4-1.4-8.1-4.1-11.4-7.3c-3.8-3.6-6.4-7.9-7.5-13.1c-0.7-3.1,0.3-5.6,2.8-7.5c0.8-0.6,1.6-1,2.5-1.5
	C40.9,35,41.3,35,41.7,35z"/>
</svg>
