<?xml version="1.0" encoding="utf-8"?>
<!-- Generator: Adobe Illustrator 22.0.1, SVG Export Plug-In . SVG Version: 6.00 Build 0)  -->
<svg version="1.1" id="Layer_1" xmlns="http://www.w3.org/2000/svg" xmlns:xlink="http://www.w3.org/1999/xlink" x="0px" y="0px"
	 viewBox="0 0 1366 866.3" style="enable-background:new 0 0 1366 866.3;" xml:space="preserve">
<style type="text/css">
	.st0{clip-path:url(#SVGID_2_);}
	.st1{opacity:0.9;fill:#161511;}
	.st2{fill:url(#SVGID_3_);}
	.st3{clip-path:url(#SVGID_5_);}
	.st4{fill:none;stroke:#E1BB34;stroke-width:3;stroke-miterlimit:10;}
	.st5{fill:#2B496D;stroke:#FFFFFF;stroke-miterlimit:10;}
	.st6{fill:#2B496D;stroke:#2A486C;stroke-width:0.5;stroke-miterlimit:10;}
	.st7{fill:#2B496D;}
	.st8{fill:#FDFCF5;}
	.st9{fill:#FBF5E1;}
</style>
<g>
	<rect class="st8" width="1366" height="864"/>
	<g>
		<path class="st9" d="M1153.6,850.7c-7.9-0.3-8.1,12.1,0,11.9c-1.5,0-2.7,0.6-3.7,1.5h2.4c1.3-0.5,2.8-0.6,4,0h1.4
			c-1.1-1-2.5-1.5-4.1-1.5c5.9-0.2,4.6-6.6,4.9,1.5h2.9c-0.2-4.6-0.3-9.3,0-14c0.6,5.7,2.1,10.2,4.1,14h2.8
			c-3.2-6.3-4.3-13.8-3.6-21.2c2-20.1,18-38.7,45.1-27.9c5.9,2.8,10.7,5.6,15.3,12.1c-11.2-3.1-19.5,6.7-25.3,16.1
			c-0.9,1.4-1.2-2.9-5.5-3.3c-2.9-0.3-3.3,1.2-3.2,0.4c0.8-7.7-10.9-8.8-11.6-1.1c0,0.2-8.3-3.7-9.3,4c0,0,0,0.1,0.1,0.3
			c-0.1,0.2-0.1,0.3-0.1,0.3c-0.5,7.7,8.3,5.5,8.3,5.7c-0.8,7.7,10.9,8.8,11.6,1.1c0.1-0.8,0.2,0.7,3.1,1c4.3,0.4,5.4-3.8,6-2.2
			c1.9,5.2,4.5,10.7,8,14.7h3.8c-5-4.4-7.8-12-10-17.4c0-0.1,0.1-0.1,0.1-0.2c0-0.1-0.1-0.1-0.1-0.2c4.5-6.8,10.8-17.6,20.7-17
			c7.6,0.4,10.1,10.4,9,20.1c-0.5,5.7-2.2,11.3-5,14.7h3.2c0.5-0.9,1-1.7,1.4-2.7c0.1,2,0.3,2.2-0.4,2.7h3.6
			c-0.1-1.5-0.2-3.1-0.2-4.8c3.6,0.2,6.9,2.1,9.1,4.8h3.3c-0.8-1.5-2-2.8-3.3-3.9c-2.6-2.2-4.5-3.1-5.6-3.4c1.2-0.3,3.1-1.2,5.7-3.4
			c1-0.8,1.8-1.7,2.5-2.6c-0.5-1-1.1-2.1-1.9-3.1c-2.1-2.7-3.8-3.9-4.9-4.4c1.2-0.1,3.2-0.6,6.2-2.2c5.8-3.1,9.1-9.9,6.6-17
			c-1-3.4-2.2-5.1-3.1-5.9c1.1,0.4,3.2,0.7,6.7,0.3c3.8-0.5,7-2.3,9.2-5c0.7-3.4,0.1-7.1-1.8-10.3c-1.9-3-3.4-4.4-4.4-5.1
			c1.2,0.1,3.3,0,6.5-1.3c7.1-2.5,10.3-9.3,9.1-15.8c-0.6-3.4-1.4-5.2-2.1-6.2c1.1,0.5,3.1,1.1,6.5,1.1c1.3,0,2.5-0.1,3.6-0.4
			c0.3-1.1,0.5-2.3,0.5-3.6c0.1-3.4-0.4-5.4-0.9-6.5c1,0.7,2.8,1.6,6.2,2.3c6.4,1.3,13.3-1.8,16-8.8c1.4-3.2,1.6-5.3,1.5-6.5
			c0.6,1,2,2.5,5,4.5c3.2,2.1,6.8,2.7,10.3,2.1c2.7-2.2,4.7-5.3,5.2-9.1c0.5-3.5,0.2-5.6-0.1-6.7c0.8,0.9,2.5,2.1,5.9,3.2
			c7,2.6,13.9-0.5,17.1-6.2c1.7-3,2.3-4.9,2.4-6.1c0.5,1.1,1.7,2.8,4.3,5c1,0.8,2,1.5,3,2c0.9-0.7,1.8-1.5,2.7-2.4
			c2.3-2.6,3.2-4.4,3.5-5.6c0.3,1,1,2.6,2.6,4.8v-7.9c0-0.1,0-0.2,0-0.3c0,0,0,0,0,0v-4.8c-2.9,1.1-6.4,1.8-9.9,2
			c-9.8,0.9-19.7-1.8-19.9-9.4c-0.4-9.9,10.6-16,17.4-20.3c0.1,0,0.1,0.1,0.2,0.1c0.1,0,0.1-0.1,0.2-0.1c3.5,1.5,8.1,3.3,12,5.9
			v-3.2c-2.9-1.7-6.1-3.2-9.2-4.4c-1.6-0.6,2.6-1.6,2.3-6c-0.2-2.9-1.7-3-0.9-3.1c7.7-0.6,6.8-12.2-0.9-11.6c-0.2,0,2.2-8.8-5.5-8.4
			c0,0-0.1,0-0.3,0.1c-0.2,0-0.3,0-0.3-0.1c-7.7,0.8-3.9,9.2-4.2,9.2c-7.7,0.6-6.8,12.2,0.9,11.6c0.8-0.1-0.7,0.3-0.4,3.2
			c0.3,4.3,4.7,4.7,3.2,5.6c-9.5,5.6-19.5,13.7-16.6,24.9c-6.4-4.7-9.2-9.6-11.8-15.5c-10.2-27.4,8.8-42.9,28.8-44.5
			c5.1-0.4,10.2,0.1,15,1.6v-3c-2.3-0.8-4.9-1.4-7.7-1.7c2.6-0.1,5.2-0.1,7.7,0v-3.1c-0.4,0.1-0.7,0.2-1.1,0.1
			c-8.1-0.1-4.3-11.4,1.1-9.9v-0.8c-3.3-0.5-7,1.5-6.9,5.8c-0.1-5.3-5.8-6.8-9.3-4.7c-3.7-1.5-9.2,0.8-8.4,6.1
			c-1.1-7.8-13.3-5.9-11.7,2c-1.1-5.4-8.3-6.3-11-1.6c-0.7,1.2-0.9,2-1,2.6c-0.4-0.5-1.1-1-2.3-1.6c-4.8-2.6-10.4,2.1-8.4,7.2
			c-3.2-8.5-11.9-2-11.8,3.3c-4-5.1-13.3,0.3-9.7,6.7c-1.8-3.2-5.1-3.5-7.6-2.3c-2.6,1.1-4.5,3.8-3.3,7.2
			c-2.5-6.9-12.7-3.5-11.5,2.9c-3.9-3.6-14.5-1.3-10.2,6.7c-2.6-4.8-9.8-3.7-11,1.6c-0.3,1.3-0.3,2.2-0.2,2.8
			c-0.5-0.3-1.4-0.7-2.7-0.9c-5.3-1.1-9.4,4.9-6.1,9.3c-4.9-6.5-14.4,1.5-9.2,7.4c-3.5-4-8.8-1.5-10.1,2.3
			c-3.8,1.2-6.5,6.5-2.6,10.1c-5.9-5.3-14,4.1-7.6,9.1c-4.3-3.4-10.4,0.6-9.4,5.9c0.2,1.3,0.6,2.1,0.9,2.7c-0.6-0.1-1.5-0.1-2.8,0.2
			c-5.4,1.1-6.6,8.3-1.8,11c-7.9-4.5-10.5,6.1-6.9,10.1c-6.4-1.3-10,8.8-3.1,11.4c-3.5-1.3-6.2,0.5-7.3,3.1c-1.3,2.5-1,5.8,2.2,7.7
			c-6.3-3.7-12,5.4-6.9,9.6c-5.3-0.3-11.9,8.3-3.5,11.7c-5-2-9.9,3.4-7.4,8.3c0.6,1.2,1.1,1.9,1.6,2.3c-0.6,0.1-1.5,0.4-2.6,1
			c-4.8,2.6-4,9.8,1.3,11c-7.9-1.8-10.1,10.4-2.3,11.6c-5.2-0.8-7.7,4.5-6.3,8.3C1146.9,844.7,1148.3,850.5,1153.6,850.7z
			 M1189.8,840.1c-0.4,3.8-5.6,6.4-8.7,1C1178.8,834.1,1190.5,833,1189.8,840.1z M1175.6,848.4c-3-0.3-4.3-2.7-4-4.9
			c0.2-2.2,1.9-4.3,4.9-4c2.9,0.3,4.2,2.7,4,4.9C1180.2,846.6,1178.5,848.7,1175.6,848.4z M1188.8,850.4c-0.7,7.1-12,3.8-8.4-2.6
			C1184.5,843,1189.1,846.6,1188.8,850.4z M1198.2,846.1c0,0.1,0,0.1,0,0.2c-0.4,3.8-5.4,5.3-7.9,2.2c-1-1.2-1.4-2.3-1.3-3.3
			c0.1-1,0.7-2,1.9-3c3-2.5,7.7-0.1,7.3,3.7C1198.2,846,1198.2,846.1,1198.2,846.1z M1356.4,729.2c7.4,0.2,5.5,5.2,0.6,8.4
			C1351.7,735.2,1349.1,730.6,1356.4,729.2z M1358.1,684.5c-3.8,0.3-7.3-4.4-2.5-8.4C1362.1,672.6,1365.2,684,1358.1,684.5z
			 M1351.6,667.2c2.2-0.2,4.6,1.1,4.8,4.1c0.2,2.9-1.9,4.6-4.1,4.8c-2.2,0.2-4.6-1.1-4.8-4.1C1347.2,669,1349.3,667.3,1351.6,667.2z
			 M1347.8,685.3c-7.1,0.5-5.8-11.1,1.1-8.7C1354.3,679.8,1351.6,685,1347.8,685.3z M1349.9,686.5c1-1.2,2.1-1.7,3-1.8
			c1,0,2.1,0.3,3.3,1.4c3,2.6,1.4,7.6-2.4,7.8c-0.1,0-0.1,0-0.2,0c-0.1,0-0.1,0-0.2,0C1349.6,694.2,1347.3,689.5,1349.9,686.5z
			 M1150,860.1c-6.9-6.7,8.4-12.9,8.3-3.5C1158.3,860.8,1153.1,863.1,1150,860.1z M1158.4,853.3c-1-1.5-2.8-2.6-4.8-2.6
			C1159.7,850.9,1158.6,844,1158.4,853.3z M1155.3,833c2,0.3,3.9-0.4,5.2-1.7C1158.9,840.6,1161.3,834,1155.3,833z M1157.6,821.4
			c1.9,0.4,3.9-0.1,5.3-1.3C1160.6,829.2,1163.6,822.8,1157.6,821.4z M1162.8,835.2c3.2-21.8,11.1-41.9,22.6-59.4
			c6.4-19.9,17.1-38.6,32.1-54.8c-18.5,27.7,8.7,47,3.9,46.2c-12-2-23.9,2.1-32.1,10.5c-1.4,11.6,2.8,23.5,11.9,31.6
			C1204.8,812.5,1172.8,803.4,1162.8,835.2z M1164.6,813.7c-1.1-3.2-4.2-3.8-3.9-3.8C1166.5,811.7,1167.3,804.8,1164.6,813.7z
			 M1164.7,798.8c1.8,0.7,3.8,0.5,5.4-0.5C1166.5,807,1170.4,801.1,1164.7,798.8z M1172.8,792.3c-0.3-1.8-0.9-3-1.7-3.8
			C1175.3,789.4,1176.4,784.7,1172.8,792.3z M1175.2,777.5c1.6,1,3.6,1.1,5.5,0.3C1175.6,786,1180.5,780.7,1175.2,777.5z
			 M1184,770.8c-0.6-2-1.9-3.4-3.7-4.1C1186.2,768.9,1187.2,761.8,1184,770.8z M1186.3,756.7c1.1,0.1,2.5-0.2,4.1-1.1
			C1186.7,763.3,1189.7,759.5,1186.3,756.7z M1193.4,749.8c-0.2-1.8-1.3-3.5-3-4.5C1195.7,748.3,1197.8,741.5,1193.4,749.8z
			 M1196.5,735.2c-0.2-0.2,2.2,1.8,5.4,0.7C1196.6,743.5,1201.6,738.6,1196.5,735.2z M1205.8,730.5c0-1.8-0.8-3.7-2.3-4.9
			C1208.3,729.4,1211.4,723,1205.8,730.5z M1213.1,721.6c0.2-1.8-0.5-3.7-2-5.1C1215.6,720.6,1219.3,714.6,1213.1,721.6z
			 M1191.7,778.8c8.6-9.4,22.1-13.9,38.2-6.1c5.8,3.2,10.6,6.6,14.8,13.9c-8.4-3.4-15.5,1-21.4,7.3c-1.2,8.5-0.2,16.8,7.7,21.2
			c-8.3,1.4-14-0.3-20.1-2.8C1194.7,804.8,1189.7,791.4,1191.7,778.8z M1253,792.6c-1.3-1.4-2.6-2.5-4.2-3.7
			c-3.5-8.3-6.7-11.2-7.9-12c1.3,0.5,5.3,1.4,13.5-0.1C1264.1,780.5,1260.7,773.3,1253,792.6z M1259.4,775.5
			c1.2-0.4,2.4-0.9,3.6-1.4C1261.4,776.3,1262.1,776,1259.4,775.5z M1250.5,794c0.2,0.2,0.4,0.3,0.6,0.5
			C1251.8,795.2,1251.6,798.3,1250.5,794z M1226.4,795.4c15.3-14.7,24.1-6.4,22.2,10.6C1236.5,818.2,1224.5,816.5,1226.4,795.4z
			 M1241.1,815.3c-0.3,0-0.5-0.1-0.8-0.1C1244.5,813.3,1242.2,815.4,1241.1,815.3z M1232.7,837.4c-0.3-1.3-0.7-2.5-1.1-3.7
			C1233.6,835.4,1233.4,834.7,1232.7,837.4z M1229.4,828.9c-4-7.3-7.2-9.9-8.4-10.6c1.4,0.4,5.7,1.1,14.4-1.4c1.9,0.5,3.6,0.8,5.5,1
			C1230.6,836.1,1238.4,834.2,1229.4,828.9z M1241.8,850.4c-3.3,4.8-8.2,6.6-8.3-0.8C1235,842.4,1239.6,845,1241.8,850.4z
			 M1249,828.9c0,7.1-7.1,12.2-13.8,11.2C1243.1,805.1,1249.1,824.3,1249,828.9z M1259.6,804.4c1.5,2.4,1.8,5,1.3,7.5
			c-1.7,1.9-3.9,3.3-6.7,3.7c-3,0.3-5.6-0.2-7.8-1.4c1.8-2.7,3.5-4.9,5-6.8c0.5-2.4,1.2-5.1,2.2-8.2
			C1255.9,800.2,1257.9,801.9,1259.6,804.4z M1266.6,792.1c-3.6,2.9-22.3,10.3,0.1-17.8C1271.7,778.9,1272.1,787.6,1266.6,792.1z
			 M1278.9,773c-5.6,1.6-10.5-0.3-5.9-6C1278.8,762.5,1280.6,767.5,1278.9,773z M1271.1,765c-6.9,7-16.2,11.3-21.3,5.6
			c-6.6-7.3-2.2-19,0.3-26.8c0.1,0,0.1,0,0.2-0.1c0-0.1,0-0.1,0.1-0.2c7.8-2.3,19.6-6.5,26.8,0.3
			C1282.7,749.1,1278.2,758.3,1271.1,765z M1233.5,731.5c6.2-1,7.4,4.8,4.7,7.4C1233.1,743.9,1226.6,734.1,1233.5,731.5z
			 M1229.4,728.9c-2.1-2.2-1.5-4.8,0.1-6.3c1.6-1.6,4.2-2.1,6.3,0c2.1,2.1,1.5,4.7-0.1,6.3C1234.1,730.5,1231.5,731,1229.4,728.9z
			 M1238.3,726.8c2.7-6.8,12.4-0.1,7.3,4.9C1242.9,734.3,1237.2,733,1238.3,726.8z M1241.7,735.1c0.7-0.7,1.8-1.1,3.4-1.1
			c3.9,0,6,4.9,3.2,7.5c0,0.1-0.1,0.1-0.1,0.1c0,0-0.1,0.1-0.2,0.1c-2.7,2.7-7.5,0.6-7.5-3.4
			C1240.6,736.9,1241.1,735.8,1241.7,735.1z M1251.3,740.5c-1.6,0.5,1-3-2.1-6.1c-2-2-3.3-1.2-2.7-1.8c5.5-5.4-2.6-13.8-8.2-8.3
			c-0.2,0.2-4-8.2-9.7-2.9c0,0-0.1,0.1-0.2,0.3c-0.2,0.1-0.2,0.2-0.3,0.1c-5.4,5.6,2.9,9.6,2.7,9.7c-5.5,5.4,2.7,13.7,8.2,8.4
			c0.6-0.6-0.3,0.7,1.7,2.7c3,3.1,6.6,0.6,6,2.2c-3.7,10.4-6.2,23,3.3,29.8c-7.9,0.6-13.2-1.5-19-4.3c-25.4-14.4-20.9-38.5-6.5-52.6
			c14.4-14.1,38.6-18.1,52.5,7.6c2.7,5.9,4.6,11.2,3.9,19.1C1274.5,734.8,1261.8,737,1251.3,740.5z M1223.8,704.1
			c1.3,1.5,3.2,2.2,5.1,2.1C1221.7,712.2,1227.8,708.7,1223.8,704.1z M1281.7,753.6c0.5,2.7,0.8,1.9-1.5,3.6
			C1280.8,756,1281.3,754.8,1281.7,753.6z M1298.2,761.2c-4.6,5.4-13.3,4.8-17.8-0.3C1309,739.1,1301.2,757.7,1298.2,761.2z
			 M1283.6,735.1c0.8,1.3,3.7,4.5,11.9,8.2c1.1,1.7,2.3,2.9,3.6,4.3c-19.5,7.3-12.4,10.8-15.9,1.1
			C1284.8,740.5,1284,736.4,1283.6,735.1z M1300.9,745.7c-0.2-0.2-0.3-0.4-0.5-0.6C1304.7,746.3,1301.7,746.4,1300.9,745.7z
			 M1302.4,721c21.1-1.4,22.6,10.6,10.1,22.4C1295.5,744.9,1287.4,735.9,1302.4,721z M1322,749.2c-0.4,2.8-1.9,5-3.8,6.6
			c-2.5,0.4-5.1,0-7.5-1.5c-2.5-1.7-4.2-3.7-5.1-6.1c3.1-0.9,5.8-1.5,8.2-2c1.9-1.5,4.2-3.1,6.9-4.9
			C1321.9,743.6,1322.4,746.2,1322,749.2z M1321.8,735.4c0,0.3,0.1,0.5,0.1,0.8C1322,737.2,1319.9,739.4,1321.8,735.4z
			 M1335.4,744.3c-4.6,0-23.7-6.4,11.5-13.6C1347.7,737.5,1342.4,744.4,1335.4,744.3z M1344.2,728.2c-2.7,0.6-2,0.9-3.7-1.2
			C1341.7,727.4,1343,727.8,1344.2,728.2z M1325.4,716.1c0.7,1.2,3.2,4.5,10.4,8.6c5,9.1,7.1,1.3-11.2,11.2
			c-0.1-1.9-0.4-3.6-0.9-5.5C1326.4,721.9,1325.8,717.5,1325.4,716.1z M1319.7,705.9c2.3,6.2,3.9,11.9,2.3,20.2
			c-4.3-8-12.5-9.2-21.1-8.1c-6.4,5.7-11,12.7-7.8,21.2c-7.3-4.3-10.5-9.2-13.6-15.1c-7.5-16.3-2.7-29.7,6.9-38.1
			C1299.1,684.3,1312.4,689.5,1319.7,705.9z M1361.7,654.2c-9.4,0-2.5,1.2-2.5-4.8C1359.2,651.4,1360.2,653.1,1361.7,654.2z
			 M1343.4,647.1c2.2-2.9,4.8-2.6,6.5-1.1c1.5-1.7,4-2.4,6.6,0.1c3,2.8,1.2,8.1-3.2,8.4c-1.2,0-2.1-0.2-2.8-0.6
			c-0.7,0.5-1.6,0.8-2.7,1C1343.5,655.3,1340.9,650.3,1343.4,647.1z M1341.4,650.7c0.8,6,7.5,3.8-1.8,5.2
			C1340.9,654.6,1341.7,652.7,1341.4,650.7z M1331.5,648.9c5.4-7.9,14.2,6,4.9,7.5C1332.3,657.1,1329.1,652.4,1331.5,648.9z
			 M1329.7,652.8c1.3,6,7.7,3.2-1.4,5.2C1329.6,656.6,1330.1,654.7,1329.7,652.8z M1319.6,651.7c4.7-8.4,14.7,4.5,5.5,7.1
			C1321.1,659.9,1317.6,655.3,1319.6,651.7z M1318.2,655.6c0-0.2,0.5,2.8,3.7,4C1312.9,662.1,1319.9,661.5,1318.2,655.6z
			 M1308.2,655.3c4.2-8.8,14.9,3.9,6,6.7C1310.1,663.3,1306.3,659.1,1308.2,655.3z M1307,659.4c2.2,5.8,8.1,1.9-0.6,5.4
			C1307.4,663.3,1307.7,661.3,1307,659.4z M1306,659.8c2.2,5.9-6.2,9.5-9,3.7C1294.3,657.7,1303.7,653.6,1306,659.8z M1296.6,665.6
			c0.8,0.8,2.1,1.4,3.8,1.8C1292.6,670.8,1297.4,669.9,1296.6,665.6z M1286,665.2c2.7-9.4,15.5,1.5,6.9,5.7
			C1289.3,672.8,1284.9,669.3,1286,665.2z M1285.8,674.9c0.8-1.9,0.7-3.8-0.2-5.5C1288.6,674.8,1294,670.1,1285.8,674.9z
			 M1278.3,668c3.3-1.4,8,0.9,6.8,5.6c-0.4,1.8-1.5,2.8-2.7,3.3c-1.2,0.6-2.7,0.7-4.3-0.2C1273.8,674.6,1275.1,669.5,1278.3,668z
			 M1274.7,674.3c0.6,1.8,2,3.2,4,3.8C1269.6,681.2,1276.7,680.2,1274.7,674.3z M1271.2,672c3.9,1.8,3.6,7.5-0.3,8.9
			C1262.1,684.6,1262.3,667.9,1271.2,672z M1264.5,680.1c2.7,3.4,6.5,0.5-1.2,4C1264.2,682.6,1264.5,681.3,1264.5,680.1z
			 M1262.6,679.1c2.6,5.9-5.7,9.8-8.7,4.3C1250.8,677.6,1260,673.2,1262.6,679.1z M1257.4,687c-8.4,4.3-1.6,2.3-4.5-3.1
			C1253.9,685.7,1255.6,686.8,1257.4,687z M1283.6,679.6c17.7-11.1,38-18.6,59.8-21.4c-32,9.4-23.6,41.6-26.7,37.9
			c-7.9-9.3-19.7-13.8-31.4-12.6c-8.6,8-13,19.9-11.2,31.9c0.7,4.8-18-22.7-46.1-4.8C1244.6,695.9,1263.6,685.6,1283.6,679.6z
			 M1249.1,682.1c4.1,1.2,4.8,6.7,1.1,8.9C1242.2,695.9,1239.8,679.5,1249.1,682.1z M1243.3,695.3c1.2-3.2-0.7-5.6-0.6-5.4
			C1246.1,695,1251.1,690.2,1243.3,695.3z M1238.9,688.4c4.1,0.8,5.1,6.5,1.7,8.8C1232.6,702.4,1229.4,686.4,1238.9,688.4z
			 M1237.9,699.1c-7.6,5.5-1.2,2.5-4.8-2.4C1234.2,698.2,1236,699.1,1237.9,699.1z M1228.9,695.4c4.3,0.5,5.7,6,2.4,8.7
			C1224.1,710.1,1219.4,694.3,1228.9,695.4z M1210.3,712.4c-0.1-3.6,2-5.1,4.3-5.1c0.1-2.3,1.5-4.4,5.2-4.2c4.1,0.2,6.1,5.5,3,8.5
			c-0.9,0.8-1.7,1.2-2.5,1.4c-0.2,0.8-0.7,1.6-1.4,2.5C1215.7,718.7,1210.4,716.5,1210.3,712.4z M1202.3,721.5
			c-0.9-9.6,14.7-4.5,8.6,2.6C1208.2,727.3,1202.8,725.8,1202.3,721.5z M1203.8,733.2c-2.4,3.4-8,2.2-8.8-1.9
			C1193.3,721.8,1209.3,725.3,1203.8,733.2z M1188.6,741.4c-2.4-9.4,13.9-6.6,8.9,1.3C1195.2,746.3,1189.6,745.5,1188.6,741.4z
			 M1189.8,746.2c5.5,3.1,1.4,11.3-4.5,8.6C1179.5,752.1,1184,743,1189.8,746.2z M1178,763.2c-4-9,12.8-8.8,8.9-0.1
			C1185.4,766.9,1179.7,767.1,1178,763.2z M1173.9,770.3c1.6-3.2,6.7-4.4,8.8,0c0.8,1.6,0.7,3.1,0.1,4.3c-0.5,1.2-1.6,2.2-3.4,2.6
			C1174.6,778.3,1172.4,773.5,1173.9,770.3z M1171,778c4.1-1.1,7.5,3.4,5.5,7C1172.2,793.4,1161.5,780.5,1171,778z M1169,788.9
			c5.7,2.9,1.9,11.2-3.9,8.9C1159,795.3,1163.2,786,1169,788.9z M1160.6,799.9c3.9-1.7,8,2.1,6.6,6.1
			C1164.2,814.9,1151.7,803.9,1160.6,799.9z M1156.8,811.3c3.7-2,8.1,1.7,7,5.6C1161,826.1,1148.3,815.8,1156.8,811.3z
			 M1153.7,823.1c3.6-2.4,8.2,0.9,7.4,5.1C1159.4,837.4,1145.6,828.3,1153.7,823.1z M1151.6,834.9c3.3-2.4,8.2,0.3,7.7,4.6
			c-0.2,1.2-0.6,2-1.1,2.7c0.4,0.7,0.5,1.7,0.5,2.9c-0.3,4.3-5.7,6-8.5,3c-2.4-2.7-1.7-5.2,0-6.6
			C1148.9,839.6,1148.7,837.1,1151.6,834.9z"/>
		<path class="st9" d="M1251.9,864h1.5c-0.4-3.9-0.4-8.1,0-12.5c1.5-15.4,7.5-27.2,16-35.5c1.2-11.8,6.6-23.9,17.6-34.7
			c11-10.8,23.2-16,35.1-16.9c8.5-8.3,20.4-14.1,35.8-15.3c2.8-0.2,5.5-0.2,8.1-0.1v-1.5c-2.7-0.1-5.5-0.1-8.2,0.1
			c-13.4,1-26.5,6.1-36.5,15c-13.3,1.6-25.7,8.1-35.3,17.5c-9.6,9.4-16.4,21.7-18.3,35c-9.1,9.8-14.5,22.8-15.8,36.1
			C1251.5,855.6,1251.5,859.8,1251.9,864z"/>
		<path class="st9" d="M1258.9,864h1.5c-1.6-3.9-2.1-8-1.8-12c0.6-6,3.3-11.8,8-16.2c-0.2,6.1,1.6,12.3,5.7,17.5
			c-3.4,3-5.9,6.6-7.5,10.6h0.9c1.1-2.9,3.5-6.1,7.5-9.6c9.5,11,11.3,4.2,10.3,9.6h2c-0.1-0.5-0.2-1-0.4-1.7c1.4,0.5,2.8,0.8,4.3,1
			c-0.2,0.2-0.5,0.4-0.7,0.6h2.5c3-1.3,5.5,1.2,14.3-3.2c-0.7,0.9-1.3,2-1.9,3.2h1.4c1.1-1.9,2.5-3.6,4.2-5.2
			c-0.3,1.8-0.8,3.5-1.5,5.2h3.4c-0.3-1.6-0.4-3.3-0.4-5c1.1,1.6,2,3.3,2.8,5h1.5c-0.3-0.7-0.7-1.5-1.1-2.4c1.1,0.8,2.5,1.6,4.1,2.4
			h2.6c-3.2-1.3-6.2-3.3-8.8-6c4.8,0.8,9,3,12.5,6h2.1c-3.2-3.5-5.8-5.3-7.6-6.1c0,0,0,0,0,0c0,0,0,0,0,0c2.2-0.5,5.7-2.1,10.5-6
			c6.6,0.7,6.7,1.3,6.1,7.6c-0.2,2-0.4,3.4-0.7,4.4h1.2c0.4-1.4,0.7-2.8,0.8-4.3c0.2-1.9,0.2-3.9-0.1-5.8c6.3,2.7,8.5,4.9,8.3,6.6
			c-0.1,1.2-1.4,2.4-4.4,3.5h3.1c1-0.7,2-1.5,3.1-2.4c0.6,0.8,1.2,1.6,1.7,2.4h1.5c-0.6-1.1-1.3-2.2-2.1-3.2c1.7-1.5,3.2-3.2,4.5-5
			c0.6-2.1,1-4.4,1.1-6.7c2.3,0,4.5-0.3,6.7-0.9c1.9-1.2,3.6-2.7,5.1-4.4c0.3,0.2,0.5,0.4,0.8,0.6v-3.7c-0.3,0.2-0.7,0.4-1,0.4
			c-1.8,0.2-3.9-2.1-6.5-8.5c1.9,0.3,3.9,0.3,5.8,0.2c0.6,0,1.1-0.1,1.7-0.2v-1.3c-0.5,0.1-1.1,0.1-1.8,0.2
			c-6.3,0.5-6.9,0.4-7.5-6.2c4-4.8,5.6-8.2,6.2-10.4c0,0,0,0,0,0c0,0,0,0,0,0c0.5,1.2,1.5,2.8,3.1,4.7v-3.3
			c-1.4-2.5-2.4-5.4-2.8-8.4c1.1,1,2,2.2,2.8,3.3v-3.3c-0.6-0.4-1.2-0.8-1.8-1.2c0.6,0,1.2,0,1.8,0.1v-2c-0.6,0.1-1.3,0.3-1.9,0.4
			c0.6-0.6,1.3-1.2,1.9-1.8v-4.8c-0.8,1.9-1.8,3.8-3.1,5.6c0-4.4,1.1-8.6,3.1-12.3V789c-2.7,3.6-4,6.3-4.4,8.2
			c-0.9-2.1-3-5.2-7.7-9.3c-0.5-6.6,0.1-6.8,6.4-7.3c3-0.2,4.7-0.3,5.7,0.3v-1.5c-2-0.3-3.9-0.3-5.8-0.2c-1.9,0.1-3.8,0.5-5.7,1.1
			c1.4-5.8,3-9.2,5.1-9.4c2-0.1,4.2,2.9,6.4,8.5v-3.8c-0.9-1.6-2.5-3.7-5.6-6.5c2-2.2,3.8-3.8,5.6-5.1v-1.1
			c-2.4,1.4-4.7,3.1-6.7,5.3c-5.1-4.1-11.2-6.1-17.4-6c4.5-4.6,10.3-7.2,16.3-7.7c2.6-0.2,5.2,0,7.7,0.6v-1.4
			c-2.6-0.6-5.2-0.8-7.8-0.6c-6.8,0.5-13.3,3.6-18.1,9.1c-6.2,0.5-11.6,3.1-15.9,7c-5.7,0.6-11.2,3.1-15.7,7.3
			c-7.3,0-14,2.9-18.8,7.6c-4.8,4.7-7.9,11.3-8,18.6c-4.4,4.4-6.9,9.8-7.7,15.5c-4,4.1-6.6,9.6-7.3,15.7c-5.6,4.7-8.8,11.2-9.5,17.9
			C1256.8,856,1257.4,860.1,1258.9,864z M1283.3,854.5c-0.2,1.9-0.2,3.8,0.1,5.8c-5.5-2.3-8.5-4.6-8.4-6.6c0.2-2,3.6-3.7,9.5-4.9
			C1283.9,850.7,1283.5,852.6,1283.3,854.5z M1290.7,862.2c-6.6-0.7-6.7-1.3-6.1-7.6c0.6-6.3,0.8-6.9,7.4-6.3c4,4.8,7.1,7,9.2,7.9
			C1299.1,856.7,1295.6,858.3,1290.7,862.2z M1318.7,803.7c0,6.2,1,9.9,2,12c-2-1-5.7-2.1-11.9-2.2c-4.6-4.8-4.3-5.3,0.2-9.7
			C1313.5,799.3,1314,799,1318.7,803.7z M1315.3,799.2c5.6-2.8,3.8-1.6,3.5,2.7C1317.7,801,1316.5,800,1315.3,799.2z M1337.7,798.8
			c0.2-0.6,0.6-1.5,1.1-2.8c0.9,1.2,1.9,2.2,2.9,3.3c-1.7,0.2-2.8,0.6-3.5,0.7c-0.5,0.4-1.6,1.1-2.9,2.2c-0.1-1.5-0.2-2.9-0.5-4.3
			C1336.1,798.2,1337.1,798.5,1337.7,798.8z M1346.1,784.5c-3.1,2.4-5.7,5.4-7.5,8.8C1332.5,783.5,1333.7,779.2,1346.1,784.5z
			 M1335.4,803.9c1.4-1.4,2.5-2.3,3.3-2.8c1-0.3,2.4-0.5,4.3-0.7c4.8,4,8.2,5.6,10.4,6.2c-2,0.8-5,2.9-8.9,7.3
			c-5.9,0.1-9.4,1-11.4,1.9C1334.2,813.8,1335.2,810.2,1335.4,803.9z M1327.6,820.1c0.5-5.6,2.8-10.7,6.3-14.7
			C1333.5,810.9,1331.3,816,1327.6,820.1z M1343.4,829.1c-5.3-0.4-10.5-2.5-14.7-6.3C1334.3,823.2,1339.4,825.5,1343.4,829.1z
			 M1333.6,838.7c-3.4-4.1-5.6-9.2-6-14.8C1331.2,828.2,1333.2,833.4,1333.6,838.7z M1333,828.3C1333,828.3,1333,828.3,1333,828.3
			C1333,828.3,1333,828.3,1333,828.3c2,1,5.7,2.1,11.9,2.2c4.6,4.8,4.3,5.3-0.2,9.7c-4.5,4.4-5,4.7-9.7,0
			C1335,834,1334,830.3,1333,828.3z M1346.7,830.5c1.5-0.1,2.9-0.2,4.4-0.5C1349.1,835.9,1349.6,833.8,1346.7,830.5z M1332.8,822.1
			c9.2-2,9.9-5.3,12.6-6.3c2.6-1.4,5.5,0.3,13.1-5.3c-2.8,5.3-3.1,17-7.2,18.2C1347.6,830.9,1338.6,823.4,1332.8,822.1z
			 M1328.7,821.2c4.3-3.7,9.5-5.6,14.9-6C1339.4,818.8,1334.2,820.9,1328.7,821.2z M1346.2,814.1c3.8-3.8,8.7-6.4,14.3-7.3
			C1356.6,810.7,1351.6,813.3,1346.2,814.1z M1345.1,800.3c5.3,0,10.7,1.6,15.2,5C1354.8,805.3,1349.6,803.6,1345.1,800.3z
			 M1332.9,795.9c-3.8-0.9-7.8-0.9-11.6-0.1C1325.5,782.9,1329.6,784.8,1332.9,795.9z M1328.2,785c0.8-0.7,1.6-1.4,2.3-2
			c1-0.2,2-0.3,3-0.4c0.4,4.1,0.8,7.3,1.2,9.8C1333.1,790.5,1331,788,1328.2,785z M1326.9,816.1c-2.9-13.4-8.6-8.7-6-18.9
			C1344.8,791.5,1329,807.4,1326.9,816.1z M1326.1,820.1c-3.6-4.3-5.6-9.5-6-14.9C1323.6,809.3,1325.7,814.5,1326.1,820.1z
			 M1300.6,827.5c-11-3.6-12.8-7.7,0.1-11.6C1299.8,819.7,1299.8,823.7,1300.6,827.5z M1303.8,836.4c-1-1.1-2.1-2.1-3.2-3
			c1.3-0.5,2.2-0.9,2.8-1.1c-0.2-0.6-0.5-1.5-1-2.9c1.4,0.3,2.9,0.5,4.3,0.6c-1.1,1.2-1.8,2.3-2.2,2.8
			C1304.5,833.6,1304,834.7,1303.8,836.4z M1306.3,852.5c-10.8-8.4-12.2-1.1-16.7-10.6C1304.2,822.2,1302.3,844.5,1306.3,852.5z
			 M1302.2,815.5c10.2-2.4,5.4,3.2,18.7,6.4C1312.2,823.8,1296,839.3,1302.2,815.5z M1304.3,810c0.8,1.3,1.7,2.4,2.6,3.5
			C1302.6,813.7,1301.4,815.5,1304.3,810z M1310.3,814.9c5.3,0.4,10.5,2.5,14.7,6.3C1319.4,820.7,1314.3,818.4,1310.3,814.9z
			 M1325,822.7c-4.2,3.6-9.4,5.6-14.9,6C1314.2,825.3,1319.3,823.1,1325,822.7z M1326.1,823.8c-0.4,5.5-2.6,10.6-6.3,14.7
			C1320.2,833.3,1322.3,828.1,1326.1,823.8z M1308,802.8c-1.3,1.3-2.6,2.8-3.7,4.5c-2.7-5.3-3.6-9-2.1-10.5
			c1.5-1.4,5.1-0.5,10.4,2.4C1310.9,800.3,1309.4,801.5,1308,802.8z M1289.9,820.7c-9.5-10.2-10.5-24.1,10.4-24.4
			C1300.6,817,1312.2,799.9,1289.9,820.7z M1297.1,829.3c-2.5-0.4-5.6-0.9-9.8-1.4c0.1-1.1,0.3-2.1,0.5-3c0.6-0.7,1.3-1.5,2.1-2.3
			C1292.8,825.5,1295.2,827.6,1297.1,829.3z M1297.9,833.1c-3.5,1.8-6.5,4.3-9,7.4C1283.9,828,1288.2,826.8,1297.9,833.1z
			 M1291,846.9c-1.5-0.1-2.9,0-4.4,0.2C1289,841.3,1288.4,843.4,1291,846.9z M1292.8,862.3c4.4-3.1,9.7-4.8,15.3-4.7
			C1303.5,860.9,1298.1,862.4,1292.8,862.3z M1294.1,848.6c5.3,0.9,10.2,3.4,14.1,7.5C1302.7,855.2,1297.8,852.4,1294.1,848.6z
			 M1304.8,839.8c3.2,4.5,4.8,9.8,4.7,15.3C1306.2,850.5,1304.7,845.2,1304.8,839.8z M1304.9,837.7c0.2-2,0.4-3.3,0.8-4.3
			c0.5-0.9,1.5-1.9,2.9-3.3c6.3,0,9.9-1,12-2c-1,1.9-2,5.4-2.2,11.3c-4.5,3.8-6.6,6.8-7.5,8.8
			C1310.4,846.1,1308.9,842.6,1304.9,837.7z M1311,855.3c1-5.6,3.7-10.5,7.6-14.1C1317.6,846.6,1315,851.5,1311,855.3z M1312,856.5
			c4.6-3.3,10-4.8,15.3-4.7C1322.9,854.9,1317.6,856.6,1312,856.5z M1314.6,853.3c5.8-7.4,4.2-10.4,5.6-13c1.1-2.7,4.5-3.3,6.6-12.5
			c1.3,5.9,8.6,15,6.2,18.6C1331.7,850.6,1320,850.6,1314.6,853.3z M1330.7,850.8c1.1-1,2.1-2.1,3-3.2
			C1336,853.4,1335,851.5,1330.7,850.8z M1334.3,846.4c0.3-1.4,0.5-2.9,0.6-4.4C1338.1,845,1340.3,844.6,1334.3,846.4z
			 M1351.2,855.2c-1.2,1.6-2.6,3.1-4.3,4.5c-6-6.9-9.3-10.2-11-11.8c2.3,0.2,6.9,0.8,16.1,1.2C1352,851.2,1351.7,853.3,1351.2,855.2
			z M1351.5,847.1c-1.2,1.2-4.3,0.9-10.4-2.3c1.7-1,3.2-2.2,4.6-3.6c1.4-1.4,2.6-2.9,3.7-4.5
			C1352.4,842.8,1352.7,845.9,1351.5,847.1z M1352.3,829.4c1.2-0.9,2.3-1.9,3.3-2.9C1356.1,830.8,1358.1,831.8,1352.3,829.4z
			 M1364.2,842.9c-1.4,1.6-3,3-4.6,4.2c-1.9,0.4-4,0.7-6.2,0.7c-0.1-9.2-0.6-13.8-0.8-16.1C1354.2,833.3,1357.3,836.7,1364.2,842.9z
			 M1361.6,807.8c0,5.6-1.8,10.9-5,15.2C1356.7,817.7,1358.3,812.4,1361.6,807.8z M1361.4,804.1c-4-4-6.4-9-7.2-14.3
			C1357.9,793.6,1360.5,798.5,1361.4,804.1z M1357.8,802.1c-7.9-4.2-30.2-2.7-10.3-16.9C1356.9,789.8,1349.6,791.1,1357.8,802.1z
			 M1352.7,782.2c-0.2,1.5-0.3,2.9-0.2,4.4C1349.1,784,1346.9,784.6,1352.7,782.2z M1358.5,769.1c-13.1,16.1,6.8,10.5-23.7,12
			C1334.1,767.2,1342.2,755.9,1358.5,769.1z M1324.8,770.4c3.7-3.5,8.6-6,14.1-6.7c-3.7,4.9-5.7,11-5.4,17.6
			c-1.2,0.1-2.3,0.3-3.5,0.6c-0.9,0.7-1.9,1.4-2.7,2.2c-4.7-4.6-10.7-7.1-16.8-7.5C1314.6,772.9,1319.7,770.9,1324.8,770.4z
			 M1326.3,785c-21.2,21.9-3.9,10.7-24.6,9.9C1302.4,774,1316.2,775.3,1326.3,785z M1290.7,785.1c4.3-4.2,10.1-6.9,16.5-7.2
			c-4.1,4.5-6.7,10.5-6.9,17c-6.6,0.1-12.5,2.5-17.2,6.5C1283.6,795,1286.4,789.3,1290.7,785.1z M1275.3,818.9
			c0.6-5.1,2.7-10.1,6.4-14.2c0.3,6.1,2.7,12.1,7.2,16.9c-0.8,0.9-1.6,1.8-2.3,2.7c-0.3,1.1-0.5,2.3-0.7,3.5
			c-6.5-0.5-12.7,1.4-17.7,5C1269.1,827.3,1271.7,822.5,1275.3,818.9z M1285.8,829.1c-2.2,30.4,3.9,10.7-12.5,23.4
			C1260.4,836,1271.9,828.1,1285.8,829.1z"/>
		<path class="st9" d="M1039.4,832.4c7.2,4.1,16.4,18.3,27.9,31.6h5.4c-11.7-12.7-21.3-27.3-28.2-32.9c20.1-10.8,68.5-75,102.2-19
			c-4,14.6,0.3,4.5-4.1-1c-3.2-4-14.4-4.7-10,13c-17.2-30.2-39.2-12-7.7,9.3c-10.7-4.2-29.6-10.3-33.1,0.7
			c-8.4-13.9-18.5-14.2-28.1-2.6c-0.3-2.6-1.9-4.6-4.2-4.9c-4.8-0.6-6,2.3-5.4,5.4c-1.2,2.9-0.5,5.9,4.3,6.3c2.3,0.2,4.3-1.5,5-4
			c7.2,13.3,17.2,15,28.1,2.9c1.3,11.5,21,9.2,32.3,7.1c-16.1,6.8-21,15.1-19.3,19.6h3.1c-1.2-1.9-1.1-4.8-0.7-5.6
			c3.8-7.8,23.4-14.7,30.8-16.8c-10.3,13.2-17.3,19.7-22,22.4h3.7c3.1-2,6.6-4.9,10.1-9c-1.7,3.7-2.5,6.7-2.6,9h1.8
			c0.5-6.6,7.5-17.3,10.8-21.5c0.2,10.8-0.6,17.5-1.9,21.5h2.5c0.7-2.4,0.4-3.6,0.6,0h5.2c-0.5-7.5-0.6-15.2-0.1-23
			c3.5-27.5,14-52.1,25.9-71.7c7.8-21.6,20.4-45.2,39.6-65.2c20.4-18.8,44.2-30.9,66-38.3c19.9-11.5,44.7-21.5,72.2-24.4
			c5.5-0.3,11-0.2,16.4,0.1v-6.5c-3.8,0.4-8.6,0.5-14.7,0.2c2.9-2.2,9.1-6.2,14.7-8.5v-2.1c-0.7,0.3-1.3,0.5-2,0.8
			c0.7-0.6,1.4-1.2,2-1.8v-3.4c-3.7,3.6-8.8,7.9-15.7,13c2-6.8,8.4-24,15.7-29.4v-1.7c-4,2.7-8.5,8.1-12.6,17.2
			c2.3-11.3,5-30.9-6.5-32.5c12.3-10.7,10.8-20.7-2.3-28.2c2.5-0.7,4.2-2.7,4.1-5c-0.3-4.8-3.3-5.5-6.2-4.4
			c-3.1-0.6-5.9,0.5-5.5,5.3c0.2,2.3,2.3,4,4.8,4.3c-11.8,9.4-11.7,19.5,2,28.2c-11.1,3.3-5.4,22.2-1.4,33.1
			c-20.6-31.9-39.3-10.3-9.5,7.5c-17.6-4.7-17.1,6.5-13.2,9.8c5.4,4.5,15.6,0.4,0.9,4.1c-55.4-34.8,9.9-81.9,21.1-101.8
			c4.3,5.5,14.2,12.8,24.2,21.5v-5.2c-10.2-8.5-19.6-15.6-22.8-21.4c-1.4-2.5-1.8-3.8-2.2-3.8c-0.3,0.1-0.6,1.4-1.5,4.1
			c-5.8,16.2-52.4,47.8-43.7,82.2c-8.9-19.5-32.9-25.5-53.8-29.2c-10.9,18.1-22.2,40.2-13.4,59.7c-20.2-29.2-74.7-14.9-90.6-21.2
			c-2.7-1.1-3.8-1.7-4.1-1.6c-0.2,0.3,0.5,1.5,1.5,4.1c6,16.1-9.5,70.3,19.3,91.1c-19.3-9.2-41.6,1.6-60,12.2
			c3.3,20.9,8.8,45,28.1,54.4c-34.2-9.4-66.8,36.6-83.1,42c-2.7,0.9-4.1,1.1-4.1,1.5C1035.6,830.5,1036.9,831,1039.4,832.4z
			 M1064.9,833.1C1064.9,833.1,1064.9,833.1,1064.9,833.1C1064.9,833,1064.9,833,1064.9,833.1c-0.4-0.5,13.5-18.7,25.8,2.5
			C1074.5,854,1064.4,833.4,1064.9,833.1z M1093.4,835.9c2.3-13.2,29.2-1.6,42,4.1C1121.7,843.1,1093.1,849.2,1093.4,835.9z
			 M1110.9,816.4c-0.7-2.8,4.6-22,27,22.5C1131.1,835.4,1113.1,824.8,1110.9,816.4z M1140,838.3c-2.7-5.2-8.3-19.3-6-25.1
			C1135,810.7,1147.8,802.8,1140,838.3z M1343.3,560.4C1343.3,560.4,1343.3,560.4,1343.3,560.4
			C1343.4,560.4,1343.4,560.4,1343.3,560.4c0.4-0.5,20.8,10,2,25.8C1324.4,573.4,1342.9,559.9,1343.3,560.4z M1345.5,588.8
			c13.4,0,6.6,28.5,3.2,42C1343.3,618,1332.3,590.9,1345.5,588.8z M1325.7,606c8.4,2.3,18.6,20.5,21.9,27.5
			C1303.6,610.1,1322.9,605.3,1325.7,606z M1322,629c5.8-2.2,19.8,3.7,24.9,6.5C1311.4,642.5,1319.5,629.9,1322,629z M1298,623.5
			c3.3,7.2,9.1,13.8,17.4,19.6C1280.5,653.1,1306,655.4,1298,623.5z M1148.2,806.9c-5.6-8.4-12.1-14.4-19.2-17.8
			C1160.7,797.7,1158.9,772.2,1148.2,806.9z M1165.5,766.3c-15.3,24.3-27.6,10.6-4.8-2.3C1156.5,738.2,1174.9,739.2,1165.5,766.3z
			 M1160.3,723.5c7.2,3.4,15.8,4.7,25.9,3.8C1165.9,757.4,1186.9,742.8,1160.3,723.5z M1182.3,712.3c3.1-5.4,17.6-9.9,23.3-11.1
			C1182.8,729.6,1181,714.7,1182.3,712.3z M1174.5,666.5c10.2-8.6,23.4,17.5,29.5,30.1C1191.5,690.2,1165.7,676.5,1174.5,666.5z
			 M1172.6,664.5c-24.2,3.7-18.7-18.5-18.1-18.5c0,0,0,0,0,0c0,0,0,0,0,0C1154.5,645.4,1176.8,640.4,1172.6,664.5z M1200.5,662.8
			c1.2-2.6,17.6-13.9,6.2,34.6C1203.7,690.3,1196.7,670.7,1200.5,662.8z M1204.8,699.3c-48.7,10.4-37-5.8-34.4-7
			C1178.3,688.8,1197.8,696.1,1204.8,699.3z M1208.7,698.2c1.3-5.7,6.1-20.1,11.5-23C1222.6,673.9,1237.4,676.1,1208.7,698.2z
			 M1235.1,679.5c1.1-10.1,0-18.8-3.2-26C1250.6,680.5,1265.6,659.8,1235.1,679.5z M1274.5,659.6c-27.3,8.8-27.9-9.6-2.2-4.9
			C1285.6,632.2,1299.1,644.8,1274.5,659.6z M1270.8,651.3c-29.2-11.4-23.8-26.8-6.7-14.7C1266.3,615.8,1281.4,621.9,1270.8,651.3z
			 M1232.5,616.9c2.5-8.2,7-16.5,11.6-24.3c9,1.6,18.2,3.8,26,7.3c31.3,12.7,30.1,47.6,15.6,55c11.4-9.7,1.1-23.2-11.3-6.5
			c10.5-28-7.3-34.4-11.5-14.5c-17.7-9.9-24.6,7.7,3.4,18.2c-20.8-1.7-17.4,15-2.6,12.8C1248.4,670.9,1221.4,648.7,1232.5,616.9z
			 M1140.1,631.4c22.3,4.7,100.7-13.5,90.5,51.1c-12.5,8.6-2.7,3.6-2.5-3.4c0.1-5.1-8-12.9-16,3.5c6.2-34.1-22.3-34.4-11.9,2.2
			c-5.5-10.1-16-26.9-25.8-20.7c2.5-16-5-22.8-19.9-20.1c1.4-2.1,1.5-4.8,0-6.4c-3.3-3.5-6.1-2.1-7.6,0.6c-2.8,1.5-4.2,4.2-0.8,7.6
			c1.6,1.6,4.3,1.6,6.4,0.2c-3,14.8,3.6,22.5,19.7,20.3c-6.4,9.7,10.2,20.5,20.2,26.2c-36.3-11.2-36.7,17.4-2.5,11.8
			c-16.5,7.7-8.9,15.9-3.8,15.9c7,0,12.2-9.7,3.3,2.6C1124.6,731.8,1144.4,653.8,1140.1,631.4z M1105.9,760.6
			c-3.3-7.9-5.3-17.1-6.7-26.1c7.9-4.5,16.3-8.8,24.5-11.1c32.1-10.4,53.7,17.1,47.3,32.1c2.5-14.8-14.1-18.5-12.8,2.3
			c-9.9-28.2-27.7-21.6-18.1-3.7c-19.9,3.8-13.9,21.7,14.3,11.8c-17,12-3.7,22.7,6.2,11.4C1152.8,791.7,1117.9,792.1,1105.9,760.6z
			 M1157.4,762.4c-29.7,10-35.4-5.2-14.6-7C1131.1,738,1146.6,733,1157.4,762.4z"/>
	</g>
	<g>
		<path class="st9" d="M212.4,13.3c7.9,0.3,8.1-12.1,0-11.9c1.5,0,2.7-0.6,3.7-1.5h-2.4c-1.3,0.5-2.8,0.6-4,0h-1.4
			c1.1,1,2.5,1.5,4.1,1.5c-5.9,0.2-4.6,6.6-4.9-1.5h-2.9c0.2,4.6,0.3,9.3,0,14c-0.6-5.7-2.1-10.2-4.1-14h-2.8
			c3.2,6.3,4.3,13.8,3.6,21.2c-2,20.1-18,38.7-45.1,27.9c-5.9-2.8-10.7-5.6-15.3-12.1c11.2,3.1,19.5-6.7,25.3-16.1
			c0.9-1.4,1.2,2.9,5.5,3.3c2.9,0.3,3.3-1.2,3.2-0.4c-0.8,7.7,10.9,8.8,11.6,1.1c0-0.2,8.3,3.7,9.3-4c0,0,0-0.1-0.1-0.3
			c0.1-0.2,0.1-0.3,0.1-0.3c0.5-7.7-8.3-5.5-8.3-5.7c0.8-7.7-10.9-8.8-11.6-1.1c-0.1,0.8-0.2-0.7-3.1-1c-4.3-0.4-5.4,3.8-6,2.2
			c-1.9-5.2-4.5-10.7-8-14.7H155c5,4.4,7.8,12,10,17.4c0,0.1-0.1,0.1-0.1,0.2c0,0.1,0.1,0.1,0.1,0.2c-4.5,6.8-10.8,17.6-20.7,17
			c-7.6-0.4-10.1-10.4-9-20.1c0.5-5.7,2.2-11.3,5-14.7h-3.2c-0.5,0.9-1,1.7-1.4,2.7c-0.1-2-0.3-2.2,0.4-2.7h-3.6
			c0.1,1.5,0.2,3.1,0.2,4.8c-3.6-0.2-6.9-2.1-9.1-4.8h-3.3c0.8,1.5,2,2.8,3.3,3.9c2.6,2.2,4.5,3.1,5.6,3.4c-1.2,0.3-3.1,1.2-5.7,3.4
			c-1,0.8-1.8,1.7-2.5,2.6c0.5,1,1.1,2.1,1.9,3.1c2.1,2.7,3.8,3.9,4.9,4.4c-1.2,0.1-3.2,0.6-6.2,2.2c-5.8,3.1-9.1,9.9-6.6,17
			c1,3.4,2.2,5.1,3.1,5.9c-1.1-0.4-3.2-0.7-6.7-0.3c-3.8,0.5-7,2.3-9.2,5c-0.7,3.4-0.1,7.1,1.8,10.3c1.9,3,3.4,4.4,4.4,5.1
			c-1.2-0.1-3.3,0-6.5,1.3c-7.1,2.5-10.3,9.3-9.1,15.8c0.6,3.4,1.4,5.2,2.1,6.2c-1.1-0.5-3.1-1.1-6.5-1.1c-1.3,0-2.5,0.1-3.6,0.4
			c-0.3,1.1-0.5,2.3-0.5,3.6c-0.1,3.4,0.4,5.4,0.9,6.5c-1-0.7-2.8-1.6-6.2-2.3c-6.4-1.3-13.3,1.8-16,8.8c-1.4,3.2-1.6,5.3-1.5,6.5
			c-0.6-1-2-2.5-5-4.5c-3.2-2.1-6.8-2.7-10.3-2.1c-2.7,2.2-4.7,5.3-5.2,9.1c-0.5,3.5-0.2,5.6,0.1,6.7c-0.8-0.9-2.5-2.1-5.9-3.2
			c-7-2.6-13.9,0.5-17.1,6.2c-1.7,3-2.3,4.9-2.4,6.1c-0.5-1.1-1.7-2.8-4.3-5c-1-0.8-2-1.5-3-2c-0.9,0.7-1.8,1.5-2.7,2.4
			c-2.3,2.6-3.2,4.4-3.5,5.6c-0.3-1-1-2.6-2.6-4.8v7.9c0,0.1,0,0.2,0,0.3c0,0,0,0,0,0v4.8c2.9-1.1,6.4-1.8,9.9-2
			c9.8-0.9,19.7,1.8,19.9,9.4c0.4,9.9-10.6,16-17.4,20.3c-0.1,0-0.1-0.1-0.2-0.1c-0.1,0-0.1,0.1-0.2,0.1c-3.5-1.5-8.1-3.3-12-5.9
			v3.2c2.9,1.7,6.1,3.2,9.2,4.4c1.6,0.6-2.6,1.6-2.3,6c0.2,2.9,1.7,3,0.9,3.1c-7.7,0.6-6.8,12.2,0.9,11.6c0.2,0-2.2,8.8,5.5,8.4
			c0,0,0.1-0.1,0.3-0.1c0.2,0,0.3,0,0.3,0.1c7.7-0.8,3.9-9.2,4.2-9.2c7.7-0.6,6.8-12.2-0.9-11.6c-0.8,0.1,0.7-0.3,0.4-3.2
			c-0.3-4.3-4.7-4.7-3.2-5.6c9.5-5.6,19.5-13.7,16.6-24.9c6.4,4.7,9.2,9.6,11.8,15.5C54,186.5,35,202.1,15,203.7
			c-5.1,0.4-10.2-0.1-15-1.6v3c2.3,0.8,4.9,1.4,7.7,1.7c-2.6,0.1-5.2,0.1-7.7,0v3.1c0.4-0.1,0.7-0.2,1.1-0.1
			c8.1,0.1,4.3,11.4-1.1,9.9v0.8c3.3,0.5,7-1.5,6.9-5.8c0.1,5.3,5.8,6.8,9.3,4.7c3.7,1.5,9.1-0.8,8.4-6.1c1.1,7.8,13.3,5.9,11.7-2
			c1.1,5.4,8.3,6.3,11,1.6c0.7-1.2,0.9-2,1-2.6c0.4,0.5,1.1,1,2.3,1.6c4.8,2.6,10.4-2.1,8.4-7.2c3.2,8.5,11.9,2,11.8-3.3
			c4,5.1,13.3-0.3,9.7-6.7c1.8,3.2,5.1,3.5,7.6,2.3c2.6-1.1,4.5-3.8,3.3-7.2c2.5,6.9,12.7,3.5,11.5-2.9c3.9,3.6,14.5,1.3,10.2-6.7
			c2.6,4.8,9.8,3.7,11-1.6c0.3-1.3,0.3-2.2,0.2-2.8c0.5,0.3,1.4,0.7,2.7,0.9c5.3,1.1,9.4-4.9,6.1-9.3c4.9,6.5,14.4-1.5,9.2-7.4
			c3.5,4,8.8,1.5,10.1-2.3c3.8-1.2,6.5-6.5,2.6-10.1c5.9,5.3,14-4.1,7.6-9.1c4.3,3.4,10.4-0.6,9.4-5.9c-0.2-1.3-0.6-2.1-0.9-2.7
			c0.6,0.1,1.5,0.1,2.8-0.2c5.4-1.1,6.6-8.3,1.8-11c7.9,4.5,10.5-6.1,6.9-10.1c6.4,1.3,10-8.8,3.1-11.4c3.5,1.3,6.2-0.5,7.3-3.1
			c1.3-2.5,1-5.8-2.2-7.7c6.3,3.7,12-5.4,6.9-9.6c5.3,0.3,11.9-8.3,3.5-11.7c5,2,9.9-3.4,7.4-8.3c-0.6-1.2-1.1-1.9-1.6-2.3
			c0.6-0.1,1.5-0.4,2.6-1c4.8-2.6,4-9.8-1.3-11c7.9,1.8,10.1-10.4,2.3-11.6c5.2,0.8,7.7-4.5,6.3-8.3
			C219.1,19.3,217.7,13.5,212.4,13.3z M176.2,23.9c0.4-3.8,5.6-6.4,8.7-1C187.2,29.9,175.5,31,176.2,23.9z M190.4,15.6
			c3,0.3,4.3,2.7,4,4.9c-0.2,2.2-1.9,4.3-4.9,4c-2.9-0.3-4.2-2.7-4-4.9C185.8,17.4,187.5,15.3,190.4,15.6z M177.2,13.6
			c0.7-7.1,12-3.8,8.4,2.6C181.5,21,176.9,17.4,177.2,13.6z M167.8,17.9c0-0.1,0-0.1,0-0.2c0.4-3.8,5.4-5.3,7.9-2.2
			c1,1.2,1.4,2.3,1.3,3.3c-0.1,1-0.7,2-1.9,3c-3,2.5-7.7,0.1-7.3-3.7C167.8,18,167.8,17.9,167.8,17.9z M9.6,134.8
			c-7.4-0.2-5.5-5.2-0.6-8.4C14.3,128.8,16.9,133.4,9.6,134.8z M7.9,179.5c3.8-0.3,7.3,4.4,2.5,8.4C3.9,191.4,0.8,180,7.9,179.5z
			 M14.4,196.8c-2.2,0.2-4.6-1.1-4.8-4.1c-0.2-2.9,1.9-4.6,4.1-4.8c2.2-0.2,4.6,1.1,4.8,4.1C18.8,195,16.7,196.7,14.4,196.8z
			 M18.2,178.7c7.1-0.5,5.8,11.1-1.1,8.7C11.7,184.2,14.4,179,18.2,178.7z M16.1,177.5c-1,1.2-2.1,1.7-3,1.8c-1,0-2.1-0.3-3.3-1.4
			c-3-2.6-1.4-7.6,2.4-7.8c0.1,0,0.1,0,0.2,0c0.1,0,0.1,0,0.2,0C16.4,169.8,18.7,174.5,16.1,177.5z M216,3.9
			c6.9,6.7-8.4,12.9-8.3,3.5C207.7,3.2,212.9,0.9,216,3.9z M207.6,10.7c1,1.5,2.8,2.6,4.8,2.6C206.3,13.1,207.4,20,207.6,10.7z
			 M210.7,31c-2-0.3-3.9,0.4-5.2,1.7C207.1,23.4,204.7,30,210.7,31z M208.4,42.6c-1.9-0.4-3.9,0.1-5.3,1.3
			C205.4,34.8,202.4,41.2,208.4,42.6z M203.2,28.8C200,50.6,192,70.7,180.6,88.2c-6.4,19.9-17.1,38.6-32.1,54.8
			c18.5-27.7-8.7-47-3.9-46.2c12,2,23.9-2.1,32.1-10.5c1.4-11.6-2.8-23.5-11.9-31.6C161.2,51.5,193.2,60.6,203.2,28.8z M201.4,50.3
			c1.1,3.2,4.2,3.8,3.9,3.8C199.5,52.3,198.7,59.2,201.4,50.3z M201.3,65.2c-1.8-0.7-3.8-0.5-5.4,0.5
			C199.5,57,195.6,62.9,201.3,65.2z M193.2,71.7c0.3,1.8,0.9,3,1.7,3.8C190.7,74.6,189.6,79.3,193.2,71.7z M190.8,86.5
			c-1.6-1-3.6-1.1-5.5-0.3C190.4,78,185.5,83.3,190.8,86.5z M182,93.2c0.6,2,1.9,3.4,3.7,4.1C179.8,95.1,178.8,102.2,182,93.2z
			 M179.7,107.3c-1.1-0.1-2.5,0.2-4.1,1.1C179.3,100.7,176.3,104.5,179.7,107.3z M172.6,114.2c0.2,1.8,1.3,3.5,3,4.5
			C170.3,115.7,168.2,122.5,172.6,114.2z M169.5,128.8c0.2,0.2-2.2-1.8-5.4-0.7C169.4,120.5,164.4,125.4,169.5,128.8z M160.2,133.5
			c0,1.8,0.8,3.7,2.3,4.9C157.7,134.6,154.6,141,160.2,133.5z M152.9,142.4c-0.2,1.8,0.5,3.7,2,5.1
			C150.4,143.4,146.7,149.4,152.9,142.4z M174.3,85.2c-8.6,9.4-22.1,13.9-38.2,6.1c-5.8-3.2-10.6-6.6-14.8-13.9
			c8.4,3.4,15.5-1,21.4-7.3c1.2-8.5,0.2-16.8-7.7-21.2c8.3-1.4,14,0.3,20.1,2.8C171.3,59.2,176.3,72.6,174.3,85.2z M113,71.4
			c1.3,1.4,2.6,2.5,4.2,3.7c3.5,8.3,6.7,11.2,7.9,12c-1.3-0.5-5.3-1.4-13.5,0.1C101.9,83.5,105.3,90.7,113,71.4z M106.6,88.5
			c-1.2,0.4-2.4,0.9-3.6,1.4C104.6,87.7,103.9,88,106.6,88.5z M115.5,70c-0.2-0.2-0.4-0.3-0.6-0.5C114.2,68.8,114.4,65.7,115.5,70z
			 M139.6,68.6C124.4,83.2,115.5,75,117.5,58C129.5,45.8,141.5,47.5,139.6,68.6z M124.9,48.7c0.3,0,0.5,0.1,0.8,0.1
			C121.5,50.7,123.8,48.6,124.9,48.7z M133.3,26.6c0.3,1.3,0.7,2.5,1.1,3.7C132.4,28.6,132.6,29.3,133.3,26.6z M136.6,35.1
			c4,7.3,7.2,9.9,8.4,10.6c-1.4-0.4-5.7-1.1-14.4,1.4c-1.9-0.5-3.6-0.8-5.5-1C135.4,27.9,127.6,29.8,136.6,35.1z M124.2,13.6
			c3.3-4.8,8.2-6.6,8.3,0.8C131,21.6,126.4,19,124.2,13.6z M117,35.1c0-7.1,7.1-12.2,13.8-11.2C122.9,58.9,116.9,39.7,117,35.1z
			 M106.4,59.6c-1.5-2.4-1.8-5-1.3-7.5c1.7-1.9,3.9-3.3,6.7-3.7c3-0.3,5.6,0.2,7.8,1.4c-1.8,2.7-3.5,4.9-5,6.8
			c-0.5,2.4-1.2,5.1-2.2,8.2C110.1,63.8,108.1,62.1,106.4,59.6z M99.4,71.9c3.6-2.9,22.3-10.3-0.1,17.8
			C94.3,85.1,93.9,76.4,99.4,71.9z M87.1,91c5.6-1.6,10.5,0.3,5.9,6C87.2,101.5,85.4,96.5,87.1,91z M94.9,99
			c6.9-7,16.2-11.3,21.3-5.6c6.6,7.3,2.2,19-0.3,26.8c-0.1,0-0.1,0-0.2,0.1c0,0.1,0,0.1-0.1,0.2c-7.8,2.3-19.6,6.5-26.8-0.3
			C83.3,114.9,87.8,105.7,94.9,99z M132.5,132.5c-6.2,1-7.4-4.8-4.7-7.4C132.9,120.1,139.4,129.9,132.5,132.5z M136.6,135.1
			c2.1,2.2,1.5,4.8-0.1,6.3c-1.6,1.6-4.2,2.1-6.3,0c-2.1-2.1-1.5-4.7,0.1-6.3C131.9,133.5,134.5,133,136.6,135.1z M127.7,137.2
			c-2.7,6.8-12.4,0.1-7.3-4.9C123.1,129.7,128.8,131,127.7,137.2z M124.3,128.9c-0.7,0.7-1.8,1.1-3.4,1.1c-3.9,0-6-4.9-3.2-7.5
			c0-0.1,0.1-0.1,0.1-0.1c0,0,0.1-0.1,0.2-0.1c2.7-2.7,7.5-0.6,7.5,3.4C125.4,127.1,124.9,128.2,124.3,128.9z M114.7,123.5
			c1.6-0.5-1,3,2.1,6.1c2,2,3.3,1.2,2.7,1.8c-5.5,5.4,2.6,13.8,8.2,8.3c0.2-0.2,4,8.2,9.7,2.9c0,0,0.1-0.1,0.2-0.3
			c0.2-0.1,0.2-0.2,0.3-0.1c5.4-5.6-2.9-9.6-2.7-9.7c5.5-5.4-2.7-13.7-8.2-8.4c-0.6,0.6,0.3-0.7-1.7-2.7c-3-3.1-6.6-0.6-6-2.2
			c3.7-10.4,6.2-23-3.3-29.8c7.9-0.6,13.2,1.5,19,4.3c25.4,14.4,20.9,38.5,6.5,52.6c-14.4,14.1-38.6,18.1-52.5-7.6
			c-2.7-5.9-4.6-11.2-3.9-19.1C91.5,129.2,104.2,127,114.7,123.5z M142.2,159.9c-1.3-1.5-3.2-2.2-5.1-2.1
			C144.3,151.8,138.2,155.3,142.2,159.9z M84.3,110.4c-0.5-2.7-0.8-1.9,1.5-3.6C85.2,108,84.7,109.2,84.3,110.4z M67.8,102.8
			c4.6-5.4,13.3-4.8,17.8,0.3C57,124.9,64.8,106.3,67.8,102.8z M82.4,128.9c-0.8-1.3-3.7-4.5-11.9-8.2c-1.1-1.7-2.3-2.9-3.6-4.3
			c19.5-7.3,12.4-10.8,15.9-1.1C81.2,123.5,82,127.6,82.4,128.9z M65.1,118.3c0.2,0.2,0.3,0.4,0.5,0.6
			C61.3,117.7,64.3,117.6,65.1,118.3z M63.6,143c-21.1,1.4-22.6-10.6-10.1-22.4C70.5,119.1,78.6,128.1,63.6,143z M44,114.8
			c0.4-2.8,1.9-5,3.8-6.6c2.5-0.4,5.1,0,7.5,1.5c2.5,1.7,4.2,3.7,5.1,6.1c-3.1,0.9-5.8,1.5-8.2,2c-1.9,1.5-4.2,3.1-6.9,4.9
			C44.1,120.4,43.6,117.8,44,114.8z M44.2,128.6c0-0.3-0.1-0.5-0.1-0.8C44,126.8,46.1,124.6,44.2,128.6z M30.6,119.7
			c4.6,0,23.7,6.4-11.5,13.6C18.3,126.5,23.6,119.6,30.6,119.7z M21.8,135.8c2.7-0.6,2-0.9,3.7,1.2C24.3,136.6,23,136.2,21.8,135.8z
			 M40.6,147.9c-0.7-1.2-3.2-4.5-10.4-8.6c-5-9.1-7.1-1.3,11.2-11.2c0.1,1.9,0.4,3.6,0.9,5.5C39.6,142.1,40.2,146.5,40.6,147.9z
			 M46.3,158.1c-2.3-6.2-3.9-11.9-2.3-20.2c4.3,8,12.5,9.2,21.1,8.1c6.4-5.7,11-12.7,7.8-21.2c7.3,4.3,10.5,9.2,13.6,15.1
			c7.5,16.3,2.7,29.7-6.9,38.1C66.9,179.7,53.6,174.5,46.3,158.1z M4.3,209.8c9.4,0,2.5-1.2,2.5,4.8C6.8,212.6,5.8,210.9,4.3,209.8z
			 M22.6,216.9c-2.2,2.9-4.8,2.6-6.5,1.1c-1.5,1.7-4,2.4-6.6-0.1c-3-2.8-1.2-8.1,3.2-8.4c1.2,0,2.1,0.2,2.8,0.6
			c0.7-0.5,1.6-0.8,2.7-1C22.5,208.7,25.1,213.7,22.6,216.9z M24.6,213.3c-0.8-6-7.5-3.8,1.8-5.2C25.1,209.4,24.3,211.3,24.6,213.3z
			 M34.5,215.1c-5.4,7.9-14.2-6-4.9-7.5C33.7,206.9,36.9,211.6,34.5,215.1z M36.3,211.2c-1.3-6-7.7-3.2,1.4-5.2
			C36.4,207.4,35.9,209.3,36.3,211.2z M46.4,212.3c-4.7,8.4-14.7-4.5-5.5-7.1C44.9,204.1,48.4,208.7,46.4,212.3z M47.8,208.4
			c0,0.2-0.5-2.8-3.7-4C53.1,201.9,46.1,202.5,47.8,208.4z M57.8,208.7c-4.2,8.8-14.9-3.9-6-6.7C55.9,200.7,59.7,204.9,57.8,208.7z
			 M59,204.6c-2.2-5.8-8.1-1.9,0.6-5.4C58.6,200.7,58.3,202.7,59,204.6z M60,204.2c-2.2-5.9,6.2-9.5,9-3.7
			C71.7,206.3,62.3,210.4,60,204.2z M69.4,198.4c-0.8-0.8-2.1-1.4-3.8-1.8C73.4,193.2,68.6,194.1,69.4,198.4z M80,198.8
			c-2.7,9.4-15.5-1.5-6.9-5.7C76.7,191.2,81.1,194.7,80,198.8z M80.2,189.1c-0.8,1.9-0.7,3.8,0.2,5.5
			C77.4,189.2,72,193.9,80.2,189.1z M87.7,196c-3.3,1.4-8-0.9-6.8-5.6c0.4-1.8,1.5-2.8,2.7-3.3c1.2-0.6,2.7-0.7,4.3,0.2
			C92.2,189.4,90.9,194.5,87.7,196z M91.3,189.7c-0.6-1.8-2-3.2-4-3.8C96.4,182.8,89.3,183.8,91.3,189.7z M94.8,192
			c-3.9-1.8-3.6-7.5,0.3-8.9C103.9,179.4,103.7,196.1,94.8,192z M101.5,183.9c-2.7-3.4-6.5-0.5,1.2-4
			C101.8,181.4,101.5,182.7,101.5,183.9z M103.4,184.9c-2.6-5.9,5.7-9.8,8.7-4.3C115.2,186.4,106,190.8,103.4,184.9z M108.6,177
			c8.4-4.3,1.6-2.3,4.5,3.1C112.1,178.3,110.4,177.2,108.6,177z M82.4,184.4c-17.7,11.1-38,18.6-59.8,21.4
			c32-9.4,23.6-41.6,26.7-37.9c7.9,9.3,19.7,13.8,31.4,12.6c8.6-8,13-19.9,11.2-31.9c-0.7-4.8,18,22.7,46.1,4.8
			C121.4,168.1,102.4,178.4,82.4,184.4z M116.9,181.9c-4.1-1.2-4.8-6.7-1.1-8.9C123.8,168.1,126.2,184.5,116.9,181.9z M122.7,168.7
			c-1.2,3.2,0.7,5.6,0.6,5.4C119.9,169,114.9,173.8,122.7,168.7z M127.1,175.6c-4.1-0.8-5.1-6.5-1.7-8.8
			C133.4,161.6,136.6,177.6,127.1,175.6z M128.1,164.9c7.6-5.5,1.2-2.5,4.8,2.4C131.8,165.8,130,164.9,128.1,164.9z M137.1,168.6
			c-4.3-0.5-5.7-6-2.4-8.7C141.9,153.9,146.6,169.7,137.1,168.6z M155.7,151.6c0.1,3.6-2,5.1-4.3,5.1c-0.1,2.3-1.5,4.4-5.2,4.2
			c-4.1-0.2-6.1-5.5-3-8.5c0.9-0.8,1.7-1.2,2.5-1.4c0.2-0.8,0.7-1.6,1.4-2.5C150.3,145.3,155.6,147.5,155.7,151.6z M163.7,142.5
			c0.9,9.6-14.7,4.5-8.6-2.6C157.8,136.7,163.2,138.2,163.7,142.5z M162.2,130.8c2.4-3.4,8-2.2,8.8,1.9
			C172.7,142.2,156.7,138.7,162.2,130.8z M177.4,122.6c2.4,9.4-13.9,6.6-8.9-1.3C170.8,117.7,176.4,118.5,177.4,122.6z M176.2,117.8
			c-5.5-3.1-1.4-11.3,4.5-8.6C186.5,111.9,182,121,176.2,117.8z M188,100.8c4,9-12.8,8.8-8.9,0.1C180.6,97.1,186.3,96.9,188,100.8z
			 M192.1,93.7c-1.6,3.2-6.7,4.4-8.8,0c-0.8-1.6-0.7-3.1-0.1-4.3c0.5-1.2,1.6-2.2,3.4-2.6C191.4,85.7,193.6,90.5,192.1,93.7z
			 M195,86c-4.1,1.1-7.5-3.4-5.5-7C193.8,70.6,204.5,83.5,195,86z M197,75.1c-5.7-2.9-1.9-11.2,3.9-8.9C207,68.7,202.8,78,197,75.1z
			 M205.4,64.1c-3.9,1.7-8-2.1-6.6-6.1C201.8,49.1,214.3,60.1,205.4,64.1z M209.2,52.7c-3.7,2-8.1-1.7-7-5.6
			C205,37.9,217.7,48.2,209.2,52.7z M212.3,40.9c-3.6,2.4-8.2-0.9-7.4-5.1C206.6,26.6,220.4,35.7,212.3,40.9z M214.4,29.1
			c-3.3,2.4-8.2-0.3-7.7-4.6c0.2-1.2,0.6-2,1.1-2.7c-0.4-0.7-0.5-1.7-0.5-2.9c0.3-4.3,5.7-6,8.5-3c2.4,2.7,1.7,5.2,0,6.6
			C217.1,24.4,217.3,26.9,214.4,29.1z"/>
		<path class="st9" d="M114.1,0h-1.5c0.4,3.9,0.4,8.1,0,12.5c-1.5,15.4-7.5,27.2-16,35.5C95.4,59.8,90,71.8,79,82.6
			c-11,10.8-23.2,16-35.1,16.9c-8.5,8.3-20.4,14.1-35.8,15.3C5.3,115,2.6,115,0,114.9v1.5c2.7,0.1,5.5,0.1,8.2-0.1
			c13.4-1,26.5-6.1,36.5-15C58,99.6,70.4,93.1,80,83.7c9.6-9.4,16.4-21.7,18.3-35c9.1-9.8,14.5-22.8,15.8-36.1
			C114.5,8.4,114.5,4.2,114.1,0z"/>
		<path class="st9" d="M107.1,0h-1.5c1.6,3.9,2.1,8,1.8,12c-0.6,6-3.3,11.8-8,16.2c0.2-6.1-1.6-12.3-5.7-17.5
			c3.4-3,5.9-6.6,7.5-10.6h-0.9c-1.1,2.9-3.5,6.1-7.5,9.6C83.4-1.4,81.5,5.4,82.6,0h-2c0.1,0.5,0.2,1,0.4,1.7
			c-1.4-0.5-2.8-0.8-4.3-1c0.2-0.2,0.5-0.4,0.7-0.6h-2.5c-3,1.3-5.5-1.2-14.3,3.2c0.7-0.9,1.3-2,1.9-3.2h-1.4
			c-1.1,1.9-2.5,3.6-4.2,5.2c0.3-1.8,0.8-3.5,1.5-5.2H55c0.3,1.6,0.4,3.3,0.4,5c-1.1-1.6-2-3.3-2.8-5h-1.5c0.3,0.7,0.7,1.5,1.1,2.4
			c-1.1-0.8-2.5-1.6-4.1-2.4h-2.6c3.2,1.3,6.2,3.3,8.8,6c-4.8-0.8-9-3-12.5-6h-2.1c3.2,3.5,5.8,5.3,7.6,6.1c0,0,0,0,0,0c0,0,0,0,0,0
			c-2.2,0.5-5.7,2.1-10.5,6c-6.6-0.7-6.7-1.3-6.1-7.6c0.2-2,0.4-3.4,0.7-4.4h-1.2c-0.4,1.4-0.7,2.8-0.8,4.3
			c-0.2,1.9-0.2,3.9,0.1,5.8C23,7.4,20.8,5.2,21,3.5c0.1-1.2,1.4-2.4,4.4-3.5h-3.1c-1,0.7-2,1.5-3.1,2.4c-0.6-0.8-1.2-1.6-1.7-2.4
			H16c0.6,1.1,1.3,2.2,2.1,3.2c-1.7,1.5-3.2,3.2-4.5,5c-0.6,2.1-1,4.4-1.1,6.7c-2.3,0-4.5,0.3-6.7,0.9c-1.9,1.2-3.6,2.7-5.1,4.4
			C0.6,20,0.3,19.9,0,19.7v3.7C0.3,23.2,0.7,23,1,23c1.8-0.2,3.9,2.1,6.5,8.5c-1.9-0.3-3.9-0.3-5.8-0.2c-0.6,0-1.1,0.1-1.7,0.2v1.3
			c0.5-0.1,1.1-0.1,1.8-0.2c6.3-0.5,6.9-0.4,7.5,6.2c-4,4.8-5.6,8.2-6.2,10.4c0,0,0,0,0,0c0,0,0,0,0,0c-0.5-1.2-1.5-2.8-3.1-4.7v3.3
			c1.4,2.5,2.4,5.4,2.8,8.4c-1.1-1-2-2.2-2.8-3.3v3.3c0.6,0.4,1.2,0.8,1.8,1.2c-0.6,0-1.2,0-1.8-0.1v2c0.6-0.1,1.3-0.3,1.9-0.4
			c-0.6,0.6-1.3,1.2-1.9,1.8v4.8c0.8-1.9,1.8-3.8,3.1-5.6c0,4.4-1.1,8.6-3.1,12.3V75c2.7-3.6,4-6.3,4.4-8.2c0.9,2.1,3,5.2,7.7,9.3
			c0.5,6.6-0.1,6.8-6.4,7.3c-3,0.2-4.7,0.3-5.7-0.3v1.5C2,85,3.9,85,5.8,84.9c1.9-0.1,3.8-0.5,5.7-1.1c-1.4,5.8-3,9.2-5.1,9.4
			c-2,0.1-4.2-2.9-6.4-8.5v3.8c0.9,1.6,2.5,3.7,5.6,6.5c-2,2.2-3.8,3.8-5.6,5.1v1.1c2.4-1.4,4.7-3.1,6.7-5.3
			c5.1,4.1,11.2,6.1,17.4,6c-4.5,4.6-10.3,7.2-16.3,7.7c-2.6,0.2-5.2,0-7.7-0.6v1.4c2.6,0.6,5.2,0.8,7.8,0.6
			c6.8-0.5,13.3-3.6,18.1-9.1c6.2-0.5,11.6-3.1,15.9-7c5.7-0.6,11.2-3.1,15.7-7.3c7.3,0,14-2.9,18.8-7.6c4.8-4.7,7.9-11.3,8-18.6
			c4.4-4.4,6.9-9.8,7.7-15.5c4-4.1,6.6-9.6,7.3-15.7c5.6-4.7,8.8-11.2,9.5-17.9C109.2,8,108.6,3.9,107.1,0z M82.7,9.5
			c0.2-1.9,0.2-3.8-0.1-5.8c5.5,2.3,8.5,4.6,8.4,6.6c-0.2,2-3.6,3.7-9.5,4.9C82.1,13.3,82.5,11.4,82.7,9.5z M75.3,1.8
			c6.6,0.7,6.7,1.3,6.1,7.6c-0.6,6.3-0.8,6.9-7.4,6.3c-4-4.8-7.1-7-9.2-7.9C66.9,7.3,70.4,5.7,75.3,1.8z M47.3,60.3
			c0-6.2-1-9.9-2-12c2,1,5.7,2.1,11.9,2.2c4.6,4.8,4.3,5.3-0.2,9.7C52.5,64.7,52,65,47.3,60.3z M50.7,64.8c-5.6,2.8-3.8,1.6-3.5-2.7
			C48.3,63,49.5,64,50.7,64.8z M28.3,65.2c-0.2,0.6-0.6,1.5-1.1,2.8c-0.9-1.2-1.9-2.2-2.9-3.3c1.7-0.2,2.8-0.6,3.5-0.7
			c0.5-0.4,1.6-1.1,2.9-2.2c0.1,1.5,0.2,2.9,0.5,4.3C29.9,65.8,28.9,65.5,28.3,65.2z M19.9,79.5c3.1-2.4,5.7-5.4,7.5-8.8
			C33.5,80.5,32.3,84.8,19.9,79.5z M30.6,60.1c-1.4,1.4-2.5,2.3-3.3,2.8c-1,0.3-2.4,0.5-4.3,0.7c-4.8-4-8.2-5.6-10.4-6.2
			c2-0.8,5-2.9,8.9-7.3c5.9-0.1,9.4-1,11.4-1.9C31.8,50.2,30.8,53.8,30.6,60.1z M38.4,43.9c-0.5,5.6-2.8,10.7-6.3,14.7
			C32.5,53.1,34.7,48,38.4,43.9z M22.6,34.9c5.3,0.4,10.5,2.5,14.7,6.3C31.7,40.8,26.6,38.5,22.6,34.9z M32.4,25.3
			c3.4,4.1,5.6,9.2,6,14.8C34.8,35.8,32.8,30.6,32.4,25.3z M33,35.7C33,35.7,33,35.7,33,35.7C33,35.7,33,35.7,33,35.7
			c-2-1-5.7-2.1-11.9-2.2c-4.6-4.8-4.3-5.3,0.2-9.7c4.5-4.4,5-4.7,9.7,0C31,30,32,33.7,33,35.7z M19.3,33.5
			c-1.5,0.1-2.9,0.2-4.4,0.5C16.9,28.1,16.4,30.2,19.3,33.5z M33.2,41.9c-9.2,2-9.9,5.3-12.6,6.3C18,49.6,15.1,48,7.6,53.6
			c2.8-5.3,3.1-17,7.2-18.2C18.4,33.1,27.4,40.6,33.2,41.9z M37.3,42.8c-4.3,3.7-9.5,5.6-14.9,6C26.6,45.2,31.8,43.1,37.3,42.8z
			 M19.8,49.9c-3.8,3.8-8.7,6.4-14.3,7.3C9.4,53.3,14.4,50.7,19.8,49.9z M20.9,63.7c-5.3,0-10.7-1.6-15.2-5
			C11.2,58.7,16.4,60.4,20.9,63.7z M33.1,68.1c3.8,0.9,7.8,0.9,11.6,0.1C40.5,81.1,36.4,79.2,33.1,68.1z M37.8,79
			c-0.8,0.7-1.6,1.4-2.3,2c-1,0.2-2,0.3-3,0.4c-0.4-4.1-0.8-7.3-1.2-9.8C32.9,73.5,35,76,37.8,79z M39.1,47.9
			c2.9,13.4,8.6,8.7,6,18.9C21.2,72.5,37,56.6,39.1,47.9z M39.9,43.9c3.6,4.3,5.6,9.5,6,14.9C42.4,54.7,40.3,49.5,39.9,43.9z
			 M65.4,36.5c11,3.6,12.8,7.7-0.1,11.6C66.2,44.3,66.2,40.3,65.4,36.5z M62.2,27.6c1,1.1,2.1,2.1,3.2,3c-1.3,0.5-2.2,0.9-2.8,1.1
			c0.2,0.6,0.5,1.5,1,2.9c-1.4-0.3-2.9-0.5-4.3-0.6c1.1-1.2,1.8-2.3,2.2-2.8C61.5,30.4,62,29.3,62.2,27.6z M59.7,11.5
			c10.8,8.4,12.2,1.1,16.7,10.6C61.8,41.8,63.7,19.5,59.7,11.5z M63.8,48.5c-10.2,2.4-5.4-3.2-18.7-6.4C53.8,40.2,70,24.7,63.8,48.5
			z M61.7,54c-0.8-1.3-1.7-2.4-2.6-3.5C63.4,50.3,64.6,48.5,61.7,54z M55.7,49.1c-5.3-0.4-10.5-2.5-14.7-6.3
			C46.6,43.3,51.7,45.6,55.7,49.1z M41,41.3c4.2-3.6,9.4-5.6,14.9-6C51.8,38.7,46.7,40.9,41,41.3z M39.9,40.2
			c0.4-5.5,2.6-10.6,6.3-14.7C45.8,30.7,43.7,35.9,39.9,40.2z M58,61.2c1.3-1.3,2.6-2.8,3.7-4.5c2.7,5.3,3.6,9,2.1,10.5
			c-1.5,1.4-5.1,0.5-10.4-2.4C55.1,63.7,56.6,62.5,58,61.2z M76.1,43.3c9.5,10.2,10.5,24.1-10.4,24.4C65.4,47,53.8,64.1,76.1,43.3z
			 M68.9,34.7c2.5,0.4,5.6,0.9,9.8,1.4c-0.1,1.1-0.3,2.1-0.5,3c-0.6,0.7-1.3,1.5-2.1,2.3C73.2,38.5,70.8,36.4,68.9,34.7z M68.1,30.9
			c3.5-1.8,6.5-4.3,9-7.4C82.1,36,77.8,37.2,68.1,30.9z M75,17.1c1.5,0.1,2.9,0,4.4-0.2C77,22.7,77.6,20.6,75,17.1z M73.2,1.7
			c-4.4,3.1-9.7,4.8-15.3,4.7C62.5,3.1,67.9,1.6,73.2,1.7z M71.9,15.4c-5.3-0.9-10.2-3.4-14.1-7.5C63.3,8.8,68.2,11.6,71.9,15.4z
			 M61.2,24.2c-3.2-4.5-4.8-9.8-4.7-15.3C59.8,13.5,61.3,18.8,61.2,24.2z M61.1,26.3c-0.2,2-0.4,3.3-0.8,4.3
			c-0.5,0.9-1.5,1.9-2.9,3.3c-6.3,0-9.9,1-12,2c1-1.9,2-5.4,2.2-11.3c4.5-3.8,6.6-6.8,7.5-8.8C55.6,17.9,57.1,21.4,61.1,26.3z
			 M55,8.7c-1,5.6-3.7,10.5-7.6,14.1C48.4,17.4,51,12.5,55,8.7z M54,7.5c-4.6,3.3-10,4.8-15.3,4.7C43.1,9.1,48.4,7.4,54,7.5z
			 M51.4,10.7c-5.8,7.4-4.2,10.4-5.6,13c-1.1,2.7-4.5,3.3-6.6,12.5c-1.3-5.9-8.6-15-6.2-18.6C34.3,13.4,46,13.4,51.4,10.7z
			 M35.3,13.2c-1.1,1-2.1,2.1-3,3.2C30,10.6,31,12.5,35.3,13.2z M31.7,17.6c-0.3,1.4-0.5,2.9-0.6,4.4C27.9,19,25.7,19.4,31.7,17.6z
			 M14.8,8.8c1.2-1.6,2.6-3.1,4.3-4.5c6,6.9,9.3,10.2,11,11.8c-2.3-0.2-6.9-0.8-16.1-1.2C14,12.8,14.3,10.7,14.8,8.8z M14.5,16.9
			c1.2-1.2,4.3-0.9,10.4,2.3c-1.7,1-3.2,2.2-4.6,3.6c-1.4,1.4-2.6,2.9-3.7,4.5C13.6,21.2,13.3,18.1,14.5,16.9z M13.7,34.6
			c-1.2,0.9-2.3,1.9-3.3,2.9C9.9,33.2,7.9,32.2,13.7,34.6z M1.8,21.1c1.4-1.6,3-3,4.6-4.2c1.9-0.4,4-0.7,6.2-0.7
			c0.1,9.2,0.6,13.8,0.8,16.1C11.8,30.7,8.7,27.3,1.8,21.1z M4.4,56.2c0-5.6,1.8-10.9,5-15.2C9.3,46.3,7.7,51.6,4.4,56.2z M4.6,59.9
			c4,4,6.4,9,7.2,14.3C8.1,70.4,5.5,65.5,4.6,59.9z M8.2,61.9c7.9,4.2,30.2,2.7,10.3,16.9C9.1,74.2,16.4,72.9,8.2,61.9z M13.3,81.8
			c0.2-1.5,0.3-2.9,0.2-4.4C16.9,80,19.1,79.4,13.3,81.8z M7.5,94.9c13.1-16.1-6.8-10.5,23.7-12C31.9,96.8,23.8,108.1,7.5,94.9z
			 M41.2,93.6c-3.7,3.5-8.6,6-14.1,6.7c3.7-4.9,5.7-11,5.4-17.6c1.2-0.1,2.3-0.3,3.5-0.6c0.9-0.7,1.9-1.4,2.7-2.2
			c4.7,4.6,10.7,7.1,16.8,7.5C51.4,91.1,46.3,93.1,41.2,93.6z M39.7,79c21.2-21.9,3.9-10.7,24.6-9.9C63.6,90,49.8,88.7,39.7,79z
			 M75.3,78.9c-4.3,4.2-10.1,6.9-16.5,7.2c4.1-4.5,6.7-10.5,6.9-17c6.6-0.1,12.5-2.5,17.2-6.5C82.4,69,79.6,74.7,75.3,78.9z
			 M90.7,45.1c-0.6,5.1-2.7,10.1-6.4,14.2c-0.3-6.1-2.7-12.1-7.2-16.9c0.8-0.9,1.6-1.8,2.3-2.7c0.3-1.1,0.5-2.3,0.7-3.5
			c6.5,0.5,12.7-1.4,17.7-5C96.9,36.7,94.3,41.5,90.7,45.1z M80.2,34.9c2.2-30.4-3.9-10.7,12.5-23.4C105.6,28,94.1,35.9,80.2,34.9z"
			/>
		<path class="st9" d="M326.6,31.6c-7.2-4.1-16.4-18.3-27.9-31.6h-5.4c11.7,12.7,21.3,27.3,28.2,32.9c-20.1,10.8-68.5,75-102.2,19
			c4-14.6-0.3-4.5,4.1,1c3.2,4,14.4,4.7,10-13c17.2,30.2,39.2,12,7.7-9.3c10.7,4.2,29.6,10.3,33.1-0.7c8.4,13.9,18.5,14.2,28.1,2.6
			c0.3,2.6,1.9,4.6,4.2,4.9c4.8,0.6,6-2.3,5.4-5.4c1.2-2.9,0.5-5.9-4.3-6.3c-2.3-0.2-4.3,1.5-5,4c-7.2-13.3-17.2-15-28.1-2.9
			c-1.3-11.5-21-9.2-32.3-7.1c16.1-6.8,21-15.1,19.3-19.6h-3.1c1.2,1.9,1.1,4.8,0.7,5.6c-3.8,7.8-23.4,14.7-30.8,16.8
			c10.3-13.2,17.3-19.7,22-22.4h-3.7c-3.1,2-6.6,4.9-10.1,9c1.7-3.7,2.5-6.7,2.6-9h-1.8c-0.5,6.6-7.5,17.3-10.8,21.5
			C226.2,10.6,227.1,4,228.3,0h-2.5c-0.7,2.4-0.4,3.6-0.6,0h-5.2c0.5,7.5,0.6,15.2,0.1,23c-3.5,27.5-14,52.1-25.9,71.7
			c-7.8,21.6-20.4,45.2-39.6,65.2c-20.4,18.8-44.2,30.9-66,38.3c-19.9,11.5-44.7,21.5-72.2,24.4c-5.5,0.3-11,0.2-16.4-0.1v6.5
			c3.8-0.4,8.6-0.5,14.7-0.2c-2.9,2.2-9.1,6.2-14.7,8.5v2.1c0.7-0.3,1.3-0.5,2-0.8c-0.7,0.6-1.4,1.2-2,1.8v3.4
			c3.7-3.6,8.8-7.9,15.7-13c-2,6.8-8.4,24-15.7,29.4v1.7c4-2.7,8.5-8.1,12.6-17.2c-2.3,11.3-5,30.9,6.5,32.5
			c-12.3,10.7-10.8,20.7,2.3,28.2c-2.5,0.7-4.2,2.7-4.1,5c0.3,4.8,3.3,5.5,6.2,4.4c3.1,0.6,5.9-0.5,5.5-5.3c-0.2-2.3-2.3-4-4.8-4.3
			c11.8-9.4,11.7-19.5-2-28.2c11.1-3.3,5.4-22.2,1.4-33.1c20.6,31.9,39.3,10.3,9.5-7.5c17.6,4.7,17.1-6.5,13.2-9.8
			c-5.4-4.5-15.6-0.4-0.9-4.1c55.4,34.8-9.9,81.9-21.1,101.8c-4.3-5.5-14.2-12.8-24.2-21.5v5.2c10.2,8.5,19.6,15.6,22.8,21.4
			c1.4,2.5,1.8,3.8,2.2,3.8c0.3-0.1,0.6-1.4,1.5-4.1c5.8-16.2,52.4-47.8,43.7-82.2c8.9,19.5,32.9,25.5,53.8,29.2
			c10.9-18.1,22.2-40.2,13.4-59.7c20.2,29.2,74.7,14.9,90.6,21.2c2.7,1.1,3.8,1.7,4.1,1.6c0.2-0.3-0.5-1.5-1.5-4.1
			c-6-16.1,9.5-70.3-19.3-91.1c19.3,9.2,41.6-1.6,60-12.2c-3.3-20.9-8.8-45-28.1-54.4c34.2,9.4,66.8-36.6,83.1-42
			c2.7-0.9,4.1-1.1,4.1-1.5C330.4,33.5,329.1,33,326.6,31.6z M301.1,30.9C301.1,30.9,301.1,30.9,301.1,30.9
			C301.1,31,301.1,31,301.1,30.9c0.4,0.5-13.5,18.7-25.8-2.5C291.5,10,301.6,30.6,301.1,30.9z M272.6,28.1
			c-2.3,13.2-29.2,1.6-42-4.1C244.3,20.9,272.9,14.8,272.6,28.1z M255.1,47.6c0.7,2.8-4.6,22-27-22.5
			C234.9,28.6,252.9,39.2,255.1,47.6z M226,25.7c2.7,5.2,8.3,19.3,6,25.1C231,53.3,218.2,61.2,226,25.7z M22.7,303.6
			C22.7,303.6,22.7,303.6,22.7,303.6C22.6,303.6,22.6,303.6,22.7,303.6c-0.4,0.5-20.8-10-2-25.8C41.6,290.6,23.1,304.1,22.7,303.6z
			 M20.5,275.2c-13.4,0-6.6-28.5-3.2-42C22.7,246,33.7,273.1,20.5,275.2z M40.3,258c-8.4-2.3-18.6-20.5-21.9-27.5
			C62.4,253.9,43.1,258.7,40.3,258z M44,235c-5.8,2.2-19.8-3.7-24.9-6.5C54.6,221.5,46.5,234.1,44,235z M68,240.5
			c-3.3-7.2-9.1-13.8-17.4-19.6C85.5,210.9,60,208.6,68,240.5z M217.8,57.1c5.6,8.4,12.1,14.4,19.2,17.8
			C205.3,66.3,207.1,91.8,217.8,57.1z M200.5,97.7c15.3-24.3,27.6-10.6,4.8,2.3C209.5,125.8,191.1,124.8,200.5,97.7z M205.7,140.5
			c-7.2-3.4-15.8-4.7-25.9-3.8C200.1,106.6,179.1,121.2,205.7,140.5z M183.7,151.7c-3.1,5.4-17.6,9.9-23.3,11.1
			C183.2,134.4,185,149.3,183.7,151.7z M191.5,197.5c-10.2,8.6-23.4-17.5-29.5-30.1C174.5,173.8,200.3,187.5,191.5,197.5z
			 M193.4,199.5c24.2-3.7,18.7,18.5,18.1,18.5c0,0,0,0,0,0c0,0,0,0,0,0C211.5,218.6,189.2,223.6,193.4,199.5z M165.5,201.2
			c-1.2,2.6-17.6,13.9-6.2-34.6C162.3,173.7,169.3,193.3,165.5,201.2z M161.2,164.7c48.7-10.4,37,5.8,34.4,7
			C187.7,175.2,168.2,167.9,161.2,164.7z M157.3,165.8c-1.3,5.7-6.1,20.1-11.5,23C143.4,190.1,128.6,187.9,157.3,165.8z
			 M130.9,184.5c-1.1,10.1,0,18.8,3.2,26C115.4,183.5,100.4,204.2,130.9,184.5z M91.5,204.4c27.3-8.8,27.9,9.6,2.2,4.9
			C80.4,231.8,66.9,219.2,91.5,204.4z M95.2,212.7c29.2,11.4,23.8,26.8,6.7,14.7C99.7,248.2,84.6,242.1,95.2,212.7z M133.5,247.1
			c-2.5,8.2-7,16.5-11.6,24.3c-9-1.6-18.2-3.8-26-7.3c-31.3-12.7-30.1-47.6-15.6-55c-11.4,9.7-1.1,23.2,11.3,6.5
			c-10.5,28,7.3,34.4,11.5,14.5c17.7,9.9,24.6-7.7-3.4-18.2c20.8,1.7,17.4-15,2.6-12.8C117.6,193.1,144.6,215.3,133.5,247.1z
			 M225.9,232.6c-22.3-4.7-100.7,13.5-90.5-51.1c12.5-8.6,2.7-3.6,2.5,3.4c-0.1,5.1,8,12.9,16-3.5c-6.2,34.1,22.3,34.4,11.9-2.2
			c5.5,10.1,16,26.9,25.8,20.7c-2.5,16,5,22.8,19.9,20.1c-1.4,2.1-1.5,4.8,0,6.4c3.3,3.5,6.1,2.1,7.6-0.6c2.8-1.5,4.2-4.2,0.8-7.6
			c-1.6-1.6-4.3-1.6-6.4-0.2c3-14.8-3.6-22.5-19.7-20.3c6.4-9.7-10.2-20.5-20.2-26.2c36.3,11.2,36.7-17.4,2.5-11.8
			c16.5-7.7,8.9-15.9,3.8-15.9c-7,0-12.2,9.7-3.3-2.6C241.4,132.2,221.6,210.2,225.9,232.6z M260.1,103.4c3.3,7.9,5.3,17.1,6.7,26.1
			c-7.9,4.5-16.3,8.8-24.5,11.1c-32.1,10.4-53.7-17.1-47.3-32.1c-2.5,14.8,14.1,18.5,12.8-2.3c9.9,28.2,27.7,21.6,18.1,3.7
			c19.9-3.8,13.9-21.7-14.3-11.8c17-12,3.7-22.7-6.2-11.4C213.2,72.3,248.1,71.9,260.1,103.4z M208.6,101.6c29.7-10,35.4,5.2,14.6,7
			C234.9,126,219.4,131,208.6,101.6z"/>
	</g>
</g>
</svg>
