<?xml version="1.0" encoding="utf-8"?>
<!-- Generator: Adobe Illustrator 22.0.1, SVG Export Plug-In . SVG Version: 6.00 Build 0)  -->
<svg version="1.1" id="Layer_1" xmlns="http://www.w3.org/2000/svg" xmlns:xlink="http://www.w3.org/1999/xlink" x="0px" y="0px"
	 viewBox="0 0 40.4 38.5" style="enable-background:new 0 0 40.4 38.5;" xml:space="preserve">
<style type="text/css">
	.st0{fill:#F7F8F9;}
	.st1{fill:#E1BB31;}
	.st2{fill:#FFFFFA;}
	.st3{fill:#FFFFFF;}
	.st4{fill-rule:evenodd;clip-rule:evenodd;fill:#FFFFFF;}
</style>
<g>
	<g>
		<path class="st1" d="M19.8,31.3c-7,0-12.7-5.7-12.7-12.7c0-7,5.7-12.7,12.7-12.7s12.7,5.7,12.7,12.7
			C32.5,25.6,26.8,31.3,19.8,31.3z"/>
	</g>
	<g>
		<g>
			<path class="st3" d="M27.4,16.7c0-1.8-1.5-3.3-3.3-3.3h-8.4c-1.8,0-3.3,1.5-3.3,3.3v4c0,1.8,1.5,3.3,3.3,3.3h8.4
				c1.8,0,3.3-1.5,3.3-3.3V16.7z M22.1,18.9l-3.4,1.8c-0.1,0.1-0.3,0-0.3-0.2v-3.8c0-0.2,0.1-0.3,0.3-0.2l3.4,1.9
				C22.3,18.6,22.2,18.8,22.1,18.9z"/>
		</g>
	</g>
</g>
</svg>
