<svg xmlns="http://www.w3.org/2000/svg" width="123.865" height="101.673" viewBox="0 0 123.865 101.673">
  <g id="Group_55" data-name="Group 55" transform="translate(-1433.644 -1667.337)">
    <g id="Group_8" data-name="Group 8" transform="translate(1433.644 1667.337)">
      <g id="Group_7" data-name="Group 7" transform="translate(0)">
        <path id="Path_16" data-name="Path 16" d="M486.3,1526.33c4.812-3.965,9.426-8.03,14.318-11.727,5.124-3.871,10.852-6.584,17.431-6.837,11.445-.44,20.994,3.052,26.763,13.657,6.059,11.139,2.686,25.087-7.425,31.317-5.356,3.3-11.159,3.911-17.236,2.77-.242-.046-.485-.089-.73-.118-.044-.005-.1.059-.588.381.569.381.956.833,1.411.917,15.488,2.849,26.607-6.55,29.165-18.665,3.409-16.143-7.065-31.14-23.436-33.9-12.279-2.068-22.5,2.006-31.483,10.017-2.36,2.1-4.4,4.563-6.74,6.7C485.983,1522.455,485.865,1524.3,486.3,1526.33Z" transform="translate(-457.583 -1503.593)" fill="#8e3ecf"/>
        <path id="Path_17" data-name="Path 17" d="M510.453,1587.123c-.72,2.209-.707,3.923.907,5.744,8.681,9.793,8.556,29.644-9.033,38.256-3.13,1.533-6.581,2.411-10.219,3.711-.026.48-.079,1.444-.131,2.4,7.185.987,22.4-5.317,27.139-17.408C523.7,1608.128,521.068,1594.974,510.453,1587.123Z" transform="translate(-461.274 -1555.954)" fill="#8e3ecf"/>
        <path id="Path_18" data-name="Path 18" d="M480.24,1609.209c.194-4.462.433-8.922.573-13.386q.915-29.265,1.756-58.533c.012-.423-.386-.858-.593-1.288a3.883,3.883,0,0,0-.705,1.208c-.139.916-.011,1.876-.188,2.781-.086.44-.613.794-.94,1.187a14.988,14.988,0,0,1-1.024-1.316c-.114-.18-.031-.486-.035-.735q-.225-12.214-.45-24.428c-.006-.311-.129-.71.016-.916a22.38,22.38,0,0,1,1.491-1.749c.507.591,1.412,1.159,1.449,1.778.135,2.289-.019,4.6-.059,6.9-.01.615,0,1.231,0,1.846l.487.231a8.9,8.9,0,0,0,1.063-2.531c.189-2.225.154-4.471.173-6.709.019-2.268-1.123-3.61-3.056-3.659-2-.05-3.339,1.379-3.278,3.664q.374,14.169.812,28.336.662,21.9,1.354,43.805c.251,7.826.554,15.652.833,23.477Z" transform="translate(-451.831 -1507.537)" fill="#8e3ecf"/>
        <path id="Path_19" data-name="Path 19" d="M539.625,1581.314a13.156,13.156,0,0,0-1.544-1.974c-7.98-7-7.23-20.272,1.486-25.806,6.256-3.972,14.492-2.774,18.629,2.785,2.16,2.9,3,6.151,1.692,9.657-1.267,3.385-3.689,5.208-7.495,4.861,4.347,1.45,8.159-2.5,8.862-6.568,1.151-6.666-3.548-13.177-10.674-14.794a16.481,16.481,0,0,0-19.945,15.21c-.5,7.325,2.249,13.02,8.351,17.042Z" transform="translate(-485.471 -1532.102)" fill="#8e3ecf"/>
        <path id="Path_20" data-name="Path 20" d="M433.735,1563.751c-1.3,1.529-2.309,2.838-3.451,4.015a55.957,55.957,0,0,1-5.358,5.147,10.865,10.865,0,0,1-8.627,2.119,6.8,6.8,0,0,1-5.805-7.619c.484-3.835,3.645-6.6,7.07-6.193,3.122.375,5.029,3.09,3.676,5.456a10.564,10.564,0,0,1-2.372,2.225,3.481,3.481,0,0,0,3.235-2.332,4,4,0,0,0-.559-4.214,6.286,6.286,0,0,0-9-.664,7.945,7.945,0,0,0,5.234,14.081c4.241.213,7.714-1.557,10.829-4.223a33.929,33.929,0,0,1,3.806-3.282C434.16,1567.179,434.037,1565.779,433.735,1563.751Z" transform="translate(-409.695 -1539.023)" fill="#8e3ecf"/>
        <path id="Path_21" data-name="Path 21" d="M447.127,1695.42v-2.636c-8.064-1.365-15.139-4.195-18.708-12.43C428.75,1686.982,437.759,1694.487,447.127,1695.42Z" transform="translate(-421.432 -1614.397)" fill="#8e3ecf"/>
        <path id="Path_22" data-name="Path 22" d="M486.607,1572.87a23.912,23.912,0,0,1,14.633,3.937c1.35-2.7,1.288-2.892-1.356-3.9a22.069,22.069,0,0,0-12.221-1.4,5.521,5.521,0,0,0-1.38.707Z" transform="translate(-457.705 -1545.949)" fill="#8e3ecf"/>
      </g>
      <text id="arzi" transform="translate(58.866 78.098)" fill="#8e3ecf" font-size="40" font-family="HurmeGeometricSans1-Regular, 'Hurme Geometric Sans 1'"><tspan x="0" y="0">arzi</tspan></text>
    </g>
  </g>
</svg>
